<?xml version="1.0" encoding="iso-8859-1"?>
<!-- Generator: Adobe Illustrator 16.0.0, SVG Export Plug-In . SVG Version: 6.00 Build 0)  -->
<!DOCTYPE svg PUBLIC "-//W3C//DTD SVG 1.1//EN" "http://www.w3.org/Graphics/SVG/1.1/DTD/svg11.dtd">
<svg version="1.1" xmlns="http://www.w3.org/2000/svg" xmlns:xlink="http://www.w3.org/1999/xlink" x="0px" y="0px"
	 width="31.026px" height="27.335px" viewBox="0 0 31.026 27.335" style="enable-background:new 0 0 31.026 27.335;"
	 xml:space="preserve">
<g id="Layer_15">
	<g>
		
			<circle style="fill:none;stroke:#000000;stroke-width:1.5;stroke-linecap:round;stroke-miterlimit:10;" cx="11.361" cy="24.127" r="2.458"/>
		
			<circle style="fill:none;stroke:#000000;stroke-width:1.5;stroke-linecap:round;stroke-miterlimit:10;" cx="22.742" cy="24.127" r="2.458"/>
		<path style="fill:none;stroke:#000000;stroke-width:1.5;stroke-linecap:round;stroke-linejoin:round;stroke-miterlimit:10;" d="
			M9.258,4.682l20.166,3.04c0.815,0.288,1.054,1.039,0.681,1.817l-2.796,8.363c-0.438,0.76-0.467,1.194-1.371,1.327L6.774,20.303
			c-0.913-0.121-1.209-0.566-1.362-1.514c0,0-0.534-13.045-0.534-17.182c0-0.296-0.304-0.562-0.494-0.587
			c-0.968-0.129-1.579-0.21-1.963-0.261C1.768,0.673,1.41,1.227,1.41,1.227l-0.66,1.02"/>
		
			<line style="fill:none;stroke:#000000;stroke-width:1.5;stroke-linecap:round;stroke-miterlimit:10;" x1="9.258" y1="9.534" x2="25.597" y2="11.756"/>
		
			<line style="fill:none;stroke:#000000;stroke-width:1.5;stroke-linecap:round;stroke-miterlimit:10;" x1="9.258" y1="13.911" x2="24.004" y2="15.99"/>
	</g>
</g>
<g id="Layer_1">
</g>
</svg>
