<?xml version="1.0" encoding="iso-8859-1"?>
<!-- Generator: Adobe Illustrator 16.0.0, SVG Export Plug-In . SVG Version: 6.00 Build 0)  -->
<!DOCTYPE svg PUBLIC "-//W3C//DTD SVG 1.1//EN" "http://www.w3.org/Graphics/SVG/1.1/DTD/svg11.dtd">
<svg version="1.1" xmlns="http://www.w3.org/2000/svg" xmlns:xlink="http://www.w3.org/1999/xlink" x="0px" y="0px"
	 width="35.302px" height="46.316px" viewBox="0 0 35.302 46.316" style="enable-background:new 0 0 35.302 46.316;"
	 xml:space="preserve">
<g id="Layer_1_1_">
	<g>
		<g>
			<path style="fill:none;stroke:#ffffff;stroke-width:1.5;stroke-miterlimit:10;" d="M18.209,19.133
				c-5.068,0-9.191-4.123-9.191-9.191s4.123-9.192,9.191-9.192s9.192,4.124,9.192,9.192S23.277,19.133,18.209,19.133z"/>
		</g>
		<g>
			<path style="fill:none;stroke:#ffffff;stroke-width:1.5;stroke-linecap:round;stroke-miterlimit:10;" d="M10.018,45.566
				c-4.27-2.191-7.829-6.548-8.827-10.567c-1.547-6.229,1.345-12.602,3.091-15.101c0.956-1.369,1.833-2.063,2.76-2.182
				c1.291-0.167,2.477,0.836,3.846,1.999c1.785,1.515,4.006,3.4,7.322,3.4c3.327,0,5.729-1.999,7.659-3.605
				c1.523-1.269,2.728-2.271,3.955-2.013c0.853,0.179,1.594,0.95,2.33,2.427c2.496,5.003,3.677,12.821,0.369,18.168
				c-2.582,4.175-7.397,6.291-14.313,6.291c-5.735,0-11.551-1.363-15.243-11.254"/>
		</g>
	</g>
</g>
<g id="Layer_1">
</g>
</svg>
