<?xml version="1.0" encoding="iso-8859-1"?>
<!-- Generator: Adobe Illustrator 21.0.0, SVG Export Plug-In . SVG Version: 6.00 Build 0)  -->
<svg version="1.1" xmlns="http://www.w3.org/2000/svg" xmlns:xlink="http://www.w3.org/1999/xlink" x="0px" y="0px"
	 viewBox="0 0 43.292 39.196" style="enable-background:new 0 0 43.292 39.196;" xml:space="preserve">
<g id="add_x5F_cart">
	
		<circle style="fill:none;stroke:#ffffff;stroke-width:1.5;stroke-linecap:round;stroke-miterlimit:10;" cx="11.361" cy="35.989" r="2.458"/>
	
		<circle style="fill:none;stroke:#ffffff;stroke-width:1.5;stroke-linecap:round;stroke-miterlimit:10;" cx="22.742" cy="35.989" r="2.458"/>
	<path style="fill:none;stroke:#ffffff;stroke-width:1.5;stroke-linecap:round;stroke-linejoin:round;stroke-miterlimit:10;" d="
		M9.258,16.543l20.166,3.04c0.816,0.287,1.054,1.039,0.681,1.816l-2.796,8.363c-0.438,0.76-0.467,1.195-1.371,1.328L6.774,32.163
		c-0.913-0.121-1.21-0.566-1.362-1.514c0,0-0.533-13.044-0.533-17.181c0-0.296-0.305-0.561-0.494-0.587
		c-0.969-0.129-1.578-0.21-1.963-0.261c-0.654-0.086-1.012,0.468-1.012,0.468l-0.66,1.019"/>
	
		<line style="fill:none;stroke:#ffffff;stroke-width:1.5;stroke-linecap:round;stroke-miterlimit:10;" x1="9.258" y1="21.395" x2="25.597" y2="23.618"/>
	
		<line style="fill:none;stroke:#ffffff;stroke-width:1.5;stroke-linecap:round;stroke-miterlimit:10;" x1="9.258" y1="25.772" x2="24.004" y2="27.852"/>
	<path style="fill:none;stroke:#ffffff;stroke-width:1.5;stroke-linecap:round;stroke-linejoin:round;stroke-miterlimit:10;" d="
		M17.428,12.611C4.583,0.515,30.276-3.11,37.083,5.39"/>
	
		<line style="fill:none;stroke:#ffffff;stroke-width:1.5;stroke-linecap:round;stroke-linejoin:round;stroke-miterlimit:10;" x1="17.428" y1="12.611" x2="11.36" y2="9.015"/>
	
		<line style="fill:none;stroke:#ffffff;stroke-width:1.5;stroke-linecap:round;stroke-linejoin:round;stroke-miterlimit:10;" x1="17.428" y1="12.611" x2="16.631" y2="6.741"/>
	<path style="fill:none;stroke:#ffffff;stroke-width:1.5;stroke-linecap:round;stroke-linejoin:round;stroke-miterlimit:10;" d="
		M26.985,15.053c6.003-16.591,19.53,5.552,14.431,15.173"/>
	
		<line style="fill:none;stroke:#ffffff;stroke-width:1.5;stroke-linecap:round;stroke-linejoin:round;stroke-miterlimit:10;" x1="26.985" y1="15.053" x2="27.877" y2="8.056"/>
	
		<line style="fill:none;stroke:#ffffff;stroke-width:1.5;stroke-linecap:round;stroke-linejoin:round;stroke-miterlimit:10;" x1="26.985" y1="15.053" x2="32.057" y2="11.991"/>
</g>
<g id="Warstwa_1">
</g>
</svg>
