<?xml version="1.0" encoding="iso-8859-1"?>
<!-- Generator: Adobe Illustrator 16.0.0, SVG Export Plug-In . SVG Version: 6.00 Build 0)  -->
<!DOCTYPE svg PUBLIC "-//W3C//DTD SVG 1.1//EN" "http://www.w3.org/Graphics/SVG/1.1/DTD/svg11.dtd">
<svg version="1.1" xmlns="http://www.w3.org/2000/svg" xmlns:xlink="http://www.w3.org/1999/xlink" x="0px" y="0px"
	 width="43.381px" height="49.126px" viewBox="0 0 43.381 49.126" style="enable-background:new 0 0 43.381 49.126;"
	 xml:space="preserve">
<g id="Layer_2">
	<path style="fill:none;stroke:#ffffff;stroke-width:1.5;stroke-linecap:round;stroke-linejoin:round;stroke-miterlimit:10;" d="
		M8.513,32.02c0,0-5.087-5.087-7.049-7.049c-0.841-0.842-0.759-1.88-0.64-2.563c0.146-0.847,0.763-1.262,1.189-1.466
		C12.459,15.927,32.021,5.466,41.113,0.977c0.471-0.232,0.869-0.368,1.242,0.004c0.519,0.521,0.208,0.719-0.137,1.896
		c-2.685,9.162-11.893,34.382-14.505,43.378c-0.229,0.785-0.558,1.8-1.528,2.054c-0.796,0.206-1.472-0.089-1.894-0.511
		c-1.28-1.281-3.774-3.772-5.197-5.196c-1.14-1.14-1.732-2.146-2.898-2.147c-1.021-0.002-1.623,0.714-1.994,1.1
		c-1.192,1.241-4.866,4.867-4.866,4.867L26.32,16.784L8.513,32.02z"/>
</g>
<g id="Layer_1">
</g>
</svg>
