<?xml version="1.0" encoding="iso-8859-1"?>
<!-- Generator: Adobe Illustrator 21.0.0, SVG Export Plug-In . SVG Version: 6.00 Build 0)  -->
<svg version="1.1" xmlns="http://www.w3.org/2000/svg" xmlns:xlink="http://www.w3.org/1999/xlink" x="0px" y="0px"
	 viewBox="0 0 31.75 41.834" style="enable-background:new 0 0 31.75 41.834;" xml:space="preserve">
<g id="booking-cash">
	<path style="fill:none;stroke:#000000;stroke-width:1.5;stroke-linecap:round;stroke-linejoin:round;stroke-miterlimit:10;" d="
		M17.123,7.909c-0.019-1.627,6.539-8.508,2.294-6.923C18.996,1.142,17,3.652,16.005,2.805C11.658-0.896,14.85,5.078,11.6,4.328
		s-1.258,2.694-0.72,3.477c0.535,0.78,2.944,1.541,2.856,2.483C13.423,13.592,0.75,20.554,0.75,28.819
		c0,9.234,6.772,12.266,15.125,12.266S31,39.311,31,30.059C31,21.4,17.208,15.61,17.123,7.909z"/>
	<path style="fill:none;stroke:#000000;stroke-width:1.5;stroke-linecap:round;stroke-linejoin:round;stroke-miterlimit:10;" d="
		M18.4,19.997c-2.085-0.605-7.015-0.083-6.885,2.437c0.168,3.271,5.249,3.39,7.141,5.146c0.717,0.664,1.097,1.729,0.9,2.7
		c-0.248,1.234-1.813,2.462-2.904,2.692c-1.149,0.242-2.981,0.118-4.077-0.371c-4.496-2.009-2.596-4.025-0.371-4.448"/>
	<path style="fill:none;stroke:#000000;stroke-width:1.5;stroke-linecap:round;stroke-linejoin:round;stroke-miterlimit:10;" d="
		M15.275,16.397c-0.856,3.094,0.663,6.268,0.423,10.538c-0.073,1.315,0,6.831-0.688,9.056"/>
	<path style="fill:none;stroke:#000000;stroke-width:1.5;stroke-linecap:round;stroke-linejoin:round;stroke-miterlimit:10;" d="
		M18.135,8.902c0.141,1.083-0.164,1.76-0.697,2.344c-0.392-0.792-0.628-1.996-0.931-2.951c-0.039,0.739-0.301,1.339-0.559,1.936
		c-0.062-0.193-0.416-0.613-0.489-0.877c-0.255,0.625-0.53,1.41-1.028,1.51c-0.09-0.517-0.321-0.934-0.492-1.257
		c-0.08,0.621-0.367,0.774-0.537,1.122c-0.072-0.233-0.238-0.434-0.309-0.67c-0.507,1.461-0.017,1.199-0.718,2.508"/>
</g>
<g id="Warstwa_1">
</g>
</svg>
