<?xml version="1.0" encoding="iso-8859-1"?>
<!-- Generator: Adobe Illustrator 21.0.0, SVG Export Plug-In . SVG Version: 6.00 Build 0)  -->
<svg version="1.1" xmlns="http://www.w3.org/2000/svg" xmlns:xlink="http://www.w3.org/1999/xlink" x="0px" y="0px"
	 viewBox="0 0 32.25 42.875" style="enable-background:new 0 0 32.25 42.875;" xml:space="preserve">
<g id="booking-calendar">
	<path style="fill:none;stroke:#CF4428;stroke-width:1.5;stroke-linecap:round;stroke-miterlimit:10;" d="M23.75,4.5h4.75
		c1.657,0,3,1.343,3,3v31.625c0,1.658-1.343,3-3,3H3.75c-1.656,0-3-1.342-3-3V7.5c0-1.657,1.344-3,3-3h4.999"/>
	
		<line style="fill:none;stroke:#CF4428;stroke-width:1.5;stroke-linecap:round;stroke-miterlimit:10;" x1="12.999" y1="4.5" x2="19.25" y2="4.5"/>
	<path style="fill:none;stroke:#CF4428;stroke-width:1.5;stroke-linecap:round;stroke-miterlimit:10;" d="M13,6
		c0,1.174-0.951,2.125-2.125,2.125l0,0C9.701,8.125,8.75,7.174,8.75,6V2.875c0-1.174,0.951-2.125,2.125-2.125l0,0
		C12.049,0.75,13,1.701,13,2.875V6z"/>
	<path style="fill:none;stroke:#CF4428;stroke-width:1.5;stroke-linecap:round;stroke-miterlimit:10;" d="M23.5,6
		c0,1.174-0.951,2.125-2.125,2.125l0,0c-1.174,0-2.125-0.951-2.125-2.125V2.875c0-1.174,0.951-2.125,2.125-2.125l0,0
		c1.174,0,2.125,0.951,2.125,2.125V6z"/>
	<path style="fill:none;stroke:#CF4428;stroke-width:1.5;stroke-linecap:round;stroke-linejoin:round;stroke-miterlimit:10;" d="
		M6.709,19.021c0,0-0.443-0.339,1.697-2.326c2.453-2.275,3.314-2.325,3.314-2.325v20.235"/>
	
		<line style="fill:none;stroke:#CF4428;stroke-width:1.5;stroke-linecap:round;stroke-miterlimit:10;" x1="15.002" y1="34.606" x2="8.439" y2="34.606"/>
	<path style="fill:none;stroke:#CF4428;stroke-width:1.5;stroke-linecap:round;stroke-linejoin:round;stroke-miterlimit:10;" d="
		M15.898,16.246c0,0-0.201-0.538,2.727-1.322c3.357-0.899,4.13-0.515,4.13-0.515l-0.916,20.24"/>
	
		<line style="fill:none;stroke:#CF4428;stroke-width:1.5;stroke-linecap:round;stroke-miterlimit:10;" x1="25.58" y1="23.684" x2="19.008" y2="23.684"/>
</g>
<g id="Warstwa_1">
</g>
</svg>
