<?xml version="1.0" encoding="iso-8859-1"?>
<!-- Generator: Adobe Illustrator 21.0.0, SVG Export Plug-In . SVG Version: 6.00 Build 0)  -->
<svg version="1.1" xmlns="http://www.w3.org/2000/svg" xmlns:xlink="http://www.w3.org/1999/xlink" x="0px" y="0px"
	 viewBox="0 0 34.5 40.417" style="enable-background:new 0 0 34.5 40.417;" xml:space="preserve">
<g id="booking-time">
	<path style="fill:none;stroke:#000000;stroke-width:1.5;stroke-linecap:round;stroke-linejoin:round;stroke-miterlimit:10;" d="
		M18.917,6.751V5.493c0.783-0.004,1.415-0.638,1.415-1.422V2.173c0-0.786-0.636-1.423-1.423-1.423h-3.318
		c-0.786,0-1.423,0.637-1.423,1.423v1.898c0,0.784,0.633,1.418,1.415,1.422v1.257C7.254,7.586,0.75,14.617,0.75,23.167
		c0,9.112,7.387,16.5,16.5,16.5c9.112,0,16.5-7.388,16.5-16.5C33.75,14.617,27.246,7.586,18.917,6.751z"/>
	
		<line style="fill:none;stroke:#000000;stroke-width:1.5;stroke-linecap:round;stroke-linejoin:round;stroke-miterlimit:10;" x1="17.25" y1="11.25" x2="17.25" y2="20.333"/>
	
		<line style="fill:none;stroke:#000000;stroke-width:1.5;stroke-linecap:round;stroke-linejoin:round;stroke-miterlimit:10;" x1="15.334" y1="25.23" x2="11.563" y2="29.292"/>
	
		<circle style="fill:none;stroke:#000000;stroke-width:1.5;stroke-linecap:round;stroke-linejoin:round;stroke-miterlimit:10;" cx="29.5" cy="23.167" r="1.125"/>
	
		<circle style="fill:none;stroke:#000000;stroke-width:1.5;stroke-linecap:round;stroke-linejoin:round;stroke-miterlimit:10;" cx="4.721" cy="23.166" r="1.125"/>
	
		<circle style="fill:none;stroke:#000000;stroke-width:1.5;stroke-linecap:round;stroke-linejoin:round;stroke-miterlimit:10;" cx="17.109" cy="35.555" r="1.125"/>
	
		<ellipse transform="matrix(0.7069 -0.7073 0.7073 0.7069 -20.1351 15.2637)" style="fill:none;stroke:#000000;stroke-width:1.5;stroke-linecap:round;stroke-linejoin:round;stroke-miterlimit:10;" cx="8.349" cy="31.926" rx="1.125" ry="1.125"/>
	
		<ellipse transform="matrix(0.7071 -0.7071 0.7071 0.7071 -2.6084 22.514)" style="fill:none;stroke:#000000;stroke-width:1.5;stroke-linecap:round;stroke-linejoin:round;stroke-miterlimit:10;" cx="25.871" cy="14.406" rx="1.125" ry="1.126"/>
	
		<ellipse transform="matrix(0.7069 -0.7073 0.7073 0.7069 -7.7412 10.1289)" style="fill:none;stroke:#000000;stroke-width:1.5;stroke-linecap:round;stroke-linejoin:round;stroke-miterlimit:10;" cx="8.351" cy="14.405" rx="1.125" ry="1.125"/>
	
		<ellipse transform="matrix(0.7071 -0.7071 0.7071 0.7071 -14.9976 27.6439)" style="fill:none;stroke:#000000;stroke-width:1.5;stroke-linecap:round;stroke-linejoin:round;stroke-miterlimit:10;" cx="25.872" cy="31.927" rx="1.126" ry="1.125"/>
	
		<circle style="fill:none;stroke:#000000;stroke-width:1.5;stroke-linecap:round;stroke-linejoin:round;stroke-miterlimit:10;" cx="17.25" cy="23.167" r="2.833"/>
</g>
<g id="Warstwa_1">
</g>
</svg>
