<?xml version="1.0" encoding="iso-8859-1"?>
<!-- Generator: Adobe Illustrator 16.0.0, SVG Export Plug-In . SVG Version: 6.00 Build 0)  -->
<!DOCTYPE svg PUBLIC "-//W3C//DTD SVG 1.1//EN" "http://www.w3.org/Graphics/SVG/1.1/DTD/svg11.dtd">
<svg version="1.1" xmlns="http://www.w3.org/2000/svg" xmlns:xlink="http://www.w3.org/1999/xlink" x="0px" y="0px" width="46.25px"
	 height="42.875px" viewBox="0 0 46.25 42.875" style="enable-background:new 0 0 46.25 42.875;" xml:space="preserve">
<g id="Layer_14">
	<g>
		<path style="fill:none;stroke:#ffffff;stroke-width:1.5;stroke-linecap:round;stroke-miterlimit:10;" d="M39.917,40.125l-36.167,2
			c-1.657,0-3-1.343-3-3V7.5c0-1.657,1.343-3,3-3h6.999"/>
		<path style="fill:none;stroke:#ffffff;stroke-width:1.5;stroke-linecap:round;stroke-miterlimit:10;" d="M35.75,4.5h6.75
			c1.657,0,3,1.343,3,3v31.625c0,1.657-1.343,3-3,3h-2.583"/>
		
			<line style="fill:none;stroke:#ffffff;stroke-width:1.5;stroke-linecap:round;stroke-miterlimit:10;" x1="14.999" y1="4.5" x2="31.25" y2="4.5"/>
		<path style="fill:none;stroke:#ffffff;stroke-width:1.5;stroke-linecap:round;stroke-miterlimit:10;" d="M15,6
			c0,1.174-0.951,2.125-2.125,2.125l0,0c-1.174,0-2.125-0.951-2.125-2.125V2.875c0-1.174,0.951-2.125,2.125-2.125l0,0
			C14.049,0.75,15,1.701,15,2.875V6z"/>
		<path style="fill:none;stroke:#ffffff;stroke-width:1.5;stroke-linecap:round;stroke-miterlimit:10;" d="M35.5,6
			c0,1.174-0.951,2.125-2.125,2.125l0,0c-1.174,0-2.125-0.951-2.125-2.125V2.875c0-1.174,0.951-2.125,2.125-2.125l0,0
			c1.174,0,2.125,0.951,2.125,2.125V6z"/>
		<path style="fill:none;stroke:#ffffff;stroke-width:1.5;stroke-linecap:round;stroke-miterlimit:10;" d="M14.278,17.083
			c0,0.87-0.705,1.575-1.575,1.575l0,0c-0.869,0-1.575-0.706-1.575-1.575l0,0c0-0.87,0.706-1.575,1.575-1.575l0,0
			C13.573,15.508,14.278,16.214,14.278,17.083L14.278,17.083z"/>
		<path style="fill:none;stroke:#ffffff;stroke-width:1.5;stroke-linecap:round;stroke-miterlimit:10;" d="M21.398,17.083
			c0,0.87-0.705,1.575-1.575,1.575l0,0c-0.869,0-1.574-0.706-1.574-1.575l0,0c0-0.87,0.705-1.575,1.574-1.575l0,0
			C20.693,15.508,21.398,16.214,21.398,17.083L21.398,17.083z"/>
		<path style="fill:none;stroke:#ffffff;stroke-width:1.5;stroke-linecap:round;stroke-miterlimit:10;" d="M28.519,17.083
			c0,0.87-0.706,1.575-1.575,1.575l0,0c-0.869,0-1.575-0.706-1.575-1.575l0,0c0-0.87,0.706-1.575,1.575-1.575l0,0
			C27.813,15.508,28.519,16.214,28.519,17.083L28.519,17.083z"/>
		<path style="fill:none;stroke:#ffffff;stroke-width:1.5;stroke-linecap:round;stroke-miterlimit:10;" d="M42.759,17.083
			c0,0.87-0.706,1.575-1.575,1.575l0,0c-0.869,0-1.575-0.706-1.575-1.575l0,0c0-0.87,0.706-1.575,1.575-1.575l0,0
			C42.053,15.508,42.759,16.214,42.759,17.083L42.759,17.083z"/>
		<path style="fill:none;stroke:#ffffff;stroke-width:1.5;stroke-linecap:round;stroke-miterlimit:10;" d="M35.639,17.083
			c0,0.87-0.706,1.575-1.575,1.575l0,0c-0.869,0-1.575-0.706-1.575-1.575l0,0c0-0.87,0.706-1.575,1.575-1.575l0,0
			C34.933,15.508,35.639,16.214,35.639,17.083L35.639,17.083z"/>
		<path style="fill:none;stroke:#ffffff;stroke-width:1.5;stroke-linecap:round;stroke-miterlimit:10;" d="M7.158,22.915
			c0,0.869-0.705,1.574-1.575,1.574l0,0c-0.87,0-1.575-0.705-1.575-1.574l0,0c0-0.87,0.706-1.576,1.575-1.576l0,0
			C6.453,21.339,7.158,22.045,7.158,22.915L7.158,22.915z"/>
		<path style="fill:none;stroke:#ffffff;stroke-width:1.5;stroke-linecap:round;stroke-miterlimit:10;" d="M14.278,22.915
			c0,0.869-0.705,1.574-1.575,1.574l0,0c-0.869,0-1.575-0.705-1.575-1.574l0,0c0-0.87,0.706-1.576,1.575-1.576l0,0
			C13.573,21.339,14.278,22.045,14.278,22.915L14.278,22.915z"/>
		<path style="fill:none;stroke:#ffffff;stroke-width:1.5;stroke-linecap:round;stroke-miterlimit:10;" d="M21.398,22.915
			c0,0.869-0.705,1.574-1.575,1.574l0,0c-0.869,0-1.574-0.705-1.574-1.574l0,0c0-0.87,0.705-1.576,1.574-1.576l0,0
			C20.693,21.339,21.398,22.045,21.398,22.915L21.398,22.915z"/>
		<path style="fill:none;stroke:#ffffff;stroke-width:1.5;stroke-linecap:round;stroke-miterlimit:10;" d="M28.519,22.915
			c0,0.869-0.706,1.574-1.575,1.574l0,0c-0.869,0-1.575-0.705-1.575-1.574l0,0c0-0.87,0.706-1.576,1.575-1.576l0,0
			C27.813,21.339,28.519,22.045,28.519,22.915L28.519,22.915z"/>
		<path style="fill:none;stroke:#ffffff;stroke-width:1.5;stroke-linecap:round;stroke-miterlimit:10;" d="M42.759,22.915
			c0,0.869-0.706,1.574-1.575,1.574l0,0c-0.869,0-1.575-0.705-1.575-1.574l0,0c0-0.87,0.706-1.576,1.575-1.576l0,0
			C42.053,21.339,42.759,22.045,42.759,22.915L42.759,22.915z"/>
		<path style="fill:none;stroke:#ffffff;stroke-width:1.5;stroke-linecap:round;stroke-miterlimit:10;" d="M35.639,22.915
			c0,0.869-0.706,1.574-1.575,1.574l0,0c-0.869,0-1.575-0.705-1.575-1.574l0,0c0-0.87,0.706-1.576,1.575-1.576l0,0
			C34.933,21.339,35.639,22.045,35.639,22.915L35.639,22.915z"/>
		<path style="fill:none;stroke:#ffffff;stroke-width:1.5;stroke-linecap:round;stroke-miterlimit:10;" d="M7.158,28.746
			c0,0.869-0.705,1.574-1.575,1.574l0,0c-0.87,0-1.575-0.705-1.575-1.574l0,0c0-0.871,0.706-1.576,1.575-1.576l0,0
			C6.453,27.17,7.158,27.875,7.158,28.746L7.158,28.746z"/>
		<path style="fill:none;stroke:#ffffff;stroke-width:1.5;stroke-linecap:round;stroke-miterlimit:10;" d="M14.278,28.746
			c0,0.869-0.705,1.574-1.575,1.574l0,0c-0.869,0-1.575-0.705-1.575-1.574l0,0c0-0.871,0.706-1.576,1.575-1.576l0,0
			C13.573,27.17,14.278,27.875,14.278,28.746L14.278,28.746z"/>
		<path style="fill:none;stroke:#ffffff;stroke-width:1.5;stroke-linecap:round;stroke-miterlimit:10;" d="M21.398,28.746
			c0,0.869-0.705,1.574-1.575,1.574l0,0c-0.869,0-1.574-0.705-1.574-1.574l0,0c0-0.871,0.705-1.576,1.574-1.576l0,0
			C20.693,27.17,21.398,27.875,21.398,28.746L21.398,28.746z"/>
		<path style="fill:none;stroke:#ffffff;stroke-width:1.5;stroke-linecap:round;stroke-miterlimit:10;" d="M28.519,28.746
			c0,0.869-0.706,1.574-1.575,1.574l0,0c-0.869,0-1.575-0.705-1.575-1.574l0,0c0-0.871,0.706-1.576,1.575-1.576l0,0
			C27.813,27.17,28.519,27.875,28.519,28.746L28.519,28.746z"/>
		<path style="fill:none;stroke:#ffffff;stroke-width:1.5;stroke-linecap:round;stroke-miterlimit:10;" d="M42.759,28.746
			c0,0.869-0.706,1.574-1.575,1.574l0,0c-0.869,0-1.575-0.705-1.575-1.574l0,0c0-0.871,0.706-1.576,1.575-1.576l0,0
			C42.053,27.17,42.759,27.875,42.759,28.746L42.759,28.746z"/>
		<path style="fill:none;stroke:#ffffff;stroke-width:1.5;stroke-linecap:round;stroke-miterlimit:10;" d="M35.639,28.746
			c0,0.869-0.706,1.574-1.575,1.574l0,0c-0.869,0-1.575-0.705-1.575-1.574l0,0c0-0.871,0.706-1.576,1.575-1.576l0,0
			C34.933,27.17,35.639,27.875,35.639,28.746L35.639,28.746z"/>
		<path style="fill:none;stroke:#ffffff;stroke-width:1.5;stroke-linecap:round;stroke-miterlimit:10;" d="M7.158,34.576
			c0,0.869-0.705,1.574-1.575,1.574l0,0c-0.87,0-1.575-0.705-1.575-1.574l0,0c0-0.87,0.706-1.576,1.575-1.576l0,0
			C6.453,33,7.158,33.706,7.158,34.576L7.158,34.576z"/>
		<path style="fill:none;stroke:#ffffff;stroke-width:1.5;stroke-linecap:round;stroke-miterlimit:10;" d="M14.278,34.576
			c0,0.869-0.705,1.574-1.575,1.574l0,0c-0.869,0-1.575-0.705-1.575-1.574l0,0c0-0.87,0.706-1.576,1.575-1.576l0,0
			C13.573,33,14.278,33.706,14.278,34.576L14.278,34.576z"/>
		<path style="fill:none;stroke:#ffffff;stroke-width:1.5;stroke-linecap:round;stroke-miterlimit:10;" d="M21.398,34.576
			c0,0.869-0.705,1.574-1.575,1.574l0,0c-0.869,0-1.574-0.705-1.574-1.574l0,0c0-0.87,0.705-1.576,1.574-1.576l0,0
			C20.693,33,21.398,33.706,21.398,34.576L21.398,34.576z"/>
	</g>
</g>
<g id="Layer_1">
</g>
</svg>
