<?xml version="1.0" encoding="iso-8859-1"?>
<!-- Generator: Adobe Illustrator 16.0.0, SVG Export Plug-In . SVG Version: 6.00 Build 0)  -->
<!DOCTYPE svg PUBLIC "-//W3C//DTD SVG 1.1//EN" "http://www.w3.org/Graphics/SVG/1.1/DTD/svg11.dtd">
<svg version="1.1" xmlns="http://www.w3.org/2000/svg" xmlns:xlink="http://www.w3.org/1999/xlink" x="0px" y="0px"
	 width="50.917px" height="50.917px" viewBox="0 0 50.917 50.917" style="enable-background:new 0 0 50.917 50.917;"
	 xml:space="preserve">
<g id="Layer_3">
	<g>
		<path style="fill:none;stroke:#000000;stroke-width:1.5;stroke-linecap:round;stroke-miterlimit:10;" d="M42.93,7.987
			c4.472,4.471,7.237,10.649,7.237,17.472c0,13.647-11.063,24.708-24.708,24.708c-13.646,0-24.709-11.062-24.709-24.708
			C0.75,11.813,11.813,0.75,25.459,0.75"/>
		<g>
			<g>
				<path style="fill:none;stroke:#000000;stroke-width:1.5;stroke-linecap:round;stroke-miterlimit:10;" d="M19.898,14.023
					c1.331,1.236,1.907,7.523,1.965,9.339c0.13,4.073-0.834,10.04-0.834,14.116"/>
				<path style="fill:none;stroke:#000000;stroke-width:1.5;stroke-linecap:round;stroke-miterlimit:10;" d="M17.024,13.81
					c7.679,0,18.167,1,18.167,12.91c0,11.258-11.95,9.996-17.167,11.434"/>
			</g>
			<path style="fill:none;stroke:#000000;stroke-width:1.5;stroke-linecap:round;stroke-miterlimit:10;" d="M17.13,36.425
				c0.268,0.875,0.281,2.391,0,3.166"/>
			<path style="fill:none;stroke:#000000;stroke-width:1.5;stroke-linecap:round;stroke-miterlimit:10;" d="M16.581,12.439
				c0.268,0.875,0.281,2.392,0,3.167"/>
		</g>
	</g>
</g>
<g id="Layer_1">
</g>
</svg>
