<?xml version="1.0" encoding="utf-8"?>
<!-- Generator: Adobe Illustrator 16.0.4, SVG Export Plug-In . SVG Version: 6.00 Build 0)  -->
<!DOCTYPE svg PUBLIC "-//W3C//DTD SVG 1.1//EN" "http://www.w3.org/Graphics/SVG/1.1/DTD/svg11.dtd">
<svg version="1.1" xmlns="http://www.w3.org/2000/svg" xmlns:xlink="http://www.w3.org/1999/xlink" x="0px" y="0px" width="47px"
	 height="46.75px" viewBox="0 0 47 46.75" enable-background="new 0 0 47 46.75" xml:space="preserve">
<g id="Layer_1" display="none">
	<g display="inline">
		<g>
			<path fill="none" stroke="#000000" stroke-width="1.5" stroke-miterlimit="10" d="M-251.114-323.933
				c-5.068,0-9.191-4.123-9.191-9.191s4.123-9.192,9.191-9.192s9.192,4.124,9.192,9.192S-246.046-323.933-251.114-323.933z"/>
		</g>
		<g>
			<path fill="none" stroke="#000000" stroke-width="1.5" stroke-linecap="round" stroke-miterlimit="10" d="M-259.306-297.5
				c-4.27-2.191-7.829-6.548-8.827-10.567c-1.547-6.229,1.345-12.602,3.091-15.101c0.956-1.369,1.833-2.062,2.76-2.182
				c1.291-0.167,2.477,0.836,3.846,1.999c1.785,1.515,4.006,3.4,7.322,3.4c3.327,0,5.729-1.999,7.659-3.605
				c1.523-1.269,2.728-2.271,3.955-2.013c0.853,0.179,1.594,0.95,2.33,2.427c2.496,5.003,3.677,12.821,0.369,18.168
				c-2.582,4.175-7.397,6.291-14.313,6.291c-5.735,0-11.551-1.363-15.243-11.254"/>
		</g>
	</g>
</g>
<g id="Layer_28" display="none">
	<g display="inline">
		
			<circle fill="none" stroke="#000000" stroke-width="1.5" stroke-linecap="round" stroke-miterlimit="10" cx="-179.155" cy="-330.439" r="12.893"/>
		<path fill="none" stroke="#000000" stroke-width="1.5" stroke-linecap="round" stroke-miterlimit="10" d="M-159.353-307.123
			l-9.977-9.854c-1.087-1.089,1.481-0.284,2.568-1.372c1.086-1.088,0.283-3.656,1.371-2.568l21.302,21.303
			c1.088,1.088,1.088,2.853,0,3.938l0,0c-1.086,1.088-2.851,1.088-3.939,0l-9.585-13.021"/>
		<path fill="none" stroke="#000000" stroke-width="1.5" stroke-linecap="round" stroke-miterlimit="10" d="M-170.129-329.887
			c0,2.736-1.115-2.624-4.329-5.802c-3.277-3.241-8.627-4.328-5.802-4.328C-174.665-340.018-170.129-336.518-170.129-329.887z"/>
	</g>
</g>
<g id="Layer_29" display="none">
	<g display="inline">
		<path fill="none" stroke="#000000" stroke-width="2" stroke-linecap="round" stroke-miterlimit="10" d="M-100-336
			c0,1.381-1.119,2.5-2.5,2.5h-2c-1.381,0-2.5-1.119-2.5-2.5l0,0c0-1.381,1.119-2.5,2.5-2.5h2C-101.119-338.5-100-337.381-100-336
			L-100-336z"/>
		<path fill="none" stroke="#000000" stroke-width="2" stroke-linecap="round" stroke-miterlimit="10" d="M-61-336
			c0,1.381-1.119,2.5-2.5,2.5h-30c-1.381,0-2.5-1.119-2.5-2.5l0,0c0-1.381,1.119-2.5,2.5-2.5h30C-62.119-338.5-61-337.381-61-336
			L-61-336z"/>
		<path fill="none" stroke="#000000" stroke-width="2" stroke-linecap="round" stroke-miterlimit="10" d="M-100-320
			c0,1.381-1.119,2.5-2.5,2.5h-2c-1.381,0-2.5-1.119-2.5-2.5l0,0c0-1.381,1.119-2.5,2.5-2.5h2C-101.119-322.5-100-321.381-100-320
			L-100-320z"/>
		<path fill="none" stroke="#000000" stroke-width="2" stroke-linecap="round" stroke-miterlimit="10" d="M-61-320
			c0,1.381-1.119,2.5-2.5,2.5h-30c-1.381,0-2.5-1.119-2.5-2.5l0,0c0-1.381,1.119-2.5,2.5-2.5h30C-62.119-322.5-61-321.381-61-320
			L-61-320z"/>
		<path fill="none" stroke="#000000" stroke-width="2" stroke-linecap="round" stroke-miterlimit="10" d="M-100-303
			c0,1.381-1.119,2.5-2.5,2.5h-2c-1.381,0-2.5-1.119-2.5-2.5l0,0c0-1.381,1.119-2.5,2.5-2.5h2C-101.119-305.5-100-304.381-100-303
			L-100-303z"/>
		<path fill="none" stroke="#000000" stroke-width="2" stroke-linecap="round" stroke-miterlimit="10" d="M-61-303
			c0,1.381-1.119,2.5-2.5,2.5h-30c-1.381,0-2.5-1.119-2.5-2.5l0,0c0-1.381,1.119-2.5,2.5-2.5h30C-62.119-305.5-61-304.381-61-303
			L-61-303z"/>
	</g>
</g>
<g id="Layer_30" display="none">
	<g display="inline">
		<path fill="none" stroke="#000000" stroke-width="1.5" stroke-linecap="round" stroke-miterlimit="10" d="M-20.024-336.667
			l6.717-5.647c0.88-1.095,2.707-1.087,3.802-0.208l19.162,15.4c1.096,0.88,7.495,14.018,5.291,16.76
			c-2.202,2.74-16.409-0.683-17.504-1.562l-19.163-15.4c-1.095-0.88-1.495-2.662-0.615-3.757l7.477-6.752"/>
		
			<circle fill="none" stroke="#000000" stroke-width="1.5" stroke-linecap="round" stroke-miterlimit="10" cx="8.506" cy="-315.54" r="2.684"/>
		<path fill="none" stroke="#000000" stroke-width="1.5" stroke-linecap="round" stroke-miterlimit="10" d="M11.142-315.333
			C8.309-316.5,5.309-313.5,6.309-310.5c3,5,2,10-0.323,13.816"/>
		<path fill="none" stroke="#000000" stroke-width="1.5" stroke-linecap="round" stroke-miterlimit="10" d="M15.809-312.5
			c4.611-0.251,4.523,2.108,3.922,5.889c-0.61,3.838,1.897,6.772,3.813,9.937"/>
		
			<line fill="none" stroke="#000000" stroke-width="1.5" stroke-linecap="round" stroke-miterlimit="10" x1="-11.857" y1="-337.833" x2="4.142" y2="-325.167"/>
		
			<line fill="none" stroke="#000000" stroke-width="1.5" stroke-linecap="round" stroke-miterlimit="10" x1="-14.857" y1="-333.833" x2="-5.287" y2="-326.256"/>
		
			<line fill="none" stroke="#000000" stroke-width="1.5" stroke-linecap="round" stroke-miterlimit="10" x1="-17.857" y1="-329.833" x2="-8.347" y2="-322.303"/>
	</g>
</g>
<g id="Layer_25" display="none">
	<g display="inline">
		<path fill="none" stroke="#000000" stroke-width="1.5" stroke-linecap="round" stroke-miterlimit="10" d="M74.877-319
			c-1.22-4.644-1.833-10.168-1.833-12.833c0-6.627,5.373-12,12-12c6.627,0,12,5.373,12,12s-5.373,35.333-12,35.333
			c-3.962,0-11.149-16.498-13.333-26.167"/>
		
			<circle fill="none" stroke="#000000" stroke-width="1.5" stroke-linecap="round" stroke-miterlimit="10" cx="85.044" cy="-332.833" r="6.687"/>
	</g>
</g>
<g id="Layer_26" display="none">
	<path display="inline" fill="none" stroke="#000000" stroke-width="1.5" stroke-linecap="round" stroke-miterlimit="10" d="
		M247.078-300.408c-1.172,1.172-4.951,1.334-4.182,0C253.9-319.5,239.88-313.99,239.9-319.5c0.02-5.509,14,0,2.996-19.092
		c-0.77-1.335,3.011-1.172,4.182,0c0,0,12.703,12.73,16.94,16.971c1.171,1.172,1.186,3.071,0.015,4.242
		C259.792-313.139,247.078-300.408,247.078-300.408z"/>
</g>
<g id="Layer_27" display="none">
	<path display="inline" fill="none" stroke="#000000" stroke-width="2" stroke-linecap="round" stroke-miterlimit="10" d="
		M558.919-226.215c-1.172-1.172-1.229-3.306,0-4.285c4.119-3.282,34.064-3.283,38.184,0c1.229,0.979,1.172,3.115,0,4.285
		c0,0-12.73,14.756-16.971,18.992c-1.172,1.172-3.07,1.159-4.242-0.011C571.649-211.474,558.919-226.215,558.919-226.215z"/>
</g>
<g id="Layer_32" display="none">
	<path display="inline" fill="none" stroke="#000000" stroke-width="1.5" stroke-linecap="round" stroke-miterlimit="10" d="
		M-273.891,19.498c1.172,1.172,1.229,3.306,0,4.285c-2.011,1.602-10.781-4.321-19.092-4.283c-8.715,0.04-16.983,5.963-19.092,4.283
		c-1.229-0.979-1.172-3.115,0-4.285c0,0,12.73-14.756,16.971-18.992c1.172-1.172,3.07-1.159,4.242,0.011
		C-286.621,4.756-273.891,19.498-273.891,19.498z"/>
	<path display="inline" fill="none" stroke="#000000" stroke-width="1.5" stroke-linecap="round" stroke-miterlimit="10" d="
		M-273.891,43.498c1.172,1.172,1.229,3.306,0,4.285c-2.011,1.602-10.781-4.321-19.092-4.283c-8.715,0.04-16.983,5.963-19.092,4.283
		c-1.229-0.98-1.172-3.115,0-4.285c0,0,12.73-14.756,16.971-18.992c1.172-1.172,3.07-1.16,4.242,0.01
		C-286.621,28.756-273.891,43.498-273.891,43.498z"/>
</g>
<g id="Layer_36" display="none">
	<path display="inline" fill="none" stroke="#000000" stroke-width="1.5" stroke-linecap="round" stroke-miterlimit="10" d="
		M-121.132,12.28c0.604,0.426,0.634,1.203,0,1.56c-1.037,0.583-5.563-1.572-9.851-1.559c-4.497,0.015-8.763,2.17-9.851,1.559
		c-0.634-0.356-0.605-1.133,0-1.56c0,0,6.568-5.371,8.756-6.912c0.605-0.426,1.584-0.422,2.188,0.004
		C-127.7,6.915-121.132,12.28-121.132,12.28z"/>
	<path display="inline" fill="none" stroke="#000000" stroke-width="1.5" stroke-linecap="round" stroke-miterlimit="10" d="
		M-140.837,34.72c-0.605-0.427-0.634-1.203,0-1.56c1.037-0.583,5.562,1.572,9.85,1.559c4.497-0.015,8.764-2.17,9.852-1.559
		c0.633,0.357,0.604,1.134,0,1.56c0,0-6.569,5.37-8.757,6.912c-0.605,0.427-1.584,0.422-2.189-0.004
		C-134.269,40.085-140.837,34.72-140.837,34.72z"/>
	<g display="inline">
		<g>
			<path fill="none" stroke="#000000" stroke-width="1.5" stroke-linecap="round" stroke-miterlimit="10" d="M-137.076,20.897
				c0,0.552-0.448,1-1,1h-2.333c-0.552,0-1-0.448-1-1v-2.333c0-0.552,0.448-1,1-1h2.333c0.552,0,1,0.448,1,1V20.897z"/>
			
				<line fill="none" stroke="#000000" stroke-width="1.5" stroke-linecap="round" stroke-miterlimit="10" x1="-132.909" y1="19.731" x2="-121.742" y2="19.731"/>
		</g>
		<g>
			<path fill="none" stroke="#000000" stroke-width="1.5" stroke-linecap="round" stroke-miterlimit="10" d="M-137.076,28.436
				c0,0.553-0.448,1-1,1h-2.333c-0.552,0-1-0.447-1-1v-2.332c0-0.553,0.448-1,1-1h2.333c0.552,0,1,0.447,1,1V28.436z"/>
			
				<line fill="none" stroke="#000000" stroke-width="1.5" stroke-linecap="round" stroke-miterlimit="10" x1="-132.909" y1="27.27" x2="-121.742" y2="27.27"/>
		</g>
	</g>
</g>
<g id="Layer_37" display="none">
	<path display="inline" fill="none" stroke="#000000" stroke-width="1.5" stroke-linecap="round" stroke-miterlimit="10" d="
		M-59.132,20.28c0.604,0.426,0.634,1.203,0,1.56c-1.037,0.583-5.563-1.572-9.851-1.559c-4.497,0.015-8.764,2.17-9.852,1.559
		c-0.633-0.356-0.604-1.133,0-1.56c0,0,6.568-5.371,8.757-6.912c0.604-0.426,1.584-0.422,2.188,0.004
		C-65.7,14.915-59.132,20.28-59.132,20.28z"/>
	<path display="inline" fill="none" stroke="#000000" stroke-width="1.5" stroke-linecap="round" stroke-miterlimit="10" d="
		M-78.838,34.72c-0.605-0.427-0.634-1.203,0-1.56c1.037-0.583,5.562,1.572,9.851,1.559c4.497-0.015,8.764-2.17,9.852-1.559
		c0.633,0.357,0.604,1.134,0,1.56c0,0-6.569,5.37-8.757,6.912c-0.605,0.427-1.584,0.422-2.189-0.004
		C-72.27,40.085-78.838,34.72-78.838,34.72z"/>
	<g display="inline">
		<g>
			<path fill="none" stroke="#000000" stroke-width="1.5" stroke-linecap="round" stroke-miterlimit="10" d="M-75.076,28.436
				c0,0.553-0.447,1-1,1h-2.332c-0.553,0-1-0.447-1-1v-2.332c0-0.553,0.447-1,1-1h2.332c0.553,0,1,0.447,1,1V28.436z"/>
		</g>
		<g>
			<path fill="none" stroke="#000000" stroke-width="1.5" stroke-linecap="round" stroke-miterlimit="10" d="M-67.076,28.436
				c0,0.553-0.447,1-1,1h-2.332c-0.553,0-1-0.447-1-1v-2.332c0-0.553,0.447-1,1-1h2.332c0.553,0,1,0.447,1,1V28.436z"/>
		</g>
		<g>
			<path fill="none" stroke="#000000" stroke-width="1.5" stroke-linecap="round" stroke-miterlimit="10" d="M-59.076,28.436
				c0,0.553-0.447,1-1,1h-2.332c-0.553,0-1-0.447-1-1v-2.332c0-0.553,0.447-1,1-1h2.332c0.553,0,1,0.447,1,1V28.436z"/>
		</g>
	</g>
</g>
<g id="Layer_33" display="none">
	<g display="inline">
		<path fill="none" stroke="#000000" stroke-width="1.5" stroke-linecap="round" stroke-miterlimit="10" d="M-185.155,4.759h6.63
			c0.499,0,0.903,0.404,0.903,0.903v34.554c0,0.5-0.404,0.903-0.903,0.903h-26.133c-0.499,0-0.903-0.403-0.903-0.903V5.663
			c0-0.499,0.404-0.903,0.903-0.903h6.629"/>
		
			<path fill="none" stroke="#000000" stroke-width="1.5" stroke-linecap="round" stroke-linejoin="round" stroke-miterlimit="10" d="
			M-186.06,6.905c0,0.499-0.403,0.903-0.903,0.903h-9.259c-0.499,0-0.903-0.405-0.903-0.903l-0.903-4.291
			c0-0.499,0.404-0.904,0.903-0.904h3.218c0,0,0.169-2.71,2.315-2.71c2.447,0,2.315,2.71,2.315,2.71h3.218
			c0.5,0,0.904,0.405,0.904,0.904L-186.06,6.905z"/>
		<g>
			
				<path fill="none" stroke="#000000" stroke-width="1.5" stroke-linecap="round" stroke-linejoin="round" stroke-miterlimit="10" d="
				M-196.156,16.767c0,0.499-0.405,0.903-0.903,0.903h-3.688c-0.5,0-0.903-0.405-0.903-0.903v-3.688
				c0-0.499,0.404-0.903,0.903-0.903h3.688c0.499,0,0.903,0.404,0.903,0.903V16.767z"/>
			
				<line fill="none" stroke="#000000" stroke-width="1.5" stroke-linecap="round" stroke-linejoin="round" stroke-miterlimit="10" x1="-192.182" y1="14.922" x2="-181.584" y2="14.922"/>
		</g>
		<g>
			
				<path fill="none" stroke="#000000" stroke-width="1.5" stroke-linecap="round" stroke-linejoin="round" stroke-miterlimit="10" d="
				M-196.143,26.121c0,0.497-0.405,0.903-0.903,0.903h-3.689c-0.499,0-0.903-0.406-0.903-0.903v-3.689
				c0-0.5,0.405-0.903,0.903-0.903h3.689c0.499,0,0.903,0.404,0.903,0.903V26.121z"/>
			
				<line fill="none" stroke="#000000" stroke-width="1.5" stroke-linecap="round" stroke-linejoin="round" stroke-miterlimit="10" x1="-192.169" y1="24.275" x2="-181.571" y2="24.275"/>
		</g>
		<g>
			
				<path fill="none" stroke="#000000" stroke-width="1.5" stroke-linecap="round" stroke-linejoin="round" stroke-miterlimit="10" d="
				M-196.168,35.475c0,0.498-0.404,0.903-0.903,0.903h-3.688c-0.499,0-0.903-0.405-0.903-0.903v-3.689
				c0-0.499,0.404-0.903,0.903-0.903h3.688c0.499,0,0.903,0.404,0.903,0.903V35.475z"/>
			
				<line fill="none" stroke="#000000" stroke-width="1.5" stroke-linecap="round" stroke-linejoin="round" stroke-miterlimit="10" x1="-192.194" y1="33.63" x2="-181.597" y2="33.63"/>
		</g>
	</g>
</g>
<g id="Layer_35" display="none">
</g>
<g id="Layer_22" display="none">
	<path display="inline" fill="none" stroke="#000000" stroke-width="1.5" stroke-linecap="round" stroke-miterlimit="10" d="
		M918.078-201.408c-1.172,1.172-4.951,1.334-4.182,0C924.9-220.5,926.314-214.99,926.334-220.5c0.02-5.509-1.434,0-12.438-19.092
		c-0.77-1.335,3.01-1.172,4.182,0c0,0,12.703,12.73,16.939,16.971c1.172,1.172,1.186,3.07,0.016,4.242
		C930.793-214.139,918.078-201.408,918.078-201.408z"/>
</g>
<g id="Layer_23" display="none">
	<path display="inline" fill="none" stroke="#000000" stroke-width="1.5" stroke-linecap="round" stroke-miterlimit="10" d="
		M173.713-338.592c1.172-1.172,4.951-1.334,4.182,0c-11.004,19.092,3.016,13.582,2.996,19.092c-0.02,5.509-14,0-2.996,19.092
		c0.77,1.335-3.011,1.172-4.182,0c0,0-12.703-12.73-16.94-16.971c-1.171-1.172-1.186-3.071-0.015-4.242
		C160.999-325.861,173.713-338.592,173.713-338.592z"/>
</g>
<g id="Layer_24" display="none">
	<g display="inline">
		<path fill="none" stroke="#000000" stroke-width="1.5" stroke-linecap="round" stroke-miterlimit="10" d="M856.133-335.145
			c4.004,4.004,6.48,9.536,6.48,15.645c0,12.22-9.906,22.125-22.125,22.125s-22.125-9.905-22.125-22.125
			c0-12.219,9.906-22.125,22.125-22.125"/>
		<g>
			
				<path fill="none" stroke="#000000" stroke-width="1.5" stroke-linecap="round" stroke-linejoin="round" stroke-miterlimit="10" d="
				M834.596-326.738c0,0-0.549-0.452,2.102-3.103c3.037-3.037,4.104-3.103,4.104-3.103v27"/>
			
				<line fill="none" stroke="#000000" stroke-width="1.5" stroke-linecap="round" stroke-miterlimit="10" x1="844.863" y1="-305.943" x2="836.738" y2="-305.943"/>
		</g>
	</g>
</g>
<g id="Layer_19" display="none">
	<g display="inline">
		<path fill="none" stroke="#000000" stroke-width="1.5" stroke-linecap="round" stroke-miterlimit="10" d="M940.145-335.145
			c4.004,4.004,6.48,9.536,6.48,15.645c0,12.22-9.905,22.125-22.125,22.125c-12.219,0-22.125-9.905-22.125-22.125
			c0-12.219,9.906-22.125,22.125-22.125"/>
		<g>
			
				<path fill="none" stroke="#000000" stroke-width="1.5" stroke-linecap="round" stroke-linejoin="round" stroke-miterlimit="10" d="
				M917.469-328.694c0,0-0.248-0.665,3.372-1.635c4.149-1.111,5.104-0.636,5.104-0.636l-1.133,25.021"/>
			
				<line fill="none" stroke="#000000" stroke-width="1.5" stroke-linecap="round" stroke-miterlimit="10" x1="929.438" y1="-319.5" x2="921.312" y2="-319.5"/>
		</g>
	</g>
</g>
<g id="Layer_20" display="none">
	<g display="inline">
		<path fill="none" stroke="#000000" stroke-width="1.5" stroke-linecap="round" stroke-miterlimit="10" d="M764.418-308.536
			l0.477,8.873c0,2.102-1.702,3.804-3.804,3.804h-21.553c-2.1,0-3.803-1.702-3.803-3.804v-36.765c0-2.1,1.703-3.804,3.803-3.804
			h5.377"/>
		<path fill="none" stroke="#000000" stroke-width="1.5" stroke-linecap="round" stroke-miterlimit="10" d="M755.714-340.231h5.377
			c2.102,0,3.804,1.704,3.804,3.804l-0.477,6.338"/>
		<path fill="none" stroke="#000000" stroke-width="1.5" stroke-linecap="round" stroke-miterlimit="10" d="M755.714-339.518
			c0,1.182-1.318,2.14-2.945,2.14h-4.908c-1.626,0-2.945-0.958-2.945-2.14v-1.426c0-1.182,1.319-2.139,2.945-2.139h4.908
			c1.627,0,2.945,0.958,2.945,2.139V-339.518z"/>
		
			<line fill="none" stroke="#000000" stroke-width="2" stroke-linecap="round" stroke-miterlimit="10" x1="741" y1="-329.5" x2="760" y2="-329.5"/>
		
			<line fill="none" stroke="#000000" stroke-width="2" stroke-linecap="round" stroke-miterlimit="10" x1="741" y1="-322.5" x2="760" y2="-322.5"/>
		
			<line fill="none" stroke="#000000" stroke-width="2" stroke-linecap="round" stroke-miterlimit="10" x1="741" y1="-313.5" x2="748" y2="-313.5"/>
		<g>
			<path fill="none" stroke="#000000" stroke-width="1.5" stroke-linecap="round" stroke-miterlimit="10" d="M754.247-305.616
				c-0.742,0.742-1.049-0.153-1.792-0.896l0,0c-0.743-0.743-1.64-1.051-0.896-1.793l22.411-22.411c0.741-0.744,1.945-0.744,2.688,0
				l0,0c0.743,0.742,0.743,1.946,0,2.689L754.247-305.616z"/>
			<path fill="none" stroke="#000000" stroke-width="1.5" stroke-linecap="round" stroke-miterlimit="10" d="M748.933-305.681
				c0.743-0.742,1.312-0.107,2.055,0.636l0,0c0.742,0.742,1.377,1.312,0.637,2.055l-1.225,1.223
				c-0.744,0.744-3.473,0.784-3.473,0.784s0.04-2.73,0.783-3.473L748.933-305.681z"/>
		</g>
	</g>
</g>
<g id="Layer_21" display="none">
	<g display="inline">
		<g>
			<path fill="none" stroke="#000000" stroke-width="1.5" stroke-linecap="round" stroke-miterlimit="10" d="M658.266-317.597
				c1.695-1.695,16.213,10.073,17.906,11.768l1.024,1.023c1.694,1.694,1.694,4.444,0,6.141l-2.047,2.047
				c-1.694,1.695-4.444,1.695-6.14-0.001l-1.023-1.022c-1.695-1.695-13.463-16.213-11.769-17.909L658.266-317.597z"/>
			<path fill="none" stroke="#000000" stroke-width="1.5" stroke-linecap="round" stroke-miterlimit="10" d="M685.584-329.074
				c0.802-0.801,2.101-0.803,2.9,0l0,0c0.8,0.798,0.8,2.095-0.001,2.899l-16.147,16.146c-0.801,0.801-1.076-0.223-1.877-1.021l0,0
				c-0.801-0.802-1.822-1.078-1.022-1.877L685.584-329.074z"/>
			<path fill="none" stroke="#000000" stroke-width="1.5" stroke-linecap="round" stroke-miterlimit="10" d="M663.456-301.148
				c-0.802,0.802-2.101,0.802-2.899,0.001l0,0c-0.803-0.802-0.802-2.099,0-2.902l0.318-0.316c0.801-0.799,1.074,0.223,1.876,1.022
				l0,0c0.8,0.801,1.822,1.075,1.022,1.877L663.456-301.148z"/>
		</g>
		
			<path fill="none" stroke="#000000" stroke-width="1.5" stroke-linecap="round" stroke-linejoin="round" stroke-miterlimit="10" d="
			M677.776-324.594l-7.253-7.252c0,0,0.344-6.27-1.695-9.86c-1.226-2.153-5.49-2.115-6.441-1.263
			c-0.812,0.726,1.447,1.453,2.314,3.594c0.865,2.141-0.409,3.458-0.822,3.871l0,0c-0.404,0.404-1.665,1.719-3.771,0.861
			c-2.173-0.881-2.959-3.179-3.696-2.355c-0.876,0.982-0.953,5.138,1.31,6.396c3.591,1.998,9.815,1.742,9.815,1.742l7.211,7.21"/>
		
			<path fill="none" stroke="#000000" stroke-width="1.5" stroke-linecap="round" stroke-linejoin="round" stroke-miterlimit="10" d="
			M681.491-314.908l4.542,4.546c0,0,1.661,0.322,2.487-0.501l0,0c0.824-0.825,0.501-2.487,0.501-2.487l-4.751-4.75"/>
	</g>
</g>
<g id="Layer_16" display="none">
	<g display="inline">
		<g>
			<path fill="none" stroke="#000000" stroke-width="1.5" stroke-linecap="round" stroke-miterlimit="10" d="M-32.467-245.913
				c1.132,1.594-10.304,11.668-11.897,12.8l-0.962,0.685c-1.592,1.132-3.804,0.758-4.938-0.834l-1.368-1.924
				c-1.133-1.593-0.759-3.804,0.835-4.937l0.961-0.684c1.594-1.133,14.868-8.623,16.002-7.029L-32.467-245.913z"/>
			<path fill="none" stroke="#000000" stroke-width="1.5" stroke-linecap="round" stroke-miterlimit="10" d="M-26.95-222.386
				c0.535,0.755,0.361,1.8-0.395,2.332l0,0c-0.75,0.536-1.794,0.36-2.331-0.394l-10.789-15.179
				c-0.535-0.753,0.325-0.835,1.076-1.371l0,0c0.753-0.535,1.115-1.319,1.648-0.567L-26.95-222.386z"/>
			<path fill="none" stroke="#000000" stroke-width="1.5" stroke-linecap="round" stroke-miterlimit="10" d="M-46.399-243.974
				c-0.536-0.754-0.359-1.799,0.394-2.332l0,0c0.754-0.537,1.796-0.36,2.333,0.395l0.211,0.299c0.533,0.752-0.325,0.833-1.078,1.37
				l0,0c-0.752,0.535-1.112,1.319-1.648,0.567L-46.399-243.974z"/>
		</g>
		<g>
			
				<rect x="-50.217" y="-214.119" transform="matrix(-0.986 -0.1668 0.1668 -0.986 -22.7322 -422.1833)" fill="none" stroke="#000000" stroke-width="1.5" stroke-linecap="round" stroke-linejoin="round" stroke-miterlimit="10" width="42.25" height="7.963"/>
			
				<path fill="none" stroke="#000000" stroke-width="1.5" stroke-linecap="round" stroke-linejoin="round" stroke-miterlimit="10" d="
				M-24.114-212.958c-0.408,2.416-2.698,4.044-5.115,3.635c-2.417-0.408-4.044-2.698-3.635-5.115L-24.114-212.958z"/>
			
				<line fill="none" stroke="#000000" stroke-width="1.5" stroke-linecap="round" stroke-linejoin="round" stroke-miterlimit="10" x1="-29.835" y1="-211.971" x2="-27.787" y2="-211.624"/>
			
				<line fill="none" stroke="#000000" stroke-width="1.5" stroke-linecap="round" stroke-linejoin="round" stroke-miterlimit="10" x1="-44.725" y1="-216.819" x2="-46.053" y2="-208.968"/>
			
				<line fill="none" stroke="#000000" stroke-width="1.5" stroke-linecap="round" stroke-linejoin="round" stroke-miterlimit="10" x1="-47.343" y1="-214.953" x2="-47.905" y2="-211.632"/>
		</g>
		<g>
			<path fill="none" stroke="#000000" stroke-width="1.5" stroke-linecap="round" stroke-miterlimit="10" d="M-7.363-242.24
				c-0.156,1.441-1.451,2.482-2.893,2.326l-14.043-1.523c-1.441-0.156-2.482-1.451-2.326-2.892l0,0
				c0.156-1.441,1.45-2.483,2.893-2.327l14.042,1.523C-8.248-244.977-7.207-243.682-7.363-242.24L-7.363-242.24z"/>
			<path fill="none" stroke="#000000" stroke-width="1.5" stroke-linecap="round" stroke-miterlimit="10" d="M-18.971-216.947
				c-0.961-0.104-1.764,0.027-1.659-0.934l1.123-10.356c0.104-0.961,0.86-0.661,1.821-0.557l0,0c0.96,0.104,1.763-0.027,1.659,0.935
				l-1.124,10.356C-17.255-216.543-18.011-216.842-18.971-216.947L-18.971-216.947z"/>
			
				<polyline fill="none" stroke="#000000" stroke-width="1.5" stroke-linecap="round" stroke-linejoin="round" stroke-miterlimit="10" points="
				-7.363,-242.24 -5.624,-242.051 -6.563,-233.383 -17.461,-230.866 -17.686,-228.794 			"/>
		</g>
	</g>
</g>
<g id="Layer_17" display="none">
	<g display="inline">
		<g>
			
				<circle fill="none" stroke="#000000" stroke-width="1.5" stroke-linecap="round" stroke-miterlimit="10" cx="411.509" cy="-332.225" r="9.442"/>
			<path fill="none" stroke="#000000" stroke-width="1.5" stroke-linecap="round" stroke-miterlimit="10" d="M426.01-315.151
				l-7.306-7.216c-0.796-0.798,1.084-0.207,1.881-1.004c0.795-0.797,0.208-2.678,1.004-1.882l15.6,15.6
				c0.797,0.797,0.797,2.089,0,2.886l0,0c-0.795,0.797-2.088,0.797-2.886,0l-7.018-9.536"/>
			<path fill="none" stroke="#000000" stroke-width="1.5" stroke-linecap="round" stroke-miterlimit="10" d="M418.118-331.82
				c0,2.003-0.816-1.922-3.17-4.249c-2.399-2.374-6.317-3.17-4.248-3.17C414.798-339.239,418.118-336.676,418.118-331.82z"/>
		</g>
		<g>
			<g>
				<path fill="none" stroke="#000000" stroke-width="1.5" stroke-linecap="round" stroke-miterlimit="10" d="M406.968-316.597
					c1.695-1.694,16.213,10.073,17.906,11.768l1.024,1.023c1.694,1.694,1.694,4.444,0,6.141l-2.047,2.047
					c-1.694,1.695-4.444,1.695-6.14-0.001l-1.023-1.022c-1.695-1.695-13.463-16.213-11.77-17.909L406.968-316.597z"/>
				<path fill="none" stroke="#000000" stroke-width="1.5" stroke-linecap="round" stroke-miterlimit="10" d="M428.398-322.188
					l6.888-6.887c0.802-0.802,2.101-0.804,2.9,0l0,0c0.8,0.798,0.8,2.095-0.001,2.899l-6.974,6.973"/>
				<path fill="none" stroke="#000000" stroke-width="1.5" stroke-linecap="round" stroke-miterlimit="10" d="M424.422-312.412
					l-3.384,3.383c-0.801,0.801-1.076-0.223-1.877-1.021l0,0c-0.801-0.802-1.822-1.078-1.023-1.877l3.489-3.489"/>
				<path fill="none" stroke="#000000" stroke-width="1.5" stroke-linecap="round" stroke-miterlimit="10" d="M412.157-300.148
					c-0.801,0.802-2.1,0.802-2.898,0.001l0,0c-0.803-0.802-0.803-2.099,0-2.902l0.318-0.316c0.801-0.799,1.074,0.223,1.875,1.022
					l0,0c0.801,0.801,1.822,1.075,1.023,1.877L412.157-300.148z"/>
			</g>
		</g>
	</g>
</g>
<g id="Layer_18" display="none">
	<g display="inline">
		<path fill="none" stroke="#000000" stroke-width="1.5" stroke-linecap="round" stroke-miterlimit="10" d="M566.977-310.375
			v-17.009c0-1.514,1.228-2.741,2.741-2.741h37.466c1.515,0,2.741,1.228,2.741,2.741v24.018c0,1.515-1.227,2.741-2.741,2.741
			h-37.466c-1.514,0-2.741-1.227-2.741-2.741v-3.009"/>
		
			<circle fill="none" stroke="#000000" stroke-width="1.5" stroke-linecap="round" stroke-miterlimit="10" cx="581.731" cy="-315.062" r="9.162"/>
		<path fill="none" stroke="#000000" stroke-width="1.5" stroke-linecap="round" stroke-miterlimit="10" d="M600.3-322.849
			c0,0.759-0.615,1.375-1.375,1.375l0,0c-0.76,0-1.375-0.616-1.375-1.375l0,0c0-0.759,0.615-1.375,1.375-1.375l0,0
			C599.685-324.224,600.3-323.608,600.3-322.849L600.3-322.849z"/>
		<path fill="none" stroke="#000000" stroke-width="1.5" stroke-linecap="round" stroke-miterlimit="10" d="M606.105-322.849
			c0,0.759-0.615,1.375-1.375,1.375l0,0c-0.76,0-1.375-0.616-1.375-1.375l0,0c0-0.759,0.615-1.375,1.375-1.375l0,0
			C605.49-324.224,606.105-323.608,606.105-322.849L606.105-322.849z"/>
		<path fill="none" stroke="#000000" stroke-width="1.5" stroke-linecap="round" stroke-miterlimit="10" d="M587.643-314.576
			c0,2.997-2.43,5.426-5.426,5.426S587.643-317.573,587.643-314.576z"/>
		<path fill="none" stroke="#000000" stroke-width="1.5" stroke-linecap="round" stroke-miterlimit="10" d="M576.037-317.418
			c0-1.844,1.494-3.337,3.337-3.337S576.037-315.576,576.037-317.418z"/>
		<path fill="none" stroke="#000000" stroke-width="1.5" stroke-linecap="round" stroke-miterlimit="10" d="M581.572-330.812
			c0-1.07-0.867-1.938-1.938-1.938h-5.647c-1.07,0-1.938,0.868-1.938,1.938l0,0C573.269-330.812,580.487-330.812,581.572-330.812
			L581.572-330.812z"/>
		<path fill="none" stroke="#000000" stroke-width="1.5" stroke-linecap="round" stroke-miterlimit="10" d="M604.76-330.812
			c0-1.07-0.868-1.938-1.938-1.938h-0.647c-1.07,0-1.938,0.868-1.938,1.938l0,0C601.456-330.812,603.675-330.812,604.76-330.812
			L604.76-330.812z"/>
		
			<line fill="none" stroke="#000000" stroke-width="1.5" stroke-linecap="round" stroke-miterlimit="10" x1="597.55" y1="-305.9" x2="606.8" y2="-305.9"/>
		
			<line fill="none" stroke="#000000" stroke-width="1.5" stroke-linecap="round" stroke-miterlimit="10" x1="597.55" y1="-310.875" x2="606.8" y2="-310.875"/>
	</g>
</g>
<g id="Layer_13" display="none">
	<g display="inline">
		
			<line fill="none" stroke="#000000" stroke-width="1.5" stroke-linecap="round" stroke-miterlimit="10" x1="500.023" y1="-303.594" x2="500.023" y2="-303.594"/>
		<path fill="none" stroke="#000000" stroke-width="1.5" stroke-linecap="round" stroke-miterlimit="10" d="M500.023-303.594
			c-1.333,1.332-3.648,1.456-4.982,0.123l-12.875-12.874c-1.332-1.334-1.332-3.496,0-4.829l0.002-0.001
			c1.333-1.334,3.494-1.333,4.828,0l10.521,10.521"/>
		<path fill="none" stroke="#000000" stroke-width="1.5" stroke-linecap="round" stroke-miterlimit="10" d="M521.881-335.019
			c1.334-1.333,3.496-1.333,4.829,0l0.001,0.001c1.334,1.333,1.332,3.494,0,4.828l-26.688,26.596"/>
		
			<line fill="none" stroke="#000000" stroke-width="1.5" stroke-linecap="round" stroke-miterlimit="10" x1="497.517" y1="-310.654" x2="519.055" y2="-332.193"/>
	</g>
</g>
<g id="Layer_34" display="none">
	<g display="inline">
		<g>
			<path d="M-238.587,27.39c-0.2,0-0.39-0.08-0.529-0.22c-0.141-0.141-0.221-0.33-0.221-0.53s0.08-0.39,0.21-0.53
				c0.29-0.279,0.78-0.279,1.07-0.01c0.14,0.15,0.22,0.34,0.22,0.54c0,0.19-0.08,0.39-0.22,0.53
				C-238.207,27.31-238.396,27.39-238.587,27.39z"/>
		</g>
		<g>
			<path d="M-239.111,27.598c-0.369,0-0.735-0.135-1.006-0.405l-2.575-2.575c-0.558-0.559-0.558-1.467-0.001-2.025
				c0.561-0.56,1.469-0.559,2.027-0.002l2.104,2.105c0.293,0.293,0.293,0.768,0,1.061c-0.181,0.181-0.432,0.25-0.663,0.208
				l0.168,0.168c0.294-0.292,0.737-0.304,1.029-0.011s0.261,0.756-0.033,1.048C-238.348,27.455-238.731,27.598-239.111,27.598z"/>
		</g>
		<g>
			<path d="M-238.59,27.388c-0.192,0-0.385-0.073-0.531-0.221c-0.292-0.294-0.292-0.769,0.002-1.061l5.335-5.317
				c-0.293,0.291-0.72,0.338-1.012,0.046c-0.293-0.293-0.246-0.72,0.047-1.013c0.56-0.559,1.467-0.558,2.026,0
				c0.559,0.56,0.559,1.469,0,2.027l-5.338,5.32C-238.207,27.314-238.398,27.388-238.59,27.388z"/>
		</g>
		<g>
			<path d="M-239.092,25.976c-0.192,0-0.384-0.073-0.53-0.22c-0.293-0.293-0.293-0.768,0-1.061l4.308-4.308
				c0.293-0.293,0.768-0.293,1.061,0s0.293,0.768,0,1.061l-4.308,4.308C-238.708,25.902-238.899,25.976-239.092,25.976z"/>
		</g>
	</g>
</g>
<g id="Layer_14" display="none">
	<g display="inline">
		<path fill="none" stroke="#000000" stroke-width="1.5" stroke-linecap="round" stroke-miterlimit="10" d="M353.206-294.958
			l-36.167,2c-1.657,0-3-1.343-3-3v-31.625c0-1.657,1.343-3,3-3h6.999"/>
		<path fill="none" stroke="#000000" stroke-width="1.5" stroke-linecap="round" stroke-miterlimit="10" d="M349.039-330.583h6.75
			c1.657,0,3,1.343,3,3v31.625c0,1.657-1.343,3-3,3h-2.583"/>
		
			<line fill="none" stroke="#000000" stroke-width="1.5" stroke-linecap="round" stroke-miterlimit="10" x1="328.288" y1="-330.583" x2="344.539" y2="-330.583"/>
		<path fill="none" stroke="#000000" stroke-width="1.5" stroke-linecap="round" stroke-miterlimit="10" d="M328.289-329.083
			c0,1.174-0.951,2.125-2.125,2.125l0,0c-1.174,0-2.125-0.951-2.125-2.125v-3.125c0-1.174,0.951-2.125,2.125-2.125l0,0
			c1.174,0,2.125,0.951,2.125,2.125V-329.083z"/>
		<path fill="none" stroke="#000000" stroke-width="1.5" stroke-linecap="round" stroke-miterlimit="10" d="M348.789-329.083
			c0,1.174-0.951,2.125-2.125,2.125l0,0c-1.174,0-2.125-0.951-2.125-2.125v-3.125c0-1.174,0.951-2.125,2.125-2.125l0,0
			c1.174,0,2.125,0.951,2.125,2.125V-329.083z"/>
		<path fill="none" stroke="#000000" stroke-width="1.5" stroke-linecap="round" stroke-miterlimit="10" d="M327.567-318
			c0,0.87-0.705,1.575-1.575,1.575l0,0c-0.869,0-1.575-0.706-1.575-1.575l0,0c0-0.87,0.706-1.575,1.575-1.575l0,0
			C326.862-319.575,327.567-318.869,327.567-318L327.567-318z"/>
		<path fill="none" stroke="#000000" stroke-width="1.5" stroke-linecap="round" stroke-miterlimit="10" d="M334.688-318
			c0,0.87-0.705,1.575-1.575,1.575l0,0c-0.869,0-1.574-0.706-1.574-1.575l0,0c0-0.87,0.705-1.575,1.574-1.575l0,0
			C333.982-319.575,334.688-318.869,334.688-318L334.688-318z"/>
		<path fill="none" stroke="#000000" stroke-width="1.5" stroke-linecap="round" stroke-miterlimit="10" d="M341.808-318
			c0,0.87-0.706,1.575-1.575,1.575l0,0c-0.869,0-1.575-0.706-1.575-1.575l0,0c0-0.87,0.706-1.575,1.575-1.575l0,0
			C341.102-319.575,341.808-318.869,341.808-318L341.808-318z"/>
		<path fill="none" stroke="#000000" stroke-width="1.5" stroke-linecap="round" stroke-miterlimit="10" d="M356.048-318
			c0,0.87-0.706,1.575-1.575,1.575l0,0c-0.869,0-1.575-0.706-1.575-1.575l0,0c0-0.87,0.706-1.575,1.575-1.575l0,0
			C355.342-319.575,356.048-318.869,356.048-318L356.048-318z"/>
		<path fill="none" stroke="#000000" stroke-width="1.5" stroke-linecap="round" stroke-miterlimit="10" d="M348.928-318
			c0,0.87-0.706,1.575-1.575,1.575l0,0c-0.869,0-1.575-0.706-1.575-1.575l0,0c0-0.87,0.706-1.575,1.575-1.575l0,0
			C348.222-319.575,348.928-318.869,348.928-318L348.928-318z"/>
		<path fill="none" stroke="#000000" stroke-width="1.5" stroke-linecap="round" stroke-miterlimit="10" d="M320.447-312.168
			c0,0.869-0.705,1.574-1.575,1.574l0,0c-0.87,0-1.575-0.705-1.575-1.574l0,0c0-0.87,0.706-1.576,1.575-1.576l0,0
			C319.742-313.744,320.447-313.038,320.447-312.168L320.447-312.168z"/>
		<path fill="none" stroke="#000000" stroke-width="1.5" stroke-linecap="round" stroke-miterlimit="10" d="M327.567-312.168
			c0,0.869-0.705,1.574-1.575,1.574l0,0c-0.869,0-1.575-0.705-1.575-1.574l0,0c0-0.87,0.706-1.576,1.575-1.576l0,0
			C326.862-313.744,327.567-313.038,327.567-312.168L327.567-312.168z"/>
		<path fill="none" stroke="#000000" stroke-width="1.5" stroke-linecap="round" stroke-miterlimit="10" d="M334.688-312.168
			c0,0.869-0.705,1.574-1.575,1.574l0,0c-0.869,0-1.574-0.705-1.574-1.574l0,0c0-0.87,0.705-1.576,1.574-1.576l0,0
			C333.982-313.744,334.688-313.038,334.688-312.168L334.688-312.168z"/>
		<path fill="none" stroke="#000000" stroke-width="1.5" stroke-linecap="round" stroke-miterlimit="10" d="M341.808-312.168
			c0,0.869-0.706,1.574-1.575,1.574l0,0c-0.869,0-1.575-0.705-1.575-1.574l0,0c0-0.87,0.706-1.576,1.575-1.576l0,0
			C341.102-313.744,341.808-313.038,341.808-312.168L341.808-312.168z"/>
		<path fill="none" stroke="#000000" stroke-width="1.5" stroke-linecap="round" stroke-miterlimit="10" d="M356.048-312.168
			c0,0.869-0.706,1.574-1.575,1.574l0,0c-0.869,0-1.575-0.705-1.575-1.574l0,0c0-0.87,0.706-1.576,1.575-1.576l0,0
			C355.342-313.744,356.048-313.038,356.048-312.168L356.048-312.168z"/>
		<path fill="none" stroke="#000000" stroke-width="1.5" stroke-linecap="round" stroke-miterlimit="10" d="M348.928-312.168
			c0,0.869-0.706,1.574-1.575,1.574l0,0c-0.869,0-1.575-0.705-1.575-1.574l0,0c0-0.87,0.706-1.576,1.575-1.576l0,0
			C348.222-313.744,348.928-313.038,348.928-312.168L348.928-312.168z"/>
		<path fill="none" stroke="#000000" stroke-width="1.5" stroke-linecap="round" stroke-miterlimit="10" d="M320.447-306.337
			c0,0.869-0.705,1.574-1.575,1.574l0,0c-0.87,0-1.575-0.705-1.575-1.574l0,0c0-0.871,0.706-1.576,1.575-1.576l0,0
			C319.742-307.913,320.447-307.208,320.447-306.337L320.447-306.337z"/>
		<path fill="none" stroke="#000000" stroke-width="1.5" stroke-linecap="round" stroke-miterlimit="10" d="M327.567-306.337
			c0,0.869-0.705,1.574-1.575,1.574l0,0c-0.869,0-1.575-0.705-1.575-1.574l0,0c0-0.871,0.706-1.576,1.575-1.576l0,0
			C326.862-307.913,327.567-307.208,327.567-306.337L327.567-306.337z"/>
		<path fill="none" stroke="#000000" stroke-width="1.5" stroke-linecap="round" stroke-miterlimit="10" d="M334.688-306.337
			c0,0.869-0.705,1.574-1.575,1.574l0,0c-0.869,0-1.574-0.705-1.574-1.574l0,0c0-0.871,0.705-1.576,1.574-1.576l0,0
			C333.982-307.913,334.688-307.208,334.688-306.337L334.688-306.337z"/>
		<path fill="none" stroke="#000000" stroke-width="1.5" stroke-linecap="round" stroke-miterlimit="10" d="M341.808-306.337
			c0,0.869-0.706,1.574-1.575,1.574l0,0c-0.869,0-1.575-0.705-1.575-1.574l0,0c0-0.871,0.706-1.576,1.575-1.576l0,0
			C341.102-307.913,341.808-307.208,341.808-306.337L341.808-306.337z"/>
		<path fill="none" stroke="#000000" stroke-width="1.5" stroke-linecap="round" stroke-miterlimit="10" d="M356.048-306.337
			c0,0.869-0.706,1.574-1.575,1.574l0,0c-0.869,0-1.575-0.705-1.575-1.574l0,0c0-0.871,0.706-1.576,1.575-1.576l0,0
			C355.342-307.913,356.048-307.208,356.048-306.337L356.048-306.337z"/>
		<path fill="none" stroke="#000000" stroke-width="1.5" stroke-linecap="round" stroke-miterlimit="10" d="M348.928-306.337
			c0,0.869-0.706,1.574-1.575,1.574l0,0c-0.869,0-1.575-0.705-1.575-1.574l0,0c0-0.871,0.706-1.576,1.575-1.576l0,0
			C348.222-307.913,348.928-307.208,348.928-306.337L348.928-306.337z"/>
		<path fill="none" stroke="#000000" stroke-width="1.5" stroke-linecap="round" stroke-miterlimit="10" d="M320.447-300.507
			c0,0.869-0.705,1.574-1.575,1.574l0,0c-0.87,0-1.575-0.705-1.575-1.574l0,0c0-0.87,0.706-1.576,1.575-1.576l0,0
			C319.742-302.083,320.447-301.377,320.447-300.507L320.447-300.507z"/>
		<path fill="none" stroke="#000000" stroke-width="1.5" stroke-linecap="round" stroke-miterlimit="10" d="M327.567-300.507
			c0,0.869-0.705,1.574-1.575,1.574l0,0c-0.869,0-1.575-0.705-1.575-1.574l0,0c0-0.87,0.706-1.576,1.575-1.576l0,0
			C326.862-302.083,327.567-301.377,327.567-300.507L327.567-300.507z"/>
		<path fill="none" stroke="#000000" stroke-width="1.5" stroke-linecap="round" stroke-miterlimit="10" d="M334.688-300.507
			c0,0.869-0.705,1.574-1.575,1.574l0,0c-0.869,0-1.574-0.705-1.574-1.574l0,0c0-0.87,0.705-1.576,1.574-1.576l0,0
			C333.982-302.083,334.688-301.377,334.688-300.507L334.688-300.507z"/>
	</g>
</g>
<g id="Layer_15" display="none">
	<g display="inline">
		
			<circle fill="none" stroke="#000000" stroke-width="1.5" stroke-linecap="round" stroke-miterlimit="10" cx="-293.236" cy="-221.145" r="2.458"/>
		
			<circle fill="none" stroke="#000000" stroke-width="1.5" stroke-linecap="round" stroke-miterlimit="10" cx="-281.854" cy="-221.145" r="2.458"/>
		
			<path fill="none" stroke="#000000" stroke-width="1.5" stroke-linecap="round" stroke-linejoin="round" stroke-miterlimit="10" d="
			M-295.339-240.59l20.166,3.04c0.815,0.288,1.054,1.039,0.681,1.817l-2.796,8.363c-0.438,0.76-0.467,1.194-1.371,1.327
			l-19.164,1.074c-0.913-0.121-1.209-0.566-1.362-1.514c0,0-0.534-13.045-0.534-17.181c0-0.296-0.304-0.562-0.494-0.587
			c-0.968-0.129-1.579-0.21-1.963-0.261c-0.654-0.086-1.012,0.468-1.012,0.468l-0.66,1.02"/>
		
			<line fill="none" stroke="#000000" stroke-width="1.5" stroke-linecap="round" stroke-miterlimit="10" x1="-295.339" y1="-235.738" x2="-279" y2="-233.516"/>
		
			<line fill="none" stroke="#000000" stroke-width="1.5" stroke-linecap="round" stroke-miterlimit="10" x1="-295.339" y1="-231.36" x2="-280.593" y2="-229.281"/>
	</g>
</g>
<g id="Layer_10" display="none">
	<g display="inline">
		<path fill="none" stroke="#000000" stroke-width="1.5" stroke-linecap="round" stroke-miterlimit="10" d="M-178.708-204.416
			c0,1.657-1.343,3-3,3h-41.333c-1.657,0-3-1.343-3-3v-23.667c0-1.656,1.343-3,3-3h41.333c1.657,0,3,1.344,3,3V-204.416z"/>
		<path fill="none" stroke="#000000" stroke-width="1.5" stroke-linecap="round" stroke-miterlimit="10" d="M-219.854-233.238
			v-12.679c0-1.224,0.993-2.216,2.216-2.216h30.528c1.223,0,2.215,0.992,2.215,2.216v12.679"/>
		
			<line fill="none" stroke="#000000" stroke-width="1.5" stroke-linecap="round" stroke-miterlimit="10" x1="-223.041" y1="-228.083" x2="-202.374" y2="-216.249"/>
		
			<line fill="none" stroke="#000000" stroke-width="1.5" stroke-linecap="round" stroke-miterlimit="10" x1="-181.708" y1="-228.083" x2="-202.374" y2="-216.249"/>
		
			<line fill="none" stroke="#000000" stroke-width="1.5" stroke-linecap="round" stroke-miterlimit="10" x1="-206.874" y1="-244.667" x2="-188.041" y2="-244.667"/>
		
			<line fill="none" stroke="#000000" stroke-width="1.5" stroke-linecap="round" stroke-miterlimit="10" x1="-206.874" y1="-240.917" x2="-188.041" y2="-240.917"/>
		
			<line fill="none" stroke="#000000" stroke-width="1.5" stroke-linecap="round" stroke-miterlimit="10" x1="-215.707" y1="-237.167" x2="-188.041" y2="-237.167"/>
		
			<circle fill="none" stroke="#000000" stroke-width="1.5" stroke-linecap="round" stroke-miterlimit="10" cx="-213.707" cy="-242.667" r="2"/>
	</g>
</g>
<g id="Layer_11" display="none">
	
		<path display="inline" fill="none" stroke="#000000" stroke-width="1.5" stroke-linecap="round" stroke-linejoin="round" stroke-miterlimit="10" d="
		M-107.227-224c0,6.062-5.232,7.5-9.375,7.5c-4.142,0-7.5-3.357-7.5-7.5c0-4.142,3.358-7.5,7.5-7.5c2.125,0,8.078,0.721,6.5,8.5"/>
</g>
<g id="Layer_12" display="none">
	<g display="inline">
		<g>
			
				<line fill="none" stroke="#000000" stroke-width="1.5" stroke-linecap="round" stroke-linejoin="round" stroke-miterlimit="10" x1="35.127" y1="-200.527" x2="40.058" y2="-218.521"/>
			
				<line fill="none" stroke="#000000" stroke-width="1.5" stroke-linecap="round" stroke-linejoin="round" stroke-miterlimit="10" x1="40.058" y1="-218.521" x2="43.899" y2="-200.527"/>
			
				<line fill="none" stroke="#000000" stroke-width="1.5" stroke-linecap="round" stroke-linejoin="round" stroke-miterlimit="10" x1="46.793" y1="-218.521" x2="50.634" y2="-200.527"/>
			
				<line fill="none" stroke="#000000" stroke-width="1.5" stroke-linecap="round" stroke-linejoin="round" stroke-miterlimit="10" x1="40.058" y1="-218.521" x2="47.48" y2="-218.521"/>
			
				<line fill="none" stroke="#000000" stroke-width="1.5" stroke-linecap="round" stroke-linejoin="round" stroke-miterlimit="10" x1="40.94" y1="-214.388" x2="47.635" y2="-214.388"/>
			
				<line fill="none" stroke="#000000" stroke-width="1.5" stroke-linecap="round" stroke-linejoin="round" stroke-miterlimit="10" x1="42.113" y1="-209.112" x2="48.802" y2="-209.112"/>
			
				<line fill="none" stroke="#000000" stroke-width="1.5" stroke-linecap="round" stroke-linejoin="round" stroke-miterlimit="10" x1="43.193" y1="-203.835" x2="49.929" y2="-203.835"/>
			
				<polyline fill="none" stroke="#000000" stroke-width="1.5" stroke-linecap="round" stroke-linejoin="round" stroke-miterlimit="10" points="
				37.15,-207.91 39.591,-205.882 42.39,-207.599 			"/>
		</g>
		<g>
			
				<line fill="none" stroke="#000000" stroke-width="1.5" stroke-linecap="round" stroke-linejoin="round" stroke-miterlimit="10" x1="60.961" y1="-200.527" x2="68.386" y2="-234.917"/>
			
				<line fill="none" stroke="#000000" stroke-width="1.5" stroke-linecap="round" stroke-linejoin="round" stroke-miterlimit="10" x1="68.386" y1="-234.917" x2="73.044" y2="-200.527"/>
			
				<line fill="none" stroke="#000000" stroke-width="1.5" stroke-linecap="round" stroke-linejoin="round" stroke-miterlimit="10" x1="75.121" y1="-234.917" x2="81.544" y2="-200.527"/>
			
				<path fill="none" stroke="#000000" stroke-width="1.5" stroke-linecap="round" stroke-linejoin="round" stroke-miterlimit="10" d="
				M75.121-234.917h-6.734c0,0-0.092-5.021,3.376-5.021S75.121-235.646,75.121-234.917z"/>
			
				<line fill="none" stroke="#000000" stroke-width="1.5" stroke-linecap="round" stroke-linejoin="round" stroke-miterlimit="10" x1="68.946" y1="-230.783" x2="75.893" y2="-230.783"/>
			
				<line fill="none" stroke="#000000" stroke-width="1.5" stroke-linecap="round" stroke-linejoin="round" stroke-miterlimit="10" x1="69.878" y1="-225.639" x2="76.854" y2="-225.639"/>
			
				<line fill="none" stroke="#000000" stroke-width="1.5" stroke-linecap="round" stroke-linejoin="round" stroke-miterlimit="10" x1="70.375" y1="-220.494" x2="77.815" y2="-220.494"/>
			
				<line fill="none" stroke="#000000" stroke-width="1.5" stroke-linecap="round" stroke-linejoin="round" stroke-miterlimit="10" x1="70.957" y1="-215.351" x2="78.776" y2="-215.351"/>
			
				<line fill="none" stroke="#000000" stroke-width="1.5" stroke-linecap="round" stroke-linejoin="round" stroke-miterlimit="10" x1="71.769" y1="-210.207" x2="79.737" y2="-210.207"/>
			
				<line fill="none" stroke="#000000" stroke-width="1.5" stroke-linecap="round" stroke-linejoin="round" stroke-miterlimit="10" x1="72.455" y1="-205.062" x2="80.698" y2="-205.062"/>
			
				<polyline fill="none" stroke="#000000" stroke-width="1.5" stroke-linecap="round" stroke-linejoin="round" stroke-miterlimit="10" points="
				64.587,-217.321 67.69,-213.062 70.957,-215.939 			"/>
		</g>
		<g>
			
				<line fill="none" stroke="#000000" stroke-width="1.5" stroke-linecap="round" stroke-linejoin="round" stroke-miterlimit="10" x1="33.964" y1="-226.1" x2="65.636" y2="-248.68"/>
			
				<line fill="none" stroke="#000000" stroke-width="1.5" stroke-linecap="round" stroke-linejoin="round" stroke-miterlimit="10" x1="68.732" y1="-244.338" x2="37.06" y2="-221.758"/>
			
				<line fill="none" stroke="#000000" stroke-width="1.5" stroke-linecap="round" stroke-linejoin="round" stroke-miterlimit="10" x1="35.493" y1="-227.142" x2="38.429" y2="-223.021"/>
			
				<line fill="none" stroke="#000000" stroke-width="1.5" stroke-linecap="round" stroke-linejoin="round" stroke-miterlimit="10" x1="39.478" y1="-229.936" x2="42.414" y2="-225.814"/>
			
				<line fill="none" stroke="#000000" stroke-width="1.5" stroke-linecap="round" stroke-linejoin="round" stroke-miterlimit="10" x1="43.484" y1="-232.696" x2="46.42" y2="-228.575"/>
			
				<line fill="none" stroke="#000000" stroke-width="1.5" stroke-linecap="round" stroke-linejoin="round" stroke-miterlimit="10" x1="51.43" y1="-238.314" x2="54.367" y2="-234.193"/>
			
				<line fill="none" stroke="#000000" stroke-width="1.5" stroke-linecap="round" stroke-linejoin="round" stroke-miterlimit="10" x1="47.423" y1="-235.553" x2="50.36" y2="-231.432"/>
			
				<line fill="none" stroke="#000000" stroke-width="1.5" stroke-linecap="round" stroke-linejoin="round" stroke-miterlimit="10" x1="55.28" y1="-241.296" x2="58.215" y2="-237.175"/>
			
				<line fill="none" stroke="#000000" stroke-width="1.5" stroke-linecap="round" stroke-linejoin="round" stroke-miterlimit="10" x1="59.376" y1="-243.93" x2="62.313" y2="-239.81"/>
			
				<line fill="none" stroke="#000000" stroke-width="1.5" stroke-linecap="round" stroke-linejoin="round" stroke-miterlimit="10" x1="63.36" y1="-246.724" x2="66.297" y2="-242.604"/>
		</g>
	</g>
</g>
<g id="Layer_9" display="none">
	<g display="inline">
		<g>
			
				<path fill="none" stroke="#000000" stroke-width="1.5" stroke-linecap="round" stroke-linejoin="round" stroke-miterlimit="10" d="
				M160.013-223.754l-3-12.39l-12.084,0l-0.77-0.701l-3.454-0.643l-4.909-1.752v-5.669l4.909-1.462l3.454-0.759l0.77-0.702h17.508
				c0.387,0,0.701,0.314,0.701,0.702l1.688,1.056v7.698l-1.688,1.898l3,12.9l0.844,2.682v2.661l-0.844,0.035
				c0,0.388-0.314,0.702-0.701,0.702h-12.931c-0.387,0-0.701-0.314-0.701-0.702v-1.23l0.844-0.562v-3.058
				c0-0.389,0.313-0.701,0.7-0.701H160.013"/>
			
				<polygon fill="none" stroke="#000000" stroke-width="1.5" stroke-linecap="round" stroke-linejoin="round" stroke-miterlimit="10" points="
				134.21,-244.145 133.063,-244.016 130.771,-243.334 130.771,-240.686 133.063,-239.868 134.21,-239.758 			"/>
			
				<line fill="none" stroke="#000000" stroke-width="1.5" stroke-linecap="round" stroke-linejoin="round" stroke-miterlimit="10" x1="130.771" y1="-241.952" x2="126.643" y2="-241.952"/>
			
				<line fill="none" stroke="#000000" stroke-width="1.5" stroke-linecap="round" stroke-linejoin="round" stroke-miterlimit="10" x1="140.706" y1="-244.578" x2="140.706" y2="-239.232"/>
			
				<path fill="none" stroke="#000000" stroke-width="1.5" stroke-linecap="round" stroke-linejoin="round" stroke-miterlimit="10" d="
				M145.09-239.236c-0.15,0-0.273-0.123-0.273-0.274v-4.79c0-0.152,0.123-0.274,0.273-0.274h7.168c0.149,0,0.272,0.122,0.272,0.274"
				/>
			
				<line fill="none" stroke="#000000" stroke-width="1.5" stroke-linecap="round" stroke-linejoin="round" stroke-miterlimit="10" x1="159.437" y1="-244.916" x2="162.39" y2="-241.542"/>
			
				<line fill="none" stroke="#000000" stroke-width="1.5" stroke-linecap="round" stroke-linejoin="round" stroke-miterlimit="10" x1="157.855" y1="-243.334" x2="160.808" y2="-239.96"/>
			
				<line fill="none" stroke="#000000" stroke-width="1.5" stroke-linecap="round" stroke-linejoin="round" stroke-miterlimit="10" x1="156.274" y1="-241.752" x2="159.226" y2="-238.378"/>
			
				<path fill="none" stroke="#000000" stroke-width="1.5" stroke-linecap="round" stroke-linejoin="round" stroke-miterlimit="10" d="
				M153.99-236.056c1.085,1.086,1.086,2.847,0,3.934"/>
			
				<circle fill="none" stroke="#000000" stroke-width="1.5" stroke-linecap="round" stroke-linejoin="round" stroke-miterlimit="10" cx="160.281" cy="-234.055" r="0.879"/>
			
				<line fill="none" stroke="#000000" stroke-width="1.5" stroke-linecap="round" stroke-linejoin="round" stroke-miterlimit="10" x1="162.238" y1="-223.754" x2="163.914" y2="-223.754"/>
		</g>
		<g>
			
				<circle fill="none" stroke="#000000" stroke-width="1.5" stroke-linecap="round" stroke-linejoin="round" stroke-miterlimit="10" cx="126.775" cy="-208.604" r="5.935"/>
			
				<circle fill="none" stroke="#000000" stroke-width="1.5" stroke-linecap="round" stroke-linejoin="round" stroke-miterlimit="10" cx="126.775" cy="-208.604" r="1.218"/>
			
				<path fill="none" stroke="#000000" stroke-width="1.5" stroke-linecap="round" stroke-linejoin="round" stroke-miterlimit="10" d="
				M126.775-217.355c4.833,0,8.751,3.917,8.751,8.751s-3.917,8.751-8.751,8.751"/>
			
				<path fill="none" stroke="#000000" stroke-width="1.5" stroke-linecap="round" stroke-linejoin="round" stroke-miterlimit="10" d="
				M129.872-216.974v-5.441c0-0.37,0-0.37-0.669-0.669c-0.429-0.192-1.757-0.67-1.757-0.67c-0.37,0-0.67,0.3-0.67,0.67v5.729"/>
			
				<path fill="none" stroke="#000000" stroke-width="1.5" stroke-linecap="round" stroke-linejoin="round" stroke-miterlimit="10" d="
				M165.009-212.487l-27.726-1.339c-0.127,0-0.237,0.063-0.31,0.157c0.79,1.517,1.243,3.236,1.243,5.064s-0.453,3.548-1.243,5.064
				c0.073,0.094,0.182,0.157,0.31,0.157l27.726-2.009c0.221,0,0.4-0.179,0.4-0.399l2.678-0.638v-2.176l-2.678-0.753v-2.73
				C165.41-212.308,165.23-212.487,165.009-212.487z"/>
			
				<line fill="none" stroke="#000000" stroke-width="1.5" stroke-linecap="round" stroke-linejoin="round" stroke-miterlimit="10" x1="162.367" y1="-212.159" x2="161.217" y2="-209.357"/>
			
				<line fill="none" stroke="#000000" stroke-width="1.5" stroke-linecap="round" stroke-linejoin="round" stroke-miterlimit="10" x1="159.869" y1="-212.622" x2="158.53" y2="-209.357"/>
			
				<line fill="none" stroke="#000000" stroke-width="1.5" stroke-linecap="round" stroke-linejoin="round" stroke-miterlimit="10" x1="157.181" y1="-212.622" x2="155.842" y2="-209.357"/>
			
				<path fill="none" stroke="#000000" stroke-width="1.5" stroke-linecap="round" stroke-linejoin="round" stroke-miterlimit="10" d="
				M144.861-208.465c0,0.37-0.299,0.67-0.669,0.67h-2.511c-0.37,0-0.669-0.3-0.669-0.67v-0.688c0-0.369,0.299-0.669,0.669-0.669
				h2.511c0.37,0,0.669,0.3,0.669,0.669V-208.465z"/>
			
				<circle fill="none" stroke="#000000" stroke-width="1.5" stroke-linecap="round" stroke-linejoin="round" stroke-miterlimit="10" cx="149.875" cy="-208.809" r="0.949"/>
			
				<path fill="none" stroke="#000000" stroke-width="1.5" stroke-linecap="round" stroke-linejoin="round" stroke-miterlimit="10" d="
				M143.89-213.92c0.096-0.208,0.004-0.454-0.203-0.549l-2.765-1.267c-0.208-0.096-0.454-0.004-0.549,0.205l-0.529,1.154
				c-0.096,0.208-0.004,0.454,0.204,0.55"/>
		</g>
	</g>
</g>
<g id="Layer_8" display="none">
	<g display="inline">
		
			<circle fill="none" stroke="#000000" stroke-width="1.5" stroke-linecap="round" stroke-miterlimit="10" cx="226.855" cy="-207.939" r="4.936"/>
		<path fill="none" stroke="#000000" stroke-width="1.5" stroke-linecap="round" stroke-miterlimit="10" d="M244.649-220.148
			h-35.588c-0.574,0-1.039,0.465-1.039,1.039v8.701c0,0.574,0.465,1.039,1.039,1.039h13.093c0.616-2.023,2.475-3.506,4.701-3.506
			c2.226,0,4.084,1.482,4.7,3.506h13.094c0.574,0,1.039-0.465,1.039-1.039v-8.701C245.688-219.684,245.223-220.148,244.649-220.148z
			"/>
		
			<polyline fill="none" stroke="#000000" stroke-width="1.5" stroke-linecap="round" stroke-linejoin="round" stroke-miterlimit="10" points="
			244.649,-209.369 254.455,-209.369 253.026,-210.797 		"/>
		
			<line fill="none" stroke="#000000" stroke-width="1.5" stroke-linecap="round" stroke-miterlimit="10" x1="249.551" y1="-209.369" x2="249.551" y2="-207.031"/>
		
			<polyline fill="none" stroke="#000000" stroke-width="1.5" stroke-linecap="round" stroke-linejoin="round" stroke-miterlimit="10" points="
			211.204,-219.82 212.958,-216.885 214.711,-219.82 		"/>
		
			<polyline fill="none" stroke="#000000" stroke-width="1.5" stroke-linecap="round" stroke-linejoin="round" stroke-miterlimit="10" points="
			218.127,-219.82 219.881,-216.885 221.634,-219.82 		"/>
		
			<polyline fill="none" stroke="#000000" stroke-width="1.5" stroke-linecap="round" stroke-linejoin="round" stroke-miterlimit="10" points="
			225.051,-219.82 226.805,-216.885 228.558,-219.82 		"/>
		
			<polyline fill="none" stroke="#000000" stroke-width="1.5" stroke-linecap="round" stroke-linejoin="round" stroke-miterlimit="10" points="
			231.975,-219.82 233.728,-216.885 235.482,-219.82 		"/>
		
			<polyline fill="none" stroke="#000000" stroke-width="1.5" stroke-linecap="round" stroke-linejoin="round" stroke-miterlimit="10" points="
			238.898,-219.82 240.652,-216.885 242.405,-219.82 		"/>
		
			<path fill="none" stroke="#000000" stroke-width="1.5" stroke-linecap="round" stroke-linejoin="round" stroke-miterlimit="10" d="
			M211.854-210.408c0,0.574-0.465,1.039-1.039,1.039h-1.753c-0.574,0-1.039-0.465-1.039-1.039v-2.467
			c0-0.574,0.465-1.039,1.039-1.039h1.753c0.574,0,1.039,0.465,1.039,1.039V-210.408z"/>
		
			<circle fill="none" stroke="#000000" stroke-width="1.5" stroke-linecap="round" stroke-miterlimit="10" cx="226.855" cy="-207.939" r="1.839"/>
		<g>
			
				<circle fill="none" stroke="#000000" stroke-width="1.5" stroke-linecap="round" stroke-miterlimit="10" cx="219.811" cy="-234.087" r="3.382"/>
			
				<circle fill="none" stroke="#000000" stroke-width="1.5" stroke-linecap="round" stroke-miterlimit="10" cx="228.928" cy="-234.087" r="3.381"/>
			
				<path fill="none" stroke="#000000" stroke-width="1.5" stroke-linecap="round" stroke-linejoin="round" stroke-miterlimit="10" d="
				M244.389-235.172h-0.551h-8.433c0,0,0,0-2.397-3.517c-0.182-0.267-0.437-0.64-1.121-0.64c-2.626,0-12.092,0-15.683,0
				c-0.248,0-0.735,0.25-0.881,0.45c-2.716,3.706-2.716,3.706-2.716,3.706h-4.064c-0.574,0-0.651-0.233-0.651-0.52v-7.966
				c0-0.287,0.077-0.52,0.651-0.52h35.295c0.575,0,0.551,0.232,0.551,0.52V-235.172z"/>
			
				<circle fill="none" stroke="#000000" stroke-width="1.5" stroke-linecap="round" stroke-miterlimit="10" cx="219.811" cy="-234.087" r="0.993"/>
			
				<circle fill="none" stroke="#000000" stroke-width="1.5" stroke-linecap="round" stroke-miterlimit="10" cx="228.929" cy="-234.087" r="0.993"/>
			
				<line fill="none" stroke="#000000" stroke-width="1.5" stroke-linecap="round" stroke-linejoin="round" stroke-miterlimit="10" x1="209.938" y1="-244.177" x2="209.938" y2="-245.995"/>
			
				<line fill="none" stroke="#000000" stroke-width="1.5" stroke-linecap="round" stroke-linejoin="round" stroke-miterlimit="10" x1="226.171" y1="-244.177" x2="226.171" y2="-245.995"/>
			
				<line fill="none" stroke="#000000" stroke-width="1.5" stroke-linecap="round" stroke-linejoin="round" stroke-miterlimit="10" x1="242.405" y1="-244.177" x2="242.405" y2="-245.995"/>
			
				<line fill="none" stroke="#000000" stroke-width="1.5" stroke-linecap="round" stroke-linejoin="round" stroke-miterlimit="10" x1="211.854" y1="-235.172" x2="211.854" y2="-232.142"/>
			
				<path fill="none" stroke="#000000" stroke-width="1.5" stroke-linecap="round" stroke-linejoin="round" stroke-miterlimit="10" d="
				M247.441-235.172h-1.039h-0.974h-1.039v-2.511c0-0.574,0.464-1.039,1.039-1.039h0.974c0.574,0,1.039,0.465,1.039,1.039V-235.172z
				"/>
			
				<line fill="none" stroke="#000000" stroke-width="1.5" stroke-linecap="round" stroke-linejoin="round" stroke-miterlimit="10" x1="247.441" y1="-235.172" x2="253.243" y2="-235.172"/>
			
				<line fill="none" stroke="#000000" stroke-width="1.5" stroke-linecap="round" stroke-linejoin="round" stroke-miterlimit="10" x1="239.973" y1="-241.969" x2="242.18" y2="-239.761"/>
			
				<line fill="none" stroke="#000000" stroke-width="1.5" stroke-linecap="round" stroke-linejoin="round" stroke-miterlimit="10" x1="238.348" y1="-240.344" x2="240.555" y2="-238.137"/>
			
				<circle fill="none" stroke="#000000" stroke-width="1.5" stroke-linecap="round" stroke-linejoin="round" stroke-miterlimit="10" cx="211.464" cy="-240.15" r="0.845"/>
		</g>
	</g>
</g>
<g id="Layer_7" display="none">
	<g display="inline">
		<g>
			
				<circle fill="none" stroke="#000000" stroke-width="1.5" stroke-linecap="round" stroke-miterlimit="10" cx="819.192" cy="-205.466" r="2.4"/>
			<path fill="none" stroke="#000000" stroke-width="1.5" stroke-linecap="round" stroke-miterlimit="10" d="M838.434-202.549
				c0.254,0.392-0.591,1.318-1.318,1.318c-0.729,0-1.572-0.927-1.319-1.318C836.154-203.102,838.074-203.102,838.434-202.549z"/>
			
				<circle fill="none" stroke="#000000" stroke-width="1.5" stroke-linecap="round" stroke-miterlimit="10" cx="819.192" cy="-205.466" r="4.8"/>
			<path fill="none" stroke="#000000" stroke-width="1.5" stroke-linecap="round" stroke-miterlimit="10" d="M817.506-218.551
				c-0.529-0.004-0.958,0.43-0.958,0.959v5.624c0.896-0.429,1.896-0.677,2.955-0.677c3.792,0,6.866,3.075,6.866,6.868
				c0,0.904-0.179,1.765-0.496,2.556h15.106c0.53,0,0.958-0.429,0.958-0.959c0,0,0.195-4.219-2.555-7.825
				C834.957-217.806,823.619-218.497,817.506-218.551z"/>
			<path fill="none" stroke="#000000" stroke-width="1.5" stroke-linecap="round" stroke-miterlimit="10" d="M825.412-219.515
				c0.029-0.528-0.375-0.98-0.902-1.01l-3.584-0.201c-0.528-0.029-0.98,0.375-1.01,0.903l-0.013,0.215
				c-0.029,0.528,0.375,0.98,0.903,1.01l3.584,0.201c0.527,0.028,0.98-0.376,1.01-0.903L825.412-219.515z"/>
			<path fill="none" stroke="#000000" stroke-width="1.5" stroke-linecap="round" stroke-miterlimit="10" d="M831.863-216.694
				c0,0-12.072-10.414-9.205-18.662c3.268-9.403,13.253-5.612,14.955-2.256"/>
			
				<polyline fill="none" stroke="#000000" stroke-width="1.5" stroke-linecap="round" stroke-linejoin="round" stroke-miterlimit="10" points="
				837.613,-237.612 847.766,-204.051 853.783,-204.051 			"/>
			
				<path fill="none" stroke="#000000" stroke-width="1.5" stroke-linecap="round" stroke-linejoin="round" stroke-miterlimit="10" d="
				M838.216-237.448c0.095,0.287-0.061,0.597-0.349,0.692l-0.302,0.1c-0.287,0.096-0.597-0.061-0.692-0.347l-0.1-0.304
				c-0.095-0.287,0.061-0.597,0.348-0.692l0.303-0.1c0.287-0.095,0.597,0.061,0.691,0.348L838.216-237.448z"/>
			
				<line fill="none" stroke="#000000" stroke-width="1.5" stroke-linecap="round" stroke-linejoin="round" stroke-miterlimit="10" x1="853.783" y1="-204.051" x2="846.262" y2="-203.065"/>
			
				<line fill="none" stroke="#000000" stroke-width="1.5" stroke-linecap="round" stroke-linejoin="round" stroke-miterlimit="10" x1="846.262" y1="-203.065" x2="847.766" y2="-204.051"/>
			
				<line fill="none" stroke="#000000" stroke-width="1.5" stroke-linecap="round" stroke-linejoin="round" stroke-miterlimit="10" x1="831.043" y1="-209.786" x2="831.043" y2="-206.59"/>
			
				<line fill="none" stroke="#000000" stroke-width="1.5" stroke-linecap="round" stroke-linejoin="round" stroke-miterlimit="10" x1="833.3" y1="-209.786" x2="833.3" y2="-206.59"/>
			
				<line fill="none" stroke="#000000" stroke-width="1.5" stroke-linecap="round" stroke-linejoin="round" stroke-miterlimit="10" x1="835.556" y1="-209.786" x2="835.556" y2="-206.59"/>
		</g>
		<g>
			
				<line fill="none" stroke="#000000" stroke-width="1.5" stroke-linecap="round" stroke-linejoin="round" stroke-miterlimit="10" x1="861.886" y1="-204.579" x2="853.696" y2="-243.806"/>
			<g>
				
					<path fill="none" stroke="#000000" stroke-width="1.5" stroke-linecap="round" stroke-linejoin="round" stroke-miterlimit="10" d="
					M861.113-246.834c-0.133-0.639-0.759-1.05-1.4-0.916l-13.128,2.741c-0.641,0.134-1.05,0.761-0.917,1.4l0.08,0.386
					c0.135,0.64,0.761,1.05,1.4,0.916l13.129-2.741c0.642-0.134,1.05-0.76,0.917-1.4L861.113-246.834z"/>
				
					<line fill="none" stroke="#000000" stroke-width="1.5" stroke-linecap="round" stroke-linejoin="round" stroke-miterlimit="10" x1="845.888" y1="-242.559" x2="845.195" y2="-245.872"/>
				
					<line fill="none" stroke="#000000" stroke-width="1.5" stroke-linecap="round" stroke-linejoin="round" stroke-miterlimit="10" x1="846.992" y1="-242.79" x2="846.252" y2="-246.333"/>
				
					<line fill="none" stroke="#000000" stroke-width="1.5" stroke-linecap="round" stroke-linejoin="round" stroke-miterlimit="10" x1="848.097" y1="-243.021" x2="847.404" y2="-246.333"/>
				
					<line fill="none" stroke="#000000" stroke-width="1.5" stroke-linecap="round" stroke-linejoin="round" stroke-miterlimit="10" x1="849.2" y1="-243.251" x2="848.461" y2="-246.794"/>
				
					<line fill="none" stroke="#000000" stroke-width="1.5" stroke-linecap="round" stroke-linejoin="round" stroke-miterlimit="10" x1="850.305" y1="-243.481" x2="849.613" y2="-246.794"/>
				
					<line fill="none" stroke="#000000" stroke-width="1.5" stroke-linecap="round" stroke-linejoin="round" stroke-miterlimit="10" x1="851.409" y1="-243.712" x2="850.67" y2="-247.255"/>
				
					<line fill="none" stroke="#000000" stroke-width="1.5" stroke-linecap="round" stroke-linejoin="round" stroke-miterlimit="10" x1="852.514" y1="-243.942" x2="851.822" y2="-247.255"/>
				
					<line fill="none" stroke="#000000" stroke-width="1.5" stroke-linecap="round" stroke-linejoin="round" stroke-miterlimit="10" x1="853.618" y1="-244.173" x2="852.878" y2="-247.716"/>
				
					<line fill="none" stroke="#000000" stroke-width="1.5" stroke-linecap="round" stroke-linejoin="round" stroke-miterlimit="10" x1="854.722" y1="-244.404" x2="854.03" y2="-247.716"/>
				
					<line fill="none" stroke="#000000" stroke-width="1.5" stroke-linecap="round" stroke-linejoin="round" stroke-miterlimit="10" x1="855.826" y1="-244.634" x2="855.086" y2="-248.177"/>
				
					<line fill="none" stroke="#000000" stroke-width="1.5" stroke-linecap="round" stroke-linejoin="round" stroke-miterlimit="10" x1="856.931" y1="-244.865" x2="856.238" y2="-248.177"/>
				
					<line fill="none" stroke="#000000" stroke-width="1.5" stroke-linecap="round" stroke-linejoin="round" stroke-miterlimit="10" x1="858.034" y1="-245.096" x2="857.295" y2="-248.639"/>
				
					<line fill="none" stroke="#000000" stroke-width="1.5" stroke-linecap="round" stroke-linejoin="round" stroke-miterlimit="10" x1="859.14" y1="-245.326" x2="858.447" y2="-248.639"/>
				
					<line fill="none" stroke="#000000" stroke-width="1.5" stroke-linecap="round" stroke-linejoin="round" stroke-miterlimit="10" x1="860.243" y1="-245.557" x2="859.504" y2="-249.1"/>
				
					<line fill="none" stroke="#000000" stroke-width="1.5" stroke-linecap="round" stroke-linejoin="round" stroke-miterlimit="10" x1="861.349" y1="-245.787" x2="860.656" y2="-249.1"/>
			</g>
		</g>
	</g>
</g>
<g id="Layer_6" display="none">
	<g display="inline">
		<g>
			
				<circle fill="none" stroke="#000000" stroke-width="1.5" stroke-linecap="round" stroke-miterlimit="10" cx="769.577" cy="-203.917" r="3.664"/>
			
				<line fill="none" stroke="#000000" stroke-width="1.5" stroke-linecap="round" stroke-miterlimit="10" x1="769.577" y1="-203.917" x2="765.772" y2="-208.584"/>
			<path fill="none" stroke="#000000" stroke-width="1.5" stroke-linecap="round" stroke-miterlimit="10" d="M765.741-208.64
				c-0.041,0.323-0.334,0.553-0.656,0.514l-15.24-1.913c-0.322-0.039-0.552-0.333-0.511-0.655l-6.173-12.698
				c0.041-0.322,0.336-0.551,0.656-0.509l27.812,3.485c0.322,0.041,0.551,0.333,0.51,0.655L765.741-208.64z"/>
			<path fill="none" stroke="#000000" stroke-width="1.5" stroke-linecap="round" stroke-miterlimit="10" d="M755.485-209.33
				c0,0-2.421,17.866-3.4,0.186"/>
			
				<polyline fill="none" stroke="#000000" stroke-width="1.5" stroke-linecap="round" stroke-linejoin="round" stroke-miterlimit="10" points="
				749.845,-210.039 744.31,-210.855 735.987,-220.915 729.618,-221.733 			"/>
			
				<polyline fill="none" stroke="#000000" stroke-width="1.5" stroke-linecap="round" stroke-linejoin="round" stroke-miterlimit="10" points="
				763.12,-218.737 767.675,-218.044 765.284,-214.349 			"/>
		</g>
		<g>
			
				<path fill="none" stroke="#000000" stroke-width="1.5" stroke-linecap="round" stroke-linejoin="round" stroke-miterlimit="10" d="
				M770.938-227.096c0,0.436-0.354,0.788-0.789,0.788c0,0-2.902-0.377-3.889-0.377c-0.984,0-3.889,0.377-3.889,0.377
				c-0.436,0-0.789-0.353-0.789-0.788l-1.574-11.914c0-0.435,0.352-0.788,0.787-0.788h10.93c0.436,0,0.787,0.353,0.787,0.788
				L770.938-227.096z"/>
			
				<line fill="none" stroke="#000000" stroke-width="1.5" stroke-linecap="round" stroke-linejoin="round" stroke-miterlimit="10" x1="769.267" y1="-237.046" x2="768.351" y2="-229.154"/>
			
				<path fill="none" stroke="#000000" stroke-width="1.5" stroke-linecap="round" stroke-linejoin="round" stroke-miterlimit="10" d="
				M766.261-247.397c-3.021,0-5.646,3.399-5.646,7.599h11.293C771.907-243.998,769.282-247.397,766.261-247.397z"/>
		</g>
		<g>
			
				<path fill="none" stroke="#000000" stroke-width="1.5" stroke-linecap="round" stroke-linejoin="round" stroke-miterlimit="10" d="
				M749.346-238.932c0.396,0.305,1.658,6.744,1.658,6.744s-6.548,0.431-6.944,0.125l-4.959-3.816
				c-0.396-0.305-0.398-0.967-0.004-1.478l2.646-1.957l1.213-3.061c0.395-0.511,1.033-0.679,1.43-0.374L749.346-238.932z"/>
			
				<line fill="none" stroke="#000000" stroke-width="1.5" stroke-linecap="round" stroke-linejoin="round" stroke-miterlimit="10" x1="743.268" y1="-238.139" x2="748.256" y2="-234.302"/>
			
				<path fill="none" stroke="#000000" stroke-width="1.5" stroke-linecap="round" stroke-linejoin="round" stroke-miterlimit="10" d="
				M741.808-240.879l-4.747-3.654l-1.323-1.74l-0.924,0.011c-0.396-0.304-0.963-0.23-1.268,0.166l-0.461,0.597
				c-0.305,0.397-0.23,0.964,0.166,1.269l0.225,0.895l2.021,0.834l4.747,3.654"/>
			
				<line fill="none" stroke="#000000" stroke-width="1.5" stroke-linecap="round" stroke-linejoin="round" stroke-miterlimit="10" x1="738.007" y1="-240.572" x2="739.569" y2="-242.602"/>
		</g>
	</g>
</g>
<g id="Layer_5" display="none">
	<g display="inline">
		<g>
			
				<path fill="none" stroke="#000000" stroke-width="1.5" stroke-linecap="round" stroke-linejoin="round" stroke-miterlimit="10" d="
				M648.909-235.833c0,0.397-0.322,0.719-0.721,0.719h-1.262c-0.397,0-0.721-0.322-0.721-0.719v-2.944
				c0-0.398,0.323-0.722,0.721-0.722h1.262c0.398,0,0.721,0.323,0.721,0.722V-235.833z"/>
			
				<path fill="none" stroke="#000000" stroke-width="1.5" stroke-linecap="round" stroke-linejoin="round" stroke-miterlimit="10" d="
				M667.278-235.833c0,0.397-0.322,0.719-0.721,0.719h-1.262c-0.398,0-0.721-0.322-0.721-0.719v-2.944
				c0-0.398,0.322-0.722,0.721-0.722h1.262c0.398,0,0.721,0.323,0.721,0.722V-235.833z"/>
			
				<path fill="none" stroke="#000000" stroke-width="1.5" stroke-linecap="round" stroke-linejoin="round" stroke-miterlimit="10" d="
				M671.612-241.606h-3.447v-1.724h3.629c0.398,0,0.723-0.322,0.723-0.719l-9.643-4.701c-0.398,0-0.719,0.323-0.719,0.721h-10.633
				c0-0.398-0.322-0.721-0.721-0.721l-9.642,4.701c0,0.397,0.323,0.719,0.721,0.719h3.438v1.724h-3.255
				c-0.394,0-0.711,0.319-0.711,0.71v2.192c0,0.394,0.317,0.713,0.711,0.713h0.061v7.651c0,0.374,0.304,0.676,0.678,0.676h28.074
				c0.371,0,0.674-0.302,0.674-0.676v-7.651h0.062c0.396,0,0.713-0.319,0.713-0.713v-2.192
				C672.325-241.287,672.009-241.606,671.612-241.606z M648.909-243.33h1.893c0.398,0,0.721-0.322,0.721-0.719v-0.301h10.633v0.301
				c0,0.397,0.32,0.719,0.719,0.719h1.701v1.724h-15.666V-243.33z"/>
			
				<line fill="none" stroke="#000000" stroke-width="1.5" stroke-linecap="round" stroke-linejoin="round" stroke-miterlimit="10" x1="651.12" y1="-237.307" x2="662.364" y2="-237.307"/>
			
				<line fill="none" stroke="#000000" stroke-width="1.5" stroke-linecap="round" stroke-linejoin="round" stroke-miterlimit="10" x1="652.573" y1="-248.029" x2="655.051" y2="-244.395"/>
			
				<line fill="none" stroke="#000000" stroke-width="1.5" stroke-linecap="round" stroke-linejoin="round" stroke-miterlimit="10" x1="655.749" y1="-248.029" x2="658.228" y2="-244.395"/>
			
				<line fill="none" stroke="#000000" stroke-width="1.5" stroke-linecap="round" stroke-linejoin="round" stroke-miterlimit="10" x1="658.925" y1="-248.029" x2="661.405" y2="-244.395"/>
		</g>
		<g>
			
				<path fill="none" stroke="#000000" stroke-width="1.5" stroke-linecap="round" stroke-linejoin="round" stroke-miterlimit="10" d="
				M688.172-225.932c-0.352,1.809-1.498,3.253-3.007,4.059c-1.148,0.614,0.646,8.069-5.127,6.944
				c-5.772-1.123-1.328-7.355-2.165-8.364c-1.086-1.311-1.597-3.086-1.246-4.888c0.621-3.188,3.709-5.27,6.897-4.648
				C686.712-232.208,688.793-229.12,688.172-225.932z"/>
			
				<line fill="none" stroke="#000000" stroke-width="1.5" stroke-linecap="round" stroke-linejoin="round" stroke-miterlimit="10" x1="677.633" y1="-221.304" x2="684.861" y2="-221.38"/>
			
				<line fill="none" stroke="#000000" stroke-width="1.5" stroke-linecap="round" stroke-linejoin="round" stroke-miterlimit="10" x1="677.192" y1="-219.044" x2="684.421" y2="-219.118"/>
			
				<line fill="none" stroke="#000000" stroke-width="1.5" stroke-linecap="round" stroke-linejoin="round" stroke-miterlimit="10" x1="677.338" y1="-216.669" x2="683.98" y2="-216.858"/>
			
				<path fill="none" stroke="#000000" stroke-width="1.5" stroke-linecap="round" stroke-linejoin="round" stroke-miterlimit="10" d="
				M685.078-226.999c0,0-0.777-1.414-2.354-1.722c-1.894-0.368-2.829,0.712-2.829,0.712l1.352,6.667L685.078-226.999z"/>
			
				<line fill="none" stroke="#000000" stroke-width="1.5" stroke-linecap="round" stroke-linejoin="round" stroke-miterlimit="10" x1="679.025" y1="-214.461" x2="680.725" y2="-214.13"/>
		</g>
		<g>
			<g>
				
					<circle fill="none" stroke="#000000" stroke-width="1.5" stroke-linecap="round" stroke-linejoin="round" stroke-miterlimit="10" cx="668.922" cy="-203.566" r="2.782"/>
				
					<circle fill="none" stroke="#000000" stroke-width="1.5" stroke-linecap="round" stroke-linejoin="round" stroke-miterlimit="10" cx="650.958" cy="-203.566" r="2.783"/>
				
					<path fill="none" stroke="#000000" stroke-width="1.5" stroke-linecap="round" stroke-linejoin="round" stroke-miterlimit="10" d="
					M675.206-205.314c0,0,0.299-3.181-2.385-3.181s-28.107,0-28.107,0v-13.415c0,0,0.361-2.492-2.492-2.492"/>
				
					<path fill="none" stroke="#000000" stroke-width="1.5" stroke-linecap="round" stroke-linejoin="round" stroke-miterlimit="10" d="
					M648.176-208.495c-2.558,0.804-3.25,3.427-3.25,4.555"/>
			</g>
			
				<path fill="none" stroke="#000000" stroke-width="1.5" stroke-linecap="round" stroke-linejoin="round" stroke-miterlimit="10" d="
				M654.498-212c0,0.491-0.397,0.89-0.89,0.89h-5.299c-0.492,0-0.891-0.398-0.891-0.89v-5.716c0-0.49,0.398-0.89,0.891-0.89h5.299
				c0.492,0,0.89,0.399,0.89,0.89V-212z"/>
			
				<path fill="none" stroke="#000000" stroke-width="1.5" stroke-linecap="round" stroke-linejoin="round" stroke-miterlimit="10" d="
				M664.899-212c0,0.491-0.398,0.89-0.891,0.89h-5.299c-0.492,0-0.89-0.398-0.89-0.89v-5.716c0-0.49,0.397-0.89,0.89-0.89h5.299
				c0.492,0,0.891,0.399,0.891,0.89V-212z"/>
			
				<path fill="none" stroke="#000000" stroke-width="1.5" stroke-linecap="round" stroke-linejoin="round" stroke-miterlimit="10" d="
				M671.537-211.541c0,0.238-0.192,0.431-0.43,0.431h-2.562c-0.237,0-0.431-0.192-0.431-0.431v-2.764c0-0.236,0.193-0.43,0.431-0.43
				h2.562c0.237,0,0.43,0.193,0.43,0.43V-211.541z"/>
		</g>
	</g>
</g>
<g id="Layer_4" display="none">
	<g display="inline">
		<path fill="none" stroke="#000000" stroke-width="1.5" stroke-linecap="round" stroke-miterlimit="10" d="M508.772-241.555
			c4.472,4.471,7.237,10.649,7.237,17.472c0,13.647-11.062,24.708-24.708,24.708c-13.646,0-24.709-11.062-24.709-24.708
			c0-13.646,11.062-24.708,24.709-24.708"/>
		<path fill="none" stroke="#000000" stroke-width="1.5" stroke-linecap="round" stroke-miterlimit="10" d="M479.354-232.156
			c0,5.56,1.282,20.75,6.842,20.75c4.408,0,3.425-13.875,6.017-13.875c2.033,0,1.267,13.875,5.233,13.875
			c5.526,0,7.625-15.223,7.625-20.75"/>
		<path fill="none" stroke="#000000" stroke-width="1.5" stroke-linecap="round" stroke-miterlimit="10" d="M477.729-233.61
			c0,0,0.444,0.628,1.576,0.845c1.068,0.205,1.424-0.414,1.424-0.414"/>
		<path fill="none" stroke="#000000" stroke-width="1.5" stroke-linecap="round" stroke-miterlimit="10" d="M503.571-233.167
			c0,0,0.445,0.628,1.576,0.845c1.068,0.205,1.424-0.414,1.424-0.414"/>
	</g>
</g>
<g id="Layer_3" display="none">
	<g display="inline">
		<path fill="none" stroke="#000000" stroke-width="1.5" stroke-linecap="round" stroke-miterlimit="10" d="M422.063-241.555
			c4.472,4.471,7.237,10.649,7.237,17.472c0,13.647-11.062,24.708-24.708,24.708c-13.646,0-24.709-11.062-24.709-24.708
			c0-13.646,11.062-24.708,24.709-24.708"/>
		<g>
			<g>
				<path fill="none" stroke="#000000" stroke-width="1.5" stroke-linecap="round" stroke-miterlimit="10" d="M399.032-235.519
					c1.331,1.236,1.907,7.523,1.965,9.339c0.13,4.073-0.834,10.04-0.834,14.116"/>
				<path fill="none" stroke="#000000" stroke-width="1.5" stroke-linecap="round" stroke-miterlimit="10" d="M396.158-235.732
					c7.679,0,18.167,1,18.167,12.91c0,11.258-11.95,9.996-17.167,11.434"/>
			</g>
			<path fill="none" stroke="#000000" stroke-width="1.5" stroke-linecap="round" stroke-miterlimit="10" d="M396.264-213.117
				c0.268,0.875,0.281,2.391,0,3.166"/>
			<path fill="none" stroke="#000000" stroke-width="1.5" stroke-linecap="round" stroke-miterlimit="10" d="M395.715-237.103
				c0.268,0.875,0.281,2.392,0,3.167"/>
		</g>
	</g>
</g>
<g id="Layer_2" display="none">
	
		<path display="inline" fill="none" stroke="#000000" stroke-width="1.5" stroke-linecap="round" stroke-linejoin="round" stroke-miterlimit="10" d="
		M304.706-217.194c0,0-5.087-5.087-7.049-7.049c-0.842-0.842-0.76-1.88-0.641-2.563c0.146-0.847,0.764-1.262,1.189-1.466
		c10.445-5.014,30.008-15.475,39.1-19.964c0.471-0.232,0.869-0.368,1.242,0.004c0.519,0.521,0.208,0.719-0.137,1.896
		c-2.685,9.162-11.893,34.382-14.505,43.378c-0.229,0.785-0.558,1.8-1.529,2.054c-0.796,0.206-1.472-0.089-1.894-0.511
		c-1.28-1.281-3.773-3.772-5.196-5.196c-1.14-1.14-1.732-2.146-2.898-2.147c-1.021-0.002-1.623,0.714-1.994,1.1
		c-1.191,1.241-4.865,4.867-4.865,4.867l16.982-29.637L304.706-217.194z"/>
</g>
<g id="GUIDES" display="none">
</g>
<g id="Layer_38">
	<g>
		
			<path fill="none" stroke="#000000" stroke-width="1.5" stroke-linecap="round" stroke-linejoin="round" stroke-miterlimit="10" d="
			M-24.497,16.915l-2.656,0.2v-2.263c0-0.331,0.269-0.6,0.6-0.6h1.456c0.332,0,0.6,0.269,0.6,0.6V16.915z"/>
		
			<path fill="none" stroke="#000000" stroke-width="1.5" stroke-linecap="round" stroke-linejoin="round" stroke-miterlimit="10" d="
			M-24.497,39.754c0,0.332-0.268,0.6-0.6,0.6h-1.456c-0.332,0-0.6-0.268-0.6-0.6v-12.25l2.656-0.2V39.754z"/>
		
			<path fill="none" stroke="#000000" stroke-width="1.5" stroke-linecap="round" stroke-linejoin="round" stroke-miterlimit="10" d="
			M-12.723,20.995c0.029,0.331-4.332,3.34-4.662,3.369c-4.508,0.395-18.03,1.578-18.03,1.578c-0.331,0.028-0.622-0.215-0.65-0.545
			l-0.41-4.682c-0.028-0.331,0.216-0.622,0.546-0.65c0,0,13.523-1.183,18.031-1.578C-17.568,18.458-12.752,20.665-12.723,20.995
			L-12.723,20.995z"/>
		
			<path fill="none" stroke="#000000" stroke-width="1.5" stroke-linecap="round" stroke-linejoin="round" stroke-miterlimit="10" d="
			M-32.493,23.055c0.021,0.239-0.156,0.449-0.396,0.47l-0.902,0.079c-0.239,0.021-0.45-0.155-0.471-0.395l-0.079-0.903
			c-0.021-0.239,0.156-0.45,0.395-0.471l0.903-0.079c0.239-0.021,0.45,0.156,0.471,0.396L-32.493,23.055z"/>
		
			<line fill="none" stroke="#000000" stroke-width="1.5" stroke-linecap="round" stroke-linejoin="round" stroke-miterlimit="10" x1="-30.204" y1="22.399" x2="-17.752" y2="21.31"/>
		
			<path fill="none" stroke="#000000" stroke-width="1.5" stroke-linecap="round" stroke-linejoin="round" stroke-miterlimit="10" d="
			M-29.666,38.392l1.05-1.3c0,0,1.188,2.223,1.576,3.011"/>
		
			<path fill="none" stroke="#000000" stroke-width="1.5" stroke-linecap="round" stroke-linejoin="round" stroke-miterlimit="10" d="
			M-22.365,39.025l-0.738-1.283c0,0-0.861,1.85-1.762,2.565"/>
	</g>
</g>
<g id="Layer_39">
	<g>
		
			<polygon fill="none" stroke="#000000" stroke-width="1.5" stroke-linecap="round" stroke-linejoin="round" stroke-miterlimit="10" points="
			18.867,22.878 17.816,17.957 22.739,19.006 		"/>
		
			<path fill="none" stroke="#000000" stroke-width="1.5" stroke-linecap="round" stroke-linejoin="round" stroke-miterlimit="10" d="
			M34.524,22.636c3.946,3.946,3.946,10.345-0.001,14.292c0,0-1.852-3.378-1.852-7.208C32.674,24.943,34.524,22.636,34.524,22.636z"
			/>
		
			<path fill="none" stroke="#000000" stroke-width="1.5" stroke-linecap="round" stroke-linejoin="round" stroke-miterlimit="10" d="
			M18.079,24.552c-2.104,4.665-1.26,10.335,2.573,14.168c4.951,4.951,12.979,4.951,17.929,0c4.952-4.951,4.952-12.979,0.001-17.93
			c-3.833-3.833-9.502-4.677-14.167-2.573"/>
		
			<circle fill="none" stroke="#000000" stroke-width="1.5" stroke-linecap="round" stroke-linejoin="round" stroke-miterlimit="10" cx="13.378" cy="11.664" r="3.604"/>
		
			<circle fill="none" stroke="#000000" stroke-width="1.5" stroke-linecap="round" stroke-linejoin="round" stroke-miterlimit="10" cx="8.396" cy="23.458" r="3.603"/>
		
			<circle fill="none" stroke="#000000" stroke-width="1.5" stroke-linecap="round" stroke-linejoin="round" stroke-miterlimit="10" cx="25.212" cy="7.741" r="3.604"/>
	</g>
</g>
<g id="Layer_40">
	<g>
		
			<path fill="none" stroke="#000000" stroke-width="1.5" stroke-linecap="round" stroke-linejoin="round" stroke-miterlimit="10" d="
			M75.396,18.243c0,0.214-0.174,0.388-0.388,0.388h-2.814c-0.215,0-0.389-0.174-0.389-0.388v-2.814c0-0.215,0.174-0.389,0.389-0.389
			h2.814c0.214,0,0.388,0.174,0.388,0.389V18.243z"/>
		
			<path fill="none" stroke="#000000" stroke-width="1.5" stroke-linecap="round" stroke-linejoin="round" stroke-miterlimit="10" d="
			M82.494,18.243c0,0.214-0.174,0.388-0.389,0.388h-2.814c-0.214,0-0.388-0.174-0.388-0.388v-2.814c0-0.215,0.174-0.389,0.388-0.389
			h2.814c0.215,0,0.389,0.174,0.389,0.389V18.243z"/>
		
			<path fill="none" stroke="#000000" stroke-width="1.5" stroke-linecap="round" stroke-linejoin="round" stroke-miterlimit="10" d="
			M89.591,18.243c0,0.214-0.174,0.388-0.389,0.388h-2.814c-0.213,0-0.388-0.174-0.388-0.388v-2.814c0-0.215,0.175-0.389,0.388-0.389
			h2.814c0.215,0,0.389,0.174,0.389,0.389V18.243z"/>
		
			<path fill="none" stroke="#000000" stroke-width="1.5" stroke-linecap="round" stroke-linejoin="round" stroke-miterlimit="10" d="
			M75.396,24.929c0,0.214-0.174,0.388-0.388,0.388h-2.814c-0.215,0-0.389-0.174-0.389-0.388v-2.814c0-0.215,0.174-0.389,0.389-0.389
			h2.814c0.214,0,0.388,0.174,0.388,0.389V24.929z"/>
		
			<path fill="none" stroke="#000000" stroke-width="1.5" stroke-linecap="round" stroke-linejoin="round" stroke-miterlimit="10" d="
			M82.494,24.929c0,0.214-0.174,0.388-0.389,0.388h-2.814c-0.214,0-0.388-0.174-0.388-0.388v-2.814c0-0.215,0.174-0.389,0.388-0.389
			h2.814c0.215,0,0.389,0.174,0.389,0.389V24.929z"/>
		
			<path fill="none" stroke="#000000" stroke-width="1.5" stroke-linecap="round" stroke-linejoin="round" stroke-miterlimit="10" d="
			M89.591,24.929c0,0.214-0.174,0.388-0.389,0.388h-2.814c-0.213,0-0.388-0.174-0.388-0.388v-2.814c0-0.215,0.175-0.389,0.388-0.389
			h2.814c0.215,0,0.389,0.174,0.389,0.389V24.929z"/>
		
			<path fill="none" stroke="#000000" stroke-width="1.5" stroke-linecap="round" stroke-linejoin="round" stroke-miterlimit="10" d="
			M75.396,31.614c0,0.214-0.174,0.388-0.388,0.388h-2.814c-0.215,0-0.389-0.174-0.389-0.388V28.8c0-0.214,0.174-0.388,0.389-0.388
			h2.814c0.214,0,0.388,0.174,0.388,0.388V31.614z"/>
		
			<path fill="none" stroke="#000000" stroke-width="1.5" stroke-linecap="round" stroke-linejoin="round" stroke-miterlimit="10" d="
			M82.494,31.614c0,0.214-0.174,0.388-0.389,0.388h-2.814c-0.214,0-0.388-0.174-0.388-0.388V28.8c0-0.214,0.174-0.388,0.388-0.388
			h2.814c0.215,0,0.389,0.174,0.389,0.388V31.614z"/>
		
			<path fill="none" stroke="#000000" stroke-width="1.5" stroke-linecap="round" stroke-linejoin="round" stroke-miterlimit="10" d="
			M89.591,31.614c0,0.214-0.174,0.388-0.389,0.388h-2.814c-0.213,0-0.388-0.174-0.388-0.388V28.8c0-0.214,0.175-0.388,0.388-0.388
			h2.814c0.215,0,0.389,0.174,0.389,0.388V31.614z"/>
	</g>
</g>
<g id="Layer_41">
	<path fill="none" stroke="#000000" stroke-width="1.5" stroke-linecap="round" stroke-linejoin="round" stroke-miterlimit="10" d="
		M106.414,18.243c0,0.214-0.174,0.388-0.388,0.388h-2.814c-0.215,0-0.389-0.174-0.389-0.388v-2.814c0-0.215,0.174-0.389,0.389-0.389
		h2.814c0.214,0,0.388,0.174,0.388,0.389V18.243z"/>
	<path fill="none" stroke="#000000" stroke-width="1.5" stroke-linecap="round" stroke-linejoin="round" stroke-miterlimit="10" d="
		M120.609,18.243c0,0.214-0.174,0.388-0.389,0.388h-9.912c-0.214,0-0.388-0.174-0.388-0.388v-2.814c0-0.215,0.174-0.389,0.388-0.389
		h9.912c0.215,0,0.389,0.174,0.389,0.389V18.243z"/>
	<path fill="none" stroke="#000000" stroke-width="1.5" stroke-linecap="round" stroke-linejoin="round" stroke-miterlimit="10" d="
		M106.414,24.929c0,0.214-0.174,0.388-0.388,0.388h-2.814c-0.215,0-0.389-0.174-0.389-0.388v-2.814c0-0.215,0.174-0.389,0.389-0.389
		h2.814c0.214,0,0.388,0.174,0.388,0.389V24.929z"/>
	<path fill="none" stroke="#000000" stroke-width="1.5" stroke-linecap="round" stroke-linejoin="round" stroke-miterlimit="10" d="
		M120.609,24.929c0,0.214-0.174,0.388-0.389,0.388h-9.912c-0.214,0-0.388-0.174-0.388-0.388v-2.814c0-0.215,0.174-0.389,0.388-0.389
		h9.912c0.215,0,0.389,0.174,0.389,0.389V24.929z"/>
	<path fill="none" stroke="#000000" stroke-width="1.5" stroke-linecap="round" stroke-linejoin="round" stroke-miterlimit="10" d="
		M106.414,31.614c0,0.214-0.174,0.388-0.388,0.388h-2.814c-0.215,0-0.389-0.174-0.389-0.388V28.8c0-0.214,0.174-0.388,0.389-0.388
		h2.814c0.214,0,0.388,0.174,0.388,0.388V31.614z"/>
	<path fill="none" stroke="#000000" stroke-width="1.5" stroke-linecap="round" stroke-linejoin="round" stroke-miterlimit="10" d="
		M120.609,31.614c0,0.214-0.174,0.388-0.389,0.388h-9.912c-0.214,0-0.388-0.174-0.388-0.388V28.8c0-0.214,0.174-0.388,0.388-0.388
		h9.912c0.215,0,0.389,0.174,0.389,0.388V31.614z"/>
</g>
<g id="Layer_42">
	<path fill="none" stroke="#000000" stroke-width="1.5" stroke-linecap="round" stroke-linejoin="round" stroke-miterlimit="10" d="
		M147.633,25.3c-0.332,0-0.6-0.269-0.6-0.6v-2.4c0-0.331,0.269-0.6,0.6-0.6h10.4c0.331,0,0.6,0.269,0.6,0.6v2.4
		c0,0.331-0.269,0.6-0.6,0.6H147.633z"/>
</g>
<g id="Layer_43">
	<path fill="none" stroke="#000000" stroke-width="1.5" stroke-linecap="round" stroke-linejoin="round" stroke-miterlimit="10" d="
		M188.534,21.7h-3.4v-3.4c0-0.332-0.269-0.6-0.6-0.6h-2.4c-0.331,0-0.6,0.269-0.6,0.6v3.4h-3.4c-0.332,0-0.6,0.269-0.6,0.6v2.4
		c0,0.331,0.269,0.6,0.6,0.6h3.4v3.4c0,0.332,0.269,0.6,0.6,0.6h2.4c0.331,0,0.6-0.268,0.6-0.6v-3.4h3.4c0.331,0,0.6-0.269,0.6-0.6
		v-2.4C189.133,21.969,188.865,21.7,188.534,21.7z"/>
</g>
</svg>
