<?xml version="1.0" encoding="iso-8859-1"?>
<!-- Generator: Adobe Illustrator 21.0.0, SVG Export Plug-In . SVG Version: 6.00 Build 0)  -->
<svg version="1.1" xmlns="http://www.w3.org/2000/svg" xmlns:xlink="http://www.w3.org/1999/xlink" x="0px" y="0px"
	 viewBox="0 0 10.807 8.194" style="enable-background:new 0 0 10.807 8.194;" xml:space="preserve">
<g id="small_x5F_check">
	<path style="fill:#CF4428;" d="M4.524,7.986c-0.2,0-0.39-0.08-0.529-0.22c-0.141-0.141-0.221-0.33-0.221-0.53
		c0-0.2,0.08-0.39,0.21-0.53c0.29-0.279,0.78-0.279,1.07-0.01c0.14,0.15,0.22,0.34,0.22,0.54c0,0.19-0.08,0.39-0.22,0.53
		C4.904,7.906,4.714,7.986,4.524,7.986z"/>
	<path style="fill:#CF4428;" d="M3.999,8.194c-0.369,0-0.735-0.135-1.006-0.405L0.418,5.214c-0.558-0.559-0.558-1.467-0.001-2.025
		c0.561-0.56,1.469-0.559,2.027-0.002l2.104,2.105c0.293,0.293,0.293,0.768,0,1.061C4.369,6.533,4.118,6.602,3.886,6.56l0.168,0.168
		c0.294-0.292,0.737-0.304,1.029-0.011C5.375,7.011,5.344,7.474,5.05,7.765C4.763,8.052,4.379,8.194,3.999,8.194z"/>
	<path style="fill:#CF4428;" d="M4.521,7.984c-0.192,0-0.385-0.073-0.531-0.221C3.698,7.47,3.698,6.995,3.992,6.703l5.335-5.317
		c-0.293,0.291-0.72,0.338-1.012,0.046c-0.293-0.293-0.246-0.72,0.047-1.013c0.56-0.559,1.467-0.558,2.026,0
		c0.559,0.56,0.559,1.469,0,2.027L5.05,7.765C4.904,7.911,4.712,7.984,4.521,7.984z"/>
	<path style="fill:#CF4428;" d="M4.019,6.572c-0.192,0-0.384-0.073-0.53-0.22c-0.293-0.293-0.293-0.768,0-1.061l4.308-4.308
		c0.293-0.293,0.768-0.293,1.061,0s0.293,0.768,0,1.061L4.549,6.352C4.403,6.499,4.211,6.572,4.019,6.572z"/>
</g>
<g id="Warstwa_1">
</g>
</svg>
