<?xml version="1.0" encoding="iso-8859-1"?>
<!-- Generator: Adobe Illustrator 16.0.0, SVG Export Plug-In . SVG Version: 6.00 Build 0)  -->
<!DOCTYPE svg PUBLIC "-//W3C//DTD SVG 1.1//EN" "http://www.w3.org/Graphics/SVG/1.1/DTD/svg11.dtd">
<svg version="1.1" xmlns="http://www.w3.org/2000/svg" xmlns:xlink="http://www.w3.org/1999/xlink" x="0px" y="0px"
	 width="38.219px" height="48.82px" viewBox="0 0 38.219 48.82" style="enable-background:new 0 0 38.219 48.82;"
	 xml:space="preserve">
<g id="Layer_17">
	<g>
		<g>
			
				<circle style="fill:none;stroke:#ffffff;stroke-width:1.5;stroke-linecap:round;stroke-miterlimit:10;" cx="10.192" cy="10.193" r="9.442"/>
			<path style="fill:none;stroke:#ffffff;stroke-width:1.5;stroke-linecap:round;stroke-miterlimit:10;" d="M24.692,27.266
				l-7.306-7.215c-0.796-0.798,1.084-0.207,1.881-1.004c0.795-0.797,0.208-2.678,1.004-1.882l15.6,15.599
				c0.797,0.797,0.797,2.089,0,2.886l0,0c-0.795,0.797-2.088,0.797-2.886,0l-7.018-9.536"/>
			<path style="fill:none;stroke:#ffffff;stroke-width:1.5;stroke-linecap:round;stroke-miterlimit:10;" d="M16.801,10.597
				c0,2.003-0.816-1.922-3.17-4.249c-2.399-2.374-6.317-3.17-4.248-3.17C13.48,3.178,16.801,5.742,16.801,10.597z"/>
		</g>
		<g>
			<g>
				<path style="fill:none;stroke:#ffffff;stroke-width:1.5;stroke-linecap:round;stroke-miterlimit:10;" d="M5.65,25.82
					c1.695-1.694,16.213,10.073,17.906,11.768l1.024,1.023c1.694,1.694,1.694,4.444,0,6.141l-2.047,2.047
					c-1.694,1.695-4.444,1.695-6.14-0.001l-1.023-1.022C13.676,44.08,1.908,29.563,3.602,27.866L5.65,25.82z"/>
				<path style="fill:none;stroke:#ffffff;stroke-width:1.5;stroke-linecap:round;stroke-miterlimit:10;" d="M27.081,20.23
					l6.888-6.887c0.802-0.802,2.101-0.804,2.9,0l0,0c0.8,0.798,0.8,2.095-0.001,2.899l-6.974,6.973"/>
				<path style="fill:none;stroke:#ffffff;stroke-width:1.5;stroke-linecap:round;stroke-miterlimit:10;" d="M23.104,30.005
					l-3.384,3.383c-0.801,0.801-1.076-0.223-1.877-1.021l0,0c-0.801-0.802-1.822-1.078-1.023-1.877l3.489-3.489"/>
				<path style="fill:none;stroke:#ffffff;stroke-width:1.5;stroke-linecap:round;stroke-miterlimit:10;" d="M10.84,42.269
					c-0.801,0.802-2.1,0.802-2.898,0.001l0,0c-0.803-0.802-0.803-2.099,0-2.902l0.318-0.316c0.801-0.799,1.074,0.223,1.875,1.022
					l0,0c0.801,0.801,1.822,1.075,1.023,1.877L10.84,42.269z"/>
			</g>
		</g>
	</g>
</g>
<g id="Layer_1">
</g>
</svg>
