<?xml version="1.0" encoding="iso-8859-1"?>
<!-- Generator: Adobe Illustrator 16.0.0, SVG Export Plug-In . SVG Version: 6.00 Build 0)  -->
<!DOCTYPE svg PUBLIC "-//W3C//DTD SVG 1.1//EN" "http://www.w3.org/Graphics/SVG/1.1/DTD/svg11.dtd">
<svg version="1.1" xmlns="http://www.w3.org/2000/svg" xmlns:xlink="http://www.w3.org/1999/xlink" x="0px" y="0px"
	 width="48.163px" height="46.87px" viewBox="0 0 48.163 46.87" style="enable-background:new 0 0 48.163 46.87;"
	 xml:space="preserve">
<g id="Layer_16">
	<g>
		<g>
			<path style="fill:none;stroke:#ffffff;stroke-width:1.5;stroke-linecap:round;stroke-miterlimit:10;" d="M20.57,2.896
				c1.132,1.594-10.304,11.668-11.897,12.8L7.71,16.38c-1.592,1.132-3.804,0.758-4.938-0.834l-1.368-1.924
				C0.272,12.029,0.646,9.817,2.24,8.685L3.201,8c1.594-1.133,14.868-8.623,16.002-7.029L20.57,2.896z"/>
			<path style="fill:none;stroke:#ffffff;stroke-width:1.5;stroke-linecap:round;stroke-miterlimit:10;" d="M26.087,26.423
				c0.535,0.755,0.361,1.8-0.395,2.332l0,0c-0.751,0.536-1.794,0.36-2.332-0.394L12.572,13.182
				c-0.535-0.753,0.325-0.835,1.076-1.371l0,0c0.753-0.535,1.115-1.319,1.648-0.567L26.087,26.423z"/>
			<path style="fill:none;stroke:#ffffff;stroke-width:1.5;stroke-linecap:round;stroke-miterlimit:10;" d="M6.638,4.834
				C6.102,4.08,6.278,3.036,7.031,2.502l0,0c0.754-0.537,1.796-0.36,2.333,0.395l0.211,0.299c0.533,0.752-0.325,0.833-1.078,1.37
				l0,0C7.746,5.1,7.387,5.885,6.851,5.132L6.638,4.834z"/>
		</g>
		<g>
			
				<rect x="2.82" y="34.69" transform="matrix(-0.986 -0.1668 0.1668 -0.986 41.1058 80.7944)" style="fill:none;stroke:#ffffff;stroke-width:1.5;stroke-linecap:round;stroke-linejoin:round;stroke-miterlimit:10;" width="42.25" height="7.963"/>
			<path style="fill:none;stroke:#ffffff;stroke-width:1.5;stroke-linecap:round;stroke-linejoin:round;stroke-miterlimit:10;" d="
				M28.923,35.851c-0.408,2.416-2.698,4.044-5.116,3.635c-2.417-0.408-4.044-2.698-3.635-5.115L28.923,35.851z"/>
			
				<line style="fill:none;stroke:#ffffff;stroke-width:1.5;stroke-linecap:round;stroke-linejoin:round;stroke-miterlimit:10;" x1="23.201" y1="36.838" x2="25.25" y2="37.185"/>
			
				<line style="fill:none;stroke:#ffffff;stroke-width:1.5;stroke-linecap:round;stroke-linejoin:round;stroke-miterlimit:10;" x1="8.312" y1="31.989" x2="6.984" y2="39.841"/>
			
				<line style="fill:none;stroke:#ffffff;stroke-width:1.5;stroke-linecap:round;stroke-linejoin:round;stroke-miterlimit:10;" x1="5.693" y1="33.855" x2="5.132" y2="37.177"/>
		</g>
		<g>
			<path style="fill:none;stroke:#ffffff;stroke-width:1.5;stroke-linecap:round;stroke-miterlimit:10;" d="M45.674,6.568
				c-0.156,1.441-1.451,2.482-2.893,2.326L28.738,7.372c-1.441-0.156-2.482-1.451-2.326-2.892l0,0
				c0.156-1.441,1.45-2.483,2.893-2.327l14.042,1.523C44.789,3.832,45.83,5.127,45.674,6.568L45.674,6.568z"/>
			<path style="fill:none;stroke:#ffffff;stroke-width:1.5;stroke-linecap:round;stroke-miterlimit:10;" d="M34.066,31.861
				c-0.961-0.104-1.764,0.027-1.659-0.934l1.123-10.356c0.104-0.961,0.86-0.661,1.821-0.557l0,0c0.96,0.104,1.763-0.027,1.659,0.935
				l-1.124,10.356C35.782,32.266,35.026,31.967,34.066,31.861L34.066,31.861z"/>
			
				<polyline style="fill:none;stroke:#ffffff;stroke-width:1.5;stroke-linecap:round;stroke-linejoin:round;stroke-miterlimit:10;" points="
				45.674,6.568 47.413,6.757 46.474,15.426 35.576,17.943 35.352,20.014 			"/>
		</g>
	</g>
</g>
<g id="Layer_1">
</g>
</svg>
