<?xml version="1.0" encoding="iso-8859-1"?>
<!-- Generator: Adobe Illustrator 16.0.0, SVG Export Plug-In . SVG Version: 6.00 Build 0)  -->
<!DOCTYPE svg PUBLIC "-//W3C//DTD SVG 1.1//EN" "http://www.w3.org/Graphics/SVG/1.1/DTD/svg11.dtd">
<svg version="1.1" xmlns="http://www.w3.org/2000/svg" xmlns:xlink="http://www.w3.org/1999/xlink" x="0px" y="0px"
	 width="18.099px" height="17.990px" viewBox="0 0 50.275 49.973" style="enable-background:new 0 0 50.275 49.973;"
	 xml:space="preserve">
<g id="Layer_28">
	<g>
		
			<circle style="fill:none;stroke:#ffffff;stroke-width:1.5;stroke-linecap:round;stroke-miterlimit:10;" cx="13.643" cy="13.644" r="12.893"/>
		<path style="fill:none;stroke:#ffffff;stroke-width:1.5;stroke-linecap:round;stroke-miterlimit:10;" d="M33.445,36.96
			l-9.977-9.854c-1.087-1.089,1.481-0.284,2.568-1.372c1.086-1.088,0.283-3.655,1.371-2.568L48.71,44.468
			c1.088,1.088,1.088,2.853,0,3.938l0,0c-1.086,1.088-2.851,1.088-3.939,0l-9.585-13.021"/>
		<path style="fill:none;stroke:#ffffff;stroke-width:1.5;stroke-linecap:round;stroke-miterlimit:10;" d="M22.668,14.196
			c0,2.735-1.115-2.624-4.329-5.803c-3.277-3.24-8.627-4.328-5.802-4.328C18.133,4.065,22.668,7.565,22.668,14.196z"/>
	</g>
</g>
<g id="Layer_1">
</g>
</svg>
