<?xml version="1.0" encoding="iso-8859-1"?>
<!-- Generator: Adobe Illustrator 16.0.0, SVG Export Plug-In . SVG Version: 6.00 Build 0)  -->
<!DOCTYPE svg PUBLIC "-//W3C//DTD SVG 1.1//EN" "http://www.w3.org/Graphics/SVG/1.1/DTD/svg11.dtd">
<svg version="1.1" xmlns="http://www.w3.org/2000/svg" xmlns:xlink="http://www.w3.org/1999/xlink" x="0px" y="0px"
	 width="48.621px" height="49.467px" viewBox="0 0 48.621 49.467" style="enable-background:new 0 0 48.621 49.467;"
	 xml:space="preserve">
<g id="Layer_5">
	<g>
		<g>
			<path style="fill:none;stroke:#ffffff;stroke-width:1.5;stroke-linecap:round;stroke-linejoin:round;stroke-miterlimit:10;" d="
				M8.499,13.667c0,0.397-0.322,0.719-0.721,0.719H6.517c-0.397,0-0.721-0.322-0.721-0.719v-2.944c0-0.398,0.323-0.722,0.721-0.722
				h1.262c0.398,0,0.721,0.323,0.721,0.722V13.667z"/>
			<path style="fill:none;stroke:#ffffff;stroke-width:1.5;stroke-linecap:round;stroke-linejoin:round;stroke-miterlimit:10;" d="
				M26.868,13.667c0,0.397-0.322,0.719-0.721,0.719h-1.262c-0.398,0-0.721-0.322-0.721-0.719v-2.944
				c0-0.398,0.322-0.722,0.721-0.722h1.262c0.398,0,0.721,0.323,0.721,0.722V13.667z"/>
			<path style="fill:none;stroke:#ffffff;stroke-width:1.5;stroke-linecap:round;stroke-linejoin:round;stroke-miterlimit:10;" d="
				M31.202,7.895h-3.447V6.171h3.629c0.398,0,0.723-0.322,0.723-0.719L22.464,0.75c-0.398,0-0.719,0.323-0.719,0.721H11.112
				c0-0.398-0.322-0.721-0.721-0.721L0.75,5.452c0,0.397,0.323,0.719,0.721,0.719h3.438v1.724H1.653
				c-0.394,0-0.711,0.319-0.711,0.71v2.192c0,0.394,0.317,0.713,0.711,0.713h0.061v7.651c0,0.374,0.304,0.676,0.678,0.676h28.074
				c0.371,0,0.674-0.302,0.674-0.676V11.51h0.063c0.396,0,0.713-0.319,0.713-0.713V8.605C31.915,8.214,31.599,7.895,31.202,7.895z
				 M8.499,6.171h1.893c0.398,0,0.721-0.322,0.721-0.719V5.151h10.633v0.301c0,0.397,0.32,0.719,0.719,0.719h1.701v1.724H8.499
				V6.171z"/>
			
				<line style="fill:none;stroke:#ffffff;stroke-width:1.5;stroke-linecap:round;stroke-linejoin:round;stroke-miterlimit:10;" x1="10.71" y1="12.194" x2="21.954" y2="12.194"/>
			
				<line style="fill:none;stroke:#ffffff;stroke-width:1.5;stroke-linecap:round;stroke-linejoin:round;stroke-miterlimit:10;" x1="12.163" y1="1.472" x2="14.641" y2="5.106"/>
			
				<line style="fill:none;stroke:#ffffff;stroke-width:1.5;stroke-linecap:round;stroke-linejoin:round;stroke-miterlimit:10;" x1="15.339" y1="1.472" x2="17.817" y2="5.106"/>
			
				<line style="fill:none;stroke:#ffffff;stroke-width:1.5;stroke-linecap:round;stroke-linejoin:round;stroke-miterlimit:10;" x1="18.515" y1="1.472" x2="20.995" y2="5.106"/>
		</g>
		<g>
			<path style="fill:none;stroke:#ffffff;stroke-width:1.5;stroke-linecap:round;stroke-linejoin:round;stroke-miterlimit:10;" d="
				M47.762,23.569c-0.352,1.809-1.498,3.253-3.007,4.059c-1.148,0.614,0.646,8.069-5.127,6.944
				c-5.772-1.123-1.328-7.355-2.165-8.364c-1.086-1.311-1.597-3.086-1.246-4.888c0.621-3.188,3.709-5.27,6.897-4.648
				C46.302,17.293,48.383,20.381,47.762,23.569z"/>
			
				<line style="fill:none;stroke:#ffffff;stroke-width:1.5;stroke-linecap:round;stroke-linejoin:round;stroke-miterlimit:10;" x1="37.223" y1="28.197" x2="44.451" y2="28.121"/>
			
				<line style="fill:none;stroke:#ffffff;stroke-width:1.5;stroke-linecap:round;stroke-linejoin:round;stroke-miterlimit:10;" x1="36.782" y1="30.457" x2="44.011" y2="30.383"/>
			
				<line style="fill:none;stroke:#ffffff;stroke-width:1.5;stroke-linecap:round;stroke-linejoin:round;stroke-miterlimit:10;" x1="36.928" y1="32.832" x2="43.57" y2="32.643"/>
			<path style="fill:none;stroke:#ffffff;stroke-width:1.5;stroke-linecap:round;stroke-linejoin:round;stroke-miterlimit:10;" d="
				M44.668,22.502c0,0-0.777-1.414-2.354-1.722c-1.894-0.368-2.829,0.712-2.829,0.712l1.352,6.667L44.668,22.502z"/>
			
				<line style="fill:none;stroke:#ffffff;stroke-width:1.5;stroke-linecap:round;stroke-linejoin:round;stroke-miterlimit:10;" x1="38.615" y1="35.04" x2="40.314" y2="35.371"/>
		</g>
		<g>
			<g>
				
					<circle style="fill:none;stroke:#ffffff;stroke-width:1.5;stroke-linecap:round;stroke-linejoin:round;stroke-miterlimit:10;" cx="28.512" cy="45.935" r="2.782"/>
				
					<circle style="fill:none;stroke:#ffffff;stroke-width:1.5;stroke-linecap:round;stroke-linejoin:round;stroke-miterlimit:10;" cx="10.548" cy="45.935" r="2.783"/>
				<path style="fill:none;stroke:#ffffff;stroke-width:1.5;stroke-linecap:round;stroke-linejoin:round;stroke-miterlimit:10;" d="
					M34.796,44.187c0,0,0.299-3.181-2.385-3.181s-28.107,0-28.107,0V27.591c0,0,0.361-2.492-2.492-2.492"/>
				<path style="fill:none;stroke:#ffffff;stroke-width:1.5;stroke-linecap:round;stroke-linejoin:round;stroke-miterlimit:10;" d="
					M7.766,41.006c-2.558,0.804-3.25,3.427-3.25,4.555"/>
			</g>
			<path style="fill:none;stroke:#ffffff;stroke-width:1.5;stroke-linecap:round;stroke-linejoin:round;stroke-miterlimit:10;" d="
				M14.088,37.501c0,0.491-0.397,0.89-0.89,0.89H7.899c-0.492,0-0.891-0.398-0.891-0.89v-5.716c0-0.49,0.398-0.89,0.891-0.89h5.299
				c0.492,0,0.89,0.399,0.89,0.89V37.501z"/>
			<path style="fill:none;stroke:#ffffff;stroke-width:1.5;stroke-linecap:round;stroke-linejoin:round;stroke-miterlimit:10;" d="
				M24.489,37.501c0,0.491-0.398,0.89-0.891,0.89H18.3c-0.492,0-0.89-0.398-0.89-0.89v-5.716c0-0.49,0.397-0.89,0.89-0.89h5.299
				c0.492,0,0.891,0.399,0.891,0.89V37.501z"/>
			<path style="fill:none;stroke:#ffffff;stroke-width:1.5;stroke-linecap:round;stroke-linejoin:round;stroke-miterlimit:10;" d="
				M31.127,37.96c0,0.238-0.192,0.431-0.43,0.431h-2.563c-0.237,0-0.431-0.192-0.431-0.431v-2.764c0-0.236,0.193-0.43,0.431-0.43
				h2.563c0.237,0,0.43,0.193,0.43,0.43V37.96z"/>
		</g>
	</g>
</g>
<g id="Layer_1">
</g>
</svg>
