<?xml version="1.0" encoding="iso-8859-1"?>
<!-- Generator: Adobe Illustrator 16.0.0, SVG Export Plug-In . SVG Version: 6.00 Build 0)  -->
<!DOCTYPE svg PUBLIC "-//W3C//DTD SVG 1.1//EN" "http://www.w3.org/Graphics/SVG/1.1/DTD/svg11.dtd">
<svg version="1.1" xmlns="http://www.w3.org/2000/svg" xmlns:xlink="http://www.w3.org/1999/xlink" x="0px" y="0px"
	 width="18.5154px" height="18.591px" viewBox="0 0 47.859 47.985" style="enable-background:new 0 0 47.859 47.985;"
	 xml:space="preserve">
<g id="Layer_30">
	<g>
		<path style="fill:none;stroke:#cf4428;stroke-width:1.5;stroke-linecap:round;stroke-miterlimit:10;" d="M3.541,7.244l6.717-5.647
			c0.88-1.095,2.707-1.087,3.802-0.208l19.161,15.4c1.096,0.88,7.495,14.018,5.291,16.76c-2.202,2.74-16.409-0.683-17.503-1.563
			l-19.163-15.4c-1.095-0.88-1.495-2.662-0.615-3.757l7.477-6.752"/>
		
			<circle style="fill:none;stroke:#cf4428;stroke-width:1.5;stroke-linecap:round;stroke-miterlimit:10;" cx="32.071" cy="28.37" r="2.684"/>
		<path style="fill:none;stroke:#cf4428;stroke-width:1.5;stroke-linecap:round;stroke-miterlimit:10;" d="M34.707,28.577
			c-2.833-1.167-5.833,1.833-4.833,4.833c3,5,2,10-0.323,13.816"/>
		<path style="fill:none;stroke:#cf4428;stroke-width:1.5;stroke-linecap:round;stroke-miterlimit:10;" d="M39.374,31.41
			c4.611-0.251,4.523,2.108,3.922,5.889c-0.61,3.838,1.897,6.772,3.813,9.937"/>
		
			<line style="fill:none;stroke:#cf4428;stroke-width:1.5;stroke-linecap:round;stroke-miterlimit:10;" x1="11.708" y1="6.077" x2="27.707" y2="18.744"/>
		
			<line style="fill:none;stroke:#cf4428;stroke-width:1.5;stroke-linecap:round;stroke-miterlimit:10;" x1="8.708" y1="10.077" x2="18.279" y2="17.654"/>
		
			<line style="fill:none;stroke:#cf4428;stroke-width:1.5;stroke-linecap:round;stroke-miterlimit:10;" x1="5.708" y1="14.077" x2="15.219" y2="21.607"/>
	</g>
</g>
<g id="Layer_1">
</g>
</svg>
