<?xml version="1.0" encoding="iso-8859-1"?>
<!-- Generator: Adobe Illustrator 16.0.0, SVG Export Plug-In . SVG Version: 6.00 Build 0)  -->
<!DOCTYPE svg PUBLIC "-//W3C//DTD SVG 1.1//EN" "http://www.w3.org/Graphics/SVG/1.1/DTD/svg11.dtd">
<svg version="1.1" xmlns="http://www.w3.org/2000/svg" xmlns:xlink="http://www.w3.org/1999/xlink" x="0px" y="0px"
	 width="45.123px" height="48.643px" viewBox="0 0 45.123 48.643" style="enable-background:new 0 0 45.123 48.643;"
	 xml:space="preserve">
<g id="Layer_6">
	<g>
		<g>
			
				<circle style="fill:none;stroke:#000000;stroke-width:1.5;stroke-linecap:round;stroke-miterlimit:10;" cx="40.709" cy="44.229" r="3.664"/>
			
				<line style="fill:none;stroke:#000000;stroke-width:1.5;stroke-linecap:round;stroke-miterlimit:10;" x1="40.709" y1="44.229" x2="36.904" y2="39.563"/>
			<path style="fill:none;stroke:#000000;stroke-width:1.5;stroke-linecap:round;stroke-miterlimit:10;" d="M36.873,39.507
				c-0.041,0.323-0.334,0.553-0.656,0.514l-15.24-1.913c-0.322-0.039-0.552-0.333-0.511-0.655l-6.173-12.698
				c0.041-0.322,0.336-0.551,0.656-0.509l27.813,3.485c0.322,0.041,0.551,0.333,0.51,0.655L36.873,39.507z"/>
			<path style="fill:none;stroke:#000000;stroke-width:1.5;stroke-linecap:round;stroke-miterlimit:10;" d="M26.617,38.816
				c0,0-2.421,17.866-3.4,0.186"/>
			
				<polyline style="fill:none;stroke:#000000;stroke-width:1.5;stroke-linecap:round;stroke-linejoin:round;stroke-miterlimit:10;" points="
				20.977,38.107 15.441,37.291 7.119,27.231 0.75,26.413 			"/>
			
				<polyline style="fill:none;stroke:#000000;stroke-width:1.5;stroke-linecap:round;stroke-linejoin:round;stroke-miterlimit:10;" points="
				34.252,29.409 38.807,30.103 36.416,33.798 			"/>
		</g>
		<g>
			<path style="fill:none;stroke:#000000;stroke-width:1.5;stroke-linecap:round;stroke-linejoin:round;stroke-miterlimit:10;" d="
				M42.07,21.05c0,0.436-0.354,0.788-0.789,0.788c0,0-2.902-0.377-3.889-0.377c-0.984,0-3.889,0.377-3.889,0.377
				c-0.436,0-0.789-0.353-0.789-0.788L31.141,9.136c0-0.435,0.352-0.788,0.787-0.788h10.93c0.436,0,0.787,0.353,0.787,0.788
				L42.07,21.05z"/>
			
				<line style="fill:none;stroke:#000000;stroke-width:1.5;stroke-linecap:round;stroke-linejoin:round;stroke-miterlimit:10;" x1="40.398" y1="11.1" x2="39.482" y2="18.992"/>
			<path style="fill:none;stroke:#000000;stroke-width:1.5;stroke-linecap:round;stroke-linejoin:round;stroke-miterlimit:10;" d="
				M37.393,0.75c-3.021,0-5.646,3.399-5.646,7.599h11.293C43.039,4.148,40.414,0.75,37.393,0.75z"/>
		</g>
		<g>
			<path style="fill:none;stroke:#000000;stroke-width:1.5;stroke-linecap:round;stroke-linejoin:round;stroke-miterlimit:10;" d="
				M20.478,9.214c0.396,0.305,1.658,6.744,1.658,6.744s-6.548,0.431-6.944,0.125l-4.959-3.816c-0.396-0.305-0.398-0.967-0.004-1.478
				l2.646-1.957l1.213-3.061c0.395-0.511,1.033-0.679,1.43-0.374L20.478,9.214z"/>
			
				<line style="fill:none;stroke:#000000;stroke-width:1.5;stroke-linecap:round;stroke-linejoin:round;stroke-miterlimit:10;" x1="14.399" y1="10.007" x2="19.388" y2="13.845"/>
			<path style="fill:none;stroke:#000000;stroke-width:1.5;stroke-linecap:round;stroke-linejoin:round;stroke-miterlimit:10;" d="
				M12.939,7.267L8.192,3.613l-1.323-1.74L5.945,1.884C5.55,1.58,4.982,1.653,4.678,2.049L4.217,2.646
				c-0.305,0.397-0.23,0.964,0.166,1.269L4.607,4.81l2.021,0.834l4.747,3.654"/>
			
				<line style="fill:none;stroke:#000000;stroke-width:1.5;stroke-linecap:round;stroke-linejoin:round;stroke-miterlimit:10;" x1="9.139" y1="7.575" x2="10.701" y2="5.544"/>
		</g>
	</g>
</g>
<g id="Layer_1">
</g>
</svg>
