<?xml version="1.0" encoding="iso-8859-1"?>
<!-- Generator: Adobe Illustrator 21.0.0, SVG Export Plug-In . SVG Version: 6.00 Build 0)  -->
<svg version="1.1" xmlns="http://www.w3.org/2000/svg" xmlns:xlink="http://www.w3.org/1999/xlink" x="0px" y="0px"
	 viewBox="0 0 25.255 27.601" style="enable-background:new 0 0 25.255 27.601;" xml:space="preserve">
<g id="localization-small">
	<path style="fill:none;stroke:#CF4428;stroke-width:1.5;stroke-linecap:round;stroke-linejoin:round;stroke-miterlimit:10;" d="
		M12.731,3.413l-2.656,0.2V1.35c0-0.331,0.269-0.6,0.6-0.6h1.456c0.332,0,0.6,0.269,0.6,0.6V3.413z"/>
	<path style="fill:none;stroke:#CF4428;stroke-width:1.5;stroke-linecap:round;stroke-linejoin:round;stroke-miterlimit:10;" d="
		M12.731,26.252c0,0.332-0.268,0.6-0.6,0.6h-1.456c-0.332,0-0.6-0.268-0.6-0.6v-12.25l2.656-0.2V26.252z"/>
	<path style="fill:none;stroke:#CF4428;stroke-width:1.5;stroke-linecap:round;stroke-linejoin:round;stroke-miterlimit:10;" d="
		M24.505,7.493c0.029,0.331-4.332,3.34-4.662,3.369c-4.508,0.394-18.03,1.578-18.03,1.578c-0.331,0.028-0.622-0.215-0.65-0.545
		l-0.41-4.682c-0.028-0.331,0.216-0.622,0.546-0.65c0,0,13.524-1.183,18.031-1.578C19.659,4.955,24.476,7.163,24.505,7.493
		L24.505,7.493z"/>
	<path style="fill:none;stroke:#CF4428;stroke-width:1.5;stroke-linecap:round;stroke-linejoin:round;stroke-miterlimit:10;" d="
		M4.735,9.553c0.02,0.239-0.156,0.449-0.396,0.47l-0.902,0.079c-0.239,0.021-0.45-0.155-0.471-0.394L2.887,8.805
		c-0.021-0.239,0.156-0.45,0.395-0.471l0.903-0.079c0.239-0.021,0.45,0.156,0.471,0.396L4.735,9.553z"/>
	
		<line style="fill:none;stroke:#CF4428;stroke-width:1.5;stroke-linecap:round;stroke-linejoin:round;stroke-miterlimit:10;" x1="7.024" y1="8.897" x2="19.476" y2="7.808"/>
	<path style="fill:none;stroke:#CF4428;stroke-width:1.5;stroke-linecap:round;stroke-linejoin:round;stroke-miterlimit:10;" d="
		M7.562,24.89l1.05-1.3c0,0,1.188,2.223,1.576,3.011"/>
	<path style="fill:none;stroke:#CF4428;stroke-width:1.5;stroke-linecap:round;stroke-linejoin:round;stroke-miterlimit:10;" d="
		M14.863,25.523l-0.738-1.283c0,0-0.861,1.85-1.762,2.565"/>
</g>
<g id="Warstwa_1">
</g>
</svg>
