<?xml version="1.0" encoding="iso-8859-1"?>
<!-- Generator: Adobe Illustrator 16.0.0, SVG Export Plug-In . SVG Version: 6.00 Build 0)  -->
<!DOCTYPE svg PUBLIC "-//W3C//DTD SVG 1.1//EN" "http://www.w3.org/Graphics/SVG/1.1/DTD/svg11.dtd">
<svg version="1.1" xmlns="http://www.w3.org/2000/svg" xmlns:xlink="http://www.w3.org/1999/xlink" x="0px" y="0px"
	 width="48.833px" height="48.217px" viewBox="0 0 48.833 48.217" style="enable-background:new 0 0 48.833 48.217;"
	 xml:space="preserve">
<g id="Layer_10">
	<g>
		<path style="fill:none;stroke:#FFFFFF;stroke-width:1.5;stroke-linecap:round;stroke-miterlimit:10;" d="M48.083,44.467
			c0,1.657-1.343,3-3,3H3.75c-1.657,0-3-1.343-3-3V20.8c0-1.656,1.343-3,3-3h41.333c1.657,0,3,1.344,3,3V44.467z"/>
		<path style="fill:none;stroke:#FFFFFF;stroke-width:1.5;stroke-linecap:round;stroke-miterlimit:10;" d="M6.937,15.645V2.966
			c0-1.224,0.993-2.216,2.216-2.216h30.528c1.223,0,2.215,0.992,2.215,2.216v12.679"/>
		
			<line style="fill:none;stroke:#FFFFFF;stroke-width:1.5;stroke-linecap:round;stroke-miterlimit:10;" x1="3.75" y1="20.8" x2="24.417" y2="32.634"/>
		
			<line style="fill:none;stroke:#FFFFFF;stroke-width:1.5;stroke-linecap:round;stroke-miterlimit:10;" x1="45.083" y1="20.8" x2="24.417" y2="32.634"/>
		
			<line style="fill:none;stroke:#FFFFFF;stroke-width:1.5;stroke-linecap:round;stroke-miterlimit:10;" x1="19.917" y1="4.216" x2="38.75" y2="4.216"/>
		
			<line style="fill:none;stroke:#FFFFFF;stroke-width:1.5;stroke-linecap:round;stroke-miterlimit:10;" x1="19.917" y1="7.966" x2="38.75" y2="7.966"/>
		
			<line style="fill:none;stroke:#FFFFFF;stroke-width:1.5;stroke-linecap:round;stroke-miterlimit:10;" x1="11.083" y1="11.716" x2="38.75" y2="11.716"/>
		
			<circle style="fill:none;stroke:#FFFFFF;stroke-width:1.5;stroke-linecap:round;stroke-miterlimit:10;" cx="13.083" cy="6.216" r="2"/>
	</g>
</g>
<g id="Layer_1">
</g>
</svg>
