<?xml version="1.0" encoding="iso-8859-1"?>
<!-- Generator: Adobe Illustrator 16.0.0, SVG Export Plug-In . SVG Version: 6.00 Build 0)  -->
<!DOCTYPE svg PUBLIC "-//W3C//DTD SVG 1.1//EN" "http://www.w3.org/Graphics/SVG/1.1/DTD/svg11.dtd">
<svg version="1.1" xmlns="http://www.w3.org/2000/svg" xmlns:xlink="http://www.w3.org/1999/xlink" x="0px" y="0px" width="48px"
	 height="40px" viewBox="0 0 48 40" style="enable-background:new 0 0 48 40;" xml:space="preserve">
<g id="Layer_29">
	<g>
		<path style="fill:none;stroke:#000000;stroke-width:2;stroke-linecap:round;stroke-miterlimit:10;" d="M8,3.5
			C8,4.881,6.881,6,5.5,6h-2C2.119,6,1,4.881,1,3.5l0,0C1,2.119,2.119,1,3.5,1h2C6.881,1,8,2.119,8,3.5L8,3.5z"/>
		<path style="fill:none;stroke:#000000;stroke-width:2;stroke-linecap:round;stroke-miterlimit:10;" d="M47,3.5
			C47,4.881,45.881,6,44.5,6h-30C13.119,6,12,4.881,12,3.5l0,0C12,2.119,13.119,1,14.5,1h30C45.881,1,47,2.119,47,3.5L47,3.5z"/>
		<path style="fill:none;stroke:#000000;stroke-width:2;stroke-linecap:round;stroke-miterlimit:10;" d="M8,19.5
			C8,20.881,6.881,22,5.5,22h-2C2.119,22,1,20.881,1,19.5l0,0C1,18.119,2.119,17,3.5,17h2C6.881,17,8,18.119,8,19.5L8,19.5z"/>
		<path style="fill:none;stroke:#000000;stroke-width:2;stroke-linecap:round;stroke-miterlimit:10;" d="M47,19.5
			c0,1.381-1.119,2.5-2.5,2.5h-30c-1.381,0-2.5-1.119-2.5-2.5l0,0c0-1.381,1.119-2.5,2.5-2.5h30C45.881,17,47,18.119,47,19.5
			L47,19.5z"/>
		<path style="fill:none;stroke:#000000;stroke-width:2;stroke-linecap:round;stroke-miterlimit:10;" d="M8,36.5
			C8,37.881,6.881,39,5.5,39h-2C2.119,39,1,37.881,1,36.5l0,0C1,35.119,2.119,34,3.5,34h2C6.881,34,8,35.119,8,36.5L8,36.5z"/>
		<path style="fill:none;stroke:#000000;stroke-width:2;stroke-linecap:round;stroke-miterlimit:10;" d="M47,36.5
			c0,1.381-1.119,2.5-2.5,2.5h-30c-1.381,0-2.5-1.119-2.5-2.5l0,0c0-1.381,1.119-2.5,2.5-2.5h30C45.881,34,47,35.119,47,36.5
			L47,36.5z"/>
	</g>
</g>
<g id="Layer_1">
</g>
</svg>
