<?xml version="1.0" encoding="iso-8859-1"?>
<!-- Generator: Adobe Illustrator 16.0.0, SVG Export Plug-In . SVG Version: 6.00 Build 0)  -->
<!DOCTYPE svg PUBLIC "-//W3C//DTD SVG 1.1//EN" "http://www.w3.org/Graphics/SVG/1.1/DTD/svg11.dtd">
<svg version="1.1" xmlns="http://www.w3.org/2000/svg" xmlns:xlink="http://www.w3.org/1999/xlink" x="0px" y="0px"
	 width="44.448px" height="33.625px" viewBox="0 0 44.448 33.625" style="enable-background:new 0 0 44.448 33.625;"
	 xml:space="preserve">
<g id="Layer_18">
	<g>
		<path style="fill:none;stroke:#cc4118;stroke-width:1.5;stroke-linecap:round;stroke-miterlimit:10;" d="M0.75,23.125V6.116
			c0-1.514,1.228-2.741,2.741-2.741h37.466c1.515,0,2.741,1.228,2.741,2.741v24.018c0,1.515-1.227,2.741-2.741,2.741H3.491
			c-1.514,0-2.741-1.227-2.741-2.741v-3.009"/>
		
			<circle style="fill:none;stroke:#cc4118;stroke-width:1.5;stroke-linecap:round;stroke-miterlimit:10;" cx="15.504" cy="18.438" r="9.162"/>
		<path style="fill:none;stroke:#cc4118;stroke-width:1.5;stroke-linecap:round;stroke-miterlimit:10;" d="M34.073,10.651
			c0,0.759-0.615,1.375-1.375,1.375l0,0c-0.76,0-1.375-0.616-1.375-1.375l0,0c0-0.759,0.615-1.375,1.375-1.375l0,0
			C33.458,9.276,34.073,9.892,34.073,10.651L34.073,10.651z"/>
		<path style="fill:none;stroke:#cc4118;stroke-width:1.5;stroke-linecap:round;stroke-miterlimit:10;" d="M39.879,10.651
			c0,0.759-0.615,1.375-1.375,1.375l0,0c-0.76,0-1.375-0.616-1.375-1.375l0,0c0-0.759,0.615-1.375,1.375-1.375l0,0
			C39.264,9.276,39.879,9.892,39.879,10.651L39.879,10.651z"/>
		<path style="fill:none;stroke:#cc4118;stroke-width:1.5;stroke-linecap:round;stroke-miterlimit:10;" d="M21.416,18.924
			c0,2.997-2.43,5.426-5.426,5.426S21.416,15.927,21.416,18.924z"/>
		<path style="fill:none;stroke:#cc4118;stroke-width:1.5;stroke-linecap:round;stroke-miterlimit:10;" d="M9.811,16.082
			c0-1.844,1.494-3.337,3.337-3.337S9.811,17.924,9.811,16.082z"/>
		<path style="fill:none;stroke:#cc4118;stroke-width:1.5;stroke-linecap:round;stroke-miterlimit:10;" d="M15.346,2.688
			c0-1.07-0.867-1.938-1.938-1.938H7.761c-1.07,0-1.938,0.868-1.938,1.938l0,0C7.042,2.688,14.261,2.688,15.346,2.688L15.346,2.688z
			"/>
		<path style="fill:none;stroke:#cc4118;stroke-width:1.5;stroke-linecap:round;stroke-miterlimit:10;" d="M38.533,2.688
			c0-1.07-0.868-1.938-1.938-1.938h-0.647c-1.07,0-1.938,0.868-1.938,1.938l0,0C35.229,2.688,37.448,2.688,38.533,2.688
			L38.533,2.688z"/>
		
			<line style="fill:none;stroke:#cc4118;stroke-width:1.5;stroke-linecap:round;stroke-miterlimit:10;" x1="31.323" y1="27.6" x2="40.573" y2="27.6"/>
		
			<line style="fill:none;stroke:#cc4118;stroke-width:1.5;stroke-linecap:round;stroke-miterlimit:10;" x1="31.323" y1="22.625" x2="40.573" y2="22.625"/>
	</g>
</g>
<g id="Layer_1">
</g>
</svg>
