<?xml version="1.0" encoding="iso-8859-1"?>
<!-- Generator: Adobe Illustrator 16.0.0, SVG Export Plug-In . SVG Version: 6.00 Build 0)  -->
<!DOCTYPE svg PUBLIC "-//W3C//DTD SVG 1.1//EN" "http://www.w3.org/Graphics/SVG/1.1/DTD/svg11.dtd">
<svg version="1.1" xmlns="http://www.w3.org/2000/svg" xmlns:xlink="http://www.w3.org/1999/xlink" x="0px" y="0px"
	 width="48.748px" height="49.48px" viewBox="0 0 48.748 49.48" style="enable-background:new 0 0 48.748 49.48;"
	 xml:space="preserve">
<g id="Layer_9">
	<g>
		<g>
			<path style="fill:none;stroke:#ffffff;stroke-width:1.5;stroke-linecap:round;stroke-linejoin:round;stroke-miterlimit:10;" d="
				M39.924,24.83l-3-12.39l-12.084,0l-0.77-0.701l-3.454-0.643l-4.909-1.752V3.673l4.909-1.462l3.454-0.759l0.77-0.702h17.508
				c0.387,0,0.701,0.314,0.701,0.702l1.688,1.056v7.698l-1.688,1.898l3,12.9l0.844,2.682v2.661l-0.844,0.035
				c0,0.388-0.314,0.702-0.701,0.702H32.416c-0.387,0-0.701-0.314-0.701-0.702v-1.23l0.844-0.563v-3.058
				c0-0.389,0.314-0.701,0.701-0.701H39.924"/>
			
				<polygon style="fill:none;stroke:#ffffff;stroke-width:1.5;stroke-linecap:round;stroke-linejoin:round;stroke-miterlimit:10;" points="
				14.12,4.439 12.973,4.568 10.681,5.25 10.681,7.898 12.973,8.716 14.12,8.826 			"/>
			
				<line style="fill:none;stroke:#ffffff;stroke-width:1.5;stroke-linecap:round;stroke-linejoin:round;stroke-miterlimit:10;" x1="10.681" y1="6.632" x2="6.553" y2="6.632"/>
			
				<line style="fill:none;stroke:#ffffff;stroke-width:1.5;stroke-linecap:round;stroke-linejoin:round;stroke-miterlimit:10;" x1="20.616" y1="4.006" x2="20.616" y2="9.352"/>
			<path style="fill:none;stroke:#ffffff;stroke-width:1.5;stroke-linecap:round;stroke-linejoin:round;stroke-miterlimit:10;" d="
				M25,9.348c-0.15,0-0.273-0.123-0.273-0.274v-4.79c0-0.152,0.123-0.274,0.273-0.274h7.168c0.15,0,0.273,0.122,0.273,0.274"/>
			
				<line style="fill:none;stroke:#ffffff;stroke-width:1.5;stroke-linecap:round;stroke-linejoin:round;stroke-miterlimit:10;" x1="39.348" y1="3.668" x2="42.301" y2="7.042"/>
			
				<line style="fill:none;stroke:#ffffff;stroke-width:1.5;stroke-linecap:round;stroke-linejoin:round;stroke-miterlimit:10;" x1="37.766" y1="5.25" x2="40.719" y2="8.624"/>
			
				<line style="fill:none;stroke:#ffffff;stroke-width:1.5;stroke-linecap:round;stroke-linejoin:round;stroke-miterlimit:10;" x1="36.184" y1="6.832" x2="39.137" y2="10.206"/>
			<path style="fill:none;stroke:#ffffff;stroke-width:1.5;stroke-linecap:round;stroke-linejoin:round;stroke-miterlimit:10;" d="
				M33.9,12.528c1.084,1.086,1.086,2.847,0,3.934"/>
			
				<circle style="fill:none;stroke:#ffffff;stroke-width:1.5;stroke-linecap:round;stroke-linejoin:round;stroke-miterlimit:10;" cx="40.191" cy="14.529" r="0.879"/>
			
				<line style="fill:none;stroke:#ffffff;stroke-width:1.5;stroke-linecap:round;stroke-linejoin:round;stroke-miterlimit:10;" x1="42.148" y1="24.83" x2="43.824" y2="24.83"/>
		</g>
		<g>
			
				<circle style="fill:none;stroke:#ffffff;stroke-width:1.5;stroke-linecap:round;stroke-linejoin:round;stroke-miterlimit:10;" cx="6.685" cy="39.979" r="5.935"/>
			
				<circle style="fill:none;stroke:#ffffff;stroke-width:1.5;stroke-linecap:round;stroke-linejoin:round;stroke-miterlimit:10;" cx="6.685" cy="39.979" r="1.218"/>
			<path style="fill:none;stroke:#ffffff;stroke-width:1.5;stroke-linecap:round;stroke-linejoin:round;stroke-miterlimit:10;" d="
				M6.685,31.229c4.833,0,8.751,3.917,8.751,8.751s-3.917,8.751-8.751,8.751"/>
			<path style="fill:none;stroke:#ffffff;stroke-width:1.5;stroke-linecap:round;stroke-linejoin:round;stroke-miterlimit:10;" d="
				M9.782,31.61v-5.441c0-0.37,0-0.37-0.669-0.669c-0.429-0.192-1.757-0.67-1.757-0.67c-0.37,0-0.67,0.3-0.67,0.67v5.729"/>
			<path style="fill:none;stroke:#ffffff;stroke-width:1.5;stroke-linecap:round;stroke-linejoin:round;stroke-miterlimit:10;" d="
				M44.92,36.097l-27.726-1.339c-0.127,0-0.237,0.063-0.31,0.157c0.79,1.517,1.243,3.236,1.243,5.064s-0.453,3.548-1.243,5.064
				c0.073,0.094,0.182,0.157,0.31,0.157l27.726-2.009c0.221,0,0.4-0.179,0.4-0.399l2.678-0.638v-2.176l-2.678-0.753v-2.73
				C45.32,36.276,45.141,36.097,44.92,36.097z"/>
			
				<line style="fill:none;stroke:#ffffff;stroke-width:1.5;stroke-linecap:round;stroke-linejoin:round;stroke-miterlimit:10;" x1="42.277" y1="36.425" x2="41.127" y2="39.227"/>
			
				<line style="fill:none;stroke:#ffffff;stroke-width:1.5;stroke-linecap:round;stroke-linejoin:round;stroke-miterlimit:10;" x1="39.779" y1="35.962" x2="38.439" y2="39.227"/>
			
				<line style="fill:none;stroke:#ffffff;stroke-width:1.5;stroke-linecap:round;stroke-linejoin:round;stroke-miterlimit:10;" x1="37.092" y1="35.962" x2="35.752" y2="39.227"/>
			<path style="fill:none;stroke:#ffffff;stroke-width:1.5;stroke-linecap:round;stroke-linejoin:round;stroke-miterlimit:10;" d="
				M24.771,40.119c0,0.37-0.299,0.67-0.669,0.67h-2.511c-0.37,0-0.669-0.3-0.669-0.67v-0.688c0-0.369,0.299-0.669,0.669-0.669h2.511
				c0.37,0,0.669,0.3,0.669,0.669V40.119z"/>
			
				<circle style="fill:none;stroke:#ffffff;stroke-width:1.5;stroke-linecap:round;stroke-linejoin:round;stroke-miterlimit:10;" cx="29.785" cy="39.775" r="0.949"/>
			<path style="fill:none;stroke:#ffffff;stroke-width:1.5;stroke-linecap:round;stroke-linejoin:round;stroke-miterlimit:10;" d="
				M23.8,34.664c0.096-0.208,0.004-0.454-0.203-0.549l-2.765-1.267c-0.208-0.096-0.454-0.004-0.549,0.205l-0.529,1.154
				c-0.096,0.208-0.004,0.454,0.204,0.55"/>
		</g>
	</g>
</g>
<g id="Layer_1">
</g>
</svg>
