<?xml version="1.0" encoding="iso-8859-1"?>
<!-- Generator: Adobe Illustrator 21.0.0, SVG Export Plug-In . SVG Version: 6.00 Build 0)  -->
<svg version="1.1" xmlns="http://www.w3.org/2000/svg" xmlns:xlink="http://www.w3.org/1999/xlink" x="0px" y="0px"
	 viewBox="0 0 29.667 28.4" style="enable-background:new 0 0 29.667 28.4;" xml:space="preserve">
<g id="rating-star-full">
	<path style="fill:none;stroke:#000000;stroke-width:1.5;stroke-linecap:round;stroke-linejoin:round;stroke-miterlimit:10;" d="
		M15.828,1.329l3.726,6.553c0.227,0.399,0.615,0.681,1.064,0.773l7.383,1.519c0.87,0.179,1.213,1.236,0.615,1.892l-5.081,5.569
		c-0.309,0.339-0.457,0.795-0.406,1.251l0.837,7.491c0.099,0.882-0.801,1.536-1.61,1.17l-6.866-3.111
		c-0.418-0.189-0.897-0.189-1.315,0L7.31,27.546c-0.809,0.366-1.708-0.287-1.61-1.17l0.837-7.491
		c0.051-0.456-0.097-0.912-0.406-1.251L1.05,12.066c-0.598-0.656-0.255-1.713,0.615-1.892l7.384-1.519
		c0.449-0.092,0.837-0.374,1.064-0.773l3.726-6.553C14.277,0.557,15.389,0.557,15.828,1.329z"/>
	<path d="M15.422,7.167l2.205,3.877c0.134,0.236,0.364,0.403,0.63,0.457l4.369,0.899c0.514,0.106,0.718,0.732,0.364,1.12
		l-3.006,3.295c-0.183,0.201-0.271,0.47-0.24,0.74l0.495,4.433c0.058,0.522-0.474,0.909-0.952,0.692l-4.063-1.841
		c-0.247-0.112-0.531-0.112-0.778,0l-4.063,1.841c-0.478,0.217-1.011-0.17-0.953-0.692l0.495-4.433c0.03-0.27-0.057-0.54-0.24-0.74
		L6.678,13.52c-0.354-0.388-0.151-1.014,0.364-1.12l4.369-0.899c0.266-0.055,0.495-0.221,0.63-0.457l2.205-3.877
		C14.504,6.711,15.162,6.711,15.422,7.167z"/>
</g>
<g id="Warstwa_1">
</g>
</svg>
