<?xml version="1.0" encoding="iso-8859-1"?>
<!-- Generator: Adobe Illustrator 16.0.0, SVG Export Plug-In . SVG Version: 6.00 Build 0)  -->
<!DOCTYPE svg PUBLIC "-//W3C//DTD SVG 1.1//EN" "http://www.w3.org/Graphics/SVG/1.1/DTD/svg11.dtd">
<svg version="1.1" xmlns="http://www.w3.org/2000/svg" xmlns:xlink="http://www.w3.org/1999/xlink" x="0px" y="0px"
	 width="42.981px" height="48.725px" viewBox="0 0 42.981 48.725" style="enable-background:new 0 0 42.981 48.725;"
	 xml:space="preserve">
<g id="Layer_20">
	<g>
		<path style="fill:none;stroke:#cc4118;stroke-width:1.5;stroke-linecap:round;stroke-miterlimit:10;" d="M29.433,35.298
			l0.477,8.873c0,2.102-1.702,3.804-3.804,3.804H4.553c-2.1,0-3.803-1.702-3.803-3.804V7.406c0-2.1,1.703-3.804,3.803-3.804H9.93"/>
		<path style="fill:none;stroke:#cc4118;stroke-width:1.5;stroke-linecap:round;stroke-miterlimit:10;" d="M20.729,3.603h5.377
			c2.102,0,3.804,1.704,3.804,3.804l-0.477,6.338"/>
		<path style="fill:none;stroke:#cc4118;stroke-width:1.5;stroke-linecap:round;stroke-miterlimit:10;" d="M20.729,4.316
			c0,1.182-1.318,2.14-2.945,2.14h-4.908c-1.626,0-2.945-0.958-2.945-2.14V2.89c0-1.182,1.319-2.139,2.945-2.139h4.908
			c1.627,0,2.945,0.958,2.945,2.139V4.316z"/>
		
			<line style="fill:none;stroke:#cc4118;stroke-width:2;stroke-linecap:round;stroke-miterlimit:10;" x1="6" y1="13.725" x2="25" y2="13.725"/>
		
			<line style="fill:none;stroke:#cc4118;stroke-width:2;stroke-linecap:round;stroke-miterlimit:10;" x1="6" y1="20.725" x2="25" y2="20.725"/>
		
			<line style="fill:none;stroke:#cc4118;stroke-width:2;stroke-linecap:round;stroke-miterlimit:10;" x1="6" y1="29.725" x2="13" y2="29.725"/>
		<g>
			<path style="fill:none;stroke:#cc4118;stroke-width:1.5;stroke-linecap:round;stroke-miterlimit:10;" d="M19.262,38.218
				c-0.742,0.742-1.049-0.153-1.792-0.896l0,0c-0.743-0.743-1.64-1.051-0.896-1.793l22.411-22.411c0.741-0.744,1.945-0.744,2.688,0
				l0,0c0.743,0.742,0.743,1.946,0,2.689L19.262,38.218z"/>
			<path style="fill:none;stroke:#cc4118;stroke-width:1.5;stroke-linecap:round;stroke-miterlimit:10;" d="M13.947,38.153
				c0.743-0.742,1.313-0.107,2.055,0.636l0,0c0.742,0.742,1.377,1.312,0.637,2.055l-1.225,1.223
				c-0.744,0.744-3.473,0.784-3.473,0.784s0.04-2.73,0.783-3.473L13.947,38.153z"/>
		</g>
	</g>
</g>
<g id="Layer_1">
</g>
</svg>
