<?xml version="1.0" encoding="iso-8859-1"?>
<!-- Generator: Adobe Illustrator 21.0.0, SVG Export Plug-In . SVG Version: 6.00 Build 0)  -->
<svg version="1.1" xmlns="http://www.w3.org/2000/svg" xmlns:xlink="http://www.w3.org/1999/xlink" x="0px" y="0px"
	 viewBox="0 0 39.002 39.795" style="enable-background:new 0 0 39.002 39.795;" xml:space="preserve">
<g id="show-item">
	
		<polygon style="fill:none;stroke:#ffffff;stroke-width:1.5;stroke-linecap:round;stroke-linejoin:round;stroke-miterlimit:10;" points="
		14.824,19.491 13.773,14.569 18.696,15.619 	"/>
	<path style="fill:none;stroke:#ffffff;stroke-width:1.5;stroke-linecap:round;stroke-linejoin:round;stroke-miterlimit:10;" d="
		M30.481,19.248c3.946,3.946,3.946,10.345-0.001,14.292c0,0-1.852-3.378-1.852-7.208C28.631,21.556,30.481,19.248,30.481,19.248z"/>
	<path style="fill:none;stroke:#ffffff;stroke-width:1.5;stroke-linecap:round;stroke-linejoin:round;stroke-miterlimit:10;" d="
		M14.036,21.164c-2.104,4.665-1.26,10.335,2.573,14.168c4.951,4.951,12.979,4.951,17.929,0c4.952-4.951,4.952-12.979,0.001-17.93
		c-3.833-3.833-9.502-4.677-14.167-2.573"/>
	
		<circle style="fill:none;stroke:#ffffff;stroke-width:1.5;stroke-linecap:round;stroke-linejoin:round;stroke-miterlimit:10;" cx="9.335" cy="8.276" r="3.603"/>
	
		<circle style="fill:none;stroke:#ffffff;stroke-width:1.5;stroke-linecap:round;stroke-linejoin:round;stroke-miterlimit:10;" cx="4.353" cy="20.07" r="3.603"/>
	
		<circle style="fill:none;stroke:#ffffff;stroke-width:1.5;stroke-linecap:round;stroke-linejoin:round;stroke-miterlimit:10;" cx="21.169" cy="4.353" r="3.603"/>
</g>
<g id="Warstwa_1">
</g>
</svg>
