<?xml version="1.0" encoding="iso-8859-1"?>
<!-- Generator: Adobe Illustrator 16.0.0, SVG Export Plug-In . SVG Version: 6.00 Build 0)  -->
<!DOCTYPE svg PUBLIC "-//W3C//DTD SVG 1.1//EN" "http://www.w3.org/Graphics/SVG/1.1/DTD/svg11.dtd">
<svg version="1.1" xmlns="http://www.w3.org/2000/svg" xmlns:xlink="http://www.w3.org/1999/xlink" x="0px" y="0px"
	 width="48.063px" height="44.491px" viewBox="0 0 48.063 44.491" style="enable-background:new 0 0 48.063 44.491;"
	 xml:space="preserve">
<g id="Layer_8">
	<g>
		
			<circle style="fill:none;stroke:#ffffff;stroke-width:1.5;stroke-linecap:round;stroke-miterlimit:10;" cx="19.713" cy="38.806" r="4.936"/>
		<path style="fill:none;stroke:#ffffff;stroke-width:1.5;stroke-linecap:round;stroke-miterlimit:10;" d="M37.507,26.597H1.919
			c-0.574,0-1.039,0.465-1.039,1.039v8.701c0,0.574,0.465,1.039,1.039,1.039h13.093c0.616-2.023,2.475-3.506,4.701-3.506
			c2.226,0,4.084,1.482,4.7,3.506h13.094c0.574,0,1.039-0.465,1.039-1.039v-8.701C38.546,27.062,38.081,26.597,37.507,26.597z"/>
		
			<polyline style="fill:none;stroke:#ffffff;stroke-width:1.5;stroke-linecap:round;stroke-linejoin:round;stroke-miterlimit:10;" points="
			37.507,37.376 47.313,37.376 45.884,35.948 		"/>
		
			<line style="fill:none;stroke:#ffffff;stroke-width:1.5;stroke-linecap:round;stroke-miterlimit:10;" x1="42.409" y1="37.376" x2="42.409" y2="39.714"/>
		
			<polyline style="fill:none;stroke:#ffffff;stroke-width:1.5;stroke-linecap:round;stroke-linejoin:round;stroke-miterlimit:10;" points="
			4.062,26.925 5.815,29.86 7.569,26.925 		"/>
		
			<polyline style="fill:none;stroke:#ffffff;stroke-width:1.5;stroke-linecap:round;stroke-linejoin:round;stroke-miterlimit:10;" points="
			10.985,26.925 12.739,29.86 14.492,26.925 		"/>
		
			<polyline style="fill:none;stroke:#ffffff;stroke-width:1.5;stroke-linecap:round;stroke-linejoin:round;stroke-miterlimit:10;" points="
			17.909,26.925 19.663,29.86 21.416,26.925 		"/>
		
			<polyline style="fill:none;stroke:#ffffff;stroke-width:1.5;stroke-linecap:round;stroke-linejoin:round;stroke-miterlimit:10;" points="
			24.833,26.925 26.586,29.86 28.34,26.925 		"/>
		
			<polyline style="fill:none;stroke:#ffffff;stroke-width:1.5;stroke-linecap:round;stroke-linejoin:round;stroke-miterlimit:10;" points="
			31.756,26.925 33.51,29.86 35.263,26.925 		"/>
		<path style="fill:none;stroke:#ffffff;stroke-width:1.5;stroke-linecap:round;stroke-linejoin:round;stroke-miterlimit:10;" d="
			M4.711,36.337c0,0.574-0.465,1.039-1.039,1.039H1.919c-0.574,0-1.039-0.465-1.039-1.039V33.87c0-0.574,0.465-1.039,1.039-1.039
			h1.753c0.574,0,1.039,0.465,1.039,1.039V36.337z"/>
		
			<circle style="fill:none;stroke:#ffffff;stroke-width:1.5;stroke-linecap:round;stroke-miterlimit:10;" cx="19.713" cy="38.806" r="1.839"/>
		<g>
			
				<circle style="fill:none;stroke:#ffffff;stroke-width:1.5;stroke-linecap:round;stroke-miterlimit:10;" cx="12.669" cy="12.658" r="3.382"/>
			
				<circle style="fill:none;stroke:#ffffff;stroke-width:1.5;stroke-linecap:round;stroke-miterlimit:10;" cx="21.785" cy="12.658" r="3.381"/>
			<path style="fill:none;stroke:#ffffff;stroke-width:1.5;stroke-linecap:round;stroke-linejoin:round;stroke-miterlimit:10;" d="
				M37.247,11.573h-0.551h-8.433c0,0,0,0-2.397-3.517c-0.182-0.267-0.437-0.64-1.121-0.64c-2.626,0-12.092,0-15.683,0
				c-0.248,0-0.735,0.25-0.881,0.45c-2.716,3.706-2.716,3.706-2.716,3.706H1.401c-0.574,0-0.651-0.233-0.651-0.52V3.088
				c0-0.287,0.077-0.52,0.651-0.52h35.295c0.575,0,0.551,0.232,0.551,0.52V11.573z"/>
			
				<circle style="fill:none;stroke:#ffffff;stroke-width:1.5;stroke-linecap:round;stroke-miterlimit:10;" cx="12.669" cy="12.658" r="0.993"/>
			
				<circle style="fill:none;stroke:#ffffff;stroke-width:1.5;stroke-linecap:round;stroke-miterlimit:10;" cx="21.787" cy="12.658" r="0.993"/>
			
				<line style="fill:none;stroke:#ffffff;stroke-width:1.5;stroke-linecap:round;stroke-linejoin:round;stroke-miterlimit:10;" x1="2.796" y1="2.568" x2="2.796" y2="0.75"/>
			
				<line style="fill:none;stroke:#ffffff;stroke-width:1.5;stroke-linecap:round;stroke-linejoin:round;stroke-miterlimit:10;" x1="19.029" y1="2.568" x2="19.029" y2="0.75"/>
			
				<line style="fill:none;stroke:#ffffff;stroke-width:1.5;stroke-linecap:round;stroke-linejoin:round;stroke-miterlimit:10;" x1="35.263" y1="2.568" x2="35.263" y2="0.75"/>
			
				<line style="fill:none;stroke:#ffffff;stroke-width:1.5;stroke-linecap:round;stroke-linejoin:round;stroke-miterlimit:10;" x1="4.711" y1="11.573" x2="4.711" y2="14.604"/>
			<path style="fill:none;stroke:#ffffff;stroke-width:1.5;stroke-linecap:round;stroke-linejoin:round;stroke-miterlimit:10;" d="
				M40.299,11.573H39.26h-0.974h-1.039V9.063c0-0.574,0.464-1.039,1.039-1.039h0.974c0.574,0,1.039,0.465,1.039,1.039V11.573z"/>
			
				<line style="fill:none;stroke:#ffffff;stroke-width:1.5;stroke-linecap:round;stroke-linejoin:round;stroke-miterlimit:10;" x1="40.299" y1="11.573" x2="46.101" y2="11.573"/>
			
				<line style="fill:none;stroke:#ffffff;stroke-width:1.5;stroke-linecap:round;stroke-linejoin:round;stroke-miterlimit:10;" x1="32.831" y1="4.776" x2="35.038" y2="6.984"/>
			
				<line style="fill:none;stroke:#ffffff;stroke-width:1.5;stroke-linecap:round;stroke-linejoin:round;stroke-miterlimit:10;" x1="31.206" y1="6.401" x2="33.413" y2="8.608"/>
			
				<circle style="fill:none;stroke:#ffffff;stroke-width:1.5;stroke-linecap:round;stroke-linejoin:round;stroke-miterlimit:10;" cx="4.322" cy="6.595" r="0.845"/>
		</g>
	</g>
</g>
<g id="Layer_1">
</g>
</svg>
