<?xml version="1.0" encoding="iso-8859-1"?>
<!-- Generator: Adobe Illustrator 21.0.0, SVG Export Plug-In . SVG Version: 6.00 Build 0)  -->
<svg version="1.1" xmlns="http://www.w3.org/2000/svg" xmlns:xlink="http://www.w3.org/1999/xlink" x="0px" y="0px"
	 viewBox="0 0 63.958 50.917" style="enable-background:new 0 0 63.958 50.917;" xml:space="preserve">
<g id="Warstwa_1_1_">
	<g>
		<g>
			<g>
				<path style="fill:none;stroke:#d45940;stroke-width:1.5;stroke-linecap:round;stroke-miterlimit:10;" d="M19.549,14.023
					c1.331,1.236,1.907,7.523,1.965,9.339c0.13,4.073-0.834,10.04-0.834,14.116"/>
				<path style="fill:none;stroke:#d45940;stroke-width:1.5;stroke-linecap:round;stroke-miterlimit:10;" d="M16.675,13.81
					c7.679,0,18.167,1,18.167,12.91c0,11.258-11.95,9.996-17.167,11.434"/>
			</g>
			<path style="fill:none;stroke:#d45940;stroke-width:1.5;stroke-linecap:round;stroke-miterlimit:10;" d="M16.781,36.425
				c0.268,0.875,0.281,2.391,0,3.166"/>
			<path style="fill:none;stroke:#d45940;stroke-width:1.5;stroke-linecap:round;stroke-miterlimit:10;" d="M16.232,12.44
				c0.268,0.875,0.281,2.392,0,3.167"/>
		</g>
		<path style="fill:none;stroke:#d45940;stroke-width:1.5;stroke-linecap:round;stroke-miterlimit:10;" d="M43.148,28.341
			c-4.343,0.835-8.5,8.25-1.75,8.75s6.75-5.5,6.75-5.5S49.648,27.091,43.148,28.341z"/>
		<path style="fill:none;stroke:#d45940;stroke-width:1.5;stroke-linecap:round;stroke-miterlimit:10;" d="M52.648,37.121
			c0,0-6,1.97-4.5-5.53"/>
		<path style="fill:none;stroke:#d45940;stroke-width:1.5;stroke-linecap:round;stroke-miterlimit:10;" d="M53.208,28.029
			c2.75,4.587,3.686,6.67,6,6.67c1.958,0,0.75-5.958,4-6.67"/>
		<path style="fill:none;stroke:#d45940;stroke-width:1.5;stroke-linecap:round;stroke-miterlimit:10;" d="M50.958,43.365
			c-0.093,0.45,7.33-1.182,9.332-9.876"/>
	</g>
	<path style="fill:none;stroke:#d45940;stroke-width:1.5;stroke-linecap:round;stroke-miterlimit:10;" d="M42.93,42.93
		c-4.471,4.472-10.649,7.237-17.472,7.237c-13.647,0-24.708-11.063-24.708-24.708C0.75,11.813,11.811,0.75,25.458,0.75
		c13.646,0,24.708,11.063,24.708,24.709"/>
</g>
<g id="Warstwa_1">
</g>
</svg>
