<?xml version="1.0" encoding="iso-8859-1"?>
<!-- Generator: Adobe Illustrator 21.0.0, SVG Export Plug-In . SVG Version: 6.00 Build 0)  -->
<svg version="1.1" xmlns="http://www.w3.org/2000/svg" xmlns:xlink="http://www.w3.org/1999/xlink" x="0px" y="0px"
	 viewBox="0 0 85.059 50.92" style="enable-background:new 0 0 85.059 50.92;" xml:space="preserve">
<g id="Warstwa_5">
	<g>
		<path style="fill:none;stroke:#d45940;stroke-width:1.5;stroke-linecap:round;stroke-miterlimit:10;" d="M38.079,16.376
			c0,0,0.445,0.628,1.576,0.845c1.068,0.205,1.424-0.414,1.424-0.414"/>
		<g>
			<path style="fill:none;stroke:#d45940;stroke-width:1.5;stroke-linecap:round;stroke-miterlimit:10;" d="M13.863,17.387
				c0,5.56,1.282,20.75,6.842,20.75c4.408,0,3.425-13.875,6.017-13.875c2.033,0,1.267,13.875,5.233,13.875
				c5.526,0,7.625-15.223,7.625-20.75"/>
			<path style="fill:none;stroke:#d45940;stroke-width:1.5;stroke-linecap:round;stroke-miterlimit:10;" d="M12.238,15.933
				c0,0,0.444,0.628,1.576,0.845c1.068,0.205,1.424-0.414,1.424-0.414"/>
		</g>
		<path style="fill:none;stroke:#d45940;stroke-width:1.5;stroke-linecap:round;stroke-miterlimit:10;" d="M44.226,33.392h5.248
			c3.215,0,4.177-4.423,1.231-5.709c-0.606-0.264-1.315-0.432-2.146-0.458c-5.332-0.167-12.728,12,3.668,10.833
			c0,0,0.958-0.5-0.292-1.188"/>
		<path style="fill:none;stroke:#d45940;stroke-width:1.5;stroke-linecap:round;stroke-miterlimit:10;" d="M58.664,33.392h5.248
			c3.215,0,4.177-4.423,1.231-5.709c-0.606-0.264-1.315-0.432-2.146-0.458c-5.332-0.167-12.728,12,3.668,10.833
			c0,0,0.958-0.5-0.292-1.188"/>
		<path style="fill:none;stroke:#d45940;stroke-width:1.5;stroke-linecap:round;stroke-miterlimit:10;" d="M75.122,18.304
			c0,0,1.063,18.875-0.938,19.5"/>
		<path style="fill:none;stroke:#d45940;stroke-width:1.5;stroke-linecap:round;stroke-miterlimit:10;" d="M84.309,20.741
			l-10.083,6.722c-2.104,1.715-1.125,2.206,0.022,3.273l9.562,6.193"/>
		<path style="fill:none;stroke:#d45940;stroke-width:1.5;stroke-linecap:round;stroke-miterlimit:10;" d="M74.184,18.304
			c-0.007-0.061,1.309,0.254,1.813-0.438"/>
	</g>
	<path style="fill:none;stroke:#d45940;stroke-width:1.5;stroke-linecap:round;stroke-miterlimit:10;" d="M44.401,41.326
		c-4.06,4.848-9.971,8.146-16.767,8.747C14.04,51.273,2.048,41.227,0.847,27.635C-0.353,14.041,9.692,2.048,23.286,0.847
		c13.593-1.201,25.586,8.846,26.787,22.439"/>
</g>
<g id="Warstwa_1">
</g>
</svg>
