<?xml version="1.0" encoding="iso-8859-1"?>
<!-- Generator: Adobe Illustrator 21.0.0, SVG Export Plug-In . SVG Version: 6.00 Build 0)  -->
<svg version="1.1" xmlns="http://www.w3.org/2000/svg" xmlns:xlink="http://www.w3.org/1999/xlink" x="0px" y="0px"
	 viewBox="0 0 37.219 36.997" style="enable-background:new 0 0 37.219 36.997;" xml:space="preserve">
<g id="zoom">
	
		<circle style="fill:none;stroke:#ffffff;stroke-width:1.5;stroke-linecap:round;stroke-miterlimit:10;" cx="10.192" cy="10.192" r="9.442"/>
	<path style="fill:none;stroke:#ffffff;stroke-width:1.5;stroke-linecap:round;stroke-miterlimit:10;" d="M17.387,20.05
		c-0.796-0.798,1.084-0.207,1.881-1.004c0.795-0.797,0.208-2.678,1.004-1.882l15.6,15.6c0.797,0.797,0.797,2.089,0,2.886l0,0
		c-0.795,0.797-2.088,0.797-2.886,0L17.387,20.05z"/>
	<path style="fill:none;stroke:#ffffff;stroke-width:1.5;stroke-linecap:round;stroke-miterlimit:10;" d="M16.801,10.597
		c0,2.003-0.816-1.922-3.17-4.249c-2.399-2.374-6.317-3.17-4.248-3.17C13.48,3.178,16.801,5.741,16.801,10.597z"/>
	<path style="fill:none;stroke:#ffffff;stroke-width:1.5;stroke-linecap:round;stroke-linejoin:round;stroke-miterlimit:10;" d="
		M11.75,28.648h-3.4v-3.4c0-0.331-0.269-0.601-0.6-0.601h-2.4c-0.331,0-0.6,0.269-0.6,0.601v3.4h-3.4c-0.332,0-0.6,0.268-0.6,0.6
		v2.4c0,0.331,0.268,0.6,0.6,0.6h3.4v3.4c0,0.332,0.269,0.6,0.6,0.6h2.4c0.331,0,0.6-0.268,0.6-0.6v-3.4h3.4
		c0.331,0,0.6-0.269,0.6-0.6v-2.4C12.35,28.916,12.082,28.648,11.75,28.648z"/>
</g>
<g id="Warstwa_1">
</g>
</svg>
