<?xml version="1.0" encoding="utf-8"?>
<!-- Generator: Adobe Illustrator 16.0.4, SVG Export Plug-In . SVG Version: 6.00 Build 0)  -->
<!DOCTYPE svg PUBLIC "-//W3C//DTD SVG 1.1//EN" "http://www.w3.org/Graphics/SVG/1.1/DTD/svg11.dtd">
<svg version="1.1" xmlns="http://www.w3.org/2000/svg" xmlns:xlink="http://www.w3.org/1999/xlink" x="0px" y="0px"
	 width="24.875px" height="23.875px" viewBox="0 0 24.875 23.875" enable-background="new 0 0 24.875 23.875" xml:space="preserve">
<g id="Layer_1" display="none">
	<g display="inline">
		<g>
			<path fill="none" stroke="#000000" stroke-width="1.5" stroke-miterlimit="10" d="M-319.114-335.433
				c-5.068,0-9.191-4.123-9.191-9.191s4.123-9.192,9.191-9.192s9.192,4.124,9.192,9.192S-314.046-335.433-319.114-335.433z"/>
		</g>
		<g>
			<path fill="none" stroke="#000000" stroke-width="1.5" stroke-linecap="round" stroke-miterlimit="10" d="M-327.306-309
				c-4.27-2.191-7.829-6.548-8.827-10.567c-1.547-6.229,1.345-12.602,3.091-15.101c0.956-1.369,1.833-2.062,2.76-2.182
				c1.291-0.167,2.477,0.836,3.846,1.999c1.785,1.515,4.006,3.4,7.322,3.4c3.327,0,5.729-1.999,7.659-3.605
				c1.523-1.269,2.728-2.271,3.955-2.013c0.853,0.179,1.594,0.95,2.33,2.427c2.496,5.003,3.677,12.821,0.369,18.168
				c-2.582,4.175-7.397,6.291-14.313,6.291c-5.735,0-11.551-1.363-15.243-11.254"/>
		</g>
	</g>
</g>
<g id="Layer_28" display="none">
	<g display="inline">
		
			<circle fill="none" stroke="#000000" stroke-width="1.5" stroke-linecap="round" stroke-miterlimit="10" cx="-247.155" cy="-341.939" r="12.893"/>
		<path fill="none" stroke="#000000" stroke-width="1.5" stroke-linecap="round" stroke-miterlimit="10" d="M-227.353-318.623
			l-9.977-9.854c-1.087-1.089,1.481-0.284,2.568-1.372c1.086-1.088,0.283-3.656,1.371-2.568l21.302,21.303
			c1.088,1.088,1.088,2.853,0,3.938l0,0c-1.086,1.088-2.851,1.088-3.939,0l-9.585-13.021"/>
		<path fill="none" stroke="#000000" stroke-width="1.5" stroke-linecap="round" stroke-miterlimit="10" d="M-238.129-341.387
			c0,2.736-1.115-2.624-4.329-5.802c-3.277-3.241-8.627-4.328-5.802-4.328C-242.665-351.518-238.129-348.018-238.129-341.387z"/>
	</g>
</g>
<g id="Layer_29" display="none">
	<g display="inline">
		<path fill="none" stroke="#000000" stroke-width="2" stroke-linecap="round" stroke-miterlimit="10" d="M-168-347.5
			c0,1.381-1.119,2.5-2.5,2.5h-2c-1.381,0-2.5-1.119-2.5-2.5l0,0c0-1.381,1.119-2.5,2.5-2.5h2C-169.119-350-168-348.881-168-347.5
			L-168-347.5z"/>
		<path fill="none" stroke="#000000" stroke-width="2" stroke-linecap="round" stroke-miterlimit="10" d="M-129-347.5
			c0,1.381-1.119,2.5-2.5,2.5h-30c-1.381,0-2.5-1.119-2.5-2.5l0,0c0-1.381,1.119-2.5,2.5-2.5h30C-130.119-350-129-348.881-129-347.5
			L-129-347.5z"/>
		<path fill="none" stroke="#000000" stroke-width="2" stroke-linecap="round" stroke-miterlimit="10" d="M-168-331.5
			c0,1.381-1.119,2.5-2.5,2.5h-2c-1.381,0-2.5-1.119-2.5-2.5l0,0c0-1.381,1.119-2.5,2.5-2.5h2C-169.119-334-168-332.881-168-331.5
			L-168-331.5z"/>
		<path fill="none" stroke="#000000" stroke-width="2" stroke-linecap="round" stroke-miterlimit="10" d="M-129-331.5
			c0,1.381-1.119,2.5-2.5,2.5h-30c-1.381,0-2.5-1.119-2.5-2.5l0,0c0-1.381,1.119-2.5,2.5-2.5h30C-130.119-334-129-332.881-129-331.5
			L-129-331.5z"/>
		<path fill="none" stroke="#000000" stroke-width="2" stroke-linecap="round" stroke-miterlimit="10" d="M-168-314.5
			c0,1.381-1.119,2.5-2.5,2.5h-2c-1.381,0-2.5-1.119-2.5-2.5l0,0c0-1.381,1.119-2.5,2.5-2.5h2C-169.119-317-168-315.881-168-314.5
			L-168-314.5z"/>
		<path fill="none" stroke="#000000" stroke-width="2" stroke-linecap="round" stroke-miterlimit="10" d="M-129-314.5
			c0,1.381-1.119,2.5-2.5,2.5h-30c-1.381,0-2.5-1.119-2.5-2.5l0,0c0-1.381,1.119-2.5,2.5-2.5h30C-130.119-317-129-315.881-129-314.5
			L-129-314.5z"/>
	</g>
</g>
<g id="Layer_30" display="none">
	<g display="inline">
		<path fill="none" stroke="#000000" stroke-width="1.5" stroke-linecap="round" stroke-miterlimit="10" d="M-88.024-348.167
			l6.717-5.647c0.88-1.095,2.707-1.087,3.802-0.208l19.162,15.4c1.096,0.88,7.495,14.018,5.291,16.76
			c-2.202,2.74-16.409-0.683-17.504-1.562l-19.163-15.4c-1.095-0.88-1.495-2.662-0.615-3.757l7.477-6.752"/>
		
			<circle fill="none" stroke="#000000" stroke-width="1.5" stroke-linecap="round" stroke-miterlimit="10" cx="-59.494" cy="-327.04" r="2.684"/>
		<path fill="none" stroke="#000000" stroke-width="1.5" stroke-linecap="round" stroke-miterlimit="10" d="M-56.858-326.833
			C-59.691-328-62.691-325-61.691-322c3,5,2,10-0.323,13.816"/>
		<path fill="none" stroke="#000000" stroke-width="1.5" stroke-linecap="round" stroke-miterlimit="10" d="M-52.191-324
			c4.611-0.251,4.523,2.108,3.922,5.889c-0.61,3.838,1.897,6.772,3.813,9.937"/>
		
			<line fill="none" stroke="#000000" stroke-width="1.5" stroke-linecap="round" stroke-miterlimit="10" x1="-79.857" y1="-349.333" x2="-63.858" y2="-336.667"/>
		
			<line fill="none" stroke="#000000" stroke-width="1.5" stroke-linecap="round" stroke-miterlimit="10" x1="-82.857" y1="-345.333" x2="-73.287" y2="-337.756"/>
		
			<line fill="none" stroke="#000000" stroke-width="1.5" stroke-linecap="round" stroke-miterlimit="10" x1="-85.857" y1="-341.333" x2="-76.347" y2="-333.803"/>
	</g>
</g>
<g id="Layer_25" display="none">
	<g display="inline">
		<path fill="none" stroke="#000000" stroke-width="1.5" stroke-linecap="round" stroke-miterlimit="10" d="M6.877-330.5
			c-1.22-4.644-1.833-10.168-1.833-12.833c0-6.627,5.373-12,12-12c6.627,0,12,5.373,12,12S23.671-308,17.044-308
			c-3.962,0-11.149-16.498-13.333-26.167"/>
		
			<circle fill="none" stroke="#000000" stroke-width="1.5" stroke-linecap="round" stroke-miterlimit="10" cx="17.044" cy="-344.333" r="6.687"/>
	</g>
</g>
<g id="Layer_26" display="none">
	<path display="inline" fill="none" stroke="#000000" stroke-width="1.5" stroke-linecap="round" stroke-miterlimit="10" d="
		M179.078-311.908c-1.172,1.172-4.951,1.334-4.182,0C185.9-331,171.88-325.49,171.9-331c0.02-5.509,14,0,2.996-19.092
		c-0.77-1.335,3.011-1.172,4.182,0c0,0,12.703,12.73,16.94,16.971c1.171,1.172,1.186,3.071,0.015,4.242
		C191.792-324.639,179.078-311.908,179.078-311.908z"/>
</g>
<g id="Layer_27" display="none">
	<path display="inline" fill="none" stroke="#000000" stroke-width="2" stroke-linecap="round" stroke-miterlimit="10" d="
		M490.919-237.715c-1.172-1.172-1.229-3.306,0-4.285c4.119-3.282,34.064-3.283,38.184,0c1.229,0.979,1.172,3.115,0,4.285
		c0,0-12.73,14.756-16.971,18.992c-1.172,1.172-3.07,1.159-4.242-0.011C503.649-222.974,490.919-237.715,490.919-237.715z"/>
</g>
<g id="Layer_32" display="none">
	<path display="inline" fill="none" stroke="#000000" stroke-width="1.5" stroke-linecap="round" stroke-miterlimit="10" d="
		M-341.891,7.998c1.172,1.172,1.229,3.306,0,4.285c-2.011,1.602-10.781-4.321-19.092-4.283c-8.715,0.04-16.983,5.963-19.092,4.283
		c-1.229-0.979-1.172-3.115,0-4.285c0,0,12.73-14.756,16.971-18.992c1.172-1.172,3.07-1.159,4.242,0.011
		C-354.621-6.744-341.891,7.998-341.891,7.998z"/>
	<path display="inline" fill="none" stroke="#000000" stroke-width="1.5" stroke-linecap="round" stroke-miterlimit="10" d="
		M-341.891,31.998c1.172,1.172,1.229,3.306,0,4.285c-2.011,1.602-10.781-4.321-19.092-4.283c-8.715,0.04-16.983,5.963-19.092,4.283
		c-1.229-0.98-1.172-3.115,0-4.285c0,0,12.73-14.756,16.971-18.992c1.172-1.172,3.07-1.16,4.242,0.01
		C-354.621,17.256-341.891,31.998-341.891,31.998z"/>
</g>
<g id="Layer_36" display="none">
	<path display="inline" fill="none" stroke="#000000" stroke-width="1.5" stroke-linecap="round" stroke-miterlimit="10" d="
		M-189.132,0.78c0.604,0.426,0.634,1.203,0,1.56c-1.037,0.583-5.563-1.572-9.851-1.559c-4.497,0.015-8.763,2.17-9.851,1.559
		c-0.634-0.356-0.605-1.133,0-1.56c0,0,6.568-5.371,8.756-6.912c0.605-0.426,1.584-0.422,2.188,0.004
		C-195.7-4.585-189.132,0.78-189.132,0.78z"/>
	<path display="inline" fill="none" stroke="#000000" stroke-width="1.5" stroke-linecap="round" stroke-miterlimit="10" d="
		M-208.837,23.22c-0.605-0.427-0.634-1.203,0-1.56c1.037-0.583,5.562,1.572,9.85,1.559c4.497-0.015,8.764-2.17,9.852-1.559
		c0.633,0.357,0.604,1.134,0,1.56c0,0-6.569,5.37-8.757,6.912c-0.605,0.427-1.584,0.422-2.189-0.004
		C-202.269,28.585-208.837,23.22-208.837,23.22z"/>
	<g display="inline">
		<g>
			<path fill="none" stroke="#000000" stroke-width="1.5" stroke-linecap="round" stroke-miterlimit="10" d="M-205.076,9.397
				c0,0.552-0.448,1-1,1h-2.333c-0.552,0-1-0.448-1-1V7.064c0-0.552,0.448-1,1-1h2.333c0.552,0,1,0.448,1,1V9.397z"/>
			
				<line fill="none" stroke="#000000" stroke-width="1.5" stroke-linecap="round" stroke-miterlimit="10" x1="-200.909" y1="8.231" x2="-189.742" y2="8.231"/>
		</g>
		<g>
			<path fill="none" stroke="#000000" stroke-width="1.5" stroke-linecap="round" stroke-miterlimit="10" d="M-205.076,16.936
				c0,0.553-0.448,1-1,1h-2.333c-0.552,0-1-0.447-1-1v-2.332c0-0.553,0.448-1,1-1h2.333c0.552,0,1,0.447,1,1V16.936z"/>
			
				<line fill="none" stroke="#000000" stroke-width="1.5" stroke-linecap="round" stroke-miterlimit="10" x1="-200.909" y1="15.77" x2="-189.742" y2="15.77"/>
		</g>
	</g>
</g>
<g id="Layer_37" display="none">
	<path display="inline" fill="none" stroke="#000000" stroke-width="1.5" stroke-linecap="round" stroke-miterlimit="10" d="
		M-127.132,8.78c0.604,0.426,0.634,1.203,0,1.56c-1.037,0.583-5.563-1.572-9.851-1.559c-4.497,0.015-8.764,2.17-9.852,1.559
		c-0.633-0.356-0.604-1.133,0-1.56c0,0,6.568-5.371,8.757-6.912c0.604-0.426,1.584-0.422,2.188,0.004
		C-133.7,3.415-127.132,8.78-127.132,8.78z"/>
	<path display="inline" fill="none" stroke="#000000" stroke-width="1.5" stroke-linecap="round" stroke-miterlimit="10" d="
		M-146.838,23.22c-0.605-0.427-0.634-1.203,0-1.56c1.037-0.583,5.562,1.572,9.851,1.559c4.497-0.015,8.764-2.17,9.852-1.559
		c0.633,0.357,0.604,1.134,0,1.56c0,0-6.569,5.37-8.757,6.912c-0.605,0.427-1.584,0.422-2.189-0.004
		C-140.27,28.585-146.838,23.22-146.838,23.22z"/>
	<g display="inline">
		<g>
			<path fill="none" stroke="#000000" stroke-width="1.5" stroke-linecap="round" stroke-miterlimit="10" d="M-143.076,16.936
				c0,0.553-0.447,1-1,1h-2.332c-0.553,0-1-0.447-1-1v-2.332c0-0.553,0.447-1,1-1h2.332c0.553,0,1,0.447,1,1V16.936z"/>
		</g>
		<g>
			<path fill="none" stroke="#000000" stroke-width="1.5" stroke-linecap="round" stroke-miterlimit="10" d="M-135.076,16.936
				c0,0.553-0.447,1-1,1h-2.332c-0.553,0-1-0.447-1-1v-2.332c0-0.553,0.447-1,1-1h2.332c0.553,0,1,0.447,1,1V16.936z"/>
		</g>
		<g>
			<path fill="none" stroke="#000000" stroke-width="1.5" stroke-linecap="round" stroke-miterlimit="10" d="M-127.076,16.936
				c0,0.553-0.447,1-1,1h-2.332c-0.553,0-1-0.447-1-1v-2.332c0-0.553,0.447-1,1-1h2.332c0.553,0,1,0.447,1,1V16.936z"/>
		</g>
	</g>
</g>
<g id="Layer_33" display="none">
	<g display="inline">
		<path fill="none" stroke="#000000" stroke-width="1.5" stroke-linecap="round" stroke-miterlimit="10" d="M-253.155-6.741h6.63
			c0.499,0,0.903,0.404,0.903,0.903v34.554c0,0.5-0.404,0.903-0.903,0.903h-26.133c-0.499,0-0.903-0.403-0.903-0.903V-5.837
			c0-0.499,0.404-0.903,0.903-0.903h6.629"/>
		
			<path fill="none" stroke="#000000" stroke-width="1.5" stroke-linecap="round" stroke-linejoin="round" stroke-miterlimit="10" d="
			M-254.06-4.595c0,0.499-0.403,0.903-0.903,0.903h-9.259c-0.499,0-0.903-0.405-0.903-0.903l-0.903-4.291
			c0-0.499,0.404-0.904,0.903-0.904h3.218c0,0,0.169-2.71,2.315-2.71c2.447,0,2.315,2.71,2.315,2.71h3.218
			c0.5,0,0.904,0.405,0.904,0.904L-254.06-4.595z"/>
		<g>
			
				<path fill="none" stroke="#000000" stroke-width="1.5" stroke-linecap="round" stroke-linejoin="round" stroke-miterlimit="10" d="
				M-264.156,5.267c0,0.499-0.405,0.903-0.903,0.903h-3.688c-0.5,0-0.903-0.405-0.903-0.903V1.578c0-0.499,0.404-0.903,0.903-0.903
				h3.688c0.499,0,0.903,0.404,0.903,0.903V5.267z"/>
			
				<line fill="none" stroke="#000000" stroke-width="1.5" stroke-linecap="round" stroke-linejoin="round" stroke-miterlimit="10" x1="-260.182" y1="3.422" x2="-249.584" y2="3.422"/>
		</g>
		<g>
			
				<path fill="none" stroke="#000000" stroke-width="1.5" stroke-linecap="round" stroke-linejoin="round" stroke-miterlimit="10" d="
				M-264.143,14.621c0,0.497-0.405,0.903-0.903,0.903h-3.689c-0.499,0-0.903-0.406-0.903-0.903v-3.689
				c0-0.5,0.405-0.903,0.903-0.903h3.689c0.499,0,0.903,0.404,0.903,0.903V14.621z"/>
			
				<line fill="none" stroke="#000000" stroke-width="1.5" stroke-linecap="round" stroke-linejoin="round" stroke-miterlimit="10" x1="-260.169" y1="12.775" x2="-249.571" y2="12.775"/>
		</g>
		<g>
			
				<path fill="none" stroke="#000000" stroke-width="1.5" stroke-linecap="round" stroke-linejoin="round" stroke-miterlimit="10" d="
				M-264.168,23.975c0,0.498-0.404,0.903-0.903,0.903h-3.688c-0.499,0-0.903-0.405-0.903-0.903v-3.689
				c0-0.499,0.404-0.903,0.903-0.903h3.688c0.499,0,0.903,0.404,0.903,0.903V23.975z"/>
			
				<line fill="none" stroke="#000000" stroke-width="1.5" stroke-linecap="round" stroke-linejoin="round" stroke-miterlimit="10" x1="-260.194" y1="22.13" x2="-249.597" y2="22.13"/>
		</g>
	</g>
</g>
<g id="Layer_35" display="none">
</g>
<g id="Layer_22" display="none">
	<path display="inline" fill="none" stroke="#000000" stroke-width="1.5" stroke-linecap="round" stroke-miterlimit="10" d="
		M850.078-212.908c-1.172,1.172-4.951,1.334-4.182,0C856.9-232,858.314-226.49,858.334-232c0.02-5.509-1.434,0-12.438-19.092
		c-0.77-1.335,3.01-1.172,4.182,0c0,0,12.703,12.73,16.939,16.971c1.172,1.172,1.186,3.07,0.016,4.242
		C862.793-225.639,850.078-212.908,850.078-212.908z"/>
</g>
<g id="Layer_23" display="none">
	<path display="inline" fill="none" stroke="#000000" stroke-width="1.5" stroke-linecap="round" stroke-miterlimit="10" d="
		M105.713-350.092c1.172-1.172,4.951-1.334,4.182,0C98.891-331,112.911-336.51,112.891-331c-0.02,5.509-14,0-2.996,19.092
		c0.77,1.335-3.011,1.172-4.182,0c0,0-12.703-12.73-16.94-16.971c-1.171-1.172-1.186-3.071-0.015-4.242
		C92.999-337.361,105.713-350.092,105.713-350.092z"/>
</g>
<g id="Layer_24" display="none">
	<g display="inline">
		<path fill="none" stroke="#000000" stroke-width="1.5" stroke-linecap="round" stroke-miterlimit="10" d="M788.133-346.645
			c4.004,4.004,6.48,9.536,6.48,15.645c0,12.22-9.906,22.125-22.125,22.125S750.363-318.78,750.363-331
			c0-12.219,9.906-22.125,22.125-22.125"/>
		<g>
			
				<path fill="none" stroke="#000000" stroke-width="1.5" stroke-linecap="round" stroke-linejoin="round" stroke-miterlimit="10" d="
				M766.596-338.238c0,0-0.549-0.452,2.102-3.103c3.037-3.037,4.104-3.103,4.104-3.103v27"/>
			
				<line fill="none" stroke="#000000" stroke-width="1.5" stroke-linecap="round" stroke-miterlimit="10" x1="776.863" y1="-317.443" x2="768.738" y2="-317.443"/>
		</g>
	</g>
</g>
<g id="Layer_19" display="none">
	<g display="inline">
		<path fill="none" stroke="#000000" stroke-width="1.5" stroke-linecap="round" stroke-miterlimit="10" d="M872.145-346.645
			c4.004,4.004,6.48,9.536,6.48,15.645c0,12.22-9.905,22.125-22.125,22.125c-12.219,0-22.125-9.905-22.125-22.125
			c0-12.219,9.906-22.125,22.125-22.125"/>
		<g>
			
				<path fill="none" stroke="#000000" stroke-width="1.5" stroke-linecap="round" stroke-linejoin="round" stroke-miterlimit="10" d="
				M849.469-340.194c0,0-0.248-0.665,3.372-1.635c4.149-1.111,5.104-0.636,5.104-0.636l-1.133,25.021"/>
			
				<line fill="none" stroke="#000000" stroke-width="1.5" stroke-linecap="round" stroke-miterlimit="10" x1="861.438" y1="-331" x2="853.312" y2="-331"/>
		</g>
	</g>
</g>
<g id="Layer_20" display="none">
	<g display="inline">
		<path fill="none" stroke="#000000" stroke-width="1.5" stroke-linecap="round" stroke-miterlimit="10" d="M696.418-320.036
			l0.477,8.873c0,2.102-1.702,3.804-3.804,3.804h-21.553c-2.1,0-3.803-1.702-3.803-3.804v-36.765c0-2.1,1.703-3.804,3.803-3.804
			h5.377"/>
		<path fill="none" stroke="#000000" stroke-width="1.5" stroke-linecap="round" stroke-miterlimit="10" d="M687.714-351.731h5.377
			c2.102,0,3.804,1.704,3.804,3.804l-0.477,6.338"/>
		<path fill="none" stroke="#000000" stroke-width="1.5" stroke-linecap="round" stroke-miterlimit="10" d="M687.714-351.018
			c0,1.182-1.318,2.14-2.945,2.14h-4.908c-1.626,0-2.945-0.958-2.945-2.14v-1.426c0-1.182,1.319-2.139,2.945-2.139h4.908
			c1.627,0,2.945,0.958,2.945,2.139V-351.018z"/>
		
			<line fill="none" stroke="#000000" stroke-width="2" stroke-linecap="round" stroke-miterlimit="10" x1="673" y1="-341" x2="692" y2="-341"/>
		
			<line fill="none" stroke="#000000" stroke-width="2" stroke-linecap="round" stroke-miterlimit="10" x1="673" y1="-334" x2="692" y2="-334"/>
		
			<line fill="none" stroke="#000000" stroke-width="2" stroke-linecap="round" stroke-miterlimit="10" x1="673" y1="-325" x2="680" y2="-325"/>
		<g>
			<path fill="none" stroke="#000000" stroke-width="1.5" stroke-linecap="round" stroke-miterlimit="10" d="M686.247-317.116
				c-0.742,0.742-1.049-0.153-1.792-0.896l0,0c-0.743-0.743-1.64-1.051-0.896-1.793l22.411-22.411c0.741-0.744,1.945-0.744,2.688,0
				l0,0c0.743,0.742,0.743,1.946,0,2.689L686.247-317.116z"/>
			<path fill="none" stroke="#000000" stroke-width="1.5" stroke-linecap="round" stroke-miterlimit="10" d="M680.933-317.181
				c0.743-0.742,1.312-0.107,2.055,0.636l0,0c0.742,0.742,1.377,1.312,0.637,2.055l-1.225,1.223
				c-0.744,0.744-3.473,0.784-3.473,0.784s0.04-2.73,0.783-3.473L680.933-317.181z"/>
		</g>
	</g>
</g>
<g id="Layer_21" display="none">
	<g display="inline">
		<g>
			<path fill="none" stroke="#000000" stroke-width="1.5" stroke-linecap="round" stroke-miterlimit="10" d="M590.266-329.097
				c1.695-1.695,16.213,10.073,17.906,11.768l1.024,1.023c1.694,1.694,1.694,4.444,0,6.141l-2.047,2.047
				c-1.694,1.695-4.444,1.695-6.14-0.001l-1.023-1.022c-1.695-1.695-13.463-16.213-11.769-17.909L590.266-329.097z"/>
			<path fill="none" stroke="#000000" stroke-width="1.5" stroke-linecap="round" stroke-miterlimit="10" d="M617.584-340.574
				c0.802-0.801,2.101-0.803,2.9,0l0,0c0.8,0.798,0.8,2.095-0.001,2.899l-16.147,16.146c-0.801,0.801-1.076-0.223-1.877-1.021l0,0
				c-0.801-0.802-1.822-1.078-1.022-1.877L617.584-340.574z"/>
			<path fill="none" stroke="#000000" stroke-width="1.5" stroke-linecap="round" stroke-miterlimit="10" d="M595.456-312.648
				c-0.802,0.802-2.101,0.802-2.899,0.001l0,0c-0.803-0.802-0.802-2.099,0-2.902l0.318-0.316c0.801-0.799,1.074,0.223,1.876,1.022
				l0,0c0.8,0.801,1.822,1.075,1.022,1.877L595.456-312.648z"/>
		</g>
		
			<path fill="none" stroke="#000000" stroke-width="1.5" stroke-linecap="round" stroke-linejoin="round" stroke-miterlimit="10" d="
			M609.776-336.094l-7.253-7.252c0,0,0.344-6.27-1.695-9.86c-1.226-2.153-5.49-2.115-6.441-1.263
			c-0.812,0.726,1.447,1.453,2.314,3.594c0.865,2.141-0.409,3.458-0.822,3.871l0,0c-0.404,0.404-1.665,1.719-3.771,0.861
			c-2.173-0.881-2.959-3.179-3.696-2.355c-0.876,0.982-0.953,5.138,1.31,6.396c3.591,1.998,9.815,1.742,9.815,1.742l7.211,7.21"/>
		
			<path fill="none" stroke="#000000" stroke-width="1.5" stroke-linecap="round" stroke-linejoin="round" stroke-miterlimit="10" d="
			M613.491-326.408l4.542,4.546c0,0,1.661,0.322,2.487-0.501l0,0c0.824-0.825,0.501-2.487,0.501-2.487l-4.751-4.75"/>
	</g>
</g>
<g id="Layer_16" display="none">
	<g display="inline">
		<g>
			<path fill="none" stroke="#000000" stroke-width="1.5" stroke-linecap="round" stroke-miterlimit="10" d="M-100.467-257.413
				c1.132,1.594-10.304,11.668-11.897,12.8l-0.962,0.685c-1.592,1.132-3.804,0.758-4.938-0.834l-1.368-1.924
				c-1.133-1.593-0.759-3.804,0.835-4.937l0.961-0.684c1.594-1.133,14.868-8.623,16.002-7.029L-100.467-257.413z"/>
			<path fill="none" stroke="#000000" stroke-width="1.5" stroke-linecap="round" stroke-miterlimit="10" d="M-94.95-233.886
				c0.535,0.755,0.361,1.8-0.395,2.332l0,0c-0.75,0.536-1.794,0.36-2.331-0.394l-10.789-15.179
				c-0.535-0.753,0.325-0.835,1.076-1.371l0,0c0.753-0.535,1.115-1.319,1.648-0.567L-94.95-233.886z"/>
			<path fill="none" stroke="#000000" stroke-width="1.5" stroke-linecap="round" stroke-miterlimit="10" d="M-114.399-255.474
				c-0.536-0.754-0.359-1.799,0.394-2.332l0,0c0.754-0.537,1.796-0.36,2.333,0.395l0.211,0.299c0.533,0.752-0.325,0.833-1.078,1.37
				l0,0c-0.752,0.535-1.112,1.319-1.648,0.567L-114.399-255.474z"/>
		</g>
		<g>
			
				<rect x="-118.217" y="-225.619" transform="matrix(-0.986 -0.1668 0.1668 -0.986 -155.8621 -456.3624)" fill="none" stroke="#000000" stroke-width="1.5" stroke-linecap="round" stroke-linejoin="round" stroke-miterlimit="10" width="42.25" height="7.963"/>
			
				<path fill="none" stroke="#000000" stroke-width="1.5" stroke-linecap="round" stroke-linejoin="round" stroke-miterlimit="10" d="
				M-92.114-224.458c-0.408,2.416-2.698,4.044-5.115,3.635c-2.417-0.408-4.044-2.698-3.635-5.115L-92.114-224.458z"/>
			
				<line fill="none" stroke="#000000" stroke-width="1.5" stroke-linecap="round" stroke-linejoin="round" stroke-miterlimit="10" x1="-97.835" y1="-223.471" x2="-95.787" y2="-223.124"/>
			
				<line fill="none" stroke="#000000" stroke-width="1.5" stroke-linecap="round" stroke-linejoin="round" stroke-miterlimit="10" x1="-112.725" y1="-228.319" x2="-114.053" y2="-220.468"/>
			
				<line fill="none" stroke="#000000" stroke-width="1.5" stroke-linecap="round" stroke-linejoin="round" stroke-miterlimit="10" x1="-115.343" y1="-226.453" x2="-115.905" y2="-223.132"/>
		</g>
		<g>
			<path fill="none" stroke="#000000" stroke-width="1.5" stroke-linecap="round" stroke-miterlimit="10" d="M-75.363-253.74
				c-0.156,1.441-1.451,2.482-2.893,2.326l-14.043-1.523c-1.441-0.156-2.482-1.451-2.326-2.892l0,0
				c0.156-1.441,1.45-2.483,2.893-2.327l14.042,1.523C-76.248-256.477-75.207-255.182-75.363-253.74L-75.363-253.74z"/>
			<path fill="none" stroke="#000000" stroke-width="1.5" stroke-linecap="round" stroke-miterlimit="10" d="M-86.971-228.447
				c-0.961-0.104-1.764,0.027-1.659-0.934l1.123-10.356c0.104-0.961,0.86-0.661,1.821-0.557l0,0c0.96,0.104,1.763-0.027,1.659,0.935
				l-1.124,10.356C-85.255-228.043-86.011-228.342-86.971-228.447L-86.971-228.447z"/>
			
				<polyline fill="none" stroke="#000000" stroke-width="1.5" stroke-linecap="round" stroke-linejoin="round" stroke-miterlimit="10" points="
				-75.363,-253.74 -73.624,-253.551 -74.563,-244.883 -85.461,-242.366 -85.686,-240.294 			"/>
		</g>
	</g>
</g>
<g id="Layer_17" display="none">
	<g display="inline">
		<g>
			
				<circle fill="none" stroke="#000000" stroke-width="1.5" stroke-linecap="round" stroke-miterlimit="10" cx="343.509" cy="-343.725" r="9.442"/>
			<path fill="none" stroke="#000000" stroke-width="1.5" stroke-linecap="round" stroke-miterlimit="10" d="M358.01-326.651
				l-7.306-7.216c-0.796-0.798,1.084-0.207,1.881-1.004c0.795-0.797,0.208-2.678,1.004-1.882l15.6,15.6
				c0.797,0.797,0.797,2.089,0,2.886l0,0c-0.795,0.797-2.088,0.797-2.886,0l-7.018-9.536"/>
			<path fill="none" stroke="#000000" stroke-width="1.5" stroke-linecap="round" stroke-miterlimit="10" d="M350.118-343.32
				c0,2.003-0.816-1.922-3.17-4.249c-2.399-2.374-6.317-3.17-4.248-3.17C346.798-350.739,350.118-348.176,350.118-343.32z"/>
		</g>
		<g>
			<g>
				<path fill="none" stroke="#000000" stroke-width="1.5" stroke-linecap="round" stroke-miterlimit="10" d="M338.968-328.097
					c1.695-1.694,16.213,10.073,17.906,11.768l1.024,1.023c1.694,1.694,1.694,4.444,0,6.141l-2.047,2.047
					c-1.694,1.695-4.444,1.695-6.14-0.001l-1.023-1.022c-1.695-1.695-13.463-16.213-11.77-17.909L338.968-328.097z"/>
				<path fill="none" stroke="#000000" stroke-width="1.5" stroke-linecap="round" stroke-miterlimit="10" d="M360.398-333.688
					l6.888-6.887c0.802-0.802,2.101-0.804,2.9,0l0,0c0.8,0.798,0.8,2.095-0.001,2.899l-6.974,6.973"/>
				<path fill="none" stroke="#000000" stroke-width="1.5" stroke-linecap="round" stroke-miterlimit="10" d="M356.422-323.912
					l-3.384,3.383c-0.801,0.801-1.076-0.223-1.877-1.021l0,0c-0.801-0.802-1.822-1.078-1.023-1.877l3.489-3.489"/>
				<path fill="none" stroke="#000000" stroke-width="1.5" stroke-linecap="round" stroke-miterlimit="10" d="M344.157-311.648
					c-0.801,0.802-2.1,0.802-2.898,0.001l0,0c-0.803-0.802-0.803-2.099,0-2.902l0.318-0.316c0.801-0.799,1.074,0.223,1.875,1.022
					l0,0c0.801,0.801,1.822,1.075,1.023,1.877L344.157-311.648z"/>
			</g>
		</g>
	</g>
</g>
<g id="Layer_18" display="none">
	<g display="inline">
		<path fill="none" stroke="#000000" stroke-width="1.5" stroke-linecap="round" stroke-miterlimit="10" d="M498.977-321.875
			v-17.009c0-1.514,1.228-2.741,2.741-2.741h37.466c1.515,0,2.741,1.228,2.741,2.741v24.018c0,1.515-1.227,2.741-2.741,2.741
			h-37.466c-1.514,0-2.741-1.227-2.741-2.741v-3.009"/>
		
			<circle fill="none" stroke="#000000" stroke-width="1.5" stroke-linecap="round" stroke-miterlimit="10" cx="513.731" cy="-326.562" r="9.162"/>
		<path fill="none" stroke="#000000" stroke-width="1.5" stroke-linecap="round" stroke-miterlimit="10" d="M532.3-334.349
			c0,0.759-0.615,1.375-1.375,1.375l0,0c-0.76,0-1.375-0.616-1.375-1.375l0,0c0-0.759,0.615-1.375,1.375-1.375l0,0
			C531.685-335.724,532.3-335.108,532.3-334.349L532.3-334.349z"/>
		<path fill="none" stroke="#000000" stroke-width="1.5" stroke-linecap="round" stroke-miterlimit="10" d="M538.105-334.349
			c0,0.759-0.615,1.375-1.375,1.375l0,0c-0.76,0-1.375-0.616-1.375-1.375l0,0c0-0.759,0.615-1.375,1.375-1.375l0,0
			C537.49-335.724,538.105-335.108,538.105-334.349L538.105-334.349z"/>
		<path fill="none" stroke="#000000" stroke-width="1.5" stroke-linecap="round" stroke-miterlimit="10" d="M519.643-326.076
			c0,2.997-2.43,5.426-5.426,5.426S519.643-329.073,519.643-326.076z"/>
		<path fill="none" stroke="#000000" stroke-width="1.5" stroke-linecap="round" stroke-miterlimit="10" d="M508.037-328.918
			c0-1.844,1.494-3.337,3.337-3.337S508.037-327.076,508.037-328.918z"/>
		<path fill="none" stroke="#000000" stroke-width="1.5" stroke-linecap="round" stroke-miterlimit="10" d="M513.572-342.312
			c0-1.07-0.867-1.938-1.938-1.938h-5.647c-1.07,0-1.938,0.868-1.938,1.938l0,0C505.269-342.312,512.487-342.312,513.572-342.312
			L513.572-342.312z"/>
		<path fill="none" stroke="#000000" stroke-width="1.5" stroke-linecap="round" stroke-miterlimit="10" d="M536.76-342.312
			c0-1.07-0.868-1.938-1.938-1.938h-0.647c-1.07,0-1.938,0.868-1.938,1.938l0,0C533.456-342.312,535.675-342.312,536.76-342.312
			L536.76-342.312z"/>
		
			<line fill="none" stroke="#000000" stroke-width="1.5" stroke-linecap="round" stroke-miterlimit="10" x1="529.55" y1="-317.4" x2="538.8" y2="-317.4"/>
		
			<line fill="none" stroke="#000000" stroke-width="1.5" stroke-linecap="round" stroke-miterlimit="10" x1="529.55" y1="-322.375" x2="538.8" y2="-322.375"/>
	</g>
</g>
<g id="Layer_13" display="none">
	<g display="inline">
		
			<line fill="none" stroke="#000000" stroke-width="1.5" stroke-linecap="round" stroke-miterlimit="10" x1="432.023" y1="-315.094" x2="432.023" y2="-315.094"/>
		<path fill="none" stroke="#000000" stroke-width="1.5" stroke-linecap="round" stroke-miterlimit="10" d="M432.023-315.094
			c-1.333,1.332-3.648,1.456-4.982,0.123l-12.875-12.874c-1.332-1.334-1.332-3.496,0-4.829l0.002-0.001
			c1.333-1.334,3.494-1.333,4.828,0l10.521,10.521"/>
		<path fill="none" stroke="#000000" stroke-width="1.5" stroke-linecap="round" stroke-miterlimit="10" d="M453.881-346.519
			c1.334-1.333,3.496-1.333,4.829,0l0.001,0.001c1.334,1.333,1.332,3.494,0,4.828l-26.688,26.596"/>
		
			<line fill="none" stroke="#000000" stroke-width="1.5" stroke-linecap="round" stroke-miterlimit="10" x1="429.517" y1="-322.154" x2="451.055" y2="-343.693"/>
	</g>
</g>
<g id="Layer_34" display="none">
	<g display="inline">
		<g>
			<path d="M-306.587,15.89c-0.2,0-0.39-0.08-0.529-0.22c-0.141-0.141-0.221-0.33-0.221-0.53s0.08-0.39,0.21-0.53
				c0.29-0.279,0.78-0.279,1.07-0.01c0.14,0.15,0.22,0.34,0.22,0.54c0,0.19-0.08,0.39-0.22,0.53
				C-306.207,15.81-306.396,15.89-306.587,15.89z"/>
		</g>
		<g>
			<path d="M-307.111,16.098c-0.369,0-0.735-0.135-1.006-0.405l-2.575-2.575c-0.558-0.559-0.558-1.467-0.001-2.025
				c0.561-0.56,1.469-0.559,2.027-0.002l2.104,2.105c0.293,0.293,0.293,0.768,0,1.061c-0.181,0.181-0.432,0.25-0.663,0.208
				l0.168,0.168c0.294-0.292,0.737-0.304,1.029-0.011s0.261,0.756-0.033,1.048C-306.348,15.955-306.731,16.098-307.111,16.098z"/>
		</g>
		<g>
			<path d="M-306.59,15.888c-0.192,0-0.385-0.073-0.531-0.221c-0.292-0.294-0.292-0.769,0.002-1.061l5.335-5.317
				c-0.293,0.291-0.72,0.338-1.012,0.046c-0.293-0.293-0.246-0.72,0.047-1.013c0.56-0.559,1.467-0.558,2.026,0
				c0.559,0.56,0.559,1.469,0,2.027l-5.338,5.32C-306.207,15.814-306.398,15.888-306.59,15.888z"/>
		</g>
		<g>
			<path d="M-307.092,14.476c-0.192,0-0.384-0.073-0.53-0.22c-0.293-0.293-0.293-0.768,0-1.061l4.308-4.308
				c0.293-0.293,0.768-0.293,1.061,0s0.293,0.768,0,1.061l-4.308,4.308C-306.708,14.402-306.899,14.476-307.092,14.476z"/>
		</g>
	</g>
</g>
<g id="Layer_14" display="none">
	<g display="inline">
		<path fill="none" stroke="#000000" stroke-width="1.5" stroke-linecap="round" stroke-miterlimit="10" d="M285.206-306.458
			l-36.167,2c-1.657,0-3-1.343-3-3v-31.625c0-1.657,1.343-3,3-3h6.999"/>
		<path fill="none" stroke="#000000" stroke-width="1.5" stroke-linecap="round" stroke-miterlimit="10" d="M281.039-342.083h6.75
			c1.657,0,3,1.343,3,3v31.625c0,1.657-1.343,3-3,3h-2.583"/>
		
			<line fill="none" stroke="#000000" stroke-width="1.5" stroke-linecap="round" stroke-miterlimit="10" x1="260.288" y1="-342.083" x2="276.539" y2="-342.083"/>
		<path fill="none" stroke="#000000" stroke-width="1.5" stroke-linecap="round" stroke-miterlimit="10" d="M260.289-340.583
			c0,1.174-0.951,2.125-2.125,2.125l0,0c-1.174,0-2.125-0.951-2.125-2.125v-3.125c0-1.174,0.951-2.125,2.125-2.125l0,0
			c1.174,0,2.125,0.951,2.125,2.125V-340.583z"/>
		<path fill="none" stroke="#000000" stroke-width="1.5" stroke-linecap="round" stroke-miterlimit="10" d="M280.789-340.583
			c0,1.174-0.951,2.125-2.125,2.125l0,0c-1.174,0-2.125-0.951-2.125-2.125v-3.125c0-1.174,0.951-2.125,2.125-2.125l0,0
			c1.174,0,2.125,0.951,2.125,2.125V-340.583z"/>
		<path fill="none" stroke="#000000" stroke-width="1.5" stroke-linecap="round" stroke-miterlimit="10" d="M259.567-329.5
			c0,0.87-0.705,1.575-1.575,1.575l0,0c-0.869,0-1.575-0.706-1.575-1.575l0,0c0-0.87,0.706-1.575,1.575-1.575l0,0
			C258.862-331.075,259.567-330.369,259.567-329.5L259.567-329.5z"/>
		<path fill="none" stroke="#000000" stroke-width="1.5" stroke-linecap="round" stroke-miterlimit="10" d="M266.688-329.5
			c0,0.87-0.705,1.575-1.575,1.575l0,0c-0.869,0-1.574-0.706-1.574-1.575l0,0c0-0.87,0.705-1.575,1.574-1.575l0,0
			C265.982-331.075,266.688-330.369,266.688-329.5L266.688-329.5z"/>
		<path fill="none" stroke="#000000" stroke-width="1.5" stroke-linecap="round" stroke-miterlimit="10" d="M273.808-329.5
			c0,0.87-0.706,1.575-1.575,1.575l0,0c-0.869,0-1.575-0.706-1.575-1.575l0,0c0-0.87,0.706-1.575,1.575-1.575l0,0
			C273.102-331.075,273.808-330.369,273.808-329.5L273.808-329.5z"/>
		<path fill="none" stroke="#000000" stroke-width="1.5" stroke-linecap="round" stroke-miterlimit="10" d="M288.048-329.5
			c0,0.87-0.706,1.575-1.575,1.575l0,0c-0.869,0-1.575-0.706-1.575-1.575l0,0c0-0.87,0.706-1.575,1.575-1.575l0,0
			C287.342-331.075,288.048-330.369,288.048-329.5L288.048-329.5z"/>
		<path fill="none" stroke="#000000" stroke-width="1.5" stroke-linecap="round" stroke-miterlimit="10" d="M280.928-329.5
			c0,0.87-0.706,1.575-1.575,1.575l0,0c-0.869,0-1.575-0.706-1.575-1.575l0,0c0-0.87,0.706-1.575,1.575-1.575l0,0
			C280.222-331.075,280.928-330.369,280.928-329.5L280.928-329.5z"/>
		<path fill="none" stroke="#000000" stroke-width="1.5" stroke-linecap="round" stroke-miterlimit="10" d="M252.447-323.668
			c0,0.869-0.705,1.574-1.575,1.574l0,0c-0.87,0-1.575-0.705-1.575-1.574l0,0c0-0.87,0.706-1.576,1.575-1.576l0,0
			C251.742-325.244,252.447-324.538,252.447-323.668L252.447-323.668z"/>
		<path fill="none" stroke="#000000" stroke-width="1.5" stroke-linecap="round" stroke-miterlimit="10" d="M259.567-323.668
			c0,0.869-0.705,1.574-1.575,1.574l0,0c-0.869,0-1.575-0.705-1.575-1.574l0,0c0-0.87,0.706-1.576,1.575-1.576l0,0
			C258.862-325.244,259.567-324.538,259.567-323.668L259.567-323.668z"/>
		<path fill="none" stroke="#000000" stroke-width="1.5" stroke-linecap="round" stroke-miterlimit="10" d="M266.688-323.668
			c0,0.869-0.705,1.574-1.575,1.574l0,0c-0.869,0-1.574-0.705-1.574-1.574l0,0c0-0.87,0.705-1.576,1.574-1.576l0,0
			C265.982-325.244,266.688-324.538,266.688-323.668L266.688-323.668z"/>
		<path fill="none" stroke="#000000" stroke-width="1.5" stroke-linecap="round" stroke-miterlimit="10" d="M273.808-323.668
			c0,0.869-0.706,1.574-1.575,1.574l0,0c-0.869,0-1.575-0.705-1.575-1.574l0,0c0-0.87,0.706-1.576,1.575-1.576l0,0
			C273.102-325.244,273.808-324.538,273.808-323.668L273.808-323.668z"/>
		<path fill="none" stroke="#000000" stroke-width="1.5" stroke-linecap="round" stroke-miterlimit="10" d="M288.048-323.668
			c0,0.869-0.706,1.574-1.575,1.574l0,0c-0.869,0-1.575-0.705-1.575-1.574l0,0c0-0.87,0.706-1.576,1.575-1.576l0,0
			C287.342-325.244,288.048-324.538,288.048-323.668L288.048-323.668z"/>
		<path fill="none" stroke="#000000" stroke-width="1.5" stroke-linecap="round" stroke-miterlimit="10" d="M280.928-323.668
			c0,0.869-0.706,1.574-1.575,1.574l0,0c-0.869,0-1.575-0.705-1.575-1.574l0,0c0-0.87,0.706-1.576,1.575-1.576l0,0
			C280.222-325.244,280.928-324.538,280.928-323.668L280.928-323.668z"/>
		<path fill="none" stroke="#000000" stroke-width="1.5" stroke-linecap="round" stroke-miterlimit="10" d="M252.447-317.837
			c0,0.869-0.705,1.574-1.575,1.574l0,0c-0.87,0-1.575-0.705-1.575-1.574l0,0c0-0.871,0.706-1.576,1.575-1.576l0,0
			C251.742-319.413,252.447-318.708,252.447-317.837L252.447-317.837z"/>
		<path fill="none" stroke="#000000" stroke-width="1.5" stroke-linecap="round" stroke-miterlimit="10" d="M259.567-317.837
			c0,0.869-0.705,1.574-1.575,1.574l0,0c-0.869,0-1.575-0.705-1.575-1.574l0,0c0-0.871,0.706-1.576,1.575-1.576l0,0
			C258.862-319.413,259.567-318.708,259.567-317.837L259.567-317.837z"/>
		<path fill="none" stroke="#000000" stroke-width="1.5" stroke-linecap="round" stroke-miterlimit="10" d="M266.688-317.837
			c0,0.869-0.705,1.574-1.575,1.574l0,0c-0.869,0-1.574-0.705-1.574-1.574l0,0c0-0.871,0.705-1.576,1.574-1.576l0,0
			C265.982-319.413,266.688-318.708,266.688-317.837L266.688-317.837z"/>
		<path fill="none" stroke="#000000" stroke-width="1.5" stroke-linecap="round" stroke-miterlimit="10" d="M273.808-317.837
			c0,0.869-0.706,1.574-1.575,1.574l0,0c-0.869,0-1.575-0.705-1.575-1.574l0,0c0-0.871,0.706-1.576,1.575-1.576l0,0
			C273.102-319.413,273.808-318.708,273.808-317.837L273.808-317.837z"/>
		<path fill="none" stroke="#000000" stroke-width="1.5" stroke-linecap="round" stroke-miterlimit="10" d="M288.048-317.837
			c0,0.869-0.706,1.574-1.575,1.574l0,0c-0.869,0-1.575-0.705-1.575-1.574l0,0c0-0.871,0.706-1.576,1.575-1.576l0,0
			C287.342-319.413,288.048-318.708,288.048-317.837L288.048-317.837z"/>
		<path fill="none" stroke="#000000" stroke-width="1.5" stroke-linecap="round" stroke-miterlimit="10" d="M280.928-317.837
			c0,0.869-0.706,1.574-1.575,1.574l0,0c-0.869,0-1.575-0.705-1.575-1.574l0,0c0-0.871,0.706-1.576,1.575-1.576l0,0
			C280.222-319.413,280.928-318.708,280.928-317.837L280.928-317.837z"/>
		<path fill="none" stroke="#000000" stroke-width="1.5" stroke-linecap="round" stroke-miterlimit="10" d="M252.447-312.007
			c0,0.869-0.705,1.574-1.575,1.574l0,0c-0.87,0-1.575-0.705-1.575-1.574l0,0c0-0.87,0.706-1.576,1.575-1.576l0,0
			C251.742-313.583,252.447-312.877,252.447-312.007L252.447-312.007z"/>
		<path fill="none" stroke="#000000" stroke-width="1.5" stroke-linecap="round" stroke-miterlimit="10" d="M259.567-312.007
			c0,0.869-0.705,1.574-1.575,1.574l0,0c-0.869,0-1.575-0.705-1.575-1.574l0,0c0-0.87,0.706-1.576,1.575-1.576l0,0
			C258.862-313.583,259.567-312.877,259.567-312.007L259.567-312.007z"/>
		<path fill="none" stroke="#000000" stroke-width="1.5" stroke-linecap="round" stroke-miterlimit="10" d="M266.688-312.007
			c0,0.869-0.705,1.574-1.575,1.574l0,0c-0.869,0-1.574-0.705-1.574-1.574l0,0c0-0.87,0.705-1.576,1.574-1.576l0,0
			C265.982-313.583,266.688-312.877,266.688-312.007L266.688-312.007z"/>
	</g>
</g>
<g id="Layer_15" display="none">
	<g display="inline">
		
			<circle fill="none" stroke="#000000" stroke-width="1.5" stroke-linecap="round" stroke-miterlimit="10" cx="-361.236" cy="-232.645" r="2.458"/>
		
			<circle fill="none" stroke="#000000" stroke-width="1.5" stroke-linecap="round" stroke-miterlimit="10" cx="-349.854" cy="-232.645" r="2.458"/>
		
			<path fill="none" stroke="#000000" stroke-width="1.5" stroke-linecap="round" stroke-linejoin="round" stroke-miterlimit="10" d="
			M-363.339-252.09l20.166,3.04c0.815,0.288,1.054,1.039,0.681,1.817l-2.796,8.363c-0.438,0.76-0.467,1.194-1.371,1.327
			l-19.164,1.074c-0.913-0.121-1.209-0.566-1.362-1.514c0,0-0.534-13.045-0.534-17.181c0-0.296-0.304-0.562-0.494-0.587
			c-0.968-0.129-1.579-0.21-1.963-0.261c-0.654-0.086-1.012,0.468-1.012,0.468l-0.66,1.02"/>
		
			<line fill="none" stroke="#000000" stroke-width="1.5" stroke-linecap="round" stroke-miterlimit="10" x1="-363.339" y1="-247.238" x2="-347" y2="-245.016"/>
		
			<line fill="none" stroke="#000000" stroke-width="1.5" stroke-linecap="round" stroke-miterlimit="10" x1="-363.339" y1="-242.86" x2="-348.593" y2="-240.781"/>
	</g>
</g>
<g id="Layer_10" display="none">
	<g display="inline">
		<path fill="none" stroke="#000000" stroke-width="1.5" stroke-linecap="round" stroke-miterlimit="10" d="M-246.708-215.916
			c0,1.657-1.343,3-3,3h-41.333c-1.657,0-3-1.343-3-3v-23.667c0-1.656,1.343-3,3-3h41.333c1.657,0,3,1.344,3,3V-215.916z"/>
		<path fill="none" stroke="#000000" stroke-width="1.5" stroke-linecap="round" stroke-miterlimit="10" d="M-287.854-244.738
			v-12.679c0-1.224,0.993-2.216,2.216-2.216h30.528c1.223,0,2.215,0.992,2.215,2.216v12.679"/>
		
			<line fill="none" stroke="#000000" stroke-width="1.5" stroke-linecap="round" stroke-miterlimit="10" x1="-291.041" y1="-239.583" x2="-270.374" y2="-227.749"/>
		
			<line fill="none" stroke="#000000" stroke-width="1.5" stroke-linecap="round" stroke-miterlimit="10" x1="-249.708" y1="-239.583" x2="-270.374" y2="-227.749"/>
		
			<line fill="none" stroke="#000000" stroke-width="1.5" stroke-linecap="round" stroke-miterlimit="10" x1="-274.874" y1="-256.167" x2="-256.041" y2="-256.167"/>
		
			<line fill="none" stroke="#000000" stroke-width="1.5" stroke-linecap="round" stroke-miterlimit="10" x1="-274.874" y1="-252.417" x2="-256.041" y2="-252.417"/>
		
			<line fill="none" stroke="#000000" stroke-width="1.5" stroke-linecap="round" stroke-miterlimit="10" x1="-283.707" y1="-248.667" x2="-256.041" y2="-248.667"/>
		
			<circle fill="none" stroke="#000000" stroke-width="1.5" stroke-linecap="round" stroke-miterlimit="10" cx="-281.707" cy="-254.167" r="2"/>
	</g>
</g>
<g id="Layer_11" display="none">
	
		<path display="inline" fill="none" stroke="#000000" stroke-width="1.5" stroke-linecap="round" stroke-linejoin="round" stroke-miterlimit="10" d="
		M-175.227-235.5c0,6.062-5.232,7.5-9.375,7.5c-4.142,0-7.5-3.357-7.5-7.5c0-4.142,3.358-7.5,7.5-7.5c2.125,0,8.078,0.721,6.5,8.5"
		/>
</g>
<g id="Layer_12" display="none">
	<g display="inline">
		<g>
			
				<line fill="none" stroke="#000000" stroke-width="1.5" stroke-linecap="round" stroke-linejoin="round" stroke-miterlimit="10" x1="-32.873" y1="-212.027" x2="-27.942" y2="-230.021"/>
			
				<line fill="none" stroke="#000000" stroke-width="1.5" stroke-linecap="round" stroke-linejoin="round" stroke-miterlimit="10" x1="-27.942" y1="-230.021" x2="-24.101" y2="-212.027"/>
			
				<line fill="none" stroke="#000000" stroke-width="1.5" stroke-linecap="round" stroke-linejoin="round" stroke-miterlimit="10" x1="-21.207" y1="-230.021" x2="-17.366" y2="-212.027"/>
			
				<line fill="none" stroke="#000000" stroke-width="1.5" stroke-linecap="round" stroke-linejoin="round" stroke-miterlimit="10" x1="-27.942" y1="-230.021" x2="-20.52" y2="-230.021"/>
			
				<line fill="none" stroke="#000000" stroke-width="1.5" stroke-linecap="round" stroke-linejoin="round" stroke-miterlimit="10" x1="-27.06" y1="-225.888" x2="-20.365" y2="-225.888"/>
			
				<line fill="none" stroke="#000000" stroke-width="1.5" stroke-linecap="round" stroke-linejoin="round" stroke-miterlimit="10" x1="-25.887" y1="-220.612" x2="-19.198" y2="-220.612"/>
			
				<line fill="none" stroke="#000000" stroke-width="1.5" stroke-linecap="round" stroke-linejoin="round" stroke-miterlimit="10" x1="-24.807" y1="-215.335" x2="-18.071" y2="-215.335"/>
			
				<polyline fill="none" stroke="#000000" stroke-width="1.5" stroke-linecap="round" stroke-linejoin="round" stroke-miterlimit="10" points="
				-30.85,-219.41 -28.409,-217.382 -25.61,-219.099 			"/>
		</g>
		<g>
			
				<line fill="none" stroke="#000000" stroke-width="1.5" stroke-linecap="round" stroke-linejoin="round" stroke-miterlimit="10" x1="-7.039" y1="-212.027" x2="0.386" y2="-246.417"/>
			
				<line fill="none" stroke="#000000" stroke-width="1.5" stroke-linecap="round" stroke-linejoin="round" stroke-miterlimit="10" x1="0.386" y1="-246.417" x2="5.044" y2="-212.027"/>
			
				<line fill="none" stroke="#000000" stroke-width="1.5" stroke-linecap="round" stroke-linejoin="round" stroke-miterlimit="10" x1="7.121" y1="-246.417" x2="13.544" y2="-212.027"/>
			
				<path fill="none" stroke="#000000" stroke-width="1.5" stroke-linecap="round" stroke-linejoin="round" stroke-miterlimit="10" d="
				M7.121-246.417H0.386c0,0-0.092-5.021,3.376-5.021S7.121-247.146,7.121-246.417z"/>
			
				<line fill="none" stroke="#000000" stroke-width="1.5" stroke-linecap="round" stroke-linejoin="round" stroke-miterlimit="10" x1="0.946" y1="-242.283" x2="7.893" y2="-242.283"/>
			
				<line fill="none" stroke="#000000" stroke-width="1.5" stroke-linecap="round" stroke-linejoin="round" stroke-miterlimit="10" x1="1.878" y1="-237.139" x2="8.854" y2="-237.139"/>
			
				<line fill="none" stroke="#000000" stroke-width="1.5" stroke-linecap="round" stroke-linejoin="round" stroke-miterlimit="10" x1="2.375" y1="-231.994" x2="9.815" y2="-231.994"/>
			
				<line fill="none" stroke="#000000" stroke-width="1.5" stroke-linecap="round" stroke-linejoin="round" stroke-miterlimit="10" x1="2.957" y1="-226.851" x2="10.776" y2="-226.851"/>
			
				<line fill="none" stroke="#000000" stroke-width="1.5" stroke-linecap="round" stroke-linejoin="round" stroke-miterlimit="10" x1="3.769" y1="-221.707" x2="11.737" y2="-221.707"/>
			
				<line fill="none" stroke="#000000" stroke-width="1.5" stroke-linecap="round" stroke-linejoin="round" stroke-miterlimit="10" x1="4.455" y1="-216.562" x2="12.698" y2="-216.562"/>
			
				<polyline fill="none" stroke="#000000" stroke-width="1.5" stroke-linecap="round" stroke-linejoin="round" stroke-miterlimit="10" points="
				-3.413,-228.821 -0.31,-224.562 2.957,-227.439 			"/>
		</g>
		<g>
			
				<line fill="none" stroke="#000000" stroke-width="1.5" stroke-linecap="round" stroke-linejoin="round" stroke-miterlimit="10" x1="-34.036" y1="-237.6" x2="-2.364" y2="-260.18"/>
			
				<line fill="none" stroke="#000000" stroke-width="1.5" stroke-linecap="round" stroke-linejoin="round" stroke-miterlimit="10" x1="0.732" y1="-255.838" x2="-30.94" y2="-233.258"/>
			
				<line fill="none" stroke="#000000" stroke-width="1.5" stroke-linecap="round" stroke-linejoin="round" stroke-miterlimit="10" x1="-32.507" y1="-238.642" x2="-29.571" y2="-234.521"/>
			
				<line fill="none" stroke="#000000" stroke-width="1.5" stroke-linecap="round" stroke-linejoin="round" stroke-miterlimit="10" x1="-28.522" y1="-241.436" x2="-25.586" y2="-237.314"/>
			
				<line fill="none" stroke="#000000" stroke-width="1.5" stroke-linecap="round" stroke-linejoin="round" stroke-miterlimit="10" x1="-24.516" y1="-244.196" x2="-21.58" y2="-240.075"/>
			
				<line fill="none" stroke="#000000" stroke-width="1.5" stroke-linecap="round" stroke-linejoin="round" stroke-miterlimit="10" x1="-16.57" y1="-249.814" x2="-13.633" y2="-245.693"/>
			
				<line fill="none" stroke="#000000" stroke-width="1.5" stroke-linecap="round" stroke-linejoin="round" stroke-miterlimit="10" x1="-20.577" y1="-247.053" x2="-17.64" y2="-242.932"/>
			
				<line fill="none" stroke="#000000" stroke-width="1.5" stroke-linecap="round" stroke-linejoin="round" stroke-miterlimit="10" x1="-12.72" y1="-252.796" x2="-9.785" y2="-248.675"/>
			
				<line fill="none" stroke="#000000" stroke-width="1.5" stroke-linecap="round" stroke-linejoin="round" stroke-miterlimit="10" x1="-8.624" y1="-255.43" x2="-5.687" y2="-251.31"/>
			
				<line fill="none" stroke="#000000" stroke-width="1.5" stroke-linecap="round" stroke-linejoin="round" stroke-miterlimit="10" x1="-4.64" y1="-258.224" x2="-1.703" y2="-254.104"/>
		</g>
	</g>
</g>
<g id="Layer_9" display="none">
	<g display="inline">
		<g>
			
				<path fill="none" stroke="#000000" stroke-width="1.5" stroke-linecap="round" stroke-linejoin="round" stroke-miterlimit="10" d="
				M92.013-235.254l-3-12.39l-12.084,0l-0.77-0.701l-3.454-0.643l-4.909-1.752v-5.669l4.909-1.462l3.454-0.759l0.77-0.702h17.508
				c0.387,0,0.701,0.314,0.701,0.702l1.688,1.056v7.698l-1.688,1.898l3,12.9l0.844,2.682v2.661l-0.844,0.035
				c0,0.388-0.314,0.702-0.701,0.702H84.506c-0.387,0-0.701-0.314-0.701-0.702v-1.23l0.844-0.562v-3.058
				c0-0.389,0.313-0.701,0.7-0.701H92.013"/>
			
				<polygon fill="none" stroke="#000000" stroke-width="1.5" stroke-linecap="round" stroke-linejoin="round" stroke-miterlimit="10" points="
				66.21,-255.645 65.063,-255.516 62.771,-254.834 62.771,-252.186 65.063,-251.368 66.21,-251.258 			"/>
			
				<line fill="none" stroke="#000000" stroke-width="1.5" stroke-linecap="round" stroke-linejoin="round" stroke-miterlimit="10" x1="62.771" y1="-253.452" x2="58.643" y2="-253.452"/>
			
				<line fill="none" stroke="#000000" stroke-width="1.5" stroke-linecap="round" stroke-linejoin="round" stroke-miterlimit="10" x1="72.706" y1="-256.078" x2="72.706" y2="-250.732"/>
			
				<path fill="none" stroke="#000000" stroke-width="1.5" stroke-linecap="round" stroke-linejoin="round" stroke-miterlimit="10" d="
				M77.09-250.736c-0.15,0-0.273-0.123-0.273-0.274v-4.79c0-0.152,0.123-0.274,0.273-0.274h7.168c0.149,0,0.272,0.122,0.272,0.274"
				/>
			
				<line fill="none" stroke="#000000" stroke-width="1.5" stroke-linecap="round" stroke-linejoin="round" stroke-miterlimit="10" x1="91.437" y1="-256.416" x2="94.39" y2="-253.042"/>
			
				<line fill="none" stroke="#000000" stroke-width="1.5" stroke-linecap="round" stroke-linejoin="round" stroke-miterlimit="10" x1="89.855" y1="-254.834" x2="92.808" y2="-251.46"/>
			
				<line fill="none" stroke="#000000" stroke-width="1.5" stroke-linecap="round" stroke-linejoin="round" stroke-miterlimit="10" x1="88.274" y1="-253.252" x2="91.226" y2="-249.878"/>
			
				<path fill="none" stroke="#000000" stroke-width="1.5" stroke-linecap="round" stroke-linejoin="round" stroke-miterlimit="10" d="
				M85.99-247.556c1.085,1.086,1.086,2.847,0,3.934"/>
			
				<circle fill="none" stroke="#000000" stroke-width="1.5" stroke-linecap="round" stroke-linejoin="round" stroke-miterlimit="10" cx="92.281" cy="-245.555" r="0.879"/>
			
				<line fill="none" stroke="#000000" stroke-width="1.5" stroke-linecap="round" stroke-linejoin="round" stroke-miterlimit="10" x1="94.238" y1="-235.254" x2="95.914" y2="-235.254"/>
		</g>
		<g>
			
				<circle fill="none" stroke="#000000" stroke-width="1.5" stroke-linecap="round" stroke-linejoin="round" stroke-miterlimit="10" cx="58.775" cy="-220.104" r="5.935"/>
			
				<circle fill="none" stroke="#000000" stroke-width="1.5" stroke-linecap="round" stroke-linejoin="round" stroke-miterlimit="10" cx="58.775" cy="-220.104" r="1.218"/>
			
				<path fill="none" stroke="#000000" stroke-width="1.5" stroke-linecap="round" stroke-linejoin="round" stroke-miterlimit="10" d="
				M58.775-228.855c4.833,0,8.751,3.917,8.751,8.751s-3.917,8.751-8.751,8.751"/>
			
				<path fill="none" stroke="#000000" stroke-width="1.5" stroke-linecap="round" stroke-linejoin="round" stroke-miterlimit="10" d="
				M61.872-228.474v-5.441c0-0.37,0-0.37-0.669-0.669c-0.429-0.192-1.757-0.67-1.757-0.67c-0.37,0-0.67,0.3-0.67,0.67v5.729"/>
			
				<path fill="none" stroke="#000000" stroke-width="1.5" stroke-linecap="round" stroke-linejoin="round" stroke-miterlimit="10" d="
				M97.009-223.987l-27.726-1.339c-0.127,0-0.237,0.063-0.31,0.157c0.79,1.517,1.243,3.236,1.243,5.064s-0.453,3.548-1.243,5.064
				c0.073,0.094,0.182,0.157,0.31,0.157l27.726-2.009c0.221,0,0.4-0.179,0.4-0.399l2.678-0.638v-2.176l-2.678-0.753v-2.73
				C97.41-223.808,97.23-223.987,97.009-223.987z"/>
			
				<line fill="none" stroke="#000000" stroke-width="1.5" stroke-linecap="round" stroke-linejoin="round" stroke-miterlimit="10" x1="94.367" y1="-223.659" x2="93.217" y2="-220.857"/>
			
				<line fill="none" stroke="#000000" stroke-width="1.5" stroke-linecap="round" stroke-linejoin="round" stroke-miterlimit="10" x1="91.869" y1="-224.122" x2="90.53" y2="-220.857"/>
			
				<line fill="none" stroke="#000000" stroke-width="1.5" stroke-linecap="round" stroke-linejoin="round" stroke-miterlimit="10" x1="89.181" y1="-224.122" x2="87.842" y2="-220.857"/>
			
				<path fill="none" stroke="#000000" stroke-width="1.5" stroke-linecap="round" stroke-linejoin="round" stroke-miterlimit="10" d="
				M76.861-219.965c0,0.37-0.299,0.67-0.669,0.67h-2.511c-0.37,0-0.669-0.3-0.669-0.67v-0.688c0-0.369,0.299-0.669,0.669-0.669
				h2.511c0.37,0,0.669,0.3,0.669,0.669V-219.965z"/>
			
				<circle fill="none" stroke="#000000" stroke-width="1.5" stroke-linecap="round" stroke-linejoin="round" stroke-miterlimit="10" cx="81.875" cy="-220.309" r="0.949"/>
			
				<path fill="none" stroke="#000000" stroke-width="1.5" stroke-linecap="round" stroke-linejoin="round" stroke-miterlimit="10" d="
				M75.89-225.42c0.096-0.208,0.004-0.454-0.203-0.549l-2.765-1.267c-0.208-0.096-0.454-0.004-0.549,0.205l-0.529,1.154
				c-0.096,0.208-0.004,0.454,0.204,0.55"/>
		</g>
	</g>
</g>
<g id="Layer_8" display="none">
	<g display="inline">
		
			<circle fill="none" stroke="#000000" stroke-width="1.5" stroke-linecap="round" stroke-miterlimit="10" cx="158.855" cy="-219.439" r="4.936"/>
		<path fill="none" stroke="#000000" stroke-width="1.5" stroke-linecap="round" stroke-miterlimit="10" d="M176.649-231.648
			h-35.588c-0.574,0-1.039,0.465-1.039,1.039v8.701c0,0.574,0.465,1.039,1.039,1.039h13.093c0.616-2.023,2.475-3.506,4.701-3.506
			c2.226,0,4.084,1.482,4.7,3.506h13.094c0.574,0,1.039-0.465,1.039-1.039v-8.701C177.688-231.184,177.223-231.648,176.649-231.648z
			"/>
		
			<polyline fill="none" stroke="#000000" stroke-width="1.5" stroke-linecap="round" stroke-linejoin="round" stroke-miterlimit="10" points="
			176.649,-220.869 186.455,-220.869 185.026,-222.297 		"/>
		
			<line fill="none" stroke="#000000" stroke-width="1.5" stroke-linecap="round" stroke-miterlimit="10" x1="181.551" y1="-220.869" x2="181.551" y2="-218.531"/>
		
			<polyline fill="none" stroke="#000000" stroke-width="1.5" stroke-linecap="round" stroke-linejoin="round" stroke-miterlimit="10" points="
			143.204,-231.32 144.958,-228.385 146.711,-231.32 		"/>
		
			<polyline fill="none" stroke="#000000" stroke-width="1.5" stroke-linecap="round" stroke-linejoin="round" stroke-miterlimit="10" points="
			150.127,-231.32 151.881,-228.385 153.634,-231.32 		"/>
		
			<polyline fill="none" stroke="#000000" stroke-width="1.5" stroke-linecap="round" stroke-linejoin="round" stroke-miterlimit="10" points="
			157.051,-231.32 158.805,-228.385 160.558,-231.32 		"/>
		
			<polyline fill="none" stroke="#000000" stroke-width="1.5" stroke-linecap="round" stroke-linejoin="round" stroke-miterlimit="10" points="
			163.975,-231.32 165.728,-228.385 167.482,-231.32 		"/>
		
			<polyline fill="none" stroke="#000000" stroke-width="1.5" stroke-linecap="round" stroke-linejoin="round" stroke-miterlimit="10" points="
			170.898,-231.32 172.652,-228.385 174.405,-231.32 		"/>
		
			<path fill="none" stroke="#000000" stroke-width="1.5" stroke-linecap="round" stroke-linejoin="round" stroke-miterlimit="10" d="
			M143.854-221.908c0,0.574-0.465,1.039-1.039,1.039h-1.753c-0.574,0-1.039-0.465-1.039-1.039v-2.467
			c0-0.574,0.465-1.039,1.039-1.039h1.753c0.574,0,1.039,0.465,1.039,1.039V-221.908z"/>
		
			<circle fill="none" stroke="#000000" stroke-width="1.5" stroke-linecap="round" stroke-miterlimit="10" cx="158.855" cy="-219.439" r="1.839"/>
		<g>
			
				<circle fill="none" stroke="#000000" stroke-width="1.5" stroke-linecap="round" stroke-miterlimit="10" cx="151.811" cy="-245.587" r="3.382"/>
			
				<circle fill="none" stroke="#000000" stroke-width="1.5" stroke-linecap="round" stroke-miterlimit="10" cx="160.928" cy="-245.587" r="3.381"/>
			
				<path fill="none" stroke="#000000" stroke-width="1.5" stroke-linecap="round" stroke-linejoin="round" stroke-miterlimit="10" d="
				M176.389-246.672h-0.551h-8.433c0,0,0,0-2.397-3.517c-0.182-0.267-0.437-0.64-1.121-0.64c-2.626,0-12.092,0-15.683,0
				c-0.248,0-0.735,0.25-0.881,0.45c-2.716,3.706-2.716,3.706-2.716,3.706h-4.064c-0.574,0-0.651-0.233-0.651-0.52v-7.966
				c0-0.287,0.077-0.52,0.651-0.52h35.295c0.575,0,0.551,0.232,0.551,0.52V-246.672z"/>
			
				<circle fill="none" stroke="#000000" stroke-width="1.5" stroke-linecap="round" stroke-miterlimit="10" cx="151.811" cy="-245.587" r="0.993"/>
			
				<circle fill="none" stroke="#000000" stroke-width="1.5" stroke-linecap="round" stroke-miterlimit="10" cx="160.929" cy="-245.587" r="0.993"/>
			
				<line fill="none" stroke="#000000" stroke-width="1.5" stroke-linecap="round" stroke-linejoin="round" stroke-miterlimit="10" x1="141.938" y1="-255.677" x2="141.938" y2="-257.495"/>
			
				<line fill="none" stroke="#000000" stroke-width="1.5" stroke-linecap="round" stroke-linejoin="round" stroke-miterlimit="10" x1="158.171" y1="-255.677" x2="158.171" y2="-257.495"/>
			
				<line fill="none" stroke="#000000" stroke-width="1.5" stroke-linecap="round" stroke-linejoin="round" stroke-miterlimit="10" x1="174.405" y1="-255.677" x2="174.405" y2="-257.495"/>
			
				<line fill="none" stroke="#000000" stroke-width="1.5" stroke-linecap="round" stroke-linejoin="round" stroke-miterlimit="10" x1="143.854" y1="-246.672" x2="143.854" y2="-243.642"/>
			
				<path fill="none" stroke="#000000" stroke-width="1.5" stroke-linecap="round" stroke-linejoin="round" stroke-miterlimit="10" d="
				M179.441-246.672h-1.039h-0.974h-1.039v-2.511c0-0.574,0.464-1.039,1.039-1.039h0.974c0.574,0,1.039,0.465,1.039,1.039V-246.672z
				"/>
			
				<line fill="none" stroke="#000000" stroke-width="1.5" stroke-linecap="round" stroke-linejoin="round" stroke-miterlimit="10" x1="179.441" y1="-246.672" x2="185.243" y2="-246.672"/>
			
				<line fill="none" stroke="#000000" stroke-width="1.5" stroke-linecap="round" stroke-linejoin="round" stroke-miterlimit="10" x1="171.973" y1="-253.469" x2="174.18" y2="-251.261"/>
			
				<line fill="none" stroke="#000000" stroke-width="1.5" stroke-linecap="round" stroke-linejoin="round" stroke-miterlimit="10" x1="170.348" y1="-251.844" x2="172.555" y2="-249.637"/>
			
				<circle fill="none" stroke="#000000" stroke-width="1.5" stroke-linecap="round" stroke-linejoin="round" stroke-miterlimit="10" cx="143.464" cy="-251.65" r="0.845"/>
		</g>
	</g>
</g>
<g id="Layer_7" display="none">
	<g display="inline">
		<g>
			
				<circle fill="none" stroke="#000000" stroke-width="1.5" stroke-linecap="round" stroke-miterlimit="10" cx="751.192" cy="-216.966" r="2.4"/>
			<path fill="none" stroke="#000000" stroke-width="1.5" stroke-linecap="round" stroke-miterlimit="10" d="M770.434-214.049
				c0.254,0.392-0.591,1.318-1.318,1.318c-0.729,0-1.572-0.927-1.319-1.318C768.154-214.602,770.074-214.602,770.434-214.049z"/>
			
				<circle fill="none" stroke="#000000" stroke-width="1.5" stroke-linecap="round" stroke-miterlimit="10" cx="751.192" cy="-216.966" r="4.8"/>
			<path fill="none" stroke="#000000" stroke-width="1.5" stroke-linecap="round" stroke-miterlimit="10" d="M749.506-230.051
				c-0.529-0.004-0.958,0.43-0.958,0.959v5.624c0.896-0.429,1.896-0.677,2.955-0.677c3.792,0,6.866,3.075,6.866,6.868
				c0,0.904-0.179,1.765-0.496,2.556h15.106c0.53,0,0.958-0.429,0.958-0.959c0,0,0.195-4.219-2.555-7.825
				C766.957-229.306,755.619-229.997,749.506-230.051z"/>
			<path fill="none" stroke="#000000" stroke-width="1.5" stroke-linecap="round" stroke-miterlimit="10" d="M757.412-231.015
				c0.029-0.528-0.375-0.98-0.902-1.01l-3.584-0.201c-0.528-0.029-0.98,0.375-1.01,0.903l-0.013,0.215
				c-0.029,0.528,0.375,0.98,0.903,1.01l3.584,0.201c0.527,0.028,0.98-0.376,1.01-0.903L757.412-231.015z"/>
			<path fill="none" stroke="#000000" stroke-width="1.5" stroke-linecap="round" stroke-miterlimit="10" d="M763.863-228.194
				c0,0-12.072-10.414-9.205-18.662c3.268-9.403,13.253-5.612,14.955-2.256"/>
			
				<polyline fill="none" stroke="#000000" stroke-width="1.5" stroke-linecap="round" stroke-linejoin="round" stroke-miterlimit="10" points="
				769.613,-249.112 779.766,-215.551 785.783,-215.551 			"/>
			
				<path fill="none" stroke="#000000" stroke-width="1.5" stroke-linecap="round" stroke-linejoin="round" stroke-miterlimit="10" d="
				M770.216-248.948c0.095,0.287-0.061,0.597-0.349,0.692l-0.302,0.1c-0.287,0.096-0.597-0.061-0.692-0.347l-0.1-0.304
				c-0.095-0.287,0.061-0.597,0.348-0.692l0.303-0.1c0.287-0.095,0.597,0.061,0.691,0.348L770.216-248.948z"/>
			
				<line fill="none" stroke="#000000" stroke-width="1.5" stroke-linecap="round" stroke-linejoin="round" stroke-miterlimit="10" x1="785.783" y1="-215.551" x2="778.262" y2="-214.565"/>
			
				<line fill="none" stroke="#000000" stroke-width="1.5" stroke-linecap="round" stroke-linejoin="round" stroke-miterlimit="10" x1="778.262" y1="-214.565" x2="779.766" y2="-215.551"/>
			
				<line fill="none" stroke="#000000" stroke-width="1.5" stroke-linecap="round" stroke-linejoin="round" stroke-miterlimit="10" x1="763.043" y1="-221.286" x2="763.043" y2="-218.09"/>
			
				<line fill="none" stroke="#000000" stroke-width="1.5" stroke-linecap="round" stroke-linejoin="round" stroke-miterlimit="10" x1="765.3" y1="-221.286" x2="765.3" y2="-218.09"/>
			
				<line fill="none" stroke="#000000" stroke-width="1.5" stroke-linecap="round" stroke-linejoin="round" stroke-miterlimit="10" x1="767.556" y1="-221.286" x2="767.556" y2="-218.09"/>
		</g>
		<g>
			
				<line fill="none" stroke="#000000" stroke-width="1.5" stroke-linecap="round" stroke-linejoin="round" stroke-miterlimit="10" x1="793.886" y1="-216.079" x2="785.696" y2="-255.306"/>
			<g>
				
					<path fill="none" stroke="#000000" stroke-width="1.5" stroke-linecap="round" stroke-linejoin="round" stroke-miterlimit="10" d="
					M793.113-258.334c-0.133-0.639-0.759-1.05-1.4-0.916l-13.128,2.741c-0.641,0.134-1.05,0.761-0.917,1.4l0.08,0.386
					c0.135,0.64,0.761,1.05,1.4,0.916l13.129-2.741c0.642-0.134,1.05-0.76,0.917-1.4L793.113-258.334z"/>
				
					<line fill="none" stroke="#000000" stroke-width="1.5" stroke-linecap="round" stroke-linejoin="round" stroke-miterlimit="10" x1="777.888" y1="-254.059" x2="777.195" y2="-257.372"/>
				
					<line fill="none" stroke="#000000" stroke-width="1.5" stroke-linecap="round" stroke-linejoin="round" stroke-miterlimit="10" x1="778.992" y1="-254.29" x2="778.252" y2="-257.833"/>
				
					<line fill="none" stroke="#000000" stroke-width="1.5" stroke-linecap="round" stroke-linejoin="round" stroke-miterlimit="10" x1="780.097" y1="-254.521" x2="779.404" y2="-257.833"/>
				
					<line fill="none" stroke="#000000" stroke-width="1.5" stroke-linecap="round" stroke-linejoin="round" stroke-miterlimit="10" x1="781.2" y1="-254.751" x2="780.461" y2="-258.294"/>
				
					<line fill="none" stroke="#000000" stroke-width="1.5" stroke-linecap="round" stroke-linejoin="round" stroke-miterlimit="10" x1="782.305" y1="-254.981" x2="781.613" y2="-258.294"/>
				
					<line fill="none" stroke="#000000" stroke-width="1.5" stroke-linecap="round" stroke-linejoin="round" stroke-miterlimit="10" x1="783.409" y1="-255.212" x2="782.67" y2="-258.755"/>
				
					<line fill="none" stroke="#000000" stroke-width="1.5" stroke-linecap="round" stroke-linejoin="round" stroke-miterlimit="10" x1="784.514" y1="-255.442" x2="783.822" y2="-258.755"/>
				
					<line fill="none" stroke="#000000" stroke-width="1.5" stroke-linecap="round" stroke-linejoin="round" stroke-miterlimit="10" x1="785.618" y1="-255.673" x2="784.878" y2="-259.216"/>
				
					<line fill="none" stroke="#000000" stroke-width="1.5" stroke-linecap="round" stroke-linejoin="round" stroke-miterlimit="10" x1="786.722" y1="-255.904" x2="786.03" y2="-259.216"/>
				
					<line fill="none" stroke="#000000" stroke-width="1.5" stroke-linecap="round" stroke-linejoin="round" stroke-miterlimit="10" x1="787.826" y1="-256.134" x2="787.086" y2="-259.677"/>
				
					<line fill="none" stroke="#000000" stroke-width="1.5" stroke-linecap="round" stroke-linejoin="round" stroke-miterlimit="10" x1="788.931" y1="-256.365" x2="788.238" y2="-259.677"/>
				
					<line fill="none" stroke="#000000" stroke-width="1.5" stroke-linecap="round" stroke-linejoin="round" stroke-miterlimit="10" x1="790.034" y1="-256.596" x2="789.295" y2="-260.139"/>
				
					<line fill="none" stroke="#000000" stroke-width="1.5" stroke-linecap="round" stroke-linejoin="round" stroke-miterlimit="10" x1="791.14" y1="-256.826" x2="790.447" y2="-260.139"/>
				
					<line fill="none" stroke="#000000" stroke-width="1.5" stroke-linecap="round" stroke-linejoin="round" stroke-miterlimit="10" x1="792.243" y1="-257.057" x2="791.504" y2="-260.6"/>
				
					<line fill="none" stroke="#000000" stroke-width="1.5" stroke-linecap="round" stroke-linejoin="round" stroke-miterlimit="10" x1="793.349" y1="-257.287" x2="792.656" y2="-260.6"/>
			</g>
		</g>
	</g>
</g>
<g id="Layer_6" display="none">
	<g display="inline">
		<g>
			
				<circle fill="none" stroke="#000000" stroke-width="1.5" stroke-linecap="round" stroke-miterlimit="10" cx="701.577" cy="-215.417" r="3.664"/>
			
				<line fill="none" stroke="#000000" stroke-width="1.5" stroke-linecap="round" stroke-miterlimit="10" x1="701.577" y1="-215.417" x2="697.772" y2="-220.084"/>
			<path fill="none" stroke="#000000" stroke-width="1.5" stroke-linecap="round" stroke-miterlimit="10" d="M697.741-220.14
				c-0.041,0.323-0.334,0.553-0.656,0.514l-15.24-1.913c-0.322-0.039-0.552-0.333-0.511-0.655l-6.173-12.698
				c0.041-0.322,0.336-0.551,0.656-0.509l27.812,3.485c0.322,0.041,0.551,0.333,0.51,0.655L697.741-220.14z"/>
			<path fill="none" stroke="#000000" stroke-width="1.5" stroke-linecap="round" stroke-miterlimit="10" d="M687.485-220.83
				c0,0-2.421,17.866-3.4,0.186"/>
			
				<polyline fill="none" stroke="#000000" stroke-width="1.5" stroke-linecap="round" stroke-linejoin="round" stroke-miterlimit="10" points="
				681.845,-221.539 676.31,-222.355 667.987,-232.415 661.618,-233.233 			"/>
			
				<polyline fill="none" stroke="#000000" stroke-width="1.5" stroke-linecap="round" stroke-linejoin="round" stroke-miterlimit="10" points="
				695.12,-230.237 699.675,-229.544 697.284,-225.849 			"/>
		</g>
		<g>
			
				<path fill="none" stroke="#000000" stroke-width="1.5" stroke-linecap="round" stroke-linejoin="round" stroke-miterlimit="10" d="
				M702.938-238.596c0,0.436-0.354,0.788-0.789,0.788c0,0-2.902-0.377-3.889-0.377c-0.984,0-3.889,0.377-3.889,0.377
				c-0.436,0-0.789-0.353-0.789-0.788l-1.574-11.914c0-0.435,0.352-0.788,0.787-0.788h10.93c0.436,0,0.787,0.353,0.787,0.788
				L702.938-238.596z"/>
			
				<line fill="none" stroke="#000000" stroke-width="1.5" stroke-linecap="round" stroke-linejoin="round" stroke-miterlimit="10" x1="701.267" y1="-248.546" x2="700.351" y2="-240.654"/>
			
				<path fill="none" stroke="#000000" stroke-width="1.5" stroke-linecap="round" stroke-linejoin="round" stroke-miterlimit="10" d="
				M698.261-258.897c-3.021,0-5.646,3.399-5.646,7.599h11.293C703.907-255.498,701.282-258.897,698.261-258.897z"/>
		</g>
		<g>
			
				<path fill="none" stroke="#000000" stroke-width="1.5" stroke-linecap="round" stroke-linejoin="round" stroke-miterlimit="10" d="
				M681.346-250.432c0.396,0.305,1.658,6.744,1.658,6.744s-6.548,0.431-6.944,0.125l-4.959-3.816
				c-0.396-0.305-0.398-0.967-0.004-1.478l2.646-1.957l1.213-3.061c0.395-0.511,1.033-0.679,1.43-0.374L681.346-250.432z"/>
			
				<line fill="none" stroke="#000000" stroke-width="1.5" stroke-linecap="round" stroke-linejoin="round" stroke-miterlimit="10" x1="675.268" y1="-249.639" x2="680.256" y2="-245.802"/>
			
				<path fill="none" stroke="#000000" stroke-width="1.5" stroke-linecap="round" stroke-linejoin="round" stroke-miterlimit="10" d="
				M673.808-252.379l-4.747-3.654l-1.323-1.74l-0.924,0.011c-0.396-0.304-0.963-0.23-1.268,0.166L665.085-257
				c-0.305,0.397-0.23,0.964,0.166,1.269l0.225,0.895l2.021,0.834l4.747,3.654"/>
			
				<line fill="none" stroke="#000000" stroke-width="1.5" stroke-linecap="round" stroke-linejoin="round" stroke-miterlimit="10" x1="670.007" y1="-252.072" x2="671.569" y2="-254.102"/>
		</g>
	</g>
</g>
<g id="Layer_5" display="none">
	<g display="inline">
		<g>
			
				<path fill="none" stroke="#000000" stroke-width="1.5" stroke-linecap="round" stroke-linejoin="round" stroke-miterlimit="10" d="
				M580.909-247.333c0,0.397-0.322,0.719-0.721,0.719h-1.262c-0.397,0-0.721-0.322-0.721-0.719v-2.944
				c0-0.398,0.323-0.722,0.721-0.722h1.262c0.398,0,0.721,0.323,0.721,0.722V-247.333z"/>
			
				<path fill="none" stroke="#000000" stroke-width="1.5" stroke-linecap="round" stroke-linejoin="round" stroke-miterlimit="10" d="
				M599.278-247.333c0,0.397-0.322,0.719-0.721,0.719h-1.262c-0.398,0-0.721-0.322-0.721-0.719v-2.944
				c0-0.398,0.322-0.722,0.721-0.722h1.262c0.398,0,0.721,0.323,0.721,0.722V-247.333z"/>
			
				<path fill="none" stroke="#000000" stroke-width="1.5" stroke-linecap="round" stroke-linejoin="round" stroke-miterlimit="10" d="
				M603.612-253.106h-3.447v-1.724h3.629c0.398,0,0.723-0.322,0.723-0.719l-9.643-4.701c-0.398,0-0.719,0.323-0.719,0.721h-10.633
				c0-0.398-0.322-0.721-0.721-0.721l-9.642,4.701c0,0.397,0.323,0.719,0.721,0.719h3.438v1.724h-3.255
				c-0.394,0-0.711,0.319-0.711,0.71v2.192c0,0.394,0.317,0.713,0.711,0.713h0.061v7.651c0,0.374,0.304,0.676,0.678,0.676h28.074
				c0.371,0,0.674-0.302,0.674-0.676v-7.651h0.062c0.396,0,0.713-0.319,0.713-0.713v-2.192
				C604.325-252.787,604.009-253.106,603.612-253.106z M580.909-254.83h1.893c0.398,0,0.721-0.322,0.721-0.719v-0.301h10.633v0.301
				c0,0.397,0.32,0.719,0.719,0.719h1.701v1.724h-15.666V-254.83z"/>
			
				<line fill="none" stroke="#000000" stroke-width="1.5" stroke-linecap="round" stroke-linejoin="round" stroke-miterlimit="10" x1="583.12" y1="-248.807" x2="594.364" y2="-248.807"/>
			
				<line fill="none" stroke="#000000" stroke-width="1.5" stroke-linecap="round" stroke-linejoin="round" stroke-miterlimit="10" x1="584.573" y1="-259.529" x2="587.051" y2="-255.895"/>
			
				<line fill="none" stroke="#000000" stroke-width="1.5" stroke-linecap="round" stroke-linejoin="round" stroke-miterlimit="10" x1="587.749" y1="-259.529" x2="590.228" y2="-255.895"/>
			
				<line fill="none" stroke="#000000" stroke-width="1.5" stroke-linecap="round" stroke-linejoin="round" stroke-miterlimit="10" x1="590.925" y1="-259.529" x2="593.405" y2="-255.895"/>
		</g>
		<g>
			
				<path fill="none" stroke="#000000" stroke-width="1.5" stroke-linecap="round" stroke-linejoin="round" stroke-miterlimit="10" d="
				M620.172-237.432c-0.352,1.809-1.498,3.253-3.007,4.059c-1.148,0.614,0.646,8.069-5.127,6.944
				c-5.772-1.123-1.328-7.355-2.165-8.364c-1.086-1.311-1.597-3.086-1.246-4.888c0.621-3.188,3.709-5.27,6.897-4.648
				C618.712-243.708,620.793-240.62,620.172-237.432z"/>
			
				<line fill="none" stroke="#000000" stroke-width="1.5" stroke-linecap="round" stroke-linejoin="round" stroke-miterlimit="10" x1="609.633" y1="-232.804" x2="616.861" y2="-232.88"/>
			
				<line fill="none" stroke="#000000" stroke-width="1.5" stroke-linecap="round" stroke-linejoin="round" stroke-miterlimit="10" x1="609.192" y1="-230.544" x2="616.421" y2="-230.618"/>
			
				<line fill="none" stroke="#000000" stroke-width="1.5" stroke-linecap="round" stroke-linejoin="round" stroke-miterlimit="10" x1="609.338" y1="-228.169" x2="615.98" y2="-228.358"/>
			
				<path fill="none" stroke="#000000" stroke-width="1.5" stroke-linecap="round" stroke-linejoin="round" stroke-miterlimit="10" d="
				M617.078-238.499c0,0-0.777-1.414-2.354-1.722c-1.894-0.368-2.829,0.712-2.829,0.712l1.352,6.667L617.078-238.499z"/>
			
				<line fill="none" stroke="#000000" stroke-width="1.5" stroke-linecap="round" stroke-linejoin="round" stroke-miterlimit="10" x1="611.025" y1="-225.961" x2="612.725" y2="-225.63"/>
		</g>
		<g>
			<g>
				
					<circle fill="none" stroke="#000000" stroke-width="1.5" stroke-linecap="round" stroke-linejoin="round" stroke-miterlimit="10" cx="600.922" cy="-215.066" r="2.782"/>
				
					<circle fill="none" stroke="#000000" stroke-width="1.5" stroke-linecap="round" stroke-linejoin="round" stroke-miterlimit="10" cx="582.958" cy="-215.066" r="2.783"/>
				
					<path fill="none" stroke="#000000" stroke-width="1.5" stroke-linecap="round" stroke-linejoin="round" stroke-miterlimit="10" d="
					M607.206-216.814c0,0,0.299-3.181-2.385-3.181s-28.107,0-28.107,0v-13.415c0,0,0.361-2.492-2.492-2.492"/>
				
					<path fill="none" stroke="#000000" stroke-width="1.5" stroke-linecap="round" stroke-linejoin="round" stroke-miterlimit="10" d="
					M580.176-219.995c-2.558,0.804-3.25,3.427-3.25,4.555"/>
			</g>
			
				<path fill="none" stroke="#000000" stroke-width="1.5" stroke-linecap="round" stroke-linejoin="round" stroke-miterlimit="10" d="
				M586.498-223.5c0,0.491-0.397,0.89-0.89,0.89h-5.299c-0.492,0-0.891-0.398-0.891-0.89v-5.716c0-0.49,0.398-0.89,0.891-0.89h5.299
				c0.492,0,0.89,0.399,0.89,0.89V-223.5z"/>
			
				<path fill="none" stroke="#000000" stroke-width="1.5" stroke-linecap="round" stroke-linejoin="round" stroke-miterlimit="10" d="
				M596.899-223.5c0,0.491-0.398,0.89-0.891,0.89h-5.299c-0.492,0-0.89-0.398-0.89-0.89v-5.716c0-0.49,0.397-0.89,0.89-0.89h5.299
				c0.492,0,0.891,0.399,0.891,0.89V-223.5z"/>
			
				<path fill="none" stroke="#000000" stroke-width="1.5" stroke-linecap="round" stroke-linejoin="round" stroke-miterlimit="10" d="
				M603.537-223.041c0,0.238-0.192,0.431-0.43,0.431h-2.562c-0.237,0-0.431-0.192-0.431-0.431v-2.764c0-0.236,0.193-0.43,0.431-0.43
				h2.562c0.237,0,0.43,0.193,0.43,0.43V-223.041z"/>
		</g>
	</g>
</g>
<g id="Layer_4" display="none">
	<g display="inline">
		<path fill="none" stroke="#000000" stroke-width="1.5" stroke-linecap="round" stroke-miterlimit="10" d="M440.772-253.055
			c4.472,4.471,7.237,10.649,7.237,17.472c0,13.647-11.062,24.708-24.708,24.708c-13.646,0-24.709-11.062-24.709-24.708
			c0-13.646,11.062-24.708,24.709-24.708"/>
		<path fill="none" stroke="#000000" stroke-width="1.5" stroke-linecap="round" stroke-miterlimit="10" d="M411.354-243.656
			c0,5.56,1.282,20.75,6.842,20.75c4.408,0,3.425-13.875,6.017-13.875c2.033,0,1.267,13.875,5.233,13.875
			c5.526,0,7.625-15.223,7.625-20.75"/>
		<path fill="none" stroke="#000000" stroke-width="1.5" stroke-linecap="round" stroke-miterlimit="10" d="M409.729-245.11
			c0,0,0.444,0.628,1.576,0.845c1.068,0.205,1.424-0.414,1.424-0.414"/>
		<path fill="none" stroke="#000000" stroke-width="1.5" stroke-linecap="round" stroke-miterlimit="10" d="M435.571-244.667
			c0,0,0.445,0.628,1.576,0.845c1.068,0.205,1.424-0.414,1.424-0.414"/>
	</g>
</g>
<g id="Layer_3" display="none">
	<g display="inline">
		<path fill="none" stroke="#000000" stroke-width="1.5" stroke-linecap="round" stroke-miterlimit="10" d="M354.063-253.055
			c4.472,4.471,7.237,10.649,7.237,17.472c0,13.647-11.062,24.708-24.708,24.708c-13.646,0-24.709-11.062-24.709-24.708
			c0-13.646,11.062-24.708,24.709-24.708"/>
		<g>
			<g>
				<path fill="none" stroke="#000000" stroke-width="1.5" stroke-linecap="round" stroke-miterlimit="10" d="M331.032-247.019
					c1.331,1.236,1.907,7.523,1.965,9.339c0.13,4.073-0.834,10.04-0.834,14.116"/>
				<path fill="none" stroke="#000000" stroke-width="1.5" stroke-linecap="round" stroke-miterlimit="10" d="M328.158-247.232
					c7.679,0,18.167,1,18.167,12.91c0,11.258-11.95,9.996-17.167,11.434"/>
			</g>
			<path fill="none" stroke="#000000" stroke-width="1.5" stroke-linecap="round" stroke-miterlimit="10" d="M328.264-224.617
				c0.268,0.875,0.281,2.391,0,3.166"/>
			<path fill="none" stroke="#000000" stroke-width="1.5" stroke-linecap="round" stroke-miterlimit="10" d="M327.715-248.603
				c0.268,0.875,0.281,2.392,0,3.167"/>
		</g>
	</g>
</g>
<g id="Layer_2" display="none">
	
		<path display="inline" fill="none" stroke="#000000" stroke-width="1.5" stroke-linecap="round" stroke-linejoin="round" stroke-miterlimit="10" d="
		M236.706-228.694c0,0-5.087-5.087-7.049-7.049c-0.842-0.842-0.76-1.88-0.641-2.563c0.146-0.847,0.764-1.262,1.189-1.466
		c10.445-5.014,30.008-15.475,39.1-19.964c0.471-0.232,0.869-0.368,1.242,0.004c0.519,0.521,0.208,0.719-0.137,1.896
		c-2.685,9.162-11.893,34.382-14.505,43.378c-0.229,0.785-0.558,1.8-1.529,2.054c-0.796,0.206-1.472-0.089-1.894-0.511
		c-1.28-1.281-3.773-3.772-5.196-5.196c-1.14-1.14-1.732-2.146-2.898-2.147c-1.021-0.002-1.623,0.714-1.994,1.1
		c-1.191,1.241-4.865,4.867-4.865,4.867l16.982-29.637L236.706-228.694z"/>
</g>
<g id="GUIDES" display="none">
</g>
<g id="Layer_38" display="none">
	<g display="inline">
		
			<path fill="none" stroke="#000000" stroke-width="1.5" stroke-linecap="round" stroke-linejoin="round" stroke-miterlimit="10" d="
			M-92.497,5.415l-2.656,0.2V3.352c0-0.331,0.269-0.6,0.6-0.6h1.456c0.332,0,0.6,0.269,0.6,0.6V5.415z"/>
		
			<path fill="none" stroke="#000000" stroke-width="1.5" stroke-linecap="round" stroke-linejoin="round" stroke-miterlimit="10" d="
			M-92.497,28.254c0,0.332-0.268,0.6-0.6,0.6h-1.456c-0.332,0-0.6-0.268-0.6-0.6v-12.25l2.656-0.2V28.254z"/>
		
			<path fill="none" stroke="#000000" stroke-width="1.5" stroke-linecap="round" stroke-linejoin="round" stroke-miterlimit="10" d="
			M-80.723,9.495c0.029,0.331-4.332,3.34-4.662,3.369c-4.508,0.395-18.03,1.578-18.03,1.578c-0.331,0.028-0.622-0.215-0.65-0.545
			l-0.41-4.682c-0.028-0.331,0.216-0.622,0.546-0.65c0,0,13.523-1.183,18.031-1.578C-85.568,6.958-80.752,9.165-80.723,9.495
			L-80.723,9.495z"/>
		
			<path fill="none" stroke="#000000" stroke-width="1.5" stroke-linecap="round" stroke-linejoin="round" stroke-miterlimit="10" d="
			M-100.493,11.555c0.021,0.239-0.156,0.449-0.396,0.47l-0.902,0.079c-0.239,0.021-0.45-0.155-0.471-0.395l-0.079-0.903
			c-0.021-0.239,0.156-0.45,0.395-0.471l0.903-0.079c0.239-0.021,0.45,0.156,0.471,0.396L-100.493,11.555z"/>
		
			<line fill="none" stroke="#000000" stroke-width="1.5" stroke-linecap="round" stroke-linejoin="round" stroke-miterlimit="10" x1="-98.204" y1="10.899" x2="-85.752" y2="9.81"/>
		
			<path fill="none" stroke="#000000" stroke-width="1.5" stroke-linecap="round" stroke-linejoin="round" stroke-miterlimit="10" d="
			M-97.666,26.892l1.05-1.3c0,0,1.188,2.223,1.576,3.011"/>
		
			<path fill="none" stroke="#000000" stroke-width="1.5" stroke-linecap="round" stroke-linejoin="round" stroke-miterlimit="10" d="
			M-90.365,27.525l-0.738-1.283c0,0-0.861,1.85-1.762,2.565"/>
	</g>
</g>
<g id="Layer_39" display="none">
	<g display="inline">
		
			<polygon fill="none" stroke="#000000" stroke-width="1.5" stroke-linecap="round" stroke-linejoin="round" stroke-miterlimit="10" points="
			-49.133,11.378 -50.184,6.457 -45.261,7.506 		"/>
		
			<path fill="none" stroke="#000000" stroke-width="1.5" stroke-linecap="round" stroke-linejoin="round" stroke-miterlimit="10" d="
			M-33.476,11.136c3.946,3.946,3.946,10.345-0.001,14.292c0,0-1.852-3.378-1.852-7.208C-35.326,13.443-33.476,11.136-33.476,11.136z
			"/>
		
			<path fill="none" stroke="#000000" stroke-width="1.5" stroke-linecap="round" stroke-linejoin="round" stroke-miterlimit="10" d="
			M-49.921,13.052c-2.104,4.665-1.26,10.335,2.573,14.168c4.951,4.951,12.979,4.951,17.929,0c4.952-4.951,4.952-12.979,0.001-17.93
			c-3.833-3.833-9.502-4.677-14.167-2.573"/>
		
			<circle fill="none" stroke="#000000" stroke-width="1.5" stroke-linecap="round" stroke-linejoin="round" stroke-miterlimit="10" cx="-54.622" cy="0.164" r="3.604"/>
		
			<circle fill="none" stroke="#000000" stroke-width="1.5" stroke-linecap="round" stroke-linejoin="round" stroke-miterlimit="10" cx="-59.604" cy="11.958" r="3.603"/>
		
			<circle fill="none" stroke="#000000" stroke-width="1.5" stroke-linecap="round" stroke-linejoin="round" stroke-miterlimit="10" cx="-42.788" cy="-3.759" r="3.604"/>
	</g>
</g>
<g id="Layer_40">
	<g>
		
			<path fill="none" stroke="#000000" stroke-width="1.5" stroke-linecap="round" stroke-linejoin="round" stroke-miterlimit="10" d="
			M7.396,6.743c0,0.214-0.174,0.388-0.388,0.388H4.193c-0.215,0-0.389-0.174-0.389-0.388V3.929c0-0.215,0.174-0.389,0.389-0.389
			h2.814c0.214,0,0.388,0.174,0.388,0.389V6.743z"/>
		
			<path fill="none" stroke="#000000" stroke-width="1.5" stroke-linecap="round" stroke-linejoin="round" stroke-miterlimit="10" d="
			M14.494,6.743c0,0.214-0.174,0.388-0.389,0.388h-2.814c-0.214,0-0.388-0.174-0.388-0.388V3.929c0-0.215,0.174-0.389,0.388-0.389
			h2.814c0.215,0,0.389,0.174,0.389,0.389V6.743z"/>
		
			<path fill="none" stroke="#000000" stroke-width="1.5" stroke-linecap="round" stroke-linejoin="round" stroke-miterlimit="10" d="
			M21.591,6.743c0,0.214-0.174,0.388-0.389,0.388h-2.814C18.175,7.131,18,6.957,18,6.743V3.929c0-0.215,0.175-0.389,0.388-0.389
			h2.814c0.215,0,0.389,0.174,0.389,0.389V6.743z"/>
		
			<path fill="none" stroke="#000000" stroke-width="1.5" stroke-linecap="round" stroke-linejoin="round" stroke-miterlimit="10" d="
			M7.396,13.429c0,0.214-0.174,0.388-0.388,0.388H4.193c-0.215,0-0.389-0.174-0.389-0.388v-2.814c0-0.215,0.174-0.389,0.389-0.389
			h2.814c0.214,0,0.388,0.174,0.388,0.389V13.429z"/>
		
			<path fill="none" stroke="#000000" stroke-width="1.5" stroke-linecap="round" stroke-linejoin="round" stroke-miterlimit="10" d="
			M14.494,13.429c0,0.214-0.174,0.388-0.389,0.388h-2.814c-0.214,0-0.388-0.174-0.388-0.388v-2.814c0-0.215,0.174-0.389,0.388-0.389
			h2.814c0.215,0,0.389,0.174,0.389,0.389V13.429z"/>
		
			<path fill="none" stroke="#000000" stroke-width="1.5" stroke-linecap="round" stroke-linejoin="round" stroke-miterlimit="10" d="
			M21.591,13.429c0,0.214-0.174,0.388-0.389,0.388h-2.814c-0.213,0-0.388-0.174-0.388-0.388v-2.814c0-0.215,0.175-0.389,0.388-0.389
			h2.814c0.215,0,0.389,0.174,0.389,0.389V13.429z"/>
		
			<path fill="none" stroke="#000000" stroke-width="1.5" stroke-linecap="round" stroke-linejoin="round" stroke-miterlimit="10" d="
			M7.396,20.114c0,0.214-0.174,0.388-0.388,0.388H4.193c-0.215,0-0.389-0.174-0.389-0.388V17.3c0-0.214,0.174-0.388,0.389-0.388
			h2.814c0.214,0,0.388,0.174,0.388,0.388V20.114z"/>
		
			<path fill="none" stroke="#000000" stroke-width="1.5" stroke-linecap="round" stroke-linejoin="round" stroke-miterlimit="10" d="
			M14.494,20.114c0,0.214-0.174,0.388-0.389,0.388h-2.814c-0.214,0-0.388-0.174-0.388-0.388V17.3c0-0.214,0.174-0.388,0.388-0.388
			h2.814c0.215,0,0.389,0.174,0.389,0.388V20.114z"/>
		
			<path fill="none" stroke="#000000" stroke-width="1.5" stroke-linecap="round" stroke-linejoin="round" stroke-miterlimit="10" d="
			M21.591,20.114c0,0.214-0.174,0.388-0.389,0.388h-2.814c-0.213,0-0.388-0.174-0.388-0.388V17.3c0-0.214,0.175-0.388,0.388-0.388
			h2.814c0.215,0,0.389,0.174,0.389,0.388V20.114z"/>
	</g>
</g>
<g id="Layer_41">
	<path fill="none" stroke="#000000" stroke-width="1.5" stroke-linecap="round" stroke-linejoin="round" stroke-miterlimit="10" d="
		M38.414,6.743c0,0.214-0.174,0.388-0.388,0.388h-2.814c-0.215,0-0.389-0.174-0.389-0.388V3.929c0-0.215,0.174-0.389,0.389-0.389
		h2.814c0.214,0,0.388,0.174,0.388,0.389V6.743z"/>
	<path fill="none" stroke="#000000" stroke-width="1.5" stroke-linecap="round" stroke-linejoin="round" stroke-miterlimit="10" d="
		M52.609,6.743c0,0.214-0.174,0.388-0.389,0.388h-9.912c-0.214,0-0.388-0.174-0.388-0.388V3.929c0-0.215,0.174-0.389,0.388-0.389
		h9.912c0.215,0,0.389,0.174,0.389,0.389V6.743z"/>
	<path fill="none" stroke="#000000" stroke-width="1.5" stroke-linecap="round" stroke-linejoin="round" stroke-miterlimit="10" d="
		M38.414,13.429c0,0.214-0.174,0.388-0.388,0.388h-2.814c-0.215,0-0.389-0.174-0.389-0.388v-2.814c0-0.215,0.174-0.389,0.389-0.389
		h2.814c0.214,0,0.388,0.174,0.388,0.389V13.429z"/>
	<path fill="none" stroke="#000000" stroke-width="1.5" stroke-linecap="round" stroke-linejoin="round" stroke-miterlimit="10" d="
		M52.609,13.429c0,0.214-0.174,0.388-0.389,0.388h-9.912c-0.214,0-0.388-0.174-0.388-0.388v-2.814c0-0.215,0.174-0.389,0.388-0.389
		h9.912c0.215,0,0.389,0.174,0.389,0.389V13.429z"/>
	<path fill="none" stroke="#000000" stroke-width="1.5" stroke-linecap="round" stroke-linejoin="round" stroke-miterlimit="10" d="
		M38.414,20.114c0,0.214-0.174,0.388-0.388,0.388h-2.814c-0.215,0-0.389-0.174-0.389-0.388V17.3c0-0.214,0.174-0.388,0.389-0.388
		h2.814c0.214,0,0.388,0.174,0.388,0.388V20.114z"/>
	<path fill="none" stroke="#000000" stroke-width="1.5" stroke-linecap="round" stroke-linejoin="round" stroke-miterlimit="10" d="
		M52.609,20.114c0,0.214-0.174,0.388-0.389,0.388h-9.912c-0.214,0-0.388-0.174-0.388-0.388V17.3c0-0.214,0.174-0.388,0.388-0.388
		h9.912c0.215,0,0.389,0.174,0.389,0.388V20.114z"/>
</g>
<g id="Layer_42" display="none">
	
		<path display="inline" fill="none" stroke="#000000" stroke-width="1.5" stroke-linecap="round" stroke-linejoin="round" stroke-miterlimit="10" d="
		M79.633,13.8c-0.332,0-0.6-0.269-0.6-0.6v-2.4c0-0.331,0.269-0.6,0.6-0.6h10.4c0.331,0,0.6,0.269,0.6,0.6v2.4
		c0,0.331-0.269,0.6-0.6,0.6H79.633z"/>
</g>
<g id="Layer_43" display="none">
	
		<path display="inline" fill="none" stroke="#000000" stroke-width="1.5" stroke-linecap="round" stroke-linejoin="round" stroke-miterlimit="10" d="
		M120.534,10.2h-3.4V6.8c0-0.332-0.269-0.6-0.6-0.6h-2.4c-0.331,0-0.6,0.269-0.6,0.6v3.4h-3.4c-0.332,0-0.6,0.269-0.6,0.6v2.4
		c0,0.331,0.269,0.6,0.6,0.6h3.4v3.4c0,0.332,0.269,0.6,0.6,0.6h2.4c0.331,0,0.6-0.268,0.6-0.6v-3.4h3.4c0.331,0,0.6-0.269,0.6-0.6
		v-2.4C121.133,10.469,120.865,10.2,120.534,10.2z"/>
</g>
</svg>
