<?xml version="1.0" encoding="utf-8"?>
<!-- Generator: Adobe Illustrator 16.0.4, SVG Export Plug-In . SVG Version: 6.00 Build 0)  -->
<!DOCTYPE svg PUBLIC "-//W3C//DTD SVG 1.1//EN" "http://www.w3.org/Graphics/SVG/1.1/DTD/svg11.dtd">
<svg version="1.1" xmlns="http://www.w3.org/2000/svg" xmlns:xlink="http://www.w3.org/1999/xlink" x="0px" y="0px"
	 width="62.855px" height="55.967px" viewBox="0 0 62.855 55.967" enable-background="new 0 0 62.855 55.967" xml:space="preserve">
<g id="Layer_1">
	<g>
		<g>
			<path fill="none" stroke="#CF4428" stroke-width="1.5" stroke-miterlimit="10" d="M157.019,163.746
				c-5.068,0-9.191-4.123-9.191-9.191s4.123-9.191,9.191-9.191s9.192,4.123,9.192,9.191S162.087,163.746,157.019,163.746z"/>
		</g>
		<g>
			<path fill="none" stroke="#CF4428" stroke-width="1.5" stroke-linecap="round" stroke-miterlimit="10" d="M148.828,190.179
				c-4.27-2.191-7.829-6.547-8.827-10.566c-1.547-6.23,1.345-12.603,3.091-15.102c0.956-1.369,1.833-2.062,2.76-2.183
				c1.291-0.166,2.477,0.837,3.846,2c1.785,1.514,4.006,3.399,7.322,3.399c3.327,0,5.729-1.999,7.659-3.604
				c1.523-1.27,2.728-2.271,3.955-2.014c0.853,0.18,1.594,0.951,2.33,2.428c2.496,5.003,3.677,12.821,0.369,18.167
				c-2.582,4.176-7.397,6.291-14.313,6.291c-5.735,0-11.551-1.363-15.243-11.254"/>
		</g>
	</g>
</g>
<g id="Layer_28">
	<g>
		
			<circle fill="none" stroke="#000000" stroke-width="1.5" stroke-linecap="round" stroke-miterlimit="10" cx="-298.297" cy="-328.939" r="12.893"/>
		<path fill="none" stroke="#000000" stroke-width="1.5" stroke-linecap="round" stroke-miterlimit="10" d="M-278.495-305.623
			l-9.977-9.854c-1.087-1.089,1.481-0.284,2.568-1.372c1.086-1.088,0.283-3.656,1.371-2.568l21.302,21.303
			c1.088,1.088,1.088,2.853,0,3.938l0,0c-1.086,1.088-2.851,1.088-3.939,0l-9.585-13.021"/>
		<path fill="none" stroke="#000000" stroke-width="1.5" stroke-linecap="round" stroke-miterlimit="10" d="M-289.271-328.387
			c0,2.736-1.115-2.624-4.329-5.802c-3.277-3.241-8.627-4.328-5.802-4.328C-293.807-338.518-289.271-335.018-289.271-328.387z"/>
	</g>
</g>
<g id="Layer_29">
	<g>
		<path fill="none" stroke="#000000" stroke-width="2" stroke-linecap="round" stroke-miterlimit="10" d="M-219.142-334.5
			c0,1.381-1.119,2.5-2.5,2.5h-2c-1.381,0-2.5-1.119-2.5-2.5l0,0c0-1.381,1.119-2.5,2.5-2.5h2
			C-220.261-337-219.142-335.881-219.142-334.5L-219.142-334.5z"/>
		<path fill="none" stroke="#000000" stroke-width="2" stroke-linecap="round" stroke-miterlimit="10" d="M-180.142-334.5
			c0,1.381-1.119,2.5-2.5,2.5h-30c-1.381,0-2.5-1.119-2.5-2.5l0,0c0-1.381,1.119-2.5,2.5-2.5h30
			C-181.261-337-180.142-335.881-180.142-334.5L-180.142-334.5z"/>
		<path fill="none" stroke="#000000" stroke-width="2" stroke-linecap="round" stroke-miterlimit="10" d="M-219.142-318.5
			c0,1.381-1.119,2.5-2.5,2.5h-2c-1.381,0-2.5-1.119-2.5-2.5l0,0c0-1.381,1.119-2.5,2.5-2.5h2
			C-220.261-321-219.142-319.881-219.142-318.5L-219.142-318.5z"/>
		<path fill="none" stroke="#000000" stroke-width="2" stroke-linecap="round" stroke-miterlimit="10" d="M-180.142-318.5
			c0,1.381-1.119,2.5-2.5,2.5h-30c-1.381,0-2.5-1.119-2.5-2.5l0,0c0-1.381,1.119-2.5,2.5-2.5h30
			C-181.261-321-180.142-319.881-180.142-318.5L-180.142-318.5z"/>
		<path fill="none" stroke="#000000" stroke-width="2" stroke-linecap="round" stroke-miterlimit="10" d="M-219.142-301.5
			c0,1.381-1.119,2.5-2.5,2.5h-2c-1.381,0-2.5-1.119-2.5-2.5l0,0c0-1.381,1.119-2.5,2.5-2.5h2
			C-220.261-304-219.142-302.881-219.142-301.5L-219.142-301.5z"/>
		<path fill="none" stroke="#000000" stroke-width="2" stroke-linecap="round" stroke-miterlimit="10" d="M-180.142-301.5
			c0,1.381-1.119,2.5-2.5,2.5h-30c-1.381,0-2.5-1.119-2.5-2.5l0,0c0-1.381,1.119-2.5,2.5-2.5h30
			C-181.261-304-180.142-302.881-180.142-301.5L-180.142-301.5z"/>
	</g>
</g>
<g id="Layer_30">
	<g>
		<path fill="none" stroke="#CF4428" stroke-width="1.5" stroke-linecap="round" stroke-miterlimit="10" d="M-24.167,114.834
			l6.717-5.647c0.88-1.095,2.707-1.087,3.802-0.208l19.162,15.4c1.096,0.88,7.495,14.018,5.291,16.76
			c-2.202,2.74-16.409-0.683-17.504-1.562l-19.163-15.4c-1.095-0.879-1.495-2.662-0.615-3.756l7.477-6.753"/>
		
			<circle fill="none" stroke="#CF4428" stroke-width="1.5" stroke-linecap="round" stroke-miterlimit="10" cx="4.364" cy="135.96" r="2.684"/>
		<path fill="none" stroke="#CF4428" stroke-width="1.5" stroke-linecap="round" stroke-miterlimit="10" d="M7,136.167
			C4.167,135,1.167,138,2.167,141c3,5,2,10-0.323,13.816"/>
		<path fill="none" stroke="#CF4428" stroke-width="1.5" stroke-linecap="round" stroke-miterlimit="10" d="M11.667,139
			c4.611-0.251,4.523,2.108,3.922,5.889c-0.61,3.838,1.897,6.772,3.813,9.937"/>
		
			<line fill="none" stroke="#CF4428" stroke-width="1.5" stroke-linecap="round" stroke-miterlimit="10" x1="-16" y1="113.667" x2="0" y2="126.334"/>
		
			<line fill="none" stroke="#CF4428" stroke-width="1.5" stroke-linecap="round" stroke-miterlimit="10" x1="-19" y1="117.667" x2="-9.429" y2="125.244"/>
		
			<line fill="none" stroke="#CF4428" stroke-width="1.5" stroke-linecap="round" stroke-miterlimit="10" x1="-22" y1="121.667" x2="-12.489" y2="129.197"/>
	</g>
</g>
<g id="Layer_25">
	<g>
		<path fill="none" stroke="#CF4428" stroke-width="1.5" stroke-linecap="round" stroke-miterlimit="10" d="M81.735-30.5
			c-1.22-4.644-1.833-10.168-1.833-12.833c0-6.627,5.373-12,12-12c6.627,0,12,5.373,12,12S98.529-8,91.902-8
			c-3.962,0-11.149-16.498-13.333-26.167"/>
		
			<circle fill="none" stroke="#CF4428" stroke-width="1.5" stroke-linecap="round" stroke-miterlimit="10" cx="91.902" cy="-44.333" r="6.687"/>
	</g>
</g>
<g id="Layer_26">
	<path fill="none" stroke="#CF4428" stroke-width="1.5" stroke-linecap="round" stroke-miterlimit="10" d="M-32.064,95.092
		c-1.172,1.172-4.951,1.334-4.182,0C-25.242,76-39.262,81.51-39.242,76c0.02-5.509,14,0,2.996-19.092
		c-0.77-1.335,3.011-1.172,4.182,0c0,0,12.703,12.73,16.94,16.971c1.171,1.172,1.186,3.07,0.015,4.242
		C-19.35,82.361-32.064,95.092-32.064,95.092z"/>
</g>
<g id="Layer_27">
	<path fill="none" stroke="#CF4428" stroke-width="2" stroke-linecap="round" stroke-miterlimit="10" d="M191.777-93.715
		c-1.172-1.172-1.229-3.306,0-4.285c4.119-3.282,34.064-3.283,38.184,0c1.229,0.979,1.172,3.115,0,4.285
		c0,0-12.73,14.756-16.971,18.992c-1.172,1.172-3.07,1.159-4.242-0.011C204.507-78.974,191.777-93.715,191.777-93.715z"/>
</g>
<g id="Layer_32">
	<path fill="none" stroke="#000000" stroke-width="1.5" stroke-linecap="round" stroke-miterlimit="10" d="M-393.033,20.998
		c1.172,1.172,1.229,3.306,0,4.285c-2.011,1.602-10.781-4.321-19.092-4.283c-8.715,0.04-16.983,5.963-19.092,4.283
		c-1.229-0.979-1.172-3.115,0-4.285c0,0,12.73-14.756,16.971-18.992c1.172-1.172,3.07-1.159,4.242,0.011
		C-405.763,6.256-393.033,20.998-393.033,20.998z"/>
	<path fill="none" stroke="#000000" stroke-width="1.5" stroke-linecap="round" stroke-miterlimit="10" d="M-393.033,44.998
		c1.172,1.172,1.229,3.306,0,4.285c-2.011,1.602-10.781-4.321-19.092-4.283c-8.715,0.04-16.983,5.963-19.092,4.283
		c-1.229-0.98-1.172-3.115,0-4.285c0,0,12.73-14.756,16.971-18.992c1.172-1.172,3.07-1.16,4.242,0.01
		C-405.763,30.256-393.033,44.998-393.033,44.998z"/>
</g>
<g id="Layer_36">
	<path fill="none" stroke="#000000" stroke-width="1.5" stroke-linecap="round" stroke-miterlimit="10" d="M-240.274,13.78
		c0.604,0.426,0.634,1.203,0,1.56c-1.037,0.583-5.563-1.572-9.851-1.559c-4.497,0.015-8.763,2.17-9.851,1.559
		c-0.634-0.356-0.605-1.133,0-1.56c0,0,6.568-5.371,8.756-6.912c0.605-0.426,1.584-0.422,2.188,0.004
		C-246.842,8.415-240.274,13.78-240.274,13.78z"/>
	<path fill="none" stroke="#000000" stroke-width="1.5" stroke-linecap="round" stroke-miterlimit="10" d="M-259.979,36.22
		c-0.605-0.427-0.634-1.203,0-1.56c1.037-0.583,5.562,1.572,9.85,1.559c4.497-0.015,8.764-2.17,9.852-1.559
		c0.633,0.357,0.604,1.134,0,1.56c0,0-6.569,5.37-8.757,6.912c-0.605,0.427-1.584,0.422-2.189-0.004
		C-253.411,41.585-259.979,36.22-259.979,36.22z"/>
	<g>
		<g>
			<path fill="none" stroke="#000000" stroke-width="1.5" stroke-linecap="round" stroke-miterlimit="10" d="M-256.218,22.397
				c0,0.552-0.448,1-1,1h-2.333c-0.552,0-1-0.448-1-1v-2.333c0-0.552,0.448-1,1-1h2.333c0.552,0,1,0.448,1,1V22.397z"/>
			
				<line fill="none" stroke="#000000" stroke-width="1.5" stroke-linecap="round" stroke-miterlimit="10" x1="-252.051" y1="21.231" x2="-240.884" y2="21.231"/>
		</g>
		<g>
			<path fill="none" stroke="#000000" stroke-width="1.5" stroke-linecap="round" stroke-miterlimit="10" d="M-256.218,29.936
				c0,0.553-0.448,1-1,1h-2.333c-0.552,0-1-0.447-1-1v-2.332c0-0.553,0.448-1,1-1h2.333c0.552,0,1,0.447,1,1V29.936z"/>
			
				<line fill="none" stroke="#000000" stroke-width="1.5" stroke-linecap="round" stroke-miterlimit="10" x1="-252.051" y1="28.77" x2="-240.884" y2="28.77"/>
		</g>
	</g>
</g>
<g id="Layer_37">
	<path fill="none" stroke="#CF4428" stroke-width="1.5" stroke-linecap="round" stroke-miterlimit="10" d="M-81.274,97.78
		c0.604,0.427,0.634,1.203,0,1.56c-1.037,0.583-5.563-1.572-9.851-1.559c-4.497,0.015-8.764,2.17-9.852,1.559
		c-0.633-0.356-0.604-1.133,0-1.56c0,0,6.568-5.37,8.757-6.912c0.604-0.427,1.584-0.422,2.188,0.004
		C-87.842,92.415-81.274,97.78-81.274,97.78z"/>
	<path fill="none" stroke="#CF4428" stroke-width="1.5" stroke-linecap="round" stroke-miterlimit="10" d="M-100.98,112.22
		c-0.605-0.427-0.634-1.203,0-1.56c1.037-0.583,5.562,1.572,9.851,1.559c4.497-0.015,8.764-2.17,9.852-1.559
		c0.633,0.357,0.604,1.134,0,1.56c0,0-6.569,5.37-8.757,6.912c-0.605,0.427-1.584,0.422-2.189-0.004
		C-94.412,117.585-100.98,112.22-100.98,112.22z"/>
	<g>
		<g>
			<path fill="none" stroke="#CF4428" stroke-width="1.5" stroke-linecap="round" stroke-miterlimit="10" d="M-97.218,105.936
				c0,0.553-0.447,1-1,1h-2.332c-0.553,0-1-0.447-1-1v-2.332c0-0.553,0.447-1,1-1h2.332c0.553,0,1,0.447,1,1V105.936z"/>
		</g>
		<g>
			<path fill="none" stroke="#CF4428" stroke-width="1.5" stroke-linecap="round" stroke-miterlimit="10" d="M-89.218,105.936
				c0,0.553-0.447,1-1,1h-2.332c-0.553,0-1-0.447-1-1v-2.332c0-0.553,0.447-1,1-1h2.332c0.553,0,1,0.447,1,1V105.936z"/>
		</g>
		<g>
			<path fill="none" stroke="#CF4428" stroke-width="1.5" stroke-linecap="round" stroke-miterlimit="10" d="M-81.218,105.936
				c0,0.553-0.447,1-1,1h-2.332c-0.553,0-1-0.447-1-1v-2.332c0-0.553,0.447-1,1-1h2.332c0.553,0,1,0.447,1,1V105.936z"/>
		</g>
	</g>
</g>
<g id="Layer_33">
	<g>
		<path fill="none" stroke="#000000" stroke-width="1.5" stroke-linecap="round" stroke-miterlimit="10" d="M-304.297,6.259h6.63
			c0.499,0,0.903,0.404,0.903,0.903v34.554c0,0.5-0.404,0.903-0.903,0.903h-26.133c-0.499,0-0.903-0.403-0.903-0.903V7.163
			c0-0.499,0.404-0.903,0.903-0.903h6.629"/>
		
			<path fill="none" stroke="#000000" stroke-width="1.5" stroke-linecap="round" stroke-linejoin="round" stroke-miterlimit="10" d="
			M-305.202,8.405c0,0.499-0.403,0.903-0.903,0.903h-9.259c-0.499,0-0.903-0.405-0.903-0.903l-0.903-4.291
			c0-0.499,0.404-0.904,0.903-0.904h3.218c0,0,0.169-2.71,2.315-2.71c2.447,0,2.315,2.71,2.315,2.71h3.218
			c0.5,0,0.904,0.405,0.904,0.904L-305.202,8.405z"/>
		<g>
			
				<path fill="none" stroke="#000000" stroke-width="1.5" stroke-linecap="round" stroke-linejoin="round" stroke-miterlimit="10" d="
				M-315.298,18.267c0,0.499-0.405,0.903-0.903,0.903h-3.688c-0.5,0-0.903-0.405-0.903-0.903v-3.688
				c0-0.499,0.404-0.903,0.903-0.903h3.688c0.499,0,0.903,0.404,0.903,0.903V18.267z"/>
			
				<line fill="none" stroke="#000000" stroke-width="1.5" stroke-linecap="round" stroke-linejoin="round" stroke-miterlimit="10" x1="-311.324" y1="16.422" x2="-300.726" y2="16.422"/>
		</g>
		<g>
			
				<path fill="none" stroke="#000000" stroke-width="1.5" stroke-linecap="round" stroke-linejoin="round" stroke-miterlimit="10" d="
				M-315.285,27.621c0,0.497-0.405,0.903-0.903,0.903h-3.689c-0.499,0-0.903-0.406-0.903-0.903v-3.689
				c0-0.5,0.405-0.903,0.903-0.903h3.689c0.499,0,0.903,0.404,0.903,0.903V27.621z"/>
			
				<line fill="none" stroke="#000000" stroke-width="1.5" stroke-linecap="round" stroke-linejoin="round" stroke-miterlimit="10" x1="-311.312" y1="25.775" x2="-300.713" y2="25.775"/>
		</g>
		<g>
			
				<path fill="none" stroke="#000000" stroke-width="1.5" stroke-linecap="round" stroke-linejoin="round" stroke-miterlimit="10" d="
				M-315.311,36.975c0,0.498-0.404,0.903-0.903,0.903h-3.688c-0.499,0-0.903-0.405-0.903-0.903v-3.689
				c0-0.499,0.404-0.903,0.903-0.903h3.688c0.499,0,0.903,0.404,0.903,0.903V36.975z"/>
			
				<line fill="none" stroke="#000000" stroke-width="1.5" stroke-linecap="round" stroke-linejoin="round" stroke-miterlimit="10" x1="-311.336" y1="35.13" x2="-300.739" y2="35.13"/>
		</g>
	</g>
</g>
<g id="Layer_35">
</g>
<g id="Layer_22">
	<path fill="none" stroke="#CF4428" stroke-width="1.5" stroke-linecap="round" stroke-miterlimit="10" d="M358.936-7.908
		c-1.172,1.172-4.951,1.334-4.182,0C365.758-27,367.172-21.49,367.192-27c0.02-5.509-1.434,0-12.438-19.092
		c-0.77-1.335,3.01-1.172,4.182,0c0,0,12.703,12.73,16.939,16.971c1.172,1.172,1.186,3.07,0.016,4.242
		C371.651-20.639,358.936-7.908,358.936-7.908z"/>
</g>
<g id="Layer_23">
	<path fill="none" stroke="#CF4428" stroke-width="1.5" stroke-linecap="round" stroke-miterlimit="10" d="M-125.429,7.908
		c1.172-1.172,4.951-1.334,4.182,0C-132.251,27-118.231,21.49-118.251,27c-0.02,5.509-14,0-2.996,19.092
		c0.77,1.335-3.011,1.172-4.182,0c0,0-12.703-12.73-16.94-16.971c-1.171-1.172-1.186-3.07-0.015-4.242
		C-138.144,20.639-125.429,7.908-125.429,7.908z"/>
	<path fill="none" stroke="#CF4428" stroke-miterlimit="10" d="M142.989,30.133c-0.928,0.389-1.926,0.65-2.973,0.768
		c1.068-0.603,1.889-1.558,2.275-2.695c-1,0.559-2.107,0.964-3.287,1.182c-0.943-0.946-2.289-1.538-3.778-1.538
		c-2.858,0-5.176,2.182-5.176,4.872c0,0.383,0.046,0.754,0.134,1.111c-4.302-0.203-8.116-2.143-10.669-5.092
		c-0.446,0.72-0.701,1.557-0.701,2.45c0,1.69,0.914,3.183,2.303,4.056c-0.849-0.025-1.647-0.244-2.345-0.609
		c0,0.021,0,0.041,0,0.062c0,2.36,1.784,4.33,4.152,4.778c-0.435,0.111-0.892,0.171-1.364,0.171c-0.333,0-0.658-0.031-0.974-0.088
		c0.659,1.937,2.57,3.345,4.835,3.385c-1.771,1.307-4.003,2.086-6.429,2.086c-0.417,0-0.83-0.023-1.234-0.068
		c2.291,1.383,5.011,2.189,7.935,2.189c9.521,0,14.727-7.426,14.727-13.864c0-0.212-0.005-0.422-0.015-0.631
		C141.417,31.969,142.294,31.11,142.989,30.133z"/>
	<path fill-rule="evenodd" clip-rule="evenodd" fill="none" stroke="#CF4428" stroke-miterlimit="10" d="M147.714,64.308h-5.852
		c0,0-1.429,0.098-2.725,1.331c-0.945,0.9-1.111,1.693-1.111,3.577s0,3.508,0,3.508h-4.146v3.954h4.135v10.607h4.882l0.019-10.607
		h2.959l1.958-3.92l-4.936-0.011l-0.012-2.101c0,0,0.013-2.562,1.748-2.586c1.1-0.016,3.087,0.012,3.087,0.012L147.714,64.308z"/>
	<g>
		<g>
			<path fill="none" stroke="#CF4428" stroke-miterlimit="10" d="M140.264-38.564v-2.664h-1.406v2.664h-2.691v1.28h2.691v2.674
				h1.406v-2.674h2.725v-1.28H140.264z M135.657-46.612c0,0-2.678,0-6.158,0c-4.328,0-7.139,2.58-7.139,5.16
				c0,2.58,2.275,4.652,5.265,4.652c0.191,0,0.372-0.005,0.542-0.014c-0.113,0.35-0.186,0.699-0.186,1.029
				c0,0.715,0.324,1.294,0.805,1.797c-0.293-0.013-0.607-0.021-0.938-0.021c-1.473,0-6.871,1.1-6.871,4.694
				c0,1.522,1.249,4.103,6.469,4.103c5.221,0,7.719-2.791,7.719-5.625c0-1.269-1.516-3.045-3.123-4.018
				c-1.605-0.973-1.473-1.86-0.714-2.834c1.204-0.761,2.856-1.987,2.856-4.144s-2.098-3.68-2.098-3.68h1.729L135.657-46.612z
				 M131.461-32.097c2.543,1.692,2.008,5.667-2.498,5.583c-1.65,0-5.398-0.508-5.398-3.426s4.685-3.341,5.8-3.341
				c0.1,0,0.198,0.002,0.296,0.006C130.239-32.857,130.885-32.48,131.461-32.097z M129.67-37.92
				c-1.545,0.524-3.271-0.307-4.209-2.796c-0.938-2.489-0.158-4.167,1.388-4.691c1.546-0.523,3.271,0.307,4.21,2.796
				C131.997-40.123,131.217-38.443,129.67-37.92z"/>
		</g>
	</g>
	<g>
		<g>
			<path fill="none" stroke="#CF4428" stroke-miterlimit="10" d="M194.2,36.807h4.371V23.398H194.2V36.807z M196.297,21.459
				c1.408,0,2.264-1.036,2.264-2.316c-0.027-1.311-0.855-2.316-2.209-2.316c-1.353,0-2.236,1.005-2.236,2.316
				C194.116,20.423,194.971,21.459,196.297,21.459z M209.974,23.052c-2.267,0-3.256,1.34-3.809,2.252h-0.083l-0.033-1.938h-4.227
				l-0.01,13.441h4.332v-7.541c0-0.398,0.056-0.787,0.138-1.082c0.304-1.113,1.078-1.66,2.239-1.66c1.52,0,1.951,1.26,1.951,3.057
				v7.227h4.371v-7.74C214.844,24.961,212.737,23.052,209.974,23.052z"/>
		</g>
	</g>
</g>
<g id="Layer_24">
	<g>
		<path fill="none" stroke="#000000" stroke-width="1.5" stroke-linecap="round" stroke-miterlimit="10" d="M736.991-333.645
			c4.004,4.004,6.48,9.536,6.48,15.645c0,12.22-9.906,22.125-22.125,22.125S699.221-305.78,699.221-318
			c0-12.219,9.906-22.125,22.125-22.125"/>
		<g>
			
				<path fill="none" stroke="#000000" stroke-width="1.5" stroke-linecap="round" stroke-linejoin="round" stroke-miterlimit="10" d="
				M715.454-325.238c0,0-0.549-0.452,2.102-3.103c3.037-3.037,4.104-3.103,4.104-3.103v27"/>
			
				<line fill="none" stroke="#000000" stroke-width="1.5" stroke-linecap="round" stroke-miterlimit="10" x1="725.721" y1="-304.443" x2="717.596" y2="-304.443"/>
		</g>
	</g>
</g>
<g id="Layer_19">
	<g>
		<path fill="none" stroke="#000000" stroke-width="1.5" stroke-linecap="round" stroke-miterlimit="10" d="M821.002-333.645
			c4.004,4.004,6.48,9.536,6.48,15.645c0,12.22-9.905,22.125-22.125,22.125c-12.219,0-22.125-9.905-22.125-22.125
			c0-12.219,9.906-22.125,22.125-22.125"/>
		<g>
			
				<path fill="none" stroke="#000000" stroke-width="1.5" stroke-linecap="round" stroke-linejoin="round" stroke-miterlimit="10" d="
				M798.327-327.194c0,0-0.248-0.665,3.372-1.635c4.149-1.111,5.104-0.636,5.104-0.636l-1.133,25.021"/>
			
				<line fill="none" stroke="#000000" stroke-width="1.5" stroke-linecap="round" stroke-miterlimit="10" x1="810.295" y1="-318" x2="802.17" y2="-318"/>
		</g>
	</g>
</g>
<g id="Layer_20">
	<g>
		<path fill="none" stroke="#CF4428" stroke-width="1.5" stroke-linecap="round" stroke-miterlimit="10" d="M281.276-22.036
			l0.477,8.873c0,2.102-1.702,3.804-3.804,3.804h-21.553c-2.1,0-3.803-1.702-3.803-3.804v-36.765c0-2.1,1.703-3.804,3.803-3.804
			h5.377"/>
		<path fill="none" stroke="#CF4428" stroke-width="1.5" stroke-linecap="round" stroke-miterlimit="10" d="M272.572-53.731h5.377
			c2.102,0,3.804,1.704,3.804,3.804l-0.477,6.338"/>
		<path fill="none" stroke="#CF4428" stroke-width="1.5" stroke-linecap="round" stroke-miterlimit="10" d="M272.572-53.018
			c0,1.182-1.318,2.14-2.945,2.14h-4.908c-1.626,0-2.945-0.958-2.945-2.14v-1.426c0-1.182,1.319-2.139,2.945-2.139h4.908
			c1.627,0,2.945,0.958,2.945,2.139V-53.018z"/>
		
			<line fill="none" stroke="#CF4428" stroke-width="2" stroke-linecap="round" stroke-miterlimit="10" x1="257.858" y1="-43" x2="276.858" y2="-43"/>
		
			<line fill="none" stroke="#CF4428" stroke-width="2" stroke-linecap="round" stroke-miterlimit="10" x1="257.858" y1="-36" x2="276.858" y2="-36"/>
		
			<line fill="none" stroke="#CF4428" stroke-width="2" stroke-linecap="round" stroke-miterlimit="10" x1="257.858" y1="-27" x2="264.858" y2="-27"/>
		<g>
			<path fill="none" stroke="#CF4428" stroke-width="1.5" stroke-linecap="round" stroke-miterlimit="10" d="M271.105-19.116
				c-0.742,0.742-1.049-0.153-1.792-0.896l0,0c-0.743-0.743-1.64-1.051-0.896-1.793l22.411-22.411c0.741-0.744,1.945-0.744,2.688,0
				l0,0c0.743,0.742,0.743,1.946,0,2.689L271.105-19.116z"/>
			<path fill="none" stroke="#CF4428" stroke-width="1.5" stroke-linecap="round" stroke-miterlimit="10" d="M265.791-19.181
				c0.743-0.742,1.312-0.107,2.055,0.636l0,0c0.742,0.742,1.377,1.312,0.637,2.055l-1.225,1.223
				c-0.744,0.744-3.473,0.784-3.473,0.784s0.04-2.73,0.783-3.473L265.791-19.181z"/>
		</g>
	</g>
</g>
<g id="Layer_21">
	<g>
		<g>
			<path fill="none" stroke="#CF4428" stroke-width="1.5" stroke-linecap="round" stroke-miterlimit="10" d="M397.13,46.217
				c1.695-1.695,16.213,10.072,17.906,11.768l1.024,1.023c1.694,1.693,1.694,4.443,0,6.141l-2.047,2.047
				c-1.694,1.695-4.444,1.695-6.14-0.002l-1.023-1.021c-1.695-1.695-13.463-16.213-11.769-17.91L397.13,46.217z"/>
			<path fill="none" stroke="#CF4428" stroke-width="1.5" stroke-linecap="round" stroke-miterlimit="10" d="M424.449,34.739
				c0.802-0.802,2.101-0.804,2.9,0l0,0c0.8,0.798,0.8,2.095-0.001,2.899l-16.147,16.145c-0.801,0.801-1.076-0.223-1.877-1.02l0,0
				c-0.801-0.803-1.822-1.078-1.022-1.877L424.449,34.739z"/>
			<path fill="none" stroke="#CF4428" stroke-width="1.5" stroke-linecap="round" stroke-miterlimit="10" d="M402.321,62.664
				c-0.802,0.803-2.101,0.803-2.899,0.002l0,0c-0.803-0.803-0.802-2.1,0-2.902l0.318-0.316c0.801-0.799,1.074,0.223,1.876,1.021l0,0
				c0.8,0.801,1.822,1.076,1.022,1.877L402.321,62.664z"/>
		</g>
		
			<path fill="none" stroke="#CF4428" stroke-width="1.5" stroke-linecap="round" stroke-linejoin="round" stroke-miterlimit="10" d="
			M416.641,39.219l-7.253-7.252c0,0,0.344-6.27-1.695-9.859c-1.226-2.153-5.49-2.115-6.441-1.263
			c-0.812,0.726,1.447,1.453,2.314,3.594c0.865,2.141-0.409,3.458-0.822,3.872l0,0c-0.404,0.404-1.665,1.719-3.771,0.861
			c-2.173-0.882-2.959-3.179-3.696-2.355c-0.876,0.981-0.953,5.138,1.31,6.396c3.591,1.997,9.815,1.742,9.815,1.742l7.211,7.209"/>
		
			<path fill="none" stroke="#CF4428" stroke-width="1.5" stroke-linecap="round" stroke-linejoin="round" stroke-miterlimit="10" d="
			M420.356,48.904l4.542,4.547c0,0,1.661,0.322,2.487-0.502l0,0c0.824-0.824,0.501-2.486,0.501-2.486l-4.751-4.75"/>
	</g>
</g>
<g id="Layer_16">
	<g>
		<g>
			<path fill="none" stroke="#000000" stroke-width="1.5" stroke-linecap="round" stroke-miterlimit="10" d="M-151.609-244.413
				c1.132,1.594-10.304,11.668-11.897,12.8l-0.962,0.685c-1.592,1.132-3.804,0.758-4.938-0.834l-1.368-1.924
				c-1.133-1.593-0.759-3.804,0.835-4.937l0.961-0.684c1.594-1.133,14.868-8.623,16.002-7.029L-151.609-244.413z"/>
			<path fill="none" stroke="#000000" stroke-width="1.5" stroke-linecap="round" stroke-miterlimit="10" d="M-146.092-220.886
				c0.535,0.755,0.361,1.8-0.395,2.332l0,0c-0.75,0.536-1.794,0.36-2.331-0.394l-10.789-15.179
				c-0.535-0.753,0.325-0.835,1.076-1.371l0,0c0.753-0.535,1.115-1.319,1.648-0.567L-146.092-220.886z"/>
			<path fill="none" stroke="#000000" stroke-width="1.5" stroke-linecap="round" stroke-miterlimit="10" d="M-165.541-242.474
				c-0.536-0.754-0.359-1.799,0.394-2.332l0,0c0.754-0.537,1.796-0.36,2.333,0.395l0.211,0.299c0.533,0.752-0.325,0.833-1.078,1.37
				l0,0c-0.752,0.535-1.112,1.319-1.648,0.567L-165.541-242.474z"/>
		</g>
		<g>
			
				<rect x="-169.359" y="-212.619" transform="matrix(-0.986 -0.1668 0.1668 -0.986 -259.5981 -439.0733)" fill="none" stroke="#000000" stroke-width="1.5" stroke-linecap="round" stroke-linejoin="round" stroke-miterlimit="10" width="42.25" height="7.963"/>
			
				<path fill="none" stroke="#000000" stroke-width="1.5" stroke-linecap="round" stroke-linejoin="round" stroke-miterlimit="10" d="
				M-143.256-211.458c-0.408,2.416-2.698,4.044-5.115,3.635c-2.417-0.408-4.044-2.698-3.635-5.115L-143.256-211.458z"/>
			
				<line fill="none" stroke="#000000" stroke-width="1.5" stroke-linecap="round" stroke-linejoin="round" stroke-miterlimit="10" x1="-148.978" y1="-210.471" x2="-146.929" y2="-210.124"/>
			
				<line fill="none" stroke="#000000" stroke-width="1.5" stroke-linecap="round" stroke-linejoin="round" stroke-miterlimit="10" x1="-163.867" y1="-215.319" x2="-165.195" y2="-207.468"/>
			
				<line fill="none" stroke="#000000" stroke-width="1.5" stroke-linecap="round" stroke-linejoin="round" stroke-miterlimit="10" x1="-166.485" y1="-213.453" x2="-167.047" y2="-210.132"/>
		</g>
		<g>
			<path fill="none" stroke="#000000" stroke-width="1.5" stroke-linecap="round" stroke-miterlimit="10" d="M-126.505-240.74
				c-0.156,1.441-1.451,2.482-2.893,2.326l-14.043-1.523c-1.441-0.156-2.482-1.451-2.326-2.892l0,0
				c0.156-1.441,1.45-2.483,2.893-2.327l14.042,1.523C-127.39-243.477-126.349-242.182-126.505-240.74L-126.505-240.74z"/>
			<path fill="none" stroke="#000000" stroke-width="1.5" stroke-linecap="round" stroke-miterlimit="10" d="M-138.113-215.447
				c-0.961-0.104-1.764,0.027-1.659-0.934l1.123-10.356c0.104-0.961,0.86-0.661,1.821-0.557l0,0c0.96,0.104,1.763-0.027,1.659,0.935
				l-1.124,10.356C-136.397-215.043-137.153-215.342-138.113-215.447L-138.113-215.447z"/>
			
				<polyline fill="none" stroke="#000000" stroke-width="1.5" stroke-linecap="round" stroke-linejoin="round" stroke-miterlimit="10" points="
				-126.505,-240.74 -124.766,-240.551 -125.706,-231.883 -136.603,-229.366 -136.828,-227.294 			"/>
		</g>
	</g>
</g>
<g id="Layer_17">
	<g>
		<g>
			
				<circle fill="none" stroke="#000000" stroke-width="1.5" stroke-linecap="round" stroke-miterlimit="10" cx="292.367" cy="-330.725" r="9.442"/>
			<path fill="none" stroke="#000000" stroke-width="1.5" stroke-linecap="round" stroke-miterlimit="10" d="M306.868-313.651
				l-7.306-7.216c-0.796-0.798,1.084-0.207,1.881-1.004c0.795-0.797,0.208-2.678,1.004-1.882l15.6,15.6
				c0.797,0.797,0.797,2.089,0,2.886l0,0c-0.795,0.797-2.088,0.797-2.886,0l-7.018-9.536"/>
			<path fill="none" stroke="#000000" stroke-width="1.5" stroke-linecap="round" stroke-miterlimit="10" d="M298.976-330.32
				c0,2.003-0.816-1.922-3.17-4.249c-2.399-2.374-6.317-3.17-4.248-3.17C295.656-337.739,298.976-335.176,298.976-330.32z"/>
		</g>
		<g>
			<g>
				<path fill="none" stroke="#000000" stroke-width="1.5" stroke-linecap="round" stroke-miterlimit="10" d="M287.826-315.097
					c1.695-1.694,16.213,10.073,17.906,11.768l1.024,1.023c1.694,1.694,1.694,4.444,0,6.141l-2.047,2.047
					c-1.694,1.695-4.444,1.695-6.14-0.001l-1.023-1.022c-1.695-1.695-13.463-16.213-11.77-17.909L287.826-315.097z"/>
				<path fill="none" stroke="#000000" stroke-width="1.5" stroke-linecap="round" stroke-miterlimit="10" d="M309.256-320.688
					l6.888-6.887c0.802-0.802,2.101-0.804,2.9,0l0,0c0.8,0.798,0.8,2.095-0.001,2.899l-6.974,6.973"/>
				<path fill="none" stroke="#000000" stroke-width="1.5" stroke-linecap="round" stroke-miterlimit="10" d="M305.28-310.912
					l-3.384,3.383c-0.801,0.801-1.076-0.223-1.877-1.021l0,0c-0.801-0.802-1.822-1.078-1.023-1.877l3.489-3.489"/>
				<path fill="none" stroke="#000000" stroke-width="1.5" stroke-linecap="round" stroke-miterlimit="10" d="M293.015-298.648
					c-0.801,0.802-2.1,0.802-2.898,0.001l0,0c-0.803-0.802-0.803-2.099,0-2.902l0.318-0.316c0.801-0.799,1.074,0.223,1.875,1.022
					l0,0c0.801,0.801,1.822,1.075,1.023,1.877L293.015-298.648z"/>
			</g>
		</g>
	</g>
</g>
<g id="Layer_18">
	<g>
		<path fill="none" stroke="#CF4428" stroke-width="1.5" stroke-linecap="round" stroke-miterlimit="10" d="M281.3,82.312V65.304
			c0-1.514,1.228-2.741,2.741-2.741h37.466c1.515,0,2.741,1.228,2.741,2.741v24.018c0,1.515-1.227,2.741-2.741,2.741h-37.466
			c-1.514,0-2.741-1.227-2.741-2.741v-3.009"/>
		
			<circle fill="none" stroke="#CF4428" stroke-width="1.5" stroke-linecap="round" stroke-miterlimit="10" cx="296.055" cy="77.625" r="9.162"/>
		<path fill="none" stroke="#CF4428" stroke-width="1.5" stroke-linecap="round" stroke-miterlimit="10" d="M314.624,69.838
			c0,0.76-0.615,1.375-1.375,1.375l0,0c-0.76,0-1.375-0.615-1.375-1.375l0,0c0-0.759,0.615-1.375,1.375-1.375l0,0
			C314.008,68.463,314.624,69.079,314.624,69.838L314.624,69.838z"/>
		<path fill="none" stroke="#CF4428" stroke-width="1.5" stroke-linecap="round" stroke-miterlimit="10" d="M320.429,69.838
			c0,0.76-0.615,1.375-1.375,1.375l0,0c-0.76,0-1.375-0.615-1.375-1.375l0,0c0-0.759,0.615-1.375,1.375-1.375l0,0
			C319.814,68.463,320.429,69.079,320.429,69.838L320.429,69.838z"/>
		<path fill="none" stroke="#CF4428" stroke-width="1.5" stroke-linecap="round" stroke-miterlimit="10" d="M301.966,78.111
			c0,2.997-2.43,5.426-5.426,5.426S301.966,75.114,301.966,78.111z"/>
		<path fill="none" stroke="#CF4428" stroke-width="1.5" stroke-linecap="round" stroke-miterlimit="10" d="M290.361,75.27
			c0-1.844,1.494-3.338,3.337-3.338S290.361,77.111,290.361,75.27z"/>
		<path fill="none" stroke="#CF4428" stroke-width="1.5" stroke-linecap="round" stroke-miterlimit="10" d="M295.896,61.875
			c0-1.07-0.867-1.938-1.938-1.938h-5.647c-1.07,0-1.938,0.867-1.938,1.938l0,0C287.592,61.875,294.811,61.875,295.896,61.875
			L295.896,61.875z"/>
		<path fill="none" stroke="#CF4428" stroke-width="1.5" stroke-linecap="round" stroke-miterlimit="10" d="M319.083,61.875
			c0-1.07-0.868-1.938-1.938-1.938h-0.647c-1.07,0-1.938,0.867-1.938,1.938l0,0C315.78,61.875,317.999,61.875,319.083,61.875
			L319.083,61.875z"/>
		
			<line fill="none" stroke="#CF4428" stroke-width="1.5" stroke-linecap="round" stroke-miterlimit="10" x1="311.874" y1="86.787" x2="321.124" y2="86.787"/>
		
			<line fill="none" stroke="#CF4428" stroke-width="1.5" stroke-linecap="round" stroke-miterlimit="10" x1="311.874" y1="81.812" x2="321.124" y2="81.812"/>
	</g>
</g>
<g id="Layer_13">
	<g>
		
			<line fill="none" stroke="#CF4428" stroke-width="1.5" stroke-linecap="round" stroke-miterlimit="10" x1="343.036" y1="-69.179" x2="343.036" y2="-69.179"/>
		<path fill="none" stroke="#CF4428" stroke-width="1.5" stroke-linecap="round" stroke-miterlimit="10" d="M343.036-69.179
			c-1.334,1.332-3.648,1.456-4.982,0.123L325.178-81.93c-1.332-1.334-1.332-3.496,0-4.829l0.002-0.001
			c1.332-1.334,3.494-1.333,4.828,0l10.52,10.521"/>
		<path fill="none" stroke="#CF4428" stroke-width="1.5" stroke-linecap="round" stroke-miterlimit="10" d="M364.893-100.604
			c1.334-1.333,3.496-1.333,4.828,0l0.002,0.001c1.334,1.333,1.332,3.494,0,4.828l-26.688,26.596"/>
		
			<line fill="none" stroke="#CF4428" stroke-width="1.5" stroke-linecap="round" stroke-miterlimit="10" x1="340.528" y1="-76.239" x2="362.067" y2="-97.778"/>
	</g>
</g>
<g id="Layer_34">
	<g>
		<g>
			<path d="M-357.729,28.89c-0.2,0-0.39-0.08-0.529-0.22c-0.141-0.141-0.221-0.33-0.221-0.53s0.08-0.39,0.21-0.53
				c0.29-0.279,0.78-0.279,1.07-0.01c0.14,0.15,0.22,0.34,0.22,0.54c0,0.19-0.08,0.39-0.22,0.53
				C-357.349,28.81-357.539,28.89-357.729,28.89z"/>
		</g>
		<g>
			<path d="M-358.253,29.098c-0.369,0-0.735-0.135-1.006-0.405l-2.575-2.575c-0.558-0.559-0.558-1.467-0.001-2.025
				c0.561-0.56,1.469-0.559,2.027-0.002l2.104,2.105c0.293,0.293,0.293,0.768,0,1.061c-0.181,0.181-0.432,0.25-0.663,0.208
				l0.168,0.168c0.294-0.292,0.737-0.304,1.029-0.011s0.261,0.756-0.033,1.048C-357.49,28.955-357.874,29.098-358.253,29.098z"/>
		</g>
		<g>
			<path d="M-357.732,28.888c-0.192,0-0.385-0.073-0.531-0.221c-0.292-0.294-0.292-0.769,0.002-1.061l5.335-5.317
				c-0.293,0.291-0.72,0.338-1.012,0.046c-0.293-0.293-0.246-0.72,0.047-1.013c0.56-0.559,1.467-0.558,2.026,0
				c0.559,0.56,0.559,1.469,0,2.027l-5.338,5.32C-357.349,28.814-357.541,28.888-357.732,28.888z"/>
		</g>
		<g>
			<path d="M-358.234,27.476c-0.192,0-0.384-0.073-0.53-0.22c-0.293-0.293-0.293-0.768,0-1.061l4.308-4.308
				c0.293-0.293,0.768-0.293,1.061,0s0.293,0.768,0,1.061l-4.308,4.308C-357.85,27.402-358.042,27.476-358.234,27.476z"/>
		</g>
	</g>
</g>
<g id="Layer_14">
	<g>
		<path fill="none" stroke="#CF4428" stroke-width="1.5" stroke-linecap="round" stroke-miterlimit="10" d="M259.276,98.074
			l-36.168,2c-1.656,0-3-1.343-3-3V65.449c0-1.656,1.344-3,3-3h7"/>
		<path fill="none" stroke="#CF4428" stroke-width="1.5" stroke-linecap="round" stroke-miterlimit="10" d="M255.108,62.449h6.75
			c1.658,0,3,1.344,3,3v31.625c0,1.657-1.342,3-3,3h-2.582"/>
		
			<line fill="none" stroke="#CF4428" stroke-width="1.5" stroke-linecap="round" stroke-miterlimit="10" x1="234.358" y1="62.449" x2="250.608" y2="62.449"/>
		<path fill="none" stroke="#CF4428" stroke-width="1.5" stroke-linecap="round" stroke-miterlimit="10" d="M234.358,63.949
			c0,1.174-0.951,2.125-2.125,2.125l0,0c-1.174,0-2.125-0.951-2.125-2.125v-3.125c0-1.174,0.951-2.125,2.125-2.125l0,0
			c1.174,0,2.125,0.951,2.125,2.125V63.949z"/>
		<path fill="none" stroke="#CF4428" stroke-width="1.5" stroke-linecap="round" stroke-miterlimit="10" d="M254.858,63.949
			c0,1.174-0.951,2.125-2.125,2.125l0,0c-1.174,0-2.125-0.951-2.125-2.125v-3.125c0-1.174,0.951-2.125,2.125-2.125l0,0
			c1.174,0,2.125,0.951,2.125,2.125V63.949z"/>
		<path fill="none" stroke="#CF4428" stroke-width="1.5" stroke-linecap="round" stroke-miterlimit="10" d="M233.637,75.033
			c0,0.869-0.705,1.574-1.576,1.574l0,0c-0.869,0-1.574-0.705-1.574-1.574l0,0c0-0.87,0.705-1.576,1.574-1.576l0,0
			C232.932,73.457,233.637,74.163,233.637,75.033L233.637,75.033z"/>
		<path fill="none" stroke="#CF4428" stroke-width="1.5" stroke-linecap="round" stroke-miterlimit="10" d="M240.756,75.033
			c0,0.869-0.705,1.574-1.574,1.574l0,0c-0.869,0-1.574-0.705-1.574-1.574l0,0c0-0.87,0.705-1.576,1.574-1.576l0,0
			C240.051,73.457,240.756,74.163,240.756,75.033L240.756,75.033z"/>
		<path fill="none" stroke="#CF4428" stroke-width="1.5" stroke-linecap="round" stroke-miterlimit="10" d="M247.877,75.033
			c0,0.869-0.707,1.574-1.576,1.574l0,0c-0.869,0-1.574-0.705-1.574-1.574l0,0c0-0.87,0.705-1.576,1.574-1.576l0,0
			C247.17,73.457,247.877,74.163,247.877,75.033L247.877,75.033z"/>
		<path fill="none" stroke="#CF4428" stroke-width="1.5" stroke-linecap="round" stroke-miterlimit="10" d="M262.118,75.033
			c0,0.869-0.707,1.574-1.576,1.574l0,0c-0.869,0-1.574-0.705-1.574-1.574l0,0c0-0.87,0.705-1.576,1.574-1.576l0,0
			C261.411,73.457,262.118,74.163,262.118,75.033L262.118,75.033z"/>
		<path fill="none" stroke="#CF4428" stroke-width="1.5" stroke-linecap="round" stroke-miterlimit="10" d="M254.997,75.033
			c0,0.869-0.705,1.574-1.574,1.574l0,0c-0.869,0-1.576-0.705-1.576-1.574l0,0c0-0.87,0.707-1.576,1.576-1.576l0,0
			C254.292,73.457,254.997,74.163,254.997,75.033L254.997,75.033z"/>
		<path fill="none" stroke="#CF4428" stroke-width="1.5" stroke-linecap="round" stroke-miterlimit="10" d="M226.516,80.864
			c0,0.869-0.705,1.574-1.574,1.574l0,0c-0.869,0-1.575-0.705-1.575-1.574l0,0c0-0.87,0.706-1.576,1.575-1.576l0,0
			C225.811,79.288,226.516,79.994,226.516,80.864L226.516,80.864z"/>
		<path fill="none" stroke="#CF4428" stroke-width="1.5" stroke-linecap="round" stroke-miterlimit="10" d="M233.637,80.864
			c0,0.869-0.705,1.574-1.576,1.574l0,0c-0.869,0-1.574-0.705-1.574-1.574l0,0c0-0.87,0.705-1.576,1.574-1.576l0,0
			C232.932,79.288,233.637,79.994,233.637,80.864L233.637,80.864z"/>
		<path fill="none" stroke="#CF4428" stroke-width="1.5" stroke-linecap="round" stroke-miterlimit="10" d="M240.756,80.864
			c0,0.869-0.705,1.574-1.574,1.574l0,0c-0.869,0-1.574-0.705-1.574-1.574l0,0c0-0.87,0.705-1.576,1.574-1.576l0,0
			C240.051,79.288,240.756,79.994,240.756,80.864L240.756,80.864z"/>
		<path fill="none" stroke="#CF4428" stroke-width="1.5" stroke-linecap="round" stroke-miterlimit="10" d="M247.877,80.864
			c0,0.869-0.707,1.574-1.576,1.574l0,0c-0.869,0-1.574-0.705-1.574-1.574l0,0c0-0.87,0.705-1.576,1.574-1.576l0,0
			C247.17,79.288,247.877,79.994,247.877,80.864L247.877,80.864z"/>
		<path fill="none" stroke="#CF4428" stroke-width="1.5" stroke-linecap="round" stroke-miterlimit="10" d="M262.118,80.864
			c0,0.869-0.707,1.574-1.576,1.574l0,0c-0.869,0-1.574-0.705-1.574-1.574l0,0c0-0.87,0.705-1.576,1.574-1.576l0,0
			C261.411,79.288,262.118,79.994,262.118,80.864L262.118,80.864z"/>
		<path fill="none" stroke="#CF4428" stroke-width="1.5" stroke-linecap="round" stroke-miterlimit="10" d="M254.997,80.864
			c0,0.869-0.705,1.574-1.574,1.574l0,0c-0.869,0-1.576-0.705-1.576-1.574l0,0c0-0.87,0.707-1.576,1.576-1.576l0,0
			C254.292,79.288,254.997,79.994,254.997,80.864L254.997,80.864z"/>
		<path fill="none" stroke="#CF4428" stroke-width="1.5" stroke-linecap="round" stroke-miterlimit="10" d="M226.516,86.695
			c0,0.869-0.705,1.574-1.574,1.574l0,0c-0.869,0-1.575-0.705-1.575-1.574l0,0c0-0.871,0.706-1.576,1.575-1.576l0,0
			C225.811,85.119,226.516,85.824,226.516,86.695L226.516,86.695z"/>
		<path fill="none" stroke="#CF4428" stroke-width="1.5" stroke-linecap="round" stroke-miterlimit="10" d="M233.637,86.695
			c0,0.869-0.705,1.574-1.576,1.574l0,0c-0.869,0-1.574-0.705-1.574-1.574l0,0c0-0.871,0.705-1.576,1.574-1.576l0,0
			C232.932,85.119,233.637,85.824,233.637,86.695L233.637,86.695z"/>
		<path fill="none" stroke="#CF4428" stroke-width="1.5" stroke-linecap="round" stroke-miterlimit="10" d="M240.756,86.695
			c0,0.869-0.705,1.574-1.574,1.574l0,0c-0.869,0-1.574-0.705-1.574-1.574l0,0c0-0.871,0.705-1.576,1.574-1.576l0,0
			C240.051,85.119,240.756,85.824,240.756,86.695L240.756,86.695z"/>
		<path fill="none" stroke="#CF4428" stroke-width="1.5" stroke-linecap="round" stroke-miterlimit="10" d="M247.877,86.695
			c0,0.869-0.707,1.574-1.576,1.574l0,0c-0.869,0-1.574-0.705-1.574-1.574l0,0c0-0.871,0.705-1.576,1.574-1.576l0,0
			C247.17,85.119,247.877,85.824,247.877,86.695L247.877,86.695z"/>
		<path fill="none" stroke="#CF4428" stroke-width="1.5" stroke-linecap="round" stroke-miterlimit="10" d="M262.118,86.695
			c0,0.869-0.707,1.574-1.576,1.574l0,0c-0.869,0-1.574-0.705-1.574-1.574l0,0c0-0.871,0.705-1.576,1.574-1.576l0,0
			C261.411,85.119,262.118,85.824,262.118,86.695L262.118,86.695z"/>
		<path fill="none" stroke="#CF4428" stroke-width="1.5" stroke-linecap="round" stroke-miterlimit="10" d="M254.997,86.695
			c0,0.869-0.705,1.574-1.574,1.574l0,0c-0.869,0-1.576-0.705-1.576-1.574l0,0c0-0.871,0.707-1.576,1.576-1.576l0,0
			C254.292,85.119,254.997,85.824,254.997,86.695L254.997,86.695z"/>
		<path fill="none" stroke="#CF4428" stroke-width="1.5" stroke-linecap="round" stroke-miterlimit="10" d="M226.516,92.525
			c0,0.869-0.705,1.574-1.574,1.574l0,0c-0.869,0-1.575-0.705-1.575-1.574l0,0c0-0.87,0.706-1.576,1.575-1.576l0,0
			C225.811,90.949,226.516,91.655,226.516,92.525L226.516,92.525z"/>
		<path fill="none" stroke="#CF4428" stroke-width="1.5" stroke-linecap="round" stroke-miterlimit="10" d="M233.637,92.525
			c0,0.869-0.705,1.574-1.576,1.574l0,0c-0.869,0-1.574-0.705-1.574-1.574l0,0c0-0.87,0.705-1.576,1.574-1.576l0,0
			C232.932,90.949,233.637,91.655,233.637,92.525L233.637,92.525z"/>
		<path fill="none" stroke="#CF4428" stroke-width="1.5" stroke-linecap="round" stroke-miterlimit="10" d="M240.756,92.525
			c0,0.869-0.705,1.574-1.574,1.574l0,0c-0.869,0-1.574-0.705-1.574-1.574l0,0c0-0.87,0.705-1.576,1.574-1.576l0,0
			C240.051,90.949,240.756,91.655,240.756,92.525L240.756,92.525z"/>
	</g>
</g>
<g id="Layer_15">
	<g>
		
			<circle fill="none" stroke="#CF4428" stroke-width="1.5" stroke-linecap="round" stroke-miterlimit="10" cx="-190.045" cy="92.939" r="2.458"/>
		
			<circle fill="none" stroke="#CF4428" stroke-width="1.5" stroke-linecap="round" stroke-miterlimit="10" cx="-178.664" cy="92.939" r="2.458"/>
		
			<path fill="none" stroke="#CF4428" stroke-width="1.5" stroke-linecap="round" stroke-linejoin="round" stroke-miterlimit="10" d="
			M-192.148,73.495l20.166,3.04c0.815,0.287,1.054,1.039,0.681,1.816l-2.796,8.363c-0.438,0.76-0.467,1.193-1.371,1.326
			l-19.164,1.074c-0.913-0.121-1.209-0.566-1.362-1.514c0,0-0.534-13.045-0.534-17.181c0-0.296-0.304-0.562-0.494-0.587
			c-0.968-0.129-1.579-0.21-1.963-0.262c-0.654-0.086-1.012,0.469-1.012,0.469l-0.66,1.02"/>
		
			<line fill="none" stroke="#CF4428" stroke-width="1.5" stroke-linecap="round" stroke-miterlimit="10" x1="-192.148" y1="78.348" x2="-175.809" y2="80.569"/>
		
			<line fill="none" stroke="#CF4428" stroke-width="1.5" stroke-linecap="round" stroke-miterlimit="10" x1="-192.148" y1="82.725" x2="-177.402" y2="84.803"/>
	</g>
</g>
<g id="Layer_10">
	<g>
		<path fill="none" stroke="#CF4428" stroke-width="1.5" stroke-linecap="round" stroke-miterlimit="10" d="M55.85,47.358
			c0,1.657-1.343,3-3,3H11.517c-1.657,0-3-1.343-3-3V23.691c0-1.656,1.343-3,3-3H52.85c1.657,0,3,1.344,3,3V47.358z"/>
		<path fill="none" stroke="#CF4428" stroke-width="1.5" stroke-linecap="round" stroke-miterlimit="10" d="M14.704,18.537V5.858
			c0-1.224,0.993-2.216,2.216-2.216h30.528c1.223,0,2.215,0.992,2.215,2.216v12.679"/>
		
			<line fill="none" stroke="#CF4428" stroke-width="1.5" stroke-linecap="round" stroke-miterlimit="10" x1="11.517" y1="23.691" x2="32.183" y2="35.525"/>
		
			<line fill="none" stroke="#CF4428" stroke-width="1.5" stroke-linecap="round" stroke-miterlimit="10" x1="52.85" y1="23.691" x2="32.183" y2="35.525"/>
		
			<line fill="none" stroke="#CF4428" stroke-width="1.5" stroke-linecap="round" stroke-miterlimit="10" x1="27.683" y1="7.108" x2="46.517" y2="7.108"/>
		
			<line fill="none" stroke="#CF4428" stroke-width="1.5" stroke-linecap="round" stroke-miterlimit="10" x1="27.683" y1="10.858" x2="46.517" y2="10.858"/>
		
			<line fill="none" stroke="#CF4428" stroke-width="1.5" stroke-linecap="round" stroke-miterlimit="10" x1="18.85" y1="14.608" x2="46.517" y2="14.608"/>
		
			<circle fill="none" stroke="#CF4428" stroke-width="1.5" stroke-linecap="round" stroke-miterlimit="10" cx="20.85" cy="9.108" r="2"/>
	</g>
</g>
<g id="Layer_11">
	<path fill="none" stroke="#CF4428" stroke-width="1.5" stroke-linecap="round" stroke-linejoin="round" stroke-miterlimit="10" d="
		M-113.878-19.8c0,6.062-5.232,7.5-9.375,7.5c-4.142,0-7.5-3.357-7.5-7.5c0-4.142,3.358-7.5,7.5-7.5c2.125,0,8.078,0.721,6.5,8.5"/>
</g>
<g id="Layer_12">
	<g>
		<g>
			
				<line fill="none" stroke="#000000" stroke-width="1.5" stroke-linecap="round" stroke-linejoin="round" stroke-miterlimit="10" x1="-84.015" y1="-199.027" x2="-79.084" y2="-217.021"/>
			
				<line fill="none" stroke="#000000" stroke-width="1.5" stroke-linecap="round" stroke-linejoin="round" stroke-miterlimit="10" x1="-79.084" y1="-217.021" x2="-75.243" y2="-199.027"/>
			
				<line fill="none" stroke="#000000" stroke-width="1.5" stroke-linecap="round" stroke-linejoin="round" stroke-miterlimit="10" x1="-72.349" y1="-217.021" x2="-68.508" y2="-199.027"/>
			
				<line fill="none" stroke="#000000" stroke-width="1.5" stroke-linecap="round" stroke-linejoin="round" stroke-miterlimit="10" x1="-79.084" y1="-217.021" x2="-71.662" y2="-217.021"/>
			
				<line fill="none" stroke="#000000" stroke-width="1.5" stroke-linecap="round" stroke-linejoin="round" stroke-miterlimit="10" x1="-78.202" y1="-212.888" x2="-71.507" y2="-212.888"/>
			
				<line fill="none" stroke="#000000" stroke-width="1.5" stroke-linecap="round" stroke-linejoin="round" stroke-miterlimit="10" x1="-77.029" y1="-207.612" x2="-70.34" y2="-207.612"/>
			
				<line fill="none" stroke="#000000" stroke-width="1.5" stroke-linecap="round" stroke-linejoin="round" stroke-miterlimit="10" x1="-75.949" y1="-202.335" x2="-69.213" y2="-202.335"/>
			
				<polyline fill="none" stroke="#000000" stroke-width="1.5" stroke-linecap="round" stroke-linejoin="round" stroke-miterlimit="10" points="
				-81.992,-206.41 -79.551,-204.382 -76.752,-206.099 			"/>
		</g>
		<g>
			
				<line fill="none" stroke="#000000" stroke-width="1.5" stroke-linecap="round" stroke-linejoin="round" stroke-miterlimit="10" x1="-58.181" y1="-199.027" x2="-50.756" y2="-233.417"/>
			
				<line fill="none" stroke="#000000" stroke-width="1.5" stroke-linecap="round" stroke-linejoin="round" stroke-miterlimit="10" x1="-50.756" y1="-233.417" x2="-46.098" y2="-199.027"/>
			
				<line fill="none" stroke="#000000" stroke-width="1.5" stroke-linecap="round" stroke-linejoin="round" stroke-miterlimit="10" x1="-44.021" y1="-233.417" x2="-37.598" y2="-199.027"/>
			
				<path fill="none" stroke="#000000" stroke-width="1.5" stroke-linecap="round" stroke-linejoin="round" stroke-miterlimit="10" d="
				M-44.021-233.417h-6.734c0,0-0.092-5.021,3.376-5.021S-44.021-234.146-44.021-233.417z"/>
			
				<line fill="none" stroke="#000000" stroke-width="1.5" stroke-linecap="round" stroke-linejoin="round" stroke-miterlimit="10" x1="-50.196" y1="-229.283" x2="-43.249" y2="-229.283"/>
			
				<line fill="none" stroke="#000000" stroke-width="1.5" stroke-linecap="round" stroke-linejoin="round" stroke-miterlimit="10" x1="-49.264" y1="-224.139" x2="-42.288" y2="-224.139"/>
			
				<line fill="none" stroke="#000000" stroke-width="1.5" stroke-linecap="round" stroke-linejoin="round" stroke-miterlimit="10" x1="-48.767" y1="-218.994" x2="-41.327" y2="-218.994"/>
			
				<line fill="none" stroke="#000000" stroke-width="1.5" stroke-linecap="round" stroke-linejoin="round" stroke-miterlimit="10" x1="-48.186" y1="-213.851" x2="-40.366" y2="-213.851"/>
			
				<line fill="none" stroke="#000000" stroke-width="1.5" stroke-linecap="round" stroke-linejoin="round" stroke-miterlimit="10" x1="-47.373" y1="-208.707" x2="-39.405" y2="-208.707"/>
			
				<line fill="none" stroke="#000000" stroke-width="1.5" stroke-linecap="round" stroke-linejoin="round" stroke-miterlimit="10" x1="-46.688" y1="-203.562" x2="-38.444" y2="-203.562"/>
			
				<polyline fill="none" stroke="#000000" stroke-width="1.5" stroke-linecap="round" stroke-linejoin="round" stroke-miterlimit="10" points="
				-54.555,-215.821 -51.452,-211.562 -48.186,-214.439 			"/>
		</g>
		<g>
			
				<line fill="none" stroke="#000000" stroke-width="1.5" stroke-linecap="round" stroke-linejoin="round" stroke-miterlimit="10" x1="-85.178" y1="-224.6" x2="-53.506" y2="-247.18"/>
			
				<line fill="none" stroke="#000000" stroke-width="1.5" stroke-linecap="round" stroke-linejoin="round" stroke-miterlimit="10" x1="-50.41" y1="-242.838" x2="-82.083" y2="-220.258"/>
			
				<line fill="none" stroke="#000000" stroke-width="1.5" stroke-linecap="round" stroke-linejoin="round" stroke-miterlimit="10" x1="-83.649" y1="-225.642" x2="-80.713" y2="-221.521"/>
			
				<line fill="none" stroke="#000000" stroke-width="1.5" stroke-linecap="round" stroke-linejoin="round" stroke-miterlimit="10" x1="-79.665" y1="-228.436" x2="-76.728" y2="-224.314"/>
			
				<line fill="none" stroke="#000000" stroke-width="1.5" stroke-linecap="round" stroke-linejoin="round" stroke-miterlimit="10" x1="-75.658" y1="-231.196" x2="-72.722" y2="-227.075"/>
			
				<line fill="none" stroke="#000000" stroke-width="1.5" stroke-linecap="round" stroke-linejoin="round" stroke-miterlimit="10" x1="-67.712" y1="-236.814" x2="-64.775" y2="-232.693"/>
			
				<line fill="none" stroke="#000000" stroke-width="1.5" stroke-linecap="round" stroke-linejoin="round" stroke-miterlimit="10" x1="-71.719" y1="-234.053" x2="-68.782" y2="-229.932"/>
			
				<line fill="none" stroke="#000000" stroke-width="1.5" stroke-linecap="round" stroke-linejoin="round" stroke-miterlimit="10" x1="-63.862" y1="-239.796" x2="-60.927" y2="-235.675"/>
			
				<line fill="none" stroke="#000000" stroke-width="1.5" stroke-linecap="round" stroke-linejoin="round" stroke-miterlimit="10" x1="-59.766" y1="-242.43" x2="-56.829" y2="-238.31"/>
			
				<line fill="none" stroke="#000000" stroke-width="1.5" stroke-linecap="round" stroke-linejoin="round" stroke-miterlimit="10" x1="-55.782" y1="-245.224" x2="-52.845" y2="-241.104"/>
		</g>
	</g>
</g>
<g id="Layer_9">
	<g>
		<g>
			
				<path fill="none" stroke="#000000" stroke-width="1.5" stroke-linecap="round" stroke-linejoin="round" stroke-miterlimit="10" d="
				M40.871-222.254l-3-12.39l-12.084,0l-0.77-0.701l-3.454-0.643l-4.909-1.752v-5.669l4.909-1.462l3.454-0.759l0.77-0.702h17.508
				c0.387,0,0.701,0.314,0.701,0.702l1.688,1.056v7.698l-1.688,1.898l3,12.9l0.844,2.682v2.661l-0.844,0.035
				c0,0.388-0.314,0.702-0.701,0.702H33.364c-0.387,0-0.701-0.314-0.701-0.702v-1.23l0.844-0.562v-3.058
				c0-0.389,0.313-0.701,0.7-0.701H40.871"/>
			
				<polygon fill="none" stroke="#000000" stroke-width="1.5" stroke-linecap="round" stroke-linejoin="round" stroke-miterlimit="10" points="
				15.068,-242.645 13.921,-242.516 11.628,-241.834 11.628,-239.186 13.921,-238.368 15.068,-238.258 			"/>
			
				<line fill="none" stroke="#000000" stroke-width="1.5" stroke-linecap="round" stroke-linejoin="round" stroke-miterlimit="10" x1="11.628" y1="-240.452" x2="7.501" y2="-240.452"/>
			
				<line fill="none" stroke="#000000" stroke-width="1.5" stroke-linecap="round" stroke-linejoin="round" stroke-miterlimit="10" x1="21.563" y1="-243.078" x2="21.563" y2="-237.732"/>
			
				<path fill="none" stroke="#000000" stroke-width="1.5" stroke-linecap="round" stroke-linejoin="round" stroke-miterlimit="10" d="
				M25.948-237.736c-0.15,0-0.273-0.123-0.273-0.274v-4.79c0-0.152,0.123-0.274,0.273-0.274h7.168c0.149,0,0.272,0.122,0.272,0.274"
				/>
			
				<line fill="none" stroke="#000000" stroke-width="1.5" stroke-linecap="round" stroke-linejoin="round" stroke-miterlimit="10" x1="40.295" y1="-243.416" x2="43.248" y2="-240.042"/>
			
				<line fill="none" stroke="#000000" stroke-width="1.5" stroke-linecap="round" stroke-linejoin="round" stroke-miterlimit="10" x1="38.713" y1="-241.834" x2="41.666" y2="-238.46"/>
			
				<line fill="none" stroke="#000000" stroke-width="1.5" stroke-linecap="round" stroke-linejoin="round" stroke-miterlimit="10" x1="37.132" y1="-240.252" x2="40.084" y2="-236.878"/>
			
				<path fill="none" stroke="#000000" stroke-width="1.5" stroke-linecap="round" stroke-linejoin="round" stroke-miterlimit="10" d="
				M34.848-234.556c1.085,1.086,1.086,2.847,0,3.934"/>
			
				<circle fill="none" stroke="#000000" stroke-width="1.5" stroke-linecap="round" stroke-linejoin="round" stroke-miterlimit="10" cx="41.139" cy="-232.555" r="0.879"/>
			
				<line fill="none" stroke="#000000" stroke-width="1.5" stroke-linecap="round" stroke-linejoin="round" stroke-miterlimit="10" x1="43.096" y1="-222.254" x2="44.771" y2="-222.254"/>
		</g>
		<g>
			
				<circle fill="none" stroke="#000000" stroke-width="1.5" stroke-linecap="round" stroke-linejoin="round" stroke-miterlimit="10" cx="7.633" cy="-207.104" r="5.935"/>
			
				<circle fill="none" stroke="#000000" stroke-width="1.5" stroke-linecap="round" stroke-linejoin="round" stroke-miterlimit="10" cx="7.633" cy="-207.104" r="1.218"/>
			
				<path fill="none" stroke="#000000" stroke-width="1.5" stroke-linecap="round" stroke-linejoin="round" stroke-miterlimit="10" d="
				M7.633-215.855c4.833,0,8.751,3.917,8.751,8.751s-3.917,8.751-8.751,8.751"/>
			
				<path fill="none" stroke="#000000" stroke-width="1.5" stroke-linecap="round" stroke-linejoin="round" stroke-miterlimit="10" d="
				M10.729-215.474v-5.441c0-0.37,0-0.37-0.669-0.669c-0.429-0.192-1.757-0.67-1.757-0.67c-0.37,0-0.67,0.3-0.67,0.67v5.729"/>
			
				<path fill="none" stroke="#000000" stroke-width="1.5" stroke-linecap="round" stroke-linejoin="round" stroke-miterlimit="10" d="
				M45.867-210.987l-27.726-1.339c-0.127,0-0.237,0.063-0.31,0.157c0.79,1.517,1.243,3.236,1.243,5.064s-0.453,3.548-1.243,5.064
				c0.073,0.094,0.182,0.157,0.31,0.157l27.726-2.009c0.221,0,0.4-0.179,0.4-0.399l2.678-0.638v-2.176l-2.678-0.753v-2.73
				C46.268-210.808,46.088-210.987,45.867-210.987z"/>
			
				<line fill="none" stroke="#000000" stroke-width="1.5" stroke-linecap="round" stroke-linejoin="round" stroke-miterlimit="10" x1="43.225" y1="-210.659" x2="42.075" y2="-207.857"/>
			
				<line fill="none" stroke="#000000" stroke-width="1.5" stroke-linecap="round" stroke-linejoin="round" stroke-miterlimit="10" x1="40.727" y1="-211.122" x2="39.388" y2="-207.857"/>
			
				<line fill="none" stroke="#000000" stroke-width="1.5" stroke-linecap="round" stroke-linejoin="round" stroke-miterlimit="10" x1="38.039" y1="-211.122" x2="36.7" y2="-207.857"/>
			
				<path fill="none" stroke="#000000" stroke-width="1.5" stroke-linecap="round" stroke-linejoin="round" stroke-miterlimit="10" d="
				M25.719-206.965c0,0.37-0.299,0.67-0.669,0.67h-2.511c-0.37,0-0.669-0.3-0.669-0.67v-0.688c0-0.369,0.299-0.669,0.669-0.669
				h2.511c0.37,0,0.669,0.3,0.669,0.669V-206.965z"/>
			
				<circle fill="none" stroke="#000000" stroke-width="1.5" stroke-linecap="round" stroke-linejoin="round" stroke-miterlimit="10" cx="30.733" cy="-207.309" r="0.949"/>
			
				<path fill="none" stroke="#000000" stroke-width="1.5" stroke-linecap="round" stroke-linejoin="round" stroke-miterlimit="10" d="
				M24.748-212.42c0.096-0.208,0.004-0.454-0.203-0.549l-2.765-1.267c-0.208-0.096-0.454-0.004-0.549,0.205l-0.529,1.154
				c-0.096,0.208-0.004,0.454,0.204,0.55"/>
		</g>
	</g>
</g>
<g id="Layer_8">
	<g>
		
			<circle fill="none" stroke="#000000" stroke-width="1.5" stroke-linecap="round" stroke-miterlimit="10" cx="107.713" cy="-206.439" r="4.936"/>
		<path fill="none" stroke="#000000" stroke-width="1.5" stroke-linecap="round" stroke-miterlimit="10" d="M125.507-218.648H89.919
			c-0.574,0-1.039,0.465-1.039,1.039v8.701c0,0.574,0.465,1.039,1.039,1.039h13.093c0.616-2.023,2.475-3.506,4.701-3.506
			c2.226,0,4.084,1.482,4.7,3.506h13.094c0.574,0,1.039-0.465,1.039-1.039v-8.701C126.546-218.184,126.081-218.648,125.507-218.648z
			"/>
		
			<polyline fill="none" stroke="#000000" stroke-width="1.5" stroke-linecap="round" stroke-linejoin="round" stroke-miterlimit="10" points="
			125.507,-207.869 135.312,-207.869 133.884,-209.297 		"/>
		
			<line fill="none" stroke="#000000" stroke-width="1.5" stroke-linecap="round" stroke-miterlimit="10" x1="130.409" y1="-207.869" x2="130.409" y2="-205.531"/>
		
			<polyline fill="none" stroke="#000000" stroke-width="1.5" stroke-linecap="round" stroke-linejoin="round" stroke-miterlimit="10" points="
			92.062,-218.32 93.815,-215.385 95.569,-218.32 		"/>
		
			<polyline fill="none" stroke="#000000" stroke-width="1.5" stroke-linecap="round" stroke-linejoin="round" stroke-miterlimit="10" points="
			98.985,-218.32 100.739,-215.385 102.492,-218.32 		"/>
		
			<polyline fill="none" stroke="#000000" stroke-width="1.5" stroke-linecap="round" stroke-linejoin="round" stroke-miterlimit="10" points="
			105.909,-218.32 107.663,-215.385 109.416,-218.32 		"/>
		
			<polyline fill="none" stroke="#000000" stroke-width="1.5" stroke-linecap="round" stroke-linejoin="round" stroke-miterlimit="10" points="
			112.833,-218.32 114.586,-215.385 116.34,-218.32 		"/>
		
			<polyline fill="none" stroke="#000000" stroke-width="1.5" stroke-linecap="round" stroke-linejoin="round" stroke-miterlimit="10" points="
			119.756,-218.32 121.51,-215.385 123.263,-218.32 		"/>
		
			<path fill="none" stroke="#000000" stroke-width="1.5" stroke-linecap="round" stroke-linejoin="round" stroke-miterlimit="10" d="
			M92.711-208.908c0,0.574-0.465,1.039-1.039,1.039h-1.753c-0.574,0-1.039-0.465-1.039-1.039v-2.467
			c0-0.574,0.465-1.039,1.039-1.039h1.753c0.574,0,1.039,0.465,1.039,1.039V-208.908z"/>
		
			<circle fill="none" stroke="#000000" stroke-width="1.5" stroke-linecap="round" stroke-miterlimit="10" cx="107.713" cy="-206.439" r="1.839"/>
		<g>
			
				<circle fill="none" stroke="#000000" stroke-width="1.5" stroke-linecap="round" stroke-miterlimit="10" cx="100.669" cy="-232.587" r="3.382"/>
			
				<circle fill="none" stroke="#000000" stroke-width="1.5" stroke-linecap="round" stroke-miterlimit="10" cx="109.786" cy="-232.587" r="3.381"/>
			
				<path fill="none" stroke="#000000" stroke-width="1.5" stroke-linecap="round" stroke-linejoin="round" stroke-miterlimit="10" d="
				M125.247-233.672h-0.551h-8.433c0,0,0,0-2.397-3.517c-0.182-0.267-0.437-0.64-1.121-0.64c-2.626,0-12.092,0-15.683,0
				c-0.248,0-0.735,0.25-0.881,0.45c-2.716,3.706-2.716,3.706-2.716,3.706h-4.064c-0.574,0-0.651-0.233-0.651-0.52v-7.966
				c0-0.287,0.077-0.52,0.651-0.52h35.295c0.575,0,0.551,0.232,0.551,0.52V-233.672z"/>
			
				<circle fill="none" stroke="#000000" stroke-width="1.5" stroke-linecap="round" stroke-miterlimit="10" cx="100.669" cy="-232.587" r="0.993"/>
			
				<circle fill="none" stroke="#000000" stroke-width="1.5" stroke-linecap="round" stroke-miterlimit="10" cx="109.787" cy="-232.587" r="0.993"/>
			
				<line fill="none" stroke="#000000" stroke-width="1.5" stroke-linecap="round" stroke-linejoin="round" stroke-miterlimit="10" x1="90.796" y1="-242.677" x2="90.796" y2="-244.495"/>
			
				<line fill="none" stroke="#000000" stroke-width="1.5" stroke-linecap="round" stroke-linejoin="round" stroke-miterlimit="10" x1="107.029" y1="-242.677" x2="107.029" y2="-244.495"/>
			
				<line fill="none" stroke="#000000" stroke-width="1.5" stroke-linecap="round" stroke-linejoin="round" stroke-miterlimit="10" x1="123.263" y1="-242.677" x2="123.263" y2="-244.495"/>
			
				<line fill="none" stroke="#000000" stroke-width="1.5" stroke-linecap="round" stroke-linejoin="round" stroke-miterlimit="10" x1="92.711" y1="-233.672" x2="92.711" y2="-230.642"/>
			
				<path fill="none" stroke="#000000" stroke-width="1.5" stroke-linecap="round" stroke-linejoin="round" stroke-miterlimit="10" d="
				M128.299-233.672h-1.039h-0.974h-1.039v-2.511c0-0.574,0.464-1.039,1.039-1.039h0.974c0.574,0,1.039,0.465,1.039,1.039V-233.672z
				"/>
			
				<line fill="none" stroke="#000000" stroke-width="1.5" stroke-linecap="round" stroke-linejoin="round" stroke-miterlimit="10" x1="128.299" y1="-233.672" x2="134.101" y2="-233.672"/>
			
				<line fill="none" stroke="#000000" stroke-width="1.5" stroke-linecap="round" stroke-linejoin="round" stroke-miterlimit="10" x1="120.831" y1="-240.469" x2="123.038" y2="-238.261"/>
			
				<line fill="none" stroke="#000000" stroke-width="1.5" stroke-linecap="round" stroke-linejoin="round" stroke-miterlimit="10" x1="119.206" y1="-238.844" x2="121.413" y2="-236.637"/>
			
				<circle fill="none" stroke="#000000" stroke-width="1.5" stroke-linecap="round" stroke-linejoin="round" stroke-miterlimit="10" cx="92.322" cy="-238.65" r="0.845"/>
		</g>
	</g>
</g>
<g id="Layer_7">
	<g>
		<g>
			
				<circle fill="none" stroke="#000000" stroke-width="1.5" stroke-linecap="round" stroke-miterlimit="10" cx="700.05" cy="-203.966" r="2.4"/>
			<path fill="none" stroke="#000000" stroke-width="1.5" stroke-linecap="round" stroke-miterlimit="10" d="M719.292-201.049
				c0.254,0.392-0.591,1.318-1.318,1.318c-0.729,0-1.572-0.927-1.319-1.318C717.012-201.602,718.932-201.602,719.292-201.049z"/>
			
				<circle fill="none" stroke="#000000" stroke-width="1.5" stroke-linecap="round" stroke-miterlimit="10" cx="700.05" cy="-203.966" r="4.8"/>
			<path fill="none" stroke="#000000" stroke-width="1.5" stroke-linecap="round" stroke-miterlimit="10" d="M698.364-217.051
				c-0.529-0.004-0.958,0.43-0.958,0.959v5.624c0.896-0.429,1.896-0.677,2.955-0.677c3.792,0,6.866,3.075,6.866,6.868
				c0,0.904-0.179,1.765-0.496,2.556h15.106c0.53,0,0.958-0.429,0.958-0.959c0,0,0.195-4.219-2.555-7.825
				C715.815-216.306,704.477-216.997,698.364-217.051z"/>
			<path fill="none" stroke="#000000" stroke-width="1.5" stroke-linecap="round" stroke-miterlimit="10" d="M706.27-218.015
				c0.029-0.528-0.375-0.98-0.902-1.01l-3.584-0.201c-0.528-0.029-0.98,0.375-1.01,0.903l-0.013,0.215
				c-0.029,0.528,0.375,0.98,0.903,1.01l3.584,0.201c0.527,0.028,0.98-0.376,1.01-0.903L706.27-218.015z"/>
			<path fill="none" stroke="#000000" stroke-width="1.5" stroke-linecap="round" stroke-miterlimit="10" d="M712.721-215.194
				c0,0-12.072-10.414-9.205-18.662c3.268-9.403,13.253-5.612,14.955-2.256"/>
			
				<polyline fill="none" stroke="#000000" stroke-width="1.5" stroke-linecap="round" stroke-linejoin="round" stroke-miterlimit="10" points="
				718.471,-236.112 728.624,-202.551 734.641,-202.551 			"/>
			
				<path fill="none" stroke="#000000" stroke-width="1.5" stroke-linecap="round" stroke-linejoin="round" stroke-miterlimit="10" d="
				M719.074-235.948c0.095,0.287-0.061,0.597-0.349,0.692l-0.302,0.1c-0.287,0.096-0.597-0.061-0.692-0.347l-0.1-0.304
				c-0.095-0.287,0.061-0.597,0.348-0.692l0.303-0.1c0.287-0.095,0.597,0.061,0.691,0.348L719.074-235.948z"/>
			
				<line fill="none" stroke="#000000" stroke-width="1.5" stroke-linecap="round" stroke-linejoin="round" stroke-miterlimit="10" x1="734.641" y1="-202.551" x2="727.12" y2="-201.565"/>
			
				<line fill="none" stroke="#000000" stroke-width="1.5" stroke-linecap="round" stroke-linejoin="round" stroke-miterlimit="10" x1="727.12" y1="-201.565" x2="728.624" y2="-202.551"/>
			
				<line fill="none" stroke="#000000" stroke-width="1.5" stroke-linecap="round" stroke-linejoin="round" stroke-miterlimit="10" x1="711.901" y1="-208.286" x2="711.901" y2="-205.09"/>
			
				<line fill="none" stroke="#000000" stroke-width="1.5" stroke-linecap="round" stroke-linejoin="round" stroke-miterlimit="10" x1="714.158" y1="-208.286" x2="714.158" y2="-205.09"/>
			
				<line fill="none" stroke="#000000" stroke-width="1.5" stroke-linecap="round" stroke-linejoin="round" stroke-miterlimit="10" x1="716.414" y1="-208.286" x2="716.414" y2="-205.09"/>
		</g>
		<g>
			
				<line fill="none" stroke="#000000" stroke-width="1.5" stroke-linecap="round" stroke-linejoin="round" stroke-miterlimit="10" x1="742.744" y1="-203.079" x2="734.554" y2="-242.306"/>
			<g>
				
					<path fill="none" stroke="#000000" stroke-width="1.5" stroke-linecap="round" stroke-linejoin="round" stroke-miterlimit="10" d="
					M741.971-245.334c-0.133-0.639-0.759-1.05-1.4-0.916l-13.128,2.741c-0.641,0.134-1.05,0.761-0.917,1.4l0.08,0.386
					c0.135,0.64,0.761,1.05,1.4,0.916l13.129-2.741c0.642-0.134,1.05-0.76,0.917-1.4L741.971-245.334z"/>
				
					<line fill="none" stroke="#000000" stroke-width="1.5" stroke-linecap="round" stroke-linejoin="round" stroke-miterlimit="10" x1="726.746" y1="-241.059" x2="726.053" y2="-244.372"/>
				
					<line fill="none" stroke="#000000" stroke-width="1.5" stroke-linecap="round" stroke-linejoin="round" stroke-miterlimit="10" x1="727.85" y1="-241.29" x2="727.11" y2="-244.833"/>
				
					<line fill="none" stroke="#000000" stroke-width="1.5" stroke-linecap="round" stroke-linejoin="round" stroke-miterlimit="10" x1="728.955" y1="-241.521" x2="728.262" y2="-244.833"/>
				
					<line fill="none" stroke="#000000" stroke-width="1.5" stroke-linecap="round" stroke-linejoin="round" stroke-miterlimit="10" x1="730.058" y1="-241.751" x2="729.319" y2="-245.294"/>
				
					<line fill="none" stroke="#000000" stroke-width="1.5" stroke-linecap="round" stroke-linejoin="round" stroke-miterlimit="10" x1="731.163" y1="-241.981" x2="730.471" y2="-245.294"/>
				
					<line fill="none" stroke="#000000" stroke-width="1.5" stroke-linecap="round" stroke-linejoin="round" stroke-miterlimit="10" x1="732.267" y1="-242.212" x2="731.528" y2="-245.755"/>
				
					<line fill="none" stroke="#000000" stroke-width="1.5" stroke-linecap="round" stroke-linejoin="round" stroke-miterlimit="10" x1="733.372" y1="-242.442" x2="732.68" y2="-245.755"/>
				
					<line fill="none" stroke="#000000" stroke-width="1.5" stroke-linecap="round" stroke-linejoin="round" stroke-miterlimit="10" x1="734.476" y1="-242.673" x2="733.736" y2="-246.216"/>
				
					<line fill="none" stroke="#000000" stroke-width="1.5" stroke-linecap="round" stroke-linejoin="round" stroke-miterlimit="10" x1="735.58" y1="-242.904" x2="734.888" y2="-246.216"/>
				
					<line fill="none" stroke="#000000" stroke-width="1.5" stroke-linecap="round" stroke-linejoin="round" stroke-miterlimit="10" x1="736.684" y1="-243.134" x2="735.944" y2="-246.677"/>
				
					<line fill="none" stroke="#000000" stroke-width="1.5" stroke-linecap="round" stroke-linejoin="round" stroke-miterlimit="10" x1="737.789" y1="-243.365" x2="737.096" y2="-246.677"/>
				
					<line fill="none" stroke="#000000" stroke-width="1.5" stroke-linecap="round" stroke-linejoin="round" stroke-miterlimit="10" x1="738.892" y1="-243.596" x2="738.153" y2="-247.139"/>
				
					<line fill="none" stroke="#000000" stroke-width="1.5" stroke-linecap="round" stroke-linejoin="round" stroke-miterlimit="10" x1="739.998" y1="-243.826" x2="739.305" y2="-247.139"/>
				
					<line fill="none" stroke="#000000" stroke-width="1.5" stroke-linecap="round" stroke-linejoin="round" stroke-miterlimit="10" x1="741.101" y1="-244.057" x2="740.362" y2="-247.6"/>
				
					<line fill="none" stroke="#000000" stroke-width="1.5" stroke-linecap="round" stroke-linejoin="round" stroke-miterlimit="10" x1="742.207" y1="-244.287" x2="741.514" y2="-247.6"/>
			</g>
		</g>
	</g>
</g>
<g id="Layer_6">
	<g>
		<g>
			
				<circle fill="none" stroke="#000000" stroke-width="1.5" stroke-linecap="round" stroke-miterlimit="10" cx="650.435" cy="-202.417" r="3.664"/>
			
				<line fill="none" stroke="#000000" stroke-width="1.5" stroke-linecap="round" stroke-miterlimit="10" x1="650.435" y1="-202.417" x2="646.63" y2="-207.084"/>
			<path fill="none" stroke="#000000" stroke-width="1.5" stroke-linecap="round" stroke-miterlimit="10" d="M646.599-207.14
				c-0.041,0.323-0.334,0.553-0.656,0.514l-15.24-1.913c-0.322-0.039-0.552-0.333-0.511-0.655l-6.173-12.698
				c0.041-0.322,0.336-0.551,0.656-0.509l27.812,3.485c0.322,0.041,0.551,0.333,0.51,0.655L646.599-207.14z"/>
			<path fill="none" stroke="#000000" stroke-width="1.5" stroke-linecap="round" stroke-miterlimit="10" d="M636.343-207.83
				c0,0-2.421,17.866-3.4,0.186"/>
			
				<polyline fill="none" stroke="#000000" stroke-width="1.5" stroke-linecap="round" stroke-linejoin="round" stroke-miterlimit="10" points="
				630.703,-208.539 625.167,-209.355 616.845,-219.415 610.476,-220.233 			"/>
			
				<polyline fill="none" stroke="#000000" stroke-width="1.5" stroke-linecap="round" stroke-linejoin="round" stroke-miterlimit="10" points="
				643.978,-217.237 648.533,-216.544 646.142,-212.849 			"/>
		</g>
		<g>
			
				<path fill="none" stroke="#000000" stroke-width="1.5" stroke-linecap="round" stroke-linejoin="round" stroke-miterlimit="10" d="
				M651.796-225.596c0,0.436-0.354,0.788-0.789,0.788c0,0-2.902-0.377-3.889-0.377c-0.984,0-3.889,0.377-3.889,0.377
				c-0.436,0-0.789-0.353-0.789-0.788l-1.574-11.914c0-0.435,0.352-0.788,0.787-0.788h10.93c0.436,0,0.787,0.353,0.787,0.788
				L651.796-225.596z"/>
			
				<line fill="none" stroke="#000000" stroke-width="1.5" stroke-linecap="round" stroke-linejoin="round" stroke-miterlimit="10" x1="650.125" y1="-235.546" x2="649.208" y2="-227.654"/>
			
				<path fill="none" stroke="#000000" stroke-width="1.5" stroke-linecap="round" stroke-linejoin="round" stroke-miterlimit="10" d="
				M647.119-245.897c-3.021,0-5.646,3.399-5.646,7.599h11.293C652.765-242.498,650.14-245.897,647.119-245.897z"/>
		</g>
		<g>
			
				<path fill="none" stroke="#000000" stroke-width="1.5" stroke-linecap="round" stroke-linejoin="round" stroke-miterlimit="10" d="
				M630.204-237.432c0.396,0.305,1.658,6.744,1.658,6.744s-6.548,0.431-6.944,0.125l-4.959-3.816
				c-0.396-0.305-0.398-0.967-0.004-1.478l2.646-1.957l1.213-3.061c0.395-0.511,1.033-0.679,1.43-0.374L630.204-237.432z"/>
			
				<line fill="none" stroke="#000000" stroke-width="1.5" stroke-linecap="round" stroke-linejoin="round" stroke-miterlimit="10" x1="624.125" y1="-236.639" x2="629.114" y2="-232.802"/>
			
				<path fill="none" stroke="#000000" stroke-width="1.5" stroke-linecap="round" stroke-linejoin="round" stroke-miterlimit="10" d="
				M622.666-239.379l-4.747-3.654l-1.323-1.74l-0.924,0.011c-0.396-0.304-0.963-0.23-1.268,0.166L613.943-244
				c-0.305,0.397-0.23,0.964,0.166,1.269l0.225,0.895l2.021,0.834l4.747,3.654"/>
			
				<line fill="none" stroke="#000000" stroke-width="1.5" stroke-linecap="round" stroke-linejoin="round" stroke-miterlimit="10" x1="618.865" y1="-239.072" x2="620.427" y2="-241.102"/>
		</g>
	</g>
</g>
<g id="Layer_5">
	<g>
		<g>
			
				<path fill="none" stroke="#000000" stroke-width="1.5" stroke-linecap="round" stroke-linejoin="round" stroke-miterlimit="10" d="
				M529.767-234.333c0,0.397-0.322,0.719-0.721,0.719h-1.262c-0.397,0-0.721-0.322-0.721-0.719v-2.944
				c0-0.398,0.323-0.722,0.721-0.722h1.262c0.398,0,0.721,0.323,0.721,0.722V-234.333z"/>
			
				<path fill="none" stroke="#000000" stroke-width="1.5" stroke-linecap="round" stroke-linejoin="round" stroke-miterlimit="10" d="
				M548.136-234.333c0,0.397-0.322,0.719-0.721,0.719h-1.262c-0.398,0-0.721-0.322-0.721-0.719v-2.944
				c0-0.398,0.322-0.722,0.721-0.722h1.262c0.398,0,0.721,0.323,0.721,0.722V-234.333z"/>
			
				<path fill="none" stroke="#000000" stroke-width="1.5" stroke-linecap="round" stroke-linejoin="round" stroke-miterlimit="10" d="
				M552.47-240.106h-3.447v-1.724h3.629c0.398,0,0.723-0.322,0.723-0.719l-9.643-4.701c-0.398,0-0.719,0.323-0.719,0.721H532.38
				c0-0.398-0.322-0.721-0.721-0.721l-9.642,4.701c0,0.397,0.323,0.719,0.721,0.719h3.438v1.724h-3.255
				c-0.394,0-0.711,0.319-0.711,0.71v2.192c0,0.394,0.317,0.713,0.711,0.713h0.061v7.651c0,0.374,0.304,0.676,0.678,0.676h28.074
				c0.371,0,0.674-0.302,0.674-0.676v-7.651h0.062c0.396,0,0.713-0.319,0.713-0.713v-2.192
				C553.183-239.787,552.867-240.106,552.47-240.106z M529.767-241.83h1.893c0.398,0,0.721-0.322,0.721-0.719v-0.301h10.633v0.301
				c0,0.397,0.32,0.719,0.719,0.719h1.701v1.724h-15.666V-241.83z"/>
			
				<line fill="none" stroke="#000000" stroke-width="1.5" stroke-linecap="round" stroke-linejoin="round" stroke-miterlimit="10" x1="531.978" y1="-235.807" x2="543.222" y2="-235.807"/>
			
				<line fill="none" stroke="#000000" stroke-width="1.5" stroke-linecap="round" stroke-linejoin="round" stroke-miterlimit="10" x1="533.431" y1="-246.529" x2="535.909" y2="-242.895"/>
			
				<line fill="none" stroke="#000000" stroke-width="1.5" stroke-linecap="round" stroke-linejoin="round" stroke-miterlimit="10" x1="536.607" y1="-246.529" x2="539.085" y2="-242.895"/>
			
				<line fill="none" stroke="#000000" stroke-width="1.5" stroke-linecap="round" stroke-linejoin="round" stroke-miterlimit="10" x1="539.783" y1="-246.529" x2="542.263" y2="-242.895"/>
		</g>
		<g>
			
				<path fill="none" stroke="#000000" stroke-width="1.5" stroke-linecap="round" stroke-linejoin="round" stroke-miterlimit="10" d="
				M569.03-224.432c-0.352,1.809-1.498,3.253-3.007,4.059c-1.148,0.614,0.646,8.069-5.127,6.944
				c-5.772-1.123-1.328-7.355-2.165-8.364c-1.086-1.311-1.597-3.086-1.246-4.888c0.621-3.188,3.709-5.27,6.897-4.648
				C567.57-230.708,569.651-227.62,569.03-224.432z"/>
			
				<line fill="none" stroke="#000000" stroke-width="1.5" stroke-linecap="round" stroke-linejoin="round" stroke-miterlimit="10" x1="558.491" y1="-219.804" x2="565.719" y2="-219.88"/>
			
				<line fill="none" stroke="#000000" stroke-width="1.5" stroke-linecap="round" stroke-linejoin="round" stroke-miterlimit="10" x1="558.05" y1="-217.544" x2="565.279" y2="-217.618"/>
			
				<line fill="none" stroke="#000000" stroke-width="1.5" stroke-linecap="round" stroke-linejoin="round" stroke-miterlimit="10" x1="558.196" y1="-215.169" x2="564.838" y2="-215.358"/>
			
				<path fill="none" stroke="#000000" stroke-width="1.5" stroke-linecap="round" stroke-linejoin="round" stroke-miterlimit="10" d="
				M565.936-225.499c0,0-0.777-1.414-2.354-1.722c-1.894-0.368-2.829,0.712-2.829,0.712l1.352,6.667L565.936-225.499z"/>
			
				<line fill="none" stroke="#000000" stroke-width="1.5" stroke-linecap="round" stroke-linejoin="round" stroke-miterlimit="10" x1="559.883" y1="-212.961" x2="561.583" y2="-212.63"/>
		</g>
		<g>
			<g>
				
					<circle fill="none" stroke="#000000" stroke-width="1.5" stroke-linecap="round" stroke-linejoin="round" stroke-miterlimit="10" cx="549.78" cy="-202.066" r="2.782"/>
				
					<circle fill="none" stroke="#000000" stroke-width="1.5" stroke-linecap="round" stroke-linejoin="round" stroke-miterlimit="10" cx="531.816" cy="-202.066" r="2.783"/>
				
					<path fill="none" stroke="#000000" stroke-width="1.5" stroke-linecap="round" stroke-linejoin="round" stroke-miterlimit="10" d="
					M556.064-203.814c0,0,0.299-3.181-2.385-3.181s-28.107,0-28.107,0v-13.415c0,0,0.361-2.492-2.492-2.492"/>
				
					<path fill="none" stroke="#000000" stroke-width="1.5" stroke-linecap="round" stroke-linejoin="round" stroke-miterlimit="10" d="
					M529.034-206.995c-2.558,0.804-3.25,3.427-3.25,4.555"/>
			</g>
			
				<path fill="none" stroke="#000000" stroke-width="1.5" stroke-linecap="round" stroke-linejoin="round" stroke-miterlimit="10" d="
				M535.356-210.5c0,0.491-0.397,0.89-0.89,0.89h-5.299c-0.492,0-0.891-0.398-0.891-0.89v-5.716c0-0.49,0.398-0.89,0.891-0.89h5.299
				c0.492,0,0.89,0.399,0.89,0.89V-210.5z"/>
			
				<path fill="none" stroke="#000000" stroke-width="1.5" stroke-linecap="round" stroke-linejoin="round" stroke-miterlimit="10" d="
				M545.757-210.5c0,0.491-0.398,0.89-0.891,0.89h-5.299c-0.492,0-0.89-0.398-0.89-0.89v-5.716c0-0.49,0.397-0.89,0.89-0.89h5.299
				c0.492,0,0.891,0.399,0.891,0.89V-210.5z"/>
			
				<path fill="none" stroke="#000000" stroke-width="1.5" stroke-linecap="round" stroke-linejoin="round" stroke-miterlimit="10" d="
				M552.395-210.041c0,0.238-0.192,0.431-0.43,0.431h-2.562c-0.237,0-0.431-0.192-0.431-0.431v-2.764c0-0.236,0.193-0.43,0.431-0.43
				h2.562c0.237,0,0.43,0.193,0.43,0.43V-210.041z"/>
		</g>
	</g>
</g>
<g id="Layer_4">
	<g>
		<path fill="none" stroke="#000000" stroke-width="1.5" stroke-linecap="round" stroke-miterlimit="10" d="M389.63-240.055
			c4.472,4.471,7.237,10.649,7.237,17.472c0,13.647-11.062,24.708-24.708,24.708c-13.646,0-24.709-11.062-24.709-24.708
			c0-13.646,11.062-24.708,24.709-24.708"/>
		<path fill="none" stroke="#000000" stroke-width="1.5" stroke-linecap="round" stroke-miterlimit="10" d="M360.212-230.656
			c0,5.56,1.282,20.75,6.842,20.75c4.408,0,3.425-13.875,6.017-13.875c2.033,0,1.267,13.875,5.233,13.875
			c5.526,0,7.625-15.223,7.625-20.75"/>
		<path fill="none" stroke="#000000" stroke-width="1.5" stroke-linecap="round" stroke-miterlimit="10" d="M358.587-232.11
			c0,0,0.444,0.628,1.576,0.845c1.068,0.205,1.424-0.414,1.424-0.414"/>
		<path fill="none" stroke="#000000" stroke-width="1.5" stroke-linecap="round" stroke-miterlimit="10" d="M384.429-231.667
			c0,0,0.445,0.628,1.576,0.845c1.068,0.205,1.424-0.414,1.424-0.414"/>
	</g>
</g>
<g id="Layer_3">
	<g>
		<path fill="none" stroke="#000000" stroke-width="1.5" stroke-linecap="round" stroke-miterlimit="10" d="M302.921-240.055
			c4.472,4.471,7.237,10.649,7.237,17.472c0,13.647-11.062,24.708-24.708,24.708c-13.646,0-24.709-11.062-24.709-24.708
			c0-13.646,11.062-24.708,24.709-24.708"/>
		<g>
			<g>
				<path fill="none" stroke="#000000" stroke-width="1.5" stroke-linecap="round" stroke-miterlimit="10" d="M279.89-234.019
					c1.331,1.236,1.907,7.523,1.965,9.339c0.13,4.073-0.834,10.04-0.834,14.116"/>
				<path fill="none" stroke="#000000" stroke-width="1.5" stroke-linecap="round" stroke-miterlimit="10" d="M277.016-234.232
					c7.679,0,18.167,1,18.167,12.91c0,11.258-11.95,9.996-17.167,11.434"/>
			</g>
			<path fill="none" stroke="#000000" stroke-width="1.5" stroke-linecap="round" stroke-miterlimit="10" d="M277.122-211.617
				c0.268,0.875,0.281,2.391,0,3.166"/>
			<path fill="none" stroke="#000000" stroke-width="1.5" stroke-linecap="round" stroke-miterlimit="10" d="M276.573-235.603
				c0.268,0.875,0.281,2.392,0,3.167"/>
		</g>
	</g>
</g>
<g id="Layer_2">
	<path fill="none" stroke="#CF4428" stroke-width="1.5" stroke-linecap="round" stroke-linejoin="round" stroke-miterlimit="10" d="
		M79.484,88.362c0,0-5.087-5.086-7.049-7.048c-0.842-0.843-0.76-1.881-0.641-2.564c0.146-0.847,0.764-1.262,1.189-1.466
		c10.445-5.014,30.008-15.475,39.1-19.964c0.471-0.232,0.869-0.368,1.242,0.004c0.519,0.521,0.208,0.719-0.137,1.896
		c-2.685,9.162-11.893,34.382-14.505,43.378c-0.229,0.785-0.558,1.799-1.529,2.053c-0.796,0.207-1.472-0.088-1.894-0.51
		c-1.28-1.281-3.773-3.773-5.196-5.197c-1.14-1.139-1.732-2.146-2.898-2.146c-1.021-0.002-1.623,0.713-1.994,1.1
		c-1.191,1.24-4.865,4.867-4.865,4.867l16.982-29.638L79.484,88.362z"/>
</g>
<g id="GUIDES">
</g>
<g id="Layer_38">
	<g>
		
			<path fill="none" stroke="#CF4428" stroke-width="1.5" stroke-linecap="round" stroke-linejoin="round" stroke-miterlimit="10" d="
			M88.315,13.173l-2.656,0.2v-2.263c0-0.331,0.269-0.6,0.6-0.6h1.456c0.332,0,0.6,0.269,0.6,0.6V13.173z"/>
		
			<path fill="none" stroke="#CF4428" stroke-width="1.5" stroke-linecap="round" stroke-linejoin="round" stroke-miterlimit="10" d="
			M88.315,36.013c0,0.332-0.268,0.6-0.6,0.6H86.26c-0.332,0-0.6-0.268-0.6-0.6v-12.25l2.656-0.2V36.013z"/>
		
			<path fill="none" stroke="#CF4428" stroke-width="1.5" stroke-linecap="round" stroke-linejoin="round" stroke-miterlimit="10" d="
			M100.09,17.253c0.029,0.331-4.332,3.34-4.662,3.369c-4.508,0.395-18.03,1.578-18.03,1.578c-0.331,0.028-0.622-0.215-0.65-0.545
			l-0.41-4.682c-0.028-0.331,0.216-0.622,0.546-0.65c0,0,13.523-1.183,18.031-1.578C95.244,14.716,100.061,16.924,100.09,17.253
			L100.09,17.253z"/>
		
			<path fill="none" stroke="#CF4428" stroke-width="1.5" stroke-linecap="round" stroke-linejoin="round" stroke-miterlimit="10" d="
			M80.319,19.313c0.021,0.239-0.156,0.449-0.396,0.47l-0.902,0.079c-0.239,0.021-0.45-0.155-0.471-0.395l-0.079-0.903
			c-0.021-0.239,0.156-0.45,0.395-0.471l0.903-0.079c0.239-0.021,0.45,0.156,0.471,0.396L80.319,19.313z"/>
		
			<line fill="none" stroke="#CF4428" stroke-width="1.5" stroke-linecap="round" stroke-linejoin="round" stroke-miterlimit="10" x1="82.608" y1="18.658" x2="95.061" y2="17.568"/>
		
			<path fill="none" stroke="#CF4428" stroke-width="1.5" stroke-linecap="round" stroke-linejoin="round" stroke-miterlimit="10" d="
			M83.147,34.65l1.05-1.3c0,0,1.188,2.223,1.576,3.011"/>
		
			<path fill="none" stroke="#CF4428" stroke-width="1.5" stroke-linecap="round" stroke-linejoin="round" stroke-miterlimit="10" d="
			M90.447,35.284l-0.738-1.283c0,0-0.861,1.85-1.762,2.565"/>
	</g>
</g>
<g id="Layer_39">
	<g>
		
			<polygon fill="none" stroke="#CF4428" stroke-width="1.5" stroke-linecap="round" stroke-linejoin="round" stroke-miterlimit="10" points="
			-55.252,21.726 -56.304,16.805 -51.381,17.854 		"/>
		
			<path fill="none" stroke="#CF4428" stroke-width="1.5" stroke-linecap="round" stroke-linejoin="round" stroke-miterlimit="10" d="
			M-39.595,21.483c3.946,3.947,3.946,10.345-0.001,14.292c0,0-1.852-3.379-1.852-7.209C-41.446,23.791-39.595,21.483-39.595,21.483z
			"/>
		
			<path fill="none" stroke="#CF4428" stroke-width="1.5" stroke-linecap="round" stroke-linejoin="round" stroke-miterlimit="10" d="
			M-56.041,23.398c-2.104,4.666-1.26,10.336,2.573,14.168c4.951,4.951,12.979,4.951,17.929,0c4.952-4.951,4.952-12.979,0.001-17.929
			c-3.833-3.833-9.502-4.677-14.167-2.572"/>
		
			<circle fill="none" stroke="#CF4428" stroke-width="1.5" stroke-linecap="round" stroke-linejoin="round" stroke-miterlimit="10" cx="-60.742" cy="10.511" r="3.604"/>
		
			<circle fill="none" stroke="#CF4428" stroke-width="1.5" stroke-linecap="round" stroke-linejoin="round" stroke-miterlimit="10" cx="-65.723" cy="22.305" r="3.603"/>
		
			<circle fill="none" stroke="#CF4428" stroke-width="1.5" stroke-linecap="round" stroke-linejoin="round" stroke-miterlimit="10" cx="-48.908" cy="6.589" r="3.604"/>
	</g>
</g>
<g id="Layer_40">
	<g>
		
			<path fill="none" stroke="#CF4428" stroke-width="1.5" stroke-linecap="round" stroke-linejoin="round" stroke-miterlimit="10" d="
			M28.139,78.999c0,0.214-0.174,0.388-0.388,0.388h-2.814c-0.215,0-0.389-0.174-0.389-0.388v-2.814c0-0.215,0.174-0.389,0.389-0.389
			h2.814c0.214,0,0.388,0.174,0.388,0.389V78.999z"/>
		
			<path fill="none" stroke="#CF4428" stroke-width="1.5" stroke-linecap="round" stroke-linejoin="round" stroke-miterlimit="10" d="
			M35.237,78.999c0,0.214-0.174,0.388-0.389,0.388h-2.814c-0.214,0-0.388-0.174-0.388-0.388v-2.814c0-0.215,0.174-0.389,0.388-0.389
			h2.814c0.215,0,0.389,0.174,0.389,0.389V78.999z"/>
		
			<path fill="none" stroke="#CF4428" stroke-width="1.5" stroke-linecap="round" stroke-linejoin="round" stroke-miterlimit="10" d="
			M42.334,78.999c0,0.214-0.174,0.388-0.389,0.388h-2.814c-0.213,0-0.388-0.174-0.388-0.388v-2.814c0-0.215,0.175-0.389,0.388-0.389
			h2.814c0.215,0,0.389,0.174,0.389,0.389V78.999z"/>
		
			<path fill="none" stroke="#CF4428" stroke-width="1.5" stroke-linecap="round" stroke-linejoin="round" stroke-miterlimit="10" d="
			M28.139,85.686c0,0.213-0.174,0.387-0.388,0.387h-2.814c-0.215,0-0.389-0.174-0.389-0.387V82.87c0-0.215,0.174-0.389,0.389-0.389
			h2.814c0.214,0,0.388,0.174,0.388,0.389V85.686z"/>
		
			<path fill="none" stroke="#CF4428" stroke-width="1.5" stroke-linecap="round" stroke-linejoin="round" stroke-miterlimit="10" d="
			M35.237,85.686c0,0.213-0.174,0.387-0.389,0.387h-2.814c-0.214,0-0.388-0.174-0.388-0.387V82.87c0-0.215,0.174-0.389,0.388-0.389
			h2.814c0.215,0,0.389,0.174,0.389,0.389V85.686z"/>
		
			<path fill="none" stroke="#CF4428" stroke-width="1.5" stroke-linecap="round" stroke-linejoin="round" stroke-miterlimit="10" d="
			M42.334,85.686c0,0.213-0.174,0.387-0.389,0.387h-2.814c-0.213,0-0.388-0.174-0.388-0.387V82.87c0-0.215,0.175-0.389,0.388-0.389
			h2.814c0.215,0,0.389,0.174,0.389,0.389V85.686z"/>
		
			<path fill="none" stroke="#CF4428" stroke-width="1.5" stroke-linecap="round" stroke-linejoin="round" stroke-miterlimit="10" d="
			M28.139,92.371c0,0.213-0.174,0.387-0.388,0.387h-2.814c-0.215,0-0.389-0.174-0.389-0.387v-2.814c0-0.215,0.174-0.389,0.389-0.389
			h2.814c0.214,0,0.388,0.174,0.388,0.389V92.371z"/>
		
			<path fill="none" stroke="#CF4428" stroke-width="1.5" stroke-linecap="round" stroke-linejoin="round" stroke-miterlimit="10" d="
			M35.237,92.371c0,0.213-0.174,0.387-0.389,0.387h-2.814c-0.214,0-0.388-0.174-0.388-0.387v-2.814c0-0.215,0.174-0.389,0.388-0.389
			h2.814c0.215,0,0.389,0.174,0.389,0.389V92.371z"/>
		
			<path fill="none" stroke="#CF4428" stroke-width="1.5" stroke-linecap="round" stroke-linejoin="round" stroke-miterlimit="10" d="
			M42.334,92.371c0,0.213-0.174,0.387-0.389,0.387h-2.814c-0.213,0-0.388-0.174-0.388-0.387v-2.814c0-0.215,0.175-0.389,0.388-0.389
			h2.814c0.215,0,0.389,0.174,0.389,0.389V92.371z"/>
	</g>
</g>
<g id="Layer_41">
	<path fill="none" stroke="#CF4428" stroke-width="1.5" stroke-linecap="round" stroke-linejoin="round" stroke-miterlimit="10" d="
		M-23.232-15.316c0,0.214-0.174,0.388-0.388,0.388h-2.814c-0.215,0-0.389-0.174-0.389-0.388v-2.814c0-0.215,0.174-0.389,0.389-0.389
		h2.814c0.214,0,0.388,0.174,0.388,0.389V-15.316z"/>
	<path fill="none" stroke="#CF4428" stroke-width="1.5" stroke-linecap="round" stroke-linejoin="round" stroke-miterlimit="10" d="
		M-9.036-15.316c0,0.214-0.174,0.388-0.389,0.388h-9.912c-0.214,0-0.388-0.174-0.388-0.388v-2.814c0-0.215,0.174-0.389,0.388-0.389
		h9.912c0.215,0,0.389,0.174,0.389,0.389V-15.316z"/>
	<path fill="none" stroke="#CF4428" stroke-width="1.5" stroke-linecap="round" stroke-linejoin="round" stroke-miterlimit="10" d="
		M-23.232-8.63c0,0.214-0.174,0.388-0.388,0.388h-2.814c-0.215,0-0.389-0.174-0.389-0.388v-2.814c0-0.215,0.174-0.389,0.389-0.389
		h2.814c0.214,0,0.388,0.174,0.388,0.389V-8.63z"/>
	<path fill="none" stroke="#CF4428" stroke-width="1.5" stroke-linecap="round" stroke-linejoin="round" stroke-miterlimit="10" d="
		M-9.036-8.63c0,0.214-0.174,0.388-0.389,0.388h-9.912c-0.214,0-0.388-0.174-0.388-0.388v-2.814c0-0.215,0.174-0.389,0.388-0.389
		h9.912c0.215,0,0.389,0.174,0.389,0.389V-8.63z"/>
	<path fill="none" stroke="#CF4428" stroke-width="1.5" stroke-linecap="round" stroke-linejoin="round" stroke-miterlimit="10" d="
		M-23.232-1.945c0,0.215-0.174,0.389-0.388,0.389h-2.814c-0.215,0-0.389-0.174-0.389-0.389v-2.814c0-0.213,0.174-0.387,0.389-0.387
		h2.814c0.214,0,0.388,0.174,0.388,0.387V-1.945z"/>
	<path fill="none" stroke="#CF4428" stroke-width="1.5" stroke-linecap="round" stroke-linejoin="round" stroke-miterlimit="10" d="
		M-9.036-1.945c0,0.215-0.174,0.389-0.389,0.389h-9.912c-0.214,0-0.388-0.174-0.388-0.389v-2.814c0-0.213,0.174-0.387,0.388-0.387
		h9.912c0.215,0,0.389,0.174,0.389,0.387V-1.945z"/>
</g>
<g id="Layer_42">
	<path fill="none" stroke="#CF4428" stroke-width="1.5" stroke-linecap="round" stroke-linejoin="round" stroke-miterlimit="10" d="
		M140.863-18c-0.332,0-0.6-0.27-0.6-0.6V-21c0-0.331,0.269-0.6,0.6-0.6h10.4c0.331,0,0.6,0.269,0.6,0.6v2.401
		c0,0.33-0.269,0.6-0.6,0.6H140.863z"/>
</g>
<g id="Layer_43">
	<path fill="none" stroke="#CF4428" stroke-width="1.5" stroke-linecap="round" stroke-linejoin="round" stroke-miterlimit="10" d="
		M131.978,7.761h-3.4v-3.4c0-0.332-0.269-0.6-0.6-0.6h-2.4c-0.331,0-0.6,0.269-0.6,0.6v3.4h-3.4c-0.332,0-0.6,0.269-0.6,0.6v2.4
		c0,0.331,0.269,0.6,0.6,0.6h3.4v3.4c0,0.332,0.269,0.6,0.6,0.6h2.4c0.331,0,0.6-0.268,0.6-0.6v-3.4h3.4c0.331,0,0.6-0.269,0.6-0.6
		v-2.4C132.577,8.029,132.309,7.761,131.978,7.761z"/>
</g>
</svg>
