<?xml version="1.0" encoding="utf-8"?>
<!-- Generator: Adobe Illustrator 16.0.4, SVG Export Plug-In . SVG Version: 6.00 Build 0)  -->
<!DOCTYPE svg PUBLIC "-//W3C//DTD SVG 1.1//EN" "http://www.w3.org/Graphics/SVG/1.1/DTD/svg11.dtd">
<svg version="1.1" xmlns="http://www.w3.org/2000/svg" xmlns:xlink="http://www.w3.org/1999/xlink" x="0px" y="0px"
	 width="18.625px" height="23.875px" viewBox="0 0 18.625 23.875" enable-background="new 0 0 18.625 23.875" xml:space="preserve">
<g id="Layer_1" display="none">
	<g display="inline">
		<g>
			<path fill="none" stroke="#000000" stroke-width="1.5" stroke-miterlimit="10" d="M-425.364-335.433
				c-5.068,0-9.191-4.123-9.191-9.191s4.123-9.192,9.191-9.192s9.192,4.124,9.192,9.192S-420.296-335.433-425.364-335.433z"/>
		</g>
		<g>
			<path fill="none" stroke="#000000" stroke-width="1.5" stroke-linecap="round" stroke-miterlimit="10" d="M-433.556-309
				c-4.27-2.191-7.829-6.548-8.827-10.567c-1.547-6.229,1.345-12.602,3.091-15.101c0.956-1.369,1.833-2.062,2.76-2.182
				c1.291-0.167,2.477,0.836,3.846,1.999c1.785,1.515,4.006,3.4,7.322,3.4c3.327,0,5.729-1.999,7.659-3.605
				c1.523-1.269,2.728-2.271,3.955-2.013c0.853,0.179,1.594,0.95,2.33,2.427c2.496,5.003,3.677,12.821,0.369,18.168
				c-2.582,4.175-7.397,6.291-14.313,6.291c-5.735,0-11.551-1.363-15.243-11.254"/>
		</g>
	</g>
</g>
<g id="Layer_28" display="none">
	<g display="inline">
		
			<circle fill="none" stroke="#000000" stroke-width="1.5" stroke-linecap="round" stroke-miterlimit="10" cx="-353.405" cy="-341.939" r="12.893"/>
		<path fill="none" stroke="#000000" stroke-width="1.5" stroke-linecap="round" stroke-miterlimit="10" d="M-333.603-318.623
			l-9.977-9.854c-1.087-1.089,1.481-0.284,2.568-1.372c1.086-1.088,0.283-3.656,1.371-2.568l21.302,21.303
			c1.088,1.088,1.088,2.853,0,3.938l0,0c-1.086,1.088-2.851,1.088-3.939,0l-9.585-13.021"/>
		<path fill="none" stroke="#000000" stroke-width="1.5" stroke-linecap="round" stroke-miterlimit="10" d="M-344.379-341.387
			c0,2.736-1.115-2.624-4.329-5.802c-3.277-3.241-8.627-4.328-5.802-4.328C-348.915-351.518-344.379-348.018-344.379-341.387z"/>
	</g>
</g>
<g id="Layer_29" display="none">
	<g display="inline">
		<path fill="none" stroke="#000000" stroke-width="2" stroke-linecap="round" stroke-miterlimit="10" d="M-274.25-347.5
			c0,1.381-1.119,2.5-2.5,2.5h-2c-1.381,0-2.5-1.119-2.5-2.5l0,0c0-1.381,1.119-2.5,2.5-2.5h2
			C-275.369-350-274.25-348.881-274.25-347.5L-274.25-347.5z"/>
		<path fill="none" stroke="#000000" stroke-width="2" stroke-linecap="round" stroke-miterlimit="10" d="M-235.25-347.5
			c0,1.381-1.119,2.5-2.5,2.5h-30c-1.381,0-2.5-1.119-2.5-2.5l0,0c0-1.381,1.119-2.5,2.5-2.5h30
			C-236.369-350-235.25-348.881-235.25-347.5L-235.25-347.5z"/>
		<path fill="none" stroke="#000000" stroke-width="2" stroke-linecap="round" stroke-miterlimit="10" d="M-274.25-331.5
			c0,1.381-1.119,2.5-2.5,2.5h-2c-1.381,0-2.5-1.119-2.5-2.5l0,0c0-1.381,1.119-2.5,2.5-2.5h2
			C-275.369-334-274.25-332.881-274.25-331.5L-274.25-331.5z"/>
		<path fill="none" stroke="#000000" stroke-width="2" stroke-linecap="round" stroke-miterlimit="10" d="M-235.25-331.5
			c0,1.381-1.119,2.5-2.5,2.5h-30c-1.381,0-2.5-1.119-2.5-2.5l0,0c0-1.381,1.119-2.5,2.5-2.5h30
			C-236.369-334-235.25-332.881-235.25-331.5L-235.25-331.5z"/>
		<path fill="none" stroke="#000000" stroke-width="2" stroke-linecap="round" stroke-miterlimit="10" d="M-274.25-314.5
			c0,1.381-1.119,2.5-2.5,2.5h-2c-1.381,0-2.5-1.119-2.5-2.5l0,0c0-1.381,1.119-2.5,2.5-2.5h2
			C-275.369-317-274.25-315.881-274.25-314.5L-274.25-314.5z"/>
		<path fill="none" stroke="#000000" stroke-width="2" stroke-linecap="round" stroke-miterlimit="10" d="M-235.25-314.5
			c0,1.381-1.119,2.5-2.5,2.5h-30c-1.381,0-2.5-1.119-2.5-2.5l0,0c0-1.381,1.119-2.5,2.5-2.5h30
			C-236.369-317-235.25-315.881-235.25-314.5L-235.25-314.5z"/>
	</g>
</g>
<g id="Layer_30" display="none">
	<g display="inline">
		<path fill="none" stroke="#000000" stroke-width="1.5" stroke-linecap="round" stroke-miterlimit="10" d="M-194.274-348.167
			l6.717-5.647c0.88-1.095,2.707-1.087,3.802-0.208l19.162,15.4c1.096,0.88,7.495,14.018,5.291,16.76
			c-2.202,2.74-16.409-0.683-17.504-1.562l-19.163-15.4c-1.095-0.88-1.495-2.662-0.615-3.757l7.477-6.752"/>
		
			<circle fill="none" stroke="#000000" stroke-width="1.5" stroke-linecap="round" stroke-miterlimit="10" cx="-165.744" cy="-327.04" r="2.684"/>
		<path fill="none" stroke="#000000" stroke-width="1.5" stroke-linecap="round" stroke-miterlimit="10" d="M-163.108-326.833
			c-2.833-1.167-5.833,1.833-4.833,4.833c3,5,2,10-0.323,13.816"/>
		<path fill="none" stroke="#000000" stroke-width="1.5" stroke-linecap="round" stroke-miterlimit="10" d="M-158.441-324
			c4.611-0.251,4.523,2.108,3.922,5.889c-0.61,3.838,1.897,6.772,3.813,9.937"/>
		
			<line fill="none" stroke="#000000" stroke-width="1.5" stroke-linecap="round" stroke-miterlimit="10" x1="-186.107" y1="-349.333" x2="-170.108" y2="-336.667"/>
		
			<line fill="none" stroke="#000000" stroke-width="1.5" stroke-linecap="round" stroke-miterlimit="10" x1="-189.107" y1="-345.333" x2="-179.537" y2="-337.756"/>
		
			<line fill="none" stroke="#000000" stroke-width="1.5" stroke-linecap="round" stroke-miterlimit="10" x1="-192.107" y1="-341.333" x2="-182.597" y2="-333.803"/>
	</g>
</g>
<g id="Layer_25" display="none">
	<g display="inline">
		<path fill="none" stroke="#000000" stroke-width="1.5" stroke-linecap="round" stroke-miterlimit="10" d="M-99.373-330.5
			c-1.22-4.644-1.833-10.168-1.833-12.833c0-6.627,5.373-12,12-12c6.627,0,12,5.373,12,12S-82.579-308-89.206-308
			c-3.962,0-11.149-16.498-13.333-26.167"/>
		
			<circle fill="none" stroke="#000000" stroke-width="1.5" stroke-linecap="round" stroke-miterlimit="10" cx="-89.206" cy="-344.333" r="6.687"/>
	</g>
</g>
<g id="Layer_26" display="none">
	<path display="inline" fill="none" stroke="#000000" stroke-width="1.5" stroke-linecap="round" stroke-miterlimit="10" d="
		M72.828-311.908c-1.172,1.172-4.951,1.334-4.182,0C79.65-331,65.63-325.49,65.65-331c0.02-5.509,14,0,2.996-19.092
		c-0.77-1.335,3.011-1.172,4.182,0c0,0,12.703,12.73,16.94,16.971c1.171,1.172,1.186,3.071,0.015,4.242
		C85.542-324.639,72.828-311.908,72.828-311.908z"/>
</g>
<g id="Layer_27" display="none">
	<path display="inline" fill="none" stroke="#000000" stroke-width="2" stroke-linecap="round" stroke-miterlimit="10" d="
		M384.669-237.715c-1.172-1.172-1.229-3.306,0-4.285c4.119-3.282,34.064-3.283,38.184,0c1.229,0.979,1.172,3.115,0,4.285
		c0,0-12.73,14.756-16.971,18.992c-1.172,1.172-3.07,1.159-4.242-0.011C397.399-222.974,384.669-237.715,384.669-237.715z"/>
</g>
<g id="Layer_32" display="none">
	<path display="inline" fill="none" stroke="#000000" stroke-width="1.5" stroke-linecap="round" stroke-miterlimit="10" d="
		M-448.141,7.998c1.172,1.172,1.229,3.306,0,4.285c-2.011,1.602-10.781-4.321-19.092-4.283c-8.715,0.04-16.983,5.963-19.092,4.283
		c-1.229-0.979-1.172-3.115,0-4.285c0,0,12.73-14.756,16.971-18.992c1.172-1.172,3.07-1.159,4.242,0.011
		C-460.871-6.744-448.141,7.998-448.141,7.998z"/>
	<path display="inline" fill="none" stroke="#000000" stroke-width="1.5" stroke-linecap="round" stroke-miterlimit="10" d="
		M-448.141,31.998c1.172,1.172,1.229,3.306,0,4.285c-2.011,1.602-10.781-4.321-19.092-4.283c-8.715,0.04-16.983,5.963-19.092,4.283
		c-1.229-0.98-1.172-3.115,0-4.285c0,0,12.73-14.756,16.971-18.992c1.172-1.172,3.07-1.16,4.242,0.01
		C-460.871,17.256-448.141,31.998-448.141,31.998z"/>
</g>
<g id="Layer_36" display="none">
	<path display="inline" fill="none" stroke="#000000" stroke-width="1.5" stroke-linecap="round" stroke-miterlimit="10" d="
		M-295.382,0.78c0.604,0.426,0.634,1.203,0,1.56c-1.037,0.583-5.563-1.572-9.851-1.559c-4.497,0.015-8.763,2.17-9.851,1.559
		c-0.634-0.356-0.605-1.133,0-1.56c0,0,6.568-5.371,8.756-6.912c0.605-0.426,1.584-0.422,2.188,0.004
		C-301.95-4.585-295.382,0.78-295.382,0.78z"/>
	<path display="inline" fill="none" stroke="#000000" stroke-width="1.5" stroke-linecap="round" stroke-miterlimit="10" d="
		M-315.087,23.22c-0.605-0.427-0.634-1.203,0-1.56c1.037-0.583,5.562,1.572,9.85,1.559c4.497-0.015,8.764-2.17,9.852-1.559
		c0.633,0.357,0.604,1.134,0,1.56c0,0-6.569,5.37-8.757,6.912c-0.605,0.427-1.584,0.422-2.189-0.004
		C-308.519,28.585-315.087,23.22-315.087,23.22z"/>
	<g display="inline">
		<g>
			<path fill="none" stroke="#000000" stroke-width="1.5" stroke-linecap="round" stroke-miterlimit="10" d="M-311.326,9.397
				c0,0.552-0.448,1-1,1h-2.333c-0.552,0-1-0.448-1-1V7.064c0-0.552,0.448-1,1-1h2.333c0.552,0,1,0.448,1,1V9.397z"/>
			
				<line fill="none" stroke="#000000" stroke-width="1.5" stroke-linecap="round" stroke-miterlimit="10" x1="-307.159" y1="8.231" x2="-295.992" y2="8.231"/>
		</g>
		<g>
			<path fill="none" stroke="#000000" stroke-width="1.5" stroke-linecap="round" stroke-miterlimit="10" d="M-311.326,16.936
				c0,0.553-0.448,1-1,1h-2.333c-0.552,0-1-0.447-1-1v-2.332c0-0.553,0.448-1,1-1h2.333c0.552,0,1,0.447,1,1V16.936z"/>
			
				<line fill="none" stroke="#000000" stroke-width="1.5" stroke-linecap="round" stroke-miterlimit="10" x1="-307.159" y1="15.77" x2="-295.992" y2="15.77"/>
		</g>
	</g>
</g>
<g id="Layer_37" display="none">
	<path display="inline" fill="none" stroke="#000000" stroke-width="1.5" stroke-linecap="round" stroke-miterlimit="10" d="
		M-233.382,8.78c0.604,0.426,0.634,1.203,0,1.56c-1.037,0.583-5.563-1.572-9.851-1.559c-4.497,0.015-8.764,2.17-9.852,1.559
		c-0.633-0.356-0.604-1.133,0-1.56c0,0,6.568-5.371,8.757-6.912c0.604-0.426,1.584-0.422,2.188,0.004
		C-239.95,3.415-233.382,8.78-233.382,8.78z"/>
	<path display="inline" fill="none" stroke="#000000" stroke-width="1.5" stroke-linecap="round" stroke-miterlimit="10" d="
		M-253.088,23.22c-0.605-0.427-0.634-1.203,0-1.56c1.037-0.583,5.562,1.572,9.851,1.559c4.497-0.015,8.764-2.17,9.852-1.559
		c0.633,0.357,0.604,1.134,0,1.56c0,0-6.569,5.37-8.757,6.912c-0.605,0.427-1.584,0.422-2.189-0.004
		C-246.52,28.585-253.088,23.22-253.088,23.22z"/>
	<g display="inline">
		<g>
			<path fill="none" stroke="#000000" stroke-width="1.5" stroke-linecap="round" stroke-miterlimit="10" d="M-249.326,16.936
				c0,0.553-0.447,1-1,1h-2.332c-0.553,0-1-0.447-1-1v-2.332c0-0.553,0.447-1,1-1h2.332c0.553,0,1,0.447,1,1V16.936z"/>
		</g>
		<g>
			<path fill="none" stroke="#000000" stroke-width="1.5" stroke-linecap="round" stroke-miterlimit="10" d="M-241.326,16.936
				c0,0.553-0.447,1-1,1h-2.332c-0.553,0-1-0.447-1-1v-2.332c0-0.553,0.447-1,1-1h2.332c0.553,0,1,0.447,1,1V16.936z"/>
		</g>
		<g>
			<path fill="none" stroke="#000000" stroke-width="1.5" stroke-linecap="round" stroke-miterlimit="10" d="M-233.326,16.936
				c0,0.553-0.447,1-1,1h-2.332c-0.553,0-1-0.447-1-1v-2.332c0-0.553,0.447-1,1-1h2.332c0.553,0,1,0.447,1,1V16.936z"/>
		</g>
	</g>
</g>
<g id="Layer_33" display="none">
	<g display="inline">
		<path fill="none" stroke="#000000" stroke-width="1.5" stroke-linecap="round" stroke-miterlimit="10" d="M-359.405-6.741h6.63
			c0.499,0,0.903,0.404,0.903,0.903v34.554c0,0.5-0.404,0.903-0.903,0.903h-26.133c-0.499,0-0.903-0.403-0.903-0.903V-5.837
			c0-0.499,0.404-0.903,0.903-0.903h6.629"/>
		
			<path fill="none" stroke="#000000" stroke-width="1.5" stroke-linecap="round" stroke-linejoin="round" stroke-miterlimit="10" d="
			M-360.31-4.595c0,0.499-0.403,0.903-0.903,0.903h-9.259c-0.499,0-0.903-0.405-0.903-0.903l-0.903-4.291
			c0-0.499,0.404-0.904,0.903-0.904h3.218c0,0,0.169-2.71,2.315-2.71c2.447,0,2.315,2.71,2.315,2.71h3.218
			c0.5,0,0.904,0.405,0.904,0.904L-360.31-4.595z"/>
		<g>
			
				<path fill="none" stroke="#000000" stroke-width="1.5" stroke-linecap="round" stroke-linejoin="round" stroke-miterlimit="10" d="
				M-370.406,5.267c0,0.499-0.405,0.903-0.903,0.903h-3.688c-0.5,0-0.903-0.405-0.903-0.903V1.578c0-0.499,0.404-0.903,0.903-0.903
				h3.688c0.499,0,0.903,0.404,0.903,0.903V5.267z"/>
			
				<line fill="none" stroke="#000000" stroke-width="1.5" stroke-linecap="round" stroke-linejoin="round" stroke-miterlimit="10" x1="-366.432" y1="3.422" x2="-355.834" y2="3.422"/>
		</g>
		<g>
			
				<path fill="none" stroke="#000000" stroke-width="1.5" stroke-linecap="round" stroke-linejoin="round" stroke-miterlimit="10" d="
				M-370.393,14.621c0,0.497-0.405,0.903-0.903,0.903h-3.689c-0.499,0-0.903-0.406-0.903-0.903v-3.689
				c0-0.5,0.405-0.903,0.903-0.903h3.689c0.499,0,0.903,0.404,0.903,0.903V14.621z"/>
			
				<line fill="none" stroke="#000000" stroke-width="1.5" stroke-linecap="round" stroke-linejoin="round" stroke-miterlimit="10" x1="-366.419" y1="12.775" x2="-355.821" y2="12.775"/>
		</g>
		<g>
			
				<path fill="none" stroke="#000000" stroke-width="1.5" stroke-linecap="round" stroke-linejoin="round" stroke-miterlimit="10" d="
				M-370.418,23.975c0,0.498-0.404,0.903-0.903,0.903h-3.688c-0.499,0-0.903-0.405-0.903-0.903v-3.689
				c0-0.499,0.404-0.903,0.903-0.903h3.688c0.499,0,0.903,0.404,0.903,0.903V23.975z"/>
			
				<line fill="none" stroke="#000000" stroke-width="1.5" stroke-linecap="round" stroke-linejoin="round" stroke-miterlimit="10" x1="-366.444" y1="22.13" x2="-355.847" y2="22.13"/>
		</g>
	</g>
</g>
<g id="Layer_35" display="none">
</g>
<g id="Layer_22" display="none">
	<path display="inline" fill="none" stroke="#000000" stroke-width="1.5" stroke-linecap="round" stroke-miterlimit="10" d="
		M743.828-212.908c-1.172,1.172-4.951,1.334-4.182,0C750.65-232,752.064-226.49,752.084-232c0.02-5.509-1.434,0-12.438-19.092
		c-0.77-1.335,3.01-1.172,4.182,0c0,0,12.703,12.73,16.939,16.971c1.172,1.172,1.186,3.07,0.016,4.242
		C756.543-225.639,743.828-212.908,743.828-212.908z"/>
</g>
<g id="Layer_23" display="none">
	<path display="inline" fill="none" stroke="#000000" stroke-width="1.5" stroke-linecap="round" stroke-miterlimit="10" d="
		M-0.537-350.092c1.172-1.172,4.951-1.334,4.182,0C-7.359-331,6.661-336.51,6.641-331c-0.02,5.509-14,0-2.996,19.092
		c0.77,1.335-3.011,1.172-4.182,0c0,0-12.703-12.73-16.94-16.971c-1.171-1.172-1.186-3.071-0.015-4.242
		C-13.251-337.361-0.537-350.092-0.537-350.092z"/>
</g>
<g id="Layer_24" display="none">
	<g display="inline">
		<path fill="none" stroke="#000000" stroke-width="1.5" stroke-linecap="round" stroke-miterlimit="10" d="M681.883-346.645
			c4.004,4.004,6.48,9.536,6.48,15.645c0,12.22-9.906,22.125-22.125,22.125S644.113-318.78,644.113-331
			c0-12.219,9.906-22.125,22.125-22.125"/>
		<g>
			
				<path fill="none" stroke="#000000" stroke-width="1.5" stroke-linecap="round" stroke-linejoin="round" stroke-miterlimit="10" d="
				M660.346-338.238c0,0-0.549-0.452,2.102-3.103c3.037-3.037,4.104-3.103,4.104-3.103v27"/>
			
				<line fill="none" stroke="#000000" stroke-width="1.5" stroke-linecap="round" stroke-miterlimit="10" x1="670.613" y1="-317.443" x2="662.488" y2="-317.443"/>
		</g>
	</g>
</g>
<g id="Layer_19" display="none">
	<g display="inline">
		<path fill="none" stroke="#000000" stroke-width="1.5" stroke-linecap="round" stroke-miterlimit="10" d="M765.895-346.645
			c4.004,4.004,6.48,9.536,6.48,15.645c0,12.22-9.905,22.125-22.125,22.125c-12.219,0-22.125-9.905-22.125-22.125
			c0-12.219,9.906-22.125,22.125-22.125"/>
		<g>
			
				<path fill="none" stroke="#000000" stroke-width="1.5" stroke-linecap="round" stroke-linejoin="round" stroke-miterlimit="10" d="
				M743.219-340.194c0,0-0.248-0.665,3.372-1.635c4.149-1.111,5.104-0.636,5.104-0.636l-1.133,25.021"/>
			
				<line fill="none" stroke="#000000" stroke-width="1.5" stroke-linecap="round" stroke-miterlimit="10" x1="755.188" y1="-331" x2="747.062" y2="-331"/>
		</g>
	</g>
</g>
<g id="Layer_20" display="none">
	<g display="inline">
		<path fill="none" stroke="#000000" stroke-width="1.5" stroke-linecap="round" stroke-miterlimit="10" d="M590.168-320.036
			l0.477,8.873c0,2.102-1.702,3.804-3.804,3.804h-21.553c-2.1,0-3.803-1.702-3.803-3.804v-36.765c0-2.1,1.703-3.804,3.803-3.804
			h5.377"/>
		<path fill="none" stroke="#000000" stroke-width="1.5" stroke-linecap="round" stroke-miterlimit="10" d="M581.464-351.731h5.377
			c2.102,0,3.804,1.704,3.804,3.804l-0.477,6.338"/>
		<path fill="none" stroke="#000000" stroke-width="1.5" stroke-linecap="round" stroke-miterlimit="10" d="M581.464-351.018
			c0,1.182-1.318,2.14-2.945,2.14h-4.908c-1.626,0-2.945-0.958-2.945-2.14v-1.426c0-1.182,1.319-2.139,2.945-2.139h4.908
			c1.627,0,2.945,0.958,2.945,2.139V-351.018z"/>
		
			<line fill="none" stroke="#000000" stroke-width="2" stroke-linecap="round" stroke-miterlimit="10" x1="566.75" y1="-341" x2="585.75" y2="-341"/>
		
			<line fill="none" stroke="#000000" stroke-width="2" stroke-linecap="round" stroke-miterlimit="10" x1="566.75" y1="-334" x2="585.75" y2="-334"/>
		
			<line fill="none" stroke="#000000" stroke-width="2" stroke-linecap="round" stroke-miterlimit="10" x1="566.75" y1="-325" x2="573.75" y2="-325"/>
		<g>
			<path fill="none" stroke="#000000" stroke-width="1.5" stroke-linecap="round" stroke-miterlimit="10" d="M579.997-317.116
				c-0.742,0.742-1.049-0.153-1.792-0.896l0,0c-0.743-0.743-1.64-1.051-0.896-1.793l22.411-22.411c0.741-0.744,1.945-0.744,2.688,0
				l0,0c0.743,0.742,0.743,1.946,0,2.689L579.997-317.116z"/>
			<path fill="none" stroke="#000000" stroke-width="1.5" stroke-linecap="round" stroke-miterlimit="10" d="M574.683-317.181
				c0.743-0.742,1.312-0.107,2.055,0.636l0,0c0.742,0.742,1.377,1.312,0.637,2.055l-1.225,1.223
				c-0.744,0.744-3.473,0.784-3.473,0.784s0.04-2.73,0.783-3.473L574.683-317.181z"/>
		</g>
	</g>
</g>
<g id="Layer_21" display="none">
	<g display="inline">
		<g>
			<path fill="none" stroke="#000000" stroke-width="1.5" stroke-linecap="round" stroke-miterlimit="10" d="M484.016-329.097
				c1.695-1.695,16.213,10.073,17.906,11.768l1.024,1.023c1.694,1.694,1.694,4.444,0,6.141l-2.047,2.047
				c-1.694,1.695-4.444,1.695-6.14-0.001l-1.023-1.022c-1.695-1.695-13.463-16.213-11.769-17.909L484.016-329.097z"/>
			<path fill="none" stroke="#000000" stroke-width="1.5" stroke-linecap="round" stroke-miterlimit="10" d="M511.334-340.574
				c0.802-0.801,2.101-0.803,2.9,0l0,0c0.8,0.798,0.8,2.095-0.001,2.899l-16.147,16.146c-0.801,0.801-1.076-0.223-1.877-1.021l0,0
				c-0.801-0.802-1.822-1.078-1.022-1.877L511.334-340.574z"/>
			<path fill="none" stroke="#000000" stroke-width="1.5" stroke-linecap="round" stroke-miterlimit="10" d="M489.206-312.648
				c-0.802,0.802-2.101,0.802-2.899,0.001l0,0c-0.803-0.802-0.802-2.099,0-2.902l0.318-0.316c0.801-0.799,1.074,0.223,1.876,1.022
				l0,0c0.8,0.801,1.822,1.075,1.022,1.877L489.206-312.648z"/>
		</g>
		
			<path fill="none" stroke="#000000" stroke-width="1.5" stroke-linecap="round" stroke-linejoin="round" stroke-miterlimit="10" d="
			M503.526-336.094l-7.253-7.252c0,0,0.344-6.27-1.695-9.86c-1.226-2.153-5.49-2.115-6.441-1.263
			c-0.812,0.726,1.447,1.453,2.314,3.594c0.865,2.141-0.409,3.458-0.822,3.871l0,0c-0.404,0.404-1.665,1.719-3.771,0.861
			c-2.173-0.881-2.959-3.179-3.696-2.355c-0.876,0.982-0.953,5.138,1.31,6.396c3.591,1.998,9.815,1.742,9.815,1.742l7.211,7.21"/>
		
			<path fill="none" stroke="#000000" stroke-width="1.5" stroke-linecap="round" stroke-linejoin="round" stroke-miterlimit="10" d="
			M507.241-326.408l4.542,4.546c0,0,1.661,0.322,2.487-0.501l0,0c0.824-0.825,0.501-2.487,0.501-2.487l-4.751-4.75"/>
	</g>
</g>
<g id="Layer_16" display="none">
	<g display="inline">
		<g>
			<path fill="none" stroke="#000000" stroke-width="1.5" stroke-linecap="round" stroke-miterlimit="10" d="M-206.717-257.413
				c1.132,1.594-10.304,11.668-11.897,12.8l-0.962,0.685c-1.592,1.132-3.804,0.758-4.938-0.834l-1.368-1.924
				c-1.133-1.593-0.759-3.804,0.835-4.937l0.961-0.684c1.594-1.133,14.868-8.623,16.002-7.029L-206.717-257.413z"/>
			<path fill="none" stroke="#000000" stroke-width="1.5" stroke-linecap="round" stroke-miterlimit="10" d="M-201.2-233.886
				c0.535,0.755,0.361,1.8-0.395,2.332l0,0c-0.75,0.536-1.794,0.36-2.331-0.394l-10.789-15.179
				c-0.535-0.753,0.325-0.835,1.076-1.371l0,0c0.753-0.535,1.115-1.319,1.648-0.567L-201.2-233.886z"/>
			<path fill="none" stroke="#000000" stroke-width="1.5" stroke-linecap="round" stroke-miterlimit="10" d="M-220.649-255.474
				c-0.536-0.754-0.359-1.799,0.394-2.332l0,0c0.754-0.537,1.796-0.36,2.333,0.395l0.211,0.299c0.533,0.752-0.325,0.833-1.078,1.37
				l0,0c-0.752,0.535-1.112,1.319-1.648,0.567L-220.649-255.474z"/>
		</g>
		<g>
			
				<rect x="-224.467" y="-225.619" transform="matrix(-0.986 -0.1668 0.1668 -0.986 -366.8742 -474.0814)" fill="none" stroke="#000000" stroke-width="1.5" stroke-linecap="round" stroke-linejoin="round" stroke-miterlimit="10" width="42.25" height="7.963"/>
			
				<path fill="none" stroke="#000000" stroke-width="1.5" stroke-linecap="round" stroke-linejoin="round" stroke-miterlimit="10" d="
				M-198.364-224.458c-0.408,2.416-2.698,4.044-5.115,3.635c-2.417-0.408-4.044-2.698-3.635-5.115L-198.364-224.458z"/>
			
				<line fill="none" stroke="#000000" stroke-width="1.5" stroke-linecap="round" stroke-linejoin="round" stroke-miterlimit="10" x1="-204.085" y1="-223.471" x2="-202.037" y2="-223.124"/>
			
				<line fill="none" stroke="#000000" stroke-width="1.5" stroke-linecap="round" stroke-linejoin="round" stroke-miterlimit="10" x1="-218.975" y1="-228.319" x2="-220.303" y2="-220.468"/>
			
				<line fill="none" stroke="#000000" stroke-width="1.5" stroke-linecap="round" stroke-linejoin="round" stroke-miterlimit="10" x1="-221.593" y1="-226.453" x2="-222.155" y2="-223.132"/>
		</g>
		<g>
			<path fill="none" stroke="#000000" stroke-width="1.5" stroke-linecap="round" stroke-miterlimit="10" d="M-181.613-253.74
				c-0.156,1.441-1.451,2.482-2.893,2.326l-14.043-1.523c-1.441-0.156-2.482-1.451-2.326-2.892l0,0
				c0.156-1.441,1.45-2.483,2.893-2.327l14.042,1.523C-182.498-256.477-181.457-255.182-181.613-253.74L-181.613-253.74z"/>
			<path fill="none" stroke="#000000" stroke-width="1.5" stroke-linecap="round" stroke-miterlimit="10" d="M-193.221-228.447
				c-0.961-0.104-1.764,0.027-1.659-0.934l1.123-10.356c0.104-0.961,0.86-0.661,1.821-0.557l0,0c0.96,0.104,1.763-0.027,1.659,0.935
				l-1.124,10.356C-191.505-228.043-192.261-228.342-193.221-228.447L-193.221-228.447z"/>
			
				<polyline fill="none" stroke="#000000" stroke-width="1.5" stroke-linecap="round" stroke-linejoin="round" stroke-miterlimit="10" points="
				-181.613,-253.74 -179.874,-253.551 -180.813,-244.883 -191.711,-242.366 -191.936,-240.294 			"/>
		</g>
	</g>
</g>
<g id="Layer_17" display="none">
	<g display="inline">
		<g>
			
				<circle fill="none" stroke="#000000" stroke-width="1.5" stroke-linecap="round" stroke-miterlimit="10" cx="237.259" cy="-343.725" r="9.442"/>
			<path fill="none" stroke="#000000" stroke-width="1.5" stroke-linecap="round" stroke-miterlimit="10" d="M251.76-326.651
				l-7.306-7.216c-0.796-0.798,1.084-0.207,1.881-1.004c0.795-0.797,0.208-2.678,1.004-1.882l15.6,15.6
				c0.797,0.797,0.797,2.089,0,2.886l0,0c-0.795,0.797-2.088,0.797-2.886,0l-7.018-9.536"/>
			<path fill="none" stroke="#000000" stroke-width="1.5" stroke-linecap="round" stroke-miterlimit="10" d="M243.868-343.32
				c0,2.003-0.816-1.922-3.17-4.249c-2.399-2.374-6.317-3.17-4.248-3.17C240.548-350.739,243.868-348.176,243.868-343.32z"/>
		</g>
		<g>
			<g>
				<path fill="none" stroke="#000000" stroke-width="1.5" stroke-linecap="round" stroke-miterlimit="10" d="M232.718-328.097
					c1.695-1.694,16.213,10.073,17.906,11.768l1.024,1.023c1.694,1.694,1.694,4.444,0,6.141l-2.047,2.047
					c-1.694,1.695-4.444,1.695-6.14-0.001l-1.023-1.022c-1.695-1.695-13.463-16.213-11.77-17.909L232.718-328.097z"/>
				<path fill="none" stroke="#000000" stroke-width="1.5" stroke-linecap="round" stroke-miterlimit="10" d="M254.148-333.688
					l6.888-6.887c0.802-0.802,2.101-0.804,2.9,0l0,0c0.8,0.798,0.8,2.095-0.001,2.899l-6.974,6.973"/>
				<path fill="none" stroke="#000000" stroke-width="1.5" stroke-linecap="round" stroke-miterlimit="10" d="M250.172-323.912
					l-3.384,3.383c-0.801,0.801-1.076-0.223-1.877-1.021l0,0c-0.801-0.802-1.822-1.078-1.023-1.877l3.489-3.489"/>
				<path fill="none" stroke="#000000" stroke-width="1.5" stroke-linecap="round" stroke-miterlimit="10" d="M237.907-311.648
					c-0.801,0.802-2.1,0.802-2.898,0.001l0,0c-0.803-0.802-0.803-2.099,0-2.902l0.318-0.316c0.801-0.799,1.074,0.223,1.875,1.022
					l0,0c0.801,0.801,1.822,1.075,1.023,1.877L237.907-311.648z"/>
			</g>
		</g>
	</g>
</g>
<g id="Layer_18" display="none">
	<g display="inline">
		<path fill="none" stroke="#000000" stroke-width="1.5" stroke-linecap="round" stroke-miterlimit="10" d="M392.727-321.875
			v-17.009c0-1.514,1.228-2.741,2.741-2.741h37.466c1.515,0,2.741,1.228,2.741,2.741v24.018c0,1.515-1.227,2.741-2.741,2.741
			h-37.466c-1.514,0-2.741-1.227-2.741-2.741v-3.009"/>
		
			<circle fill="none" stroke="#000000" stroke-width="1.5" stroke-linecap="round" stroke-miterlimit="10" cx="407.481" cy="-326.562" r="9.162"/>
		<path fill="none" stroke="#000000" stroke-width="1.5" stroke-linecap="round" stroke-miterlimit="10" d="M426.05-334.349
			c0,0.759-0.615,1.375-1.375,1.375l0,0c-0.76,0-1.375-0.616-1.375-1.375l0,0c0-0.759,0.615-1.375,1.375-1.375l0,0
			C425.435-335.724,426.05-335.108,426.05-334.349L426.05-334.349z"/>
		<path fill="none" stroke="#000000" stroke-width="1.5" stroke-linecap="round" stroke-miterlimit="10" d="M431.855-334.349
			c0,0.759-0.615,1.375-1.375,1.375l0,0c-0.76,0-1.375-0.616-1.375-1.375l0,0c0-0.759,0.615-1.375,1.375-1.375l0,0
			C431.24-335.724,431.855-335.108,431.855-334.349L431.855-334.349z"/>
		<path fill="none" stroke="#000000" stroke-width="1.5" stroke-linecap="round" stroke-miterlimit="10" d="M413.393-326.076
			c0,2.997-2.43,5.426-5.426,5.426S413.393-329.073,413.393-326.076z"/>
		<path fill="none" stroke="#000000" stroke-width="1.5" stroke-linecap="round" stroke-miterlimit="10" d="M401.787-328.918
			c0-1.844,1.494-3.337,3.337-3.337S401.787-327.076,401.787-328.918z"/>
		<path fill="none" stroke="#000000" stroke-width="1.5" stroke-linecap="round" stroke-miterlimit="10" d="M407.322-342.312
			c0-1.07-0.867-1.938-1.938-1.938h-5.647c-1.07,0-1.938,0.868-1.938,1.938l0,0C399.019-342.312,406.237-342.312,407.322-342.312
			L407.322-342.312z"/>
		<path fill="none" stroke="#000000" stroke-width="1.5" stroke-linecap="round" stroke-miterlimit="10" d="M430.51-342.312
			c0-1.07-0.868-1.938-1.938-1.938h-0.647c-1.07,0-1.938,0.868-1.938,1.938l0,0C427.206-342.312,429.425-342.312,430.51-342.312
			L430.51-342.312z"/>
		
			<line fill="none" stroke="#000000" stroke-width="1.5" stroke-linecap="round" stroke-miterlimit="10" x1="423.3" y1="-317.4" x2="432.55" y2="-317.4"/>
		
			<line fill="none" stroke="#000000" stroke-width="1.5" stroke-linecap="round" stroke-miterlimit="10" x1="423.3" y1="-322.375" x2="432.55" y2="-322.375"/>
	</g>
</g>
<g id="Layer_13" display="none">
	<g display="inline">
		
			<line fill="none" stroke="#000000" stroke-width="1.5" stroke-linecap="round" stroke-miterlimit="10" x1="325.773" y1="-315.094" x2="325.773" y2="-315.094"/>
		<path fill="none" stroke="#000000" stroke-width="1.5" stroke-linecap="round" stroke-miterlimit="10" d="M325.773-315.094
			c-1.333,1.332-3.648,1.456-4.982,0.123l-12.875-12.874c-1.332-1.334-1.332-3.496,0-4.829l0.002-0.001
			c1.333-1.334,3.494-1.333,4.828,0l10.521,10.521"/>
		<path fill="none" stroke="#000000" stroke-width="1.5" stroke-linecap="round" stroke-miterlimit="10" d="M347.631-346.519
			c1.334-1.333,3.496-1.333,4.829,0l0.001,0.001c1.334,1.333,1.332,3.494,0,4.828l-26.688,26.596"/>
		
			<line fill="none" stroke="#000000" stroke-width="1.5" stroke-linecap="round" stroke-miterlimit="10" x1="323.267" y1="-322.154" x2="344.805" y2="-343.693"/>
	</g>
</g>
<g id="Layer_34" display="none">
	<g display="inline">
		<g>
			<path d="M-412.837,15.89c-0.2,0-0.39-0.08-0.529-0.22c-0.141-0.141-0.221-0.33-0.221-0.53s0.08-0.39,0.21-0.53
				c0.29-0.279,0.78-0.279,1.07-0.01c0.14,0.15,0.22,0.34,0.22,0.54c0,0.19-0.08,0.39-0.22,0.53
				C-412.457,15.81-412.646,15.89-412.837,15.89z"/>
		</g>
		<g>
			<path d="M-413.361,16.098c-0.369,0-0.735-0.135-1.006-0.405l-2.575-2.575c-0.558-0.559-0.558-1.467-0.001-2.025
				c0.561-0.56,1.469-0.559,2.027-0.002l2.104,2.105c0.293,0.293,0.293,0.768,0,1.061c-0.181,0.181-0.432,0.25-0.663,0.208
				l0.168,0.168c0.294-0.292,0.737-0.304,1.029-0.011s0.261,0.756-0.033,1.048C-412.598,15.955-412.981,16.098-413.361,16.098z"/>
		</g>
		<g>
			<path d="M-412.84,15.888c-0.192,0-0.385-0.073-0.531-0.221c-0.292-0.294-0.292-0.769,0.002-1.061l5.335-5.317
				c-0.293,0.291-0.72,0.338-1.012,0.046c-0.293-0.293-0.246-0.72,0.047-1.013c0.56-0.559,1.467-0.558,2.026,0
				c0.559,0.56,0.559,1.469,0,2.027l-5.338,5.32C-412.457,15.814-412.648,15.888-412.84,15.888z"/>
		</g>
		<g>
			<path d="M-413.342,14.476c-0.192,0-0.384-0.073-0.53-0.22c-0.293-0.293-0.293-0.768,0-1.061l4.308-4.308
				c0.293-0.293,0.768-0.293,1.061,0s0.293,0.768,0,1.061l-4.308,4.308C-412.958,14.402-413.149,14.476-413.342,14.476z"/>
		</g>
	</g>
</g>
<g id="Layer_14" display="none">
	<g display="inline">
		<path fill="none" stroke="#000000" stroke-width="1.5" stroke-linecap="round" stroke-miterlimit="10" d="M178.956-306.458
			l-36.167,2c-1.657,0-3-1.343-3-3v-31.625c0-1.657,1.343-3,3-3h6.999"/>
		<path fill="none" stroke="#000000" stroke-width="1.5" stroke-linecap="round" stroke-miterlimit="10" d="M174.789-342.083h6.75
			c1.657,0,3,1.343,3,3v31.625c0,1.657-1.343,3-3,3h-2.583"/>
		
			<line fill="none" stroke="#000000" stroke-width="1.5" stroke-linecap="round" stroke-miterlimit="10" x1="154.038" y1="-342.083" x2="170.289" y2="-342.083"/>
		<path fill="none" stroke="#000000" stroke-width="1.5" stroke-linecap="round" stroke-miterlimit="10" d="M154.039-340.583
			c0,1.174-0.951,2.125-2.125,2.125l0,0c-1.174,0-2.125-0.951-2.125-2.125v-3.125c0-1.174,0.951-2.125,2.125-2.125l0,0
			c1.174,0,2.125,0.951,2.125,2.125V-340.583z"/>
		<path fill="none" stroke="#000000" stroke-width="1.5" stroke-linecap="round" stroke-miterlimit="10" d="M174.539-340.583
			c0,1.174-0.951,2.125-2.125,2.125l0,0c-1.174,0-2.125-0.951-2.125-2.125v-3.125c0-1.174,0.951-2.125,2.125-2.125l0,0
			c1.174,0,2.125,0.951,2.125,2.125V-340.583z"/>
		<path fill="none" stroke="#000000" stroke-width="1.5" stroke-linecap="round" stroke-miterlimit="10" d="M153.317-329.5
			c0,0.87-0.705,1.575-1.575,1.575l0,0c-0.869,0-1.575-0.706-1.575-1.575l0,0c0-0.87,0.706-1.575,1.575-1.575l0,0
			C152.612-331.075,153.317-330.369,153.317-329.5L153.317-329.5z"/>
		<path fill="none" stroke="#000000" stroke-width="1.5" stroke-linecap="round" stroke-miterlimit="10" d="M160.438-329.5
			c0,0.87-0.705,1.575-1.575,1.575l0,0c-0.869,0-1.574-0.706-1.574-1.575l0,0c0-0.87,0.705-1.575,1.574-1.575l0,0
			C159.732-331.075,160.438-330.369,160.438-329.5L160.438-329.5z"/>
		<path fill="none" stroke="#000000" stroke-width="1.5" stroke-linecap="round" stroke-miterlimit="10" d="M167.558-329.5
			c0,0.87-0.706,1.575-1.575,1.575l0,0c-0.869,0-1.575-0.706-1.575-1.575l0,0c0-0.87,0.706-1.575,1.575-1.575l0,0
			C166.852-331.075,167.558-330.369,167.558-329.5L167.558-329.5z"/>
		<path fill="none" stroke="#000000" stroke-width="1.5" stroke-linecap="round" stroke-miterlimit="10" d="M181.798-329.5
			c0,0.87-0.706,1.575-1.575,1.575l0,0c-0.869,0-1.575-0.706-1.575-1.575l0,0c0-0.87,0.706-1.575,1.575-1.575l0,0
			C181.092-331.075,181.798-330.369,181.798-329.5L181.798-329.5z"/>
		<path fill="none" stroke="#000000" stroke-width="1.5" stroke-linecap="round" stroke-miterlimit="10" d="M174.678-329.5
			c0,0.87-0.706,1.575-1.575,1.575l0,0c-0.869,0-1.575-0.706-1.575-1.575l0,0c0-0.87,0.706-1.575,1.575-1.575l0,0
			C173.972-331.075,174.678-330.369,174.678-329.5L174.678-329.5z"/>
		<path fill="none" stroke="#000000" stroke-width="1.5" stroke-linecap="round" stroke-miterlimit="10" d="M146.197-323.668
			c0,0.869-0.705,1.574-1.575,1.574l0,0c-0.87,0-1.575-0.705-1.575-1.574l0,0c0-0.87,0.706-1.576,1.575-1.576l0,0
			C145.492-325.244,146.197-324.538,146.197-323.668L146.197-323.668z"/>
		<path fill="none" stroke="#000000" stroke-width="1.5" stroke-linecap="round" stroke-miterlimit="10" d="M153.317-323.668
			c0,0.869-0.705,1.574-1.575,1.574l0,0c-0.869,0-1.575-0.705-1.575-1.574l0,0c0-0.87,0.706-1.576,1.575-1.576l0,0
			C152.612-325.244,153.317-324.538,153.317-323.668L153.317-323.668z"/>
		<path fill="none" stroke="#000000" stroke-width="1.5" stroke-linecap="round" stroke-miterlimit="10" d="M160.438-323.668
			c0,0.869-0.705,1.574-1.575,1.574l0,0c-0.869,0-1.574-0.705-1.574-1.574l0,0c0-0.87,0.705-1.576,1.574-1.576l0,0
			C159.732-325.244,160.438-324.538,160.438-323.668L160.438-323.668z"/>
		<path fill="none" stroke="#000000" stroke-width="1.5" stroke-linecap="round" stroke-miterlimit="10" d="M167.558-323.668
			c0,0.869-0.706,1.574-1.575,1.574l0,0c-0.869,0-1.575-0.705-1.575-1.574l0,0c0-0.87,0.706-1.576,1.575-1.576l0,0
			C166.852-325.244,167.558-324.538,167.558-323.668L167.558-323.668z"/>
		<path fill="none" stroke="#000000" stroke-width="1.5" stroke-linecap="round" stroke-miterlimit="10" d="M181.798-323.668
			c0,0.869-0.706,1.574-1.575,1.574l0,0c-0.869,0-1.575-0.705-1.575-1.574l0,0c0-0.87,0.706-1.576,1.575-1.576l0,0
			C181.092-325.244,181.798-324.538,181.798-323.668L181.798-323.668z"/>
		<path fill="none" stroke="#000000" stroke-width="1.5" stroke-linecap="round" stroke-miterlimit="10" d="M174.678-323.668
			c0,0.869-0.706,1.574-1.575,1.574l0,0c-0.869,0-1.575-0.705-1.575-1.574l0,0c0-0.87,0.706-1.576,1.575-1.576l0,0
			C173.972-325.244,174.678-324.538,174.678-323.668L174.678-323.668z"/>
		<path fill="none" stroke="#000000" stroke-width="1.5" stroke-linecap="round" stroke-miterlimit="10" d="M146.197-317.837
			c0,0.869-0.705,1.574-1.575,1.574l0,0c-0.87,0-1.575-0.705-1.575-1.574l0,0c0-0.871,0.706-1.576,1.575-1.576l0,0
			C145.492-319.413,146.197-318.708,146.197-317.837L146.197-317.837z"/>
		<path fill="none" stroke="#000000" stroke-width="1.5" stroke-linecap="round" stroke-miterlimit="10" d="M153.317-317.837
			c0,0.869-0.705,1.574-1.575,1.574l0,0c-0.869,0-1.575-0.705-1.575-1.574l0,0c0-0.871,0.706-1.576,1.575-1.576l0,0
			C152.612-319.413,153.317-318.708,153.317-317.837L153.317-317.837z"/>
		<path fill="none" stroke="#000000" stroke-width="1.5" stroke-linecap="round" stroke-miterlimit="10" d="M160.438-317.837
			c0,0.869-0.705,1.574-1.575,1.574l0,0c-0.869,0-1.574-0.705-1.574-1.574l0,0c0-0.871,0.705-1.576,1.574-1.576l0,0
			C159.732-319.413,160.438-318.708,160.438-317.837L160.438-317.837z"/>
		<path fill="none" stroke="#000000" stroke-width="1.5" stroke-linecap="round" stroke-miterlimit="10" d="M167.558-317.837
			c0,0.869-0.706,1.574-1.575,1.574l0,0c-0.869,0-1.575-0.705-1.575-1.574l0,0c0-0.871,0.706-1.576,1.575-1.576l0,0
			C166.852-319.413,167.558-318.708,167.558-317.837L167.558-317.837z"/>
		<path fill="none" stroke="#000000" stroke-width="1.5" stroke-linecap="round" stroke-miterlimit="10" d="M181.798-317.837
			c0,0.869-0.706,1.574-1.575,1.574l0,0c-0.869,0-1.575-0.705-1.575-1.574l0,0c0-0.871,0.706-1.576,1.575-1.576l0,0
			C181.092-319.413,181.798-318.708,181.798-317.837L181.798-317.837z"/>
		<path fill="none" stroke="#000000" stroke-width="1.5" stroke-linecap="round" stroke-miterlimit="10" d="M174.678-317.837
			c0,0.869-0.706,1.574-1.575,1.574l0,0c-0.869,0-1.575-0.705-1.575-1.574l0,0c0-0.871,0.706-1.576,1.575-1.576l0,0
			C173.972-319.413,174.678-318.708,174.678-317.837L174.678-317.837z"/>
		<path fill="none" stroke="#000000" stroke-width="1.5" stroke-linecap="round" stroke-miterlimit="10" d="M146.197-312.007
			c0,0.869-0.705,1.574-1.575,1.574l0,0c-0.87,0-1.575-0.705-1.575-1.574l0,0c0-0.87,0.706-1.576,1.575-1.576l0,0
			C145.492-313.583,146.197-312.877,146.197-312.007L146.197-312.007z"/>
		<path fill="none" stroke="#000000" stroke-width="1.5" stroke-linecap="round" stroke-miterlimit="10" d="M153.317-312.007
			c0,0.869-0.705,1.574-1.575,1.574l0,0c-0.869,0-1.575-0.705-1.575-1.574l0,0c0-0.87,0.706-1.576,1.575-1.576l0,0
			C152.612-313.583,153.317-312.877,153.317-312.007L153.317-312.007z"/>
		<path fill="none" stroke="#000000" stroke-width="1.5" stroke-linecap="round" stroke-miterlimit="10" d="M160.438-312.007
			c0,0.869-0.705,1.574-1.575,1.574l0,0c-0.869,0-1.574-0.705-1.574-1.574l0,0c0-0.87,0.705-1.576,1.574-1.576l0,0
			C159.732-313.583,160.438-312.877,160.438-312.007L160.438-312.007z"/>
	</g>
</g>
<g id="Layer_15" display="none">
	<g display="inline">
		
			<circle fill="none" stroke="#000000" stroke-width="1.5" stroke-linecap="round" stroke-miterlimit="10" cx="-467.486" cy="-232.645" r="2.458"/>
		
			<circle fill="none" stroke="#000000" stroke-width="1.5" stroke-linecap="round" stroke-miterlimit="10" cx="-456.104" cy="-232.645" r="2.458"/>
		
			<path fill="none" stroke="#000000" stroke-width="1.5" stroke-linecap="round" stroke-linejoin="round" stroke-miterlimit="10" d="
			M-469.589-252.09l20.166,3.04c0.815,0.288,1.054,1.039,0.681,1.817l-2.796,8.363c-0.438,0.76-0.467,1.194-1.371,1.327
			l-19.164,1.074c-0.913-0.121-1.209-0.566-1.362-1.514c0,0-0.534-13.045-0.534-17.181c0-0.296-0.304-0.562-0.494-0.587
			c-0.968-0.129-1.579-0.21-1.963-0.261c-0.654-0.086-1.012,0.468-1.012,0.468l-0.66,1.02"/>
		
			<line fill="none" stroke="#000000" stroke-width="1.5" stroke-linecap="round" stroke-miterlimit="10" x1="-469.589" y1="-247.238" x2="-453.25" y2="-245.016"/>
		
			<line fill="none" stroke="#000000" stroke-width="1.5" stroke-linecap="round" stroke-miterlimit="10" x1="-469.589" y1="-242.86" x2="-454.843" y2="-240.781"/>
	</g>
</g>
<g id="Layer_10" display="none">
	<g display="inline">
		<path fill="none" stroke="#000000" stroke-width="1.5" stroke-linecap="round" stroke-miterlimit="10" d="M-352.958-215.916
			c0,1.657-1.343,3-3,3h-41.333c-1.657,0-3-1.343-3-3v-23.667c0-1.656,1.343-3,3-3h41.333c1.657,0,3,1.344,3,3V-215.916z"/>
		<path fill="none" stroke="#000000" stroke-width="1.5" stroke-linecap="round" stroke-miterlimit="10" d="M-394.104-244.738
			v-12.679c0-1.224,0.993-2.216,2.216-2.216h30.528c1.223,0,2.215,0.992,2.215,2.216v12.679"/>
		
			<line fill="none" stroke="#000000" stroke-width="1.5" stroke-linecap="round" stroke-miterlimit="10" x1="-397.291" y1="-239.583" x2="-376.624" y2="-227.749"/>
		
			<line fill="none" stroke="#000000" stroke-width="1.5" stroke-linecap="round" stroke-miterlimit="10" x1="-355.958" y1="-239.583" x2="-376.624" y2="-227.749"/>
		
			<line fill="none" stroke="#000000" stroke-width="1.5" stroke-linecap="round" stroke-miterlimit="10" x1="-381.124" y1="-256.167" x2="-362.291" y2="-256.167"/>
		
			<line fill="none" stroke="#000000" stroke-width="1.5" stroke-linecap="round" stroke-miterlimit="10" x1="-381.124" y1="-252.417" x2="-362.291" y2="-252.417"/>
		
			<line fill="none" stroke="#000000" stroke-width="1.5" stroke-linecap="round" stroke-miterlimit="10" x1="-389.957" y1="-248.667" x2="-362.291" y2="-248.667"/>
		
			<circle fill="none" stroke="#000000" stroke-width="1.5" stroke-linecap="round" stroke-miterlimit="10" cx="-387.957" cy="-254.167" r="2"/>
	</g>
</g>
<g id="Layer_11" display="none">
	
		<path display="inline" fill="none" stroke="#000000" stroke-width="1.5" stroke-linecap="round" stroke-linejoin="round" stroke-miterlimit="10" d="
		M-281.477-235.5c0,6.062-5.232,7.5-9.375,7.5c-4.142,0-7.5-3.357-7.5-7.5c0-4.142,3.358-7.5,7.5-7.5c2.125,0,8.078,0.721,6.5,8.5"
		/>
</g>
<g id="Layer_12" display="none">
	<g display="inline">
		<g>
			
				<line fill="none" stroke="#000000" stroke-width="1.5" stroke-linecap="round" stroke-linejoin="round" stroke-miterlimit="10" x1="-139.123" y1="-212.027" x2="-134.192" y2="-230.021"/>
			
				<line fill="none" stroke="#000000" stroke-width="1.5" stroke-linecap="round" stroke-linejoin="round" stroke-miterlimit="10" x1="-134.192" y1="-230.021" x2="-130.351" y2="-212.027"/>
			
				<line fill="none" stroke="#000000" stroke-width="1.5" stroke-linecap="round" stroke-linejoin="round" stroke-miterlimit="10" x1="-127.457" y1="-230.021" x2="-123.616" y2="-212.027"/>
			
				<line fill="none" stroke="#000000" stroke-width="1.5" stroke-linecap="round" stroke-linejoin="round" stroke-miterlimit="10" x1="-134.192" y1="-230.021" x2="-126.77" y2="-230.021"/>
			
				<line fill="none" stroke="#000000" stroke-width="1.5" stroke-linecap="round" stroke-linejoin="round" stroke-miterlimit="10" x1="-133.31" y1="-225.888" x2="-126.615" y2="-225.888"/>
			
				<line fill="none" stroke="#000000" stroke-width="1.5" stroke-linecap="round" stroke-linejoin="round" stroke-miterlimit="10" x1="-132.137" y1="-220.612" x2="-125.448" y2="-220.612"/>
			
				<line fill="none" stroke="#000000" stroke-width="1.5" stroke-linecap="round" stroke-linejoin="round" stroke-miterlimit="10" x1="-131.057" y1="-215.335" x2="-124.321" y2="-215.335"/>
			
				<polyline fill="none" stroke="#000000" stroke-width="1.5" stroke-linecap="round" stroke-linejoin="round" stroke-miterlimit="10" points="
				-137.1,-219.41 -134.659,-217.382 -131.86,-219.099 			"/>
		</g>
		<g>
			
				<line fill="none" stroke="#000000" stroke-width="1.5" stroke-linecap="round" stroke-linejoin="round" stroke-miterlimit="10" x1="-113.289" y1="-212.027" x2="-105.864" y2="-246.417"/>
			
				<line fill="none" stroke="#000000" stroke-width="1.5" stroke-linecap="round" stroke-linejoin="round" stroke-miterlimit="10" x1="-105.864" y1="-246.417" x2="-101.206" y2="-212.027"/>
			
				<line fill="none" stroke="#000000" stroke-width="1.5" stroke-linecap="round" stroke-linejoin="round" stroke-miterlimit="10" x1="-99.129" y1="-246.417" x2="-92.706" y2="-212.027"/>
			
				<path fill="none" stroke="#000000" stroke-width="1.5" stroke-linecap="round" stroke-linejoin="round" stroke-miterlimit="10" d="
				M-99.129-246.417h-6.734c0,0-0.092-5.021,3.376-5.021S-99.129-247.146-99.129-246.417z"/>
			
				<line fill="none" stroke="#000000" stroke-width="1.5" stroke-linecap="round" stroke-linejoin="round" stroke-miterlimit="10" x1="-105.304" y1="-242.283" x2="-98.357" y2="-242.283"/>
			
				<line fill="none" stroke="#000000" stroke-width="1.5" stroke-linecap="round" stroke-linejoin="round" stroke-miterlimit="10" x1="-104.372" y1="-237.139" x2="-97.396" y2="-237.139"/>
			
				<line fill="none" stroke="#000000" stroke-width="1.5" stroke-linecap="round" stroke-linejoin="round" stroke-miterlimit="10" x1="-103.875" y1="-231.994" x2="-96.435" y2="-231.994"/>
			
				<line fill="none" stroke="#000000" stroke-width="1.5" stroke-linecap="round" stroke-linejoin="round" stroke-miterlimit="10" x1="-103.293" y1="-226.851" x2="-95.474" y2="-226.851"/>
			
				<line fill="none" stroke="#000000" stroke-width="1.5" stroke-linecap="round" stroke-linejoin="round" stroke-miterlimit="10" x1="-102.481" y1="-221.707" x2="-94.513" y2="-221.707"/>
			
				<line fill="none" stroke="#000000" stroke-width="1.5" stroke-linecap="round" stroke-linejoin="round" stroke-miterlimit="10" x1="-101.795" y1="-216.562" x2="-93.552" y2="-216.562"/>
			
				<polyline fill="none" stroke="#000000" stroke-width="1.5" stroke-linecap="round" stroke-linejoin="round" stroke-miterlimit="10" points="
				-109.663,-228.821 -106.56,-224.562 -103.293,-227.439 			"/>
		</g>
		<g>
			
				<line fill="none" stroke="#000000" stroke-width="1.5" stroke-linecap="round" stroke-linejoin="round" stroke-miterlimit="10" x1="-140.286" y1="-237.6" x2="-108.614" y2="-260.18"/>
			
				<line fill="none" stroke="#000000" stroke-width="1.5" stroke-linecap="round" stroke-linejoin="round" stroke-miterlimit="10" x1="-105.518" y1="-255.838" x2="-137.19" y2="-233.258"/>
			
				<line fill="none" stroke="#000000" stroke-width="1.5" stroke-linecap="round" stroke-linejoin="round" stroke-miterlimit="10" x1="-138.757" y1="-238.642" x2="-135.821" y2="-234.521"/>
			
				<line fill="none" stroke="#000000" stroke-width="1.5" stroke-linecap="round" stroke-linejoin="round" stroke-miterlimit="10" x1="-134.772" y1="-241.436" x2="-131.836" y2="-237.314"/>
			
				<line fill="none" stroke="#000000" stroke-width="1.5" stroke-linecap="round" stroke-linejoin="round" stroke-miterlimit="10" x1="-130.766" y1="-244.196" x2="-127.83" y2="-240.075"/>
			
				<line fill="none" stroke="#000000" stroke-width="1.5" stroke-linecap="round" stroke-linejoin="round" stroke-miterlimit="10" x1="-122.82" y1="-249.814" x2="-119.883" y2="-245.693"/>
			
				<line fill="none" stroke="#000000" stroke-width="1.5" stroke-linecap="round" stroke-linejoin="round" stroke-miterlimit="10" x1="-126.827" y1="-247.053" x2="-123.89" y2="-242.932"/>
			
				<line fill="none" stroke="#000000" stroke-width="1.5" stroke-linecap="round" stroke-linejoin="round" stroke-miterlimit="10" x1="-118.97" y1="-252.796" x2="-116.035" y2="-248.675"/>
			
				<line fill="none" stroke="#000000" stroke-width="1.5" stroke-linecap="round" stroke-linejoin="round" stroke-miterlimit="10" x1="-114.874" y1="-255.43" x2="-111.937" y2="-251.31"/>
			
				<line fill="none" stroke="#000000" stroke-width="1.5" stroke-linecap="round" stroke-linejoin="round" stroke-miterlimit="10" x1="-110.89" y1="-258.224" x2="-107.953" y2="-254.104"/>
		</g>
	</g>
</g>
<g id="Layer_9" display="none">
	<g display="inline">
		<g>
			
				<path fill="none" stroke="#000000" stroke-width="1.5" stroke-linecap="round" stroke-linejoin="round" stroke-miterlimit="10" d="
				M-14.237-235.254l-3-12.39l-12.084,0l-0.77-0.701l-3.454-0.643l-4.909-1.752v-5.669l4.909-1.462l3.454-0.759l0.77-0.702h17.508
				c0.387,0,0.701,0.314,0.701,0.702l1.688,1.056v7.698l-1.688,1.898l3,12.9l0.844,2.682v2.661l-0.844,0.035
				c0,0.388-0.314,0.702-0.701,0.702h-12.931c-0.387,0-0.701-0.314-0.701-0.702v-1.23l0.844-0.562v-3.058
				c0-0.389,0.313-0.701,0.7-0.701H-14.237"/>
			
				<polygon fill="none" stroke="#000000" stroke-width="1.5" stroke-linecap="round" stroke-linejoin="round" stroke-miterlimit="10" points="
				-40.04,-255.645 -41.187,-255.516 -43.479,-254.834 -43.479,-252.186 -41.187,-251.368 -40.04,-251.258 			"/>
			
				<line fill="none" stroke="#000000" stroke-width="1.5" stroke-linecap="round" stroke-linejoin="round" stroke-miterlimit="10" x1="-43.479" y1="-253.452" x2="-47.607" y2="-253.452"/>
			
				<line fill="none" stroke="#000000" stroke-width="1.5" stroke-linecap="round" stroke-linejoin="round" stroke-miterlimit="10" x1="-33.544" y1="-256.078" x2="-33.544" y2="-250.732"/>
			
				<path fill="none" stroke="#000000" stroke-width="1.5" stroke-linecap="round" stroke-linejoin="round" stroke-miterlimit="10" d="
				M-29.16-250.736c-0.15,0-0.273-0.123-0.273-0.274v-4.79c0-0.152,0.123-0.274,0.273-0.274h7.168c0.149,0,0.272,0.122,0.272,0.274"
				/>
			
				<line fill="none" stroke="#000000" stroke-width="1.5" stroke-linecap="round" stroke-linejoin="round" stroke-miterlimit="10" x1="-14.813" y1="-256.416" x2="-11.86" y2="-253.042"/>
			
				<line fill="none" stroke="#000000" stroke-width="1.5" stroke-linecap="round" stroke-linejoin="round" stroke-miterlimit="10" x1="-16.395" y1="-254.834" x2="-13.442" y2="-251.46"/>
			
				<line fill="none" stroke="#000000" stroke-width="1.5" stroke-linecap="round" stroke-linejoin="round" stroke-miterlimit="10" x1="-17.976" y1="-253.252" x2="-15.024" y2="-249.878"/>
			
				<path fill="none" stroke="#000000" stroke-width="1.5" stroke-linecap="round" stroke-linejoin="round" stroke-miterlimit="10" d="
				M-20.26-247.556c1.085,1.086,1.086,2.847,0,3.934"/>
			
				<circle fill="none" stroke="#000000" stroke-width="1.5" stroke-linecap="round" stroke-linejoin="round" stroke-miterlimit="10" cx="-13.969" cy="-245.555" r="0.879"/>
			
				<line fill="none" stroke="#000000" stroke-width="1.5" stroke-linecap="round" stroke-linejoin="round" stroke-miterlimit="10" x1="-12.012" y1="-235.254" x2="-10.336" y2="-235.254"/>
		</g>
		<g>
			
				<circle fill="none" stroke="#000000" stroke-width="1.5" stroke-linecap="round" stroke-linejoin="round" stroke-miterlimit="10" cx="-47.475" cy="-220.104" r="5.935"/>
			
				<circle fill="none" stroke="#000000" stroke-width="1.5" stroke-linecap="round" stroke-linejoin="round" stroke-miterlimit="10" cx="-47.475" cy="-220.104" r="1.218"/>
			
				<path fill="none" stroke="#000000" stroke-width="1.5" stroke-linecap="round" stroke-linejoin="round" stroke-miterlimit="10" d="
				M-47.475-228.855c4.833,0,8.751,3.917,8.751,8.751s-3.917,8.751-8.751,8.751"/>
			
				<path fill="none" stroke="#000000" stroke-width="1.5" stroke-linecap="round" stroke-linejoin="round" stroke-miterlimit="10" d="
				M-44.378-228.474v-5.441c0-0.37,0-0.37-0.669-0.669c-0.429-0.192-1.757-0.67-1.757-0.67c-0.37,0-0.67,0.3-0.67,0.67v5.729"/>
			
				<path fill="none" stroke="#000000" stroke-width="1.5" stroke-linecap="round" stroke-linejoin="round" stroke-miterlimit="10" d="
				M-9.241-223.987l-27.726-1.339c-0.127,0-0.237,0.063-0.31,0.157c0.79,1.517,1.243,3.236,1.243,5.064s-0.453,3.548-1.243,5.064
				c0.073,0.094,0.182,0.157,0.31,0.157l27.726-2.009c0.221,0,0.4-0.179,0.4-0.399l2.678-0.638v-2.176l-2.678-0.753v-2.73
				C-8.84-223.808-9.02-223.987-9.241-223.987z"/>
			
				<line fill="none" stroke="#000000" stroke-width="1.5" stroke-linecap="round" stroke-linejoin="round" stroke-miterlimit="10" x1="-11.883" y1="-223.659" x2="-13.033" y2="-220.857"/>
			
				<line fill="none" stroke="#000000" stroke-width="1.5" stroke-linecap="round" stroke-linejoin="round" stroke-miterlimit="10" x1="-14.381" y1="-224.122" x2="-15.72" y2="-220.857"/>
			
				<line fill="none" stroke="#000000" stroke-width="1.5" stroke-linecap="round" stroke-linejoin="round" stroke-miterlimit="10" x1="-17.069" y1="-224.122" x2="-18.408" y2="-220.857"/>
			
				<path fill="none" stroke="#000000" stroke-width="1.5" stroke-linecap="round" stroke-linejoin="round" stroke-miterlimit="10" d="
				M-29.389-219.965c0,0.37-0.299,0.67-0.669,0.67h-2.511c-0.37,0-0.669-0.3-0.669-0.67v-0.688c0-0.369,0.299-0.669,0.669-0.669
				h2.511c0.37,0,0.669,0.3,0.669,0.669V-219.965z"/>
			
				<circle fill="none" stroke="#000000" stroke-width="1.5" stroke-linecap="round" stroke-linejoin="round" stroke-miterlimit="10" cx="-24.375" cy="-220.309" r="0.949"/>
			
				<path fill="none" stroke="#000000" stroke-width="1.5" stroke-linecap="round" stroke-linejoin="round" stroke-miterlimit="10" d="
				M-30.36-225.42c0.096-0.208,0.004-0.454-0.203-0.549l-2.765-1.267c-0.208-0.096-0.454-0.004-0.549,0.205l-0.529,1.154
				c-0.096,0.208-0.004,0.454,0.204,0.55"/>
		</g>
	</g>
</g>
<g id="Layer_8" display="none">
	<g display="inline">
		
			<circle fill="none" stroke="#000000" stroke-width="1.5" stroke-linecap="round" stroke-miterlimit="10" cx="52.605" cy="-219.439" r="4.936"/>
		<path fill="none" stroke="#000000" stroke-width="1.5" stroke-linecap="round" stroke-miterlimit="10" d="M70.399-231.648H34.811
			c-0.574,0-1.039,0.465-1.039,1.039v8.701c0,0.574,0.465,1.039,1.039,1.039h13.093c0.616-2.023,2.475-3.506,4.701-3.506
			c2.226,0,4.084,1.482,4.7,3.506h13.094c0.574,0,1.039-0.465,1.039-1.039v-8.701C71.438-231.184,70.973-231.648,70.399-231.648z"/>
		
			<polyline fill="none" stroke="#000000" stroke-width="1.5" stroke-linecap="round" stroke-linejoin="round" stroke-miterlimit="10" points="
			70.399,-220.869 80.205,-220.869 78.776,-222.297 		"/>
		
			<line fill="none" stroke="#000000" stroke-width="1.5" stroke-linecap="round" stroke-miterlimit="10" x1="75.301" y1="-220.869" x2="75.301" y2="-218.531"/>
		
			<polyline fill="none" stroke="#000000" stroke-width="1.5" stroke-linecap="round" stroke-linejoin="round" stroke-miterlimit="10" points="
			36.954,-231.32 38.708,-228.385 40.461,-231.32 		"/>
		
			<polyline fill="none" stroke="#000000" stroke-width="1.5" stroke-linecap="round" stroke-linejoin="round" stroke-miterlimit="10" points="
			43.877,-231.32 45.631,-228.385 47.384,-231.32 		"/>
		
			<polyline fill="none" stroke="#000000" stroke-width="1.5" stroke-linecap="round" stroke-linejoin="round" stroke-miterlimit="10" points="
			50.801,-231.32 52.555,-228.385 54.308,-231.32 		"/>
		
			<polyline fill="none" stroke="#000000" stroke-width="1.5" stroke-linecap="round" stroke-linejoin="round" stroke-miterlimit="10" points="
			57.725,-231.32 59.478,-228.385 61.232,-231.32 		"/>
		
			<polyline fill="none" stroke="#000000" stroke-width="1.5" stroke-linecap="round" stroke-linejoin="round" stroke-miterlimit="10" points="
			64.648,-231.32 66.402,-228.385 68.155,-231.32 		"/>
		
			<path fill="none" stroke="#000000" stroke-width="1.5" stroke-linecap="round" stroke-linejoin="round" stroke-miterlimit="10" d="
			M37.604-221.908c0,0.574-0.465,1.039-1.039,1.039h-1.753c-0.574,0-1.039-0.465-1.039-1.039v-2.467
			c0-0.574,0.465-1.039,1.039-1.039h1.753c0.574,0,1.039,0.465,1.039,1.039V-221.908z"/>
		
			<circle fill="none" stroke="#000000" stroke-width="1.5" stroke-linecap="round" stroke-miterlimit="10" cx="52.605" cy="-219.439" r="1.839"/>
		<g>
			
				<circle fill="none" stroke="#000000" stroke-width="1.5" stroke-linecap="round" stroke-miterlimit="10" cx="45.561" cy="-245.587" r="3.382"/>
			
				<circle fill="none" stroke="#000000" stroke-width="1.5" stroke-linecap="round" stroke-miterlimit="10" cx="54.678" cy="-245.587" r="3.381"/>
			
				<path fill="none" stroke="#000000" stroke-width="1.5" stroke-linecap="round" stroke-linejoin="round" stroke-miterlimit="10" d="
				M70.139-246.672h-0.551h-8.433c0,0,0,0-2.397-3.517c-0.182-0.267-0.437-0.64-1.121-0.64c-2.626,0-12.092,0-15.683,0
				c-0.248,0-0.735,0.25-0.881,0.45c-2.716,3.706-2.716,3.706-2.716,3.706h-4.064c-0.574,0-0.651-0.233-0.651-0.52v-7.966
				c0-0.287,0.077-0.52,0.651-0.52h35.295c0.575,0,0.551,0.232,0.551,0.52V-246.672z"/>
			
				<circle fill="none" stroke="#000000" stroke-width="1.5" stroke-linecap="round" stroke-miterlimit="10" cx="45.561" cy="-245.587" r="0.993"/>
			
				<circle fill="none" stroke="#000000" stroke-width="1.5" stroke-linecap="round" stroke-miterlimit="10" cx="54.679" cy="-245.587" r="0.993"/>
			
				<line fill="none" stroke="#000000" stroke-width="1.5" stroke-linecap="round" stroke-linejoin="round" stroke-miterlimit="10" x1="35.688" y1="-255.677" x2="35.688" y2="-257.495"/>
			
				<line fill="none" stroke="#000000" stroke-width="1.5" stroke-linecap="round" stroke-linejoin="round" stroke-miterlimit="10" x1="51.921" y1="-255.677" x2="51.921" y2="-257.495"/>
			
				<line fill="none" stroke="#000000" stroke-width="1.5" stroke-linecap="round" stroke-linejoin="round" stroke-miterlimit="10" x1="68.155" y1="-255.677" x2="68.155" y2="-257.495"/>
			
				<line fill="none" stroke="#000000" stroke-width="1.5" stroke-linecap="round" stroke-linejoin="round" stroke-miterlimit="10" x1="37.604" y1="-246.672" x2="37.604" y2="-243.642"/>
			
				<path fill="none" stroke="#000000" stroke-width="1.5" stroke-linecap="round" stroke-linejoin="round" stroke-miterlimit="10" d="
				M73.191-246.672h-1.039h-0.974h-1.039v-2.511c0-0.574,0.464-1.039,1.039-1.039h0.974c0.574,0,1.039,0.465,1.039,1.039V-246.672z"
				/>
			
				<line fill="none" stroke="#000000" stroke-width="1.5" stroke-linecap="round" stroke-linejoin="round" stroke-miterlimit="10" x1="73.191" y1="-246.672" x2="78.993" y2="-246.672"/>
			
				<line fill="none" stroke="#000000" stroke-width="1.5" stroke-linecap="round" stroke-linejoin="round" stroke-miterlimit="10" x1="65.723" y1="-253.469" x2="67.93" y2="-251.261"/>
			
				<line fill="none" stroke="#000000" stroke-width="1.5" stroke-linecap="round" stroke-linejoin="round" stroke-miterlimit="10" x1="64.098" y1="-251.844" x2="66.305" y2="-249.637"/>
			
				<circle fill="none" stroke="#000000" stroke-width="1.5" stroke-linecap="round" stroke-linejoin="round" stroke-miterlimit="10" cx="37.214" cy="-251.65" r="0.845"/>
		</g>
	</g>
</g>
<g id="Layer_7" display="none">
	<g display="inline">
		<g>
			
				<circle fill="none" stroke="#000000" stroke-width="1.5" stroke-linecap="round" stroke-miterlimit="10" cx="644.942" cy="-216.966" r="2.4"/>
			<path fill="none" stroke="#000000" stroke-width="1.5" stroke-linecap="round" stroke-miterlimit="10" d="M664.184-214.049
				c0.254,0.392-0.591,1.318-1.318,1.318c-0.729,0-1.572-0.927-1.319-1.318C661.904-214.602,663.824-214.602,664.184-214.049z"/>
			
				<circle fill="none" stroke="#000000" stroke-width="1.5" stroke-linecap="round" stroke-miterlimit="10" cx="644.942" cy="-216.966" r="4.8"/>
			<path fill="none" stroke="#000000" stroke-width="1.5" stroke-linecap="round" stroke-miterlimit="10" d="M643.256-230.051
				c-0.529-0.004-0.958,0.43-0.958,0.959v5.624c0.896-0.429,1.896-0.677,2.955-0.677c3.792,0,6.866,3.075,6.866,6.868
				c0,0.904-0.179,1.765-0.496,2.556h15.106c0.53,0,0.958-0.429,0.958-0.959c0,0,0.195-4.219-2.555-7.825
				C660.707-229.306,649.369-229.997,643.256-230.051z"/>
			<path fill="none" stroke="#000000" stroke-width="1.5" stroke-linecap="round" stroke-miterlimit="10" d="M651.162-231.015
				c0.029-0.528-0.375-0.98-0.902-1.01l-3.584-0.201c-0.528-0.029-0.98,0.375-1.01,0.903l-0.013,0.215
				c-0.029,0.528,0.375,0.98,0.903,1.01l3.584,0.201c0.527,0.028,0.98-0.376,1.01-0.903L651.162-231.015z"/>
			<path fill="none" stroke="#000000" stroke-width="1.5" stroke-linecap="round" stroke-miterlimit="10" d="M657.613-228.194
				c0,0-12.072-10.414-9.205-18.662c3.268-9.403,13.253-5.612,14.955-2.256"/>
			
				<polyline fill="none" stroke="#000000" stroke-width="1.5" stroke-linecap="round" stroke-linejoin="round" stroke-miterlimit="10" points="
				663.363,-249.112 673.516,-215.551 679.533,-215.551 			"/>
			
				<path fill="none" stroke="#000000" stroke-width="1.5" stroke-linecap="round" stroke-linejoin="round" stroke-miterlimit="10" d="
				M663.966-248.948c0.095,0.287-0.061,0.597-0.349,0.692l-0.302,0.1c-0.287,0.096-0.597-0.061-0.692-0.347l-0.1-0.304
				c-0.095-0.287,0.061-0.597,0.348-0.692l0.303-0.1c0.287-0.095,0.597,0.061,0.691,0.348L663.966-248.948z"/>
			
				<line fill="none" stroke="#000000" stroke-width="1.5" stroke-linecap="round" stroke-linejoin="round" stroke-miterlimit="10" x1="679.533" y1="-215.551" x2="672.012" y2="-214.565"/>
			
				<line fill="none" stroke="#000000" stroke-width="1.5" stroke-linecap="round" stroke-linejoin="round" stroke-miterlimit="10" x1="672.012" y1="-214.565" x2="673.516" y2="-215.551"/>
			
				<line fill="none" stroke="#000000" stroke-width="1.5" stroke-linecap="round" stroke-linejoin="round" stroke-miterlimit="10" x1="656.793" y1="-221.286" x2="656.793" y2="-218.09"/>
			
				<line fill="none" stroke="#000000" stroke-width="1.5" stroke-linecap="round" stroke-linejoin="round" stroke-miterlimit="10" x1="659.05" y1="-221.286" x2="659.05" y2="-218.09"/>
			
				<line fill="none" stroke="#000000" stroke-width="1.5" stroke-linecap="round" stroke-linejoin="round" stroke-miterlimit="10" x1="661.306" y1="-221.286" x2="661.306" y2="-218.09"/>
		</g>
		<g>
			
				<line fill="none" stroke="#000000" stroke-width="1.5" stroke-linecap="round" stroke-linejoin="round" stroke-miterlimit="10" x1="687.636" y1="-216.079" x2="679.446" y2="-255.306"/>
			<g>
				
					<path fill="none" stroke="#000000" stroke-width="1.5" stroke-linecap="round" stroke-linejoin="round" stroke-miterlimit="10" d="
					M686.863-258.334c-0.133-0.639-0.759-1.05-1.4-0.916l-13.128,2.741c-0.641,0.134-1.05,0.761-0.917,1.4l0.08,0.386
					c0.135,0.64,0.761,1.05,1.4,0.916l13.129-2.741c0.642-0.134,1.05-0.76,0.917-1.4L686.863-258.334z"/>
				
					<line fill="none" stroke="#000000" stroke-width="1.5" stroke-linecap="round" stroke-linejoin="round" stroke-miterlimit="10" x1="671.638" y1="-254.059" x2="670.945" y2="-257.372"/>
				
					<line fill="none" stroke="#000000" stroke-width="1.5" stroke-linecap="round" stroke-linejoin="round" stroke-miterlimit="10" x1="672.742" y1="-254.29" x2="672.002" y2="-257.833"/>
				
					<line fill="none" stroke="#000000" stroke-width="1.5" stroke-linecap="round" stroke-linejoin="round" stroke-miterlimit="10" x1="673.847" y1="-254.521" x2="673.154" y2="-257.833"/>
				
					<line fill="none" stroke="#000000" stroke-width="1.5" stroke-linecap="round" stroke-linejoin="round" stroke-miterlimit="10" x1="674.95" y1="-254.751" x2="674.211" y2="-258.294"/>
				
					<line fill="none" stroke="#000000" stroke-width="1.5" stroke-linecap="round" stroke-linejoin="round" stroke-miterlimit="10" x1="676.055" y1="-254.981" x2="675.363" y2="-258.294"/>
				
					<line fill="none" stroke="#000000" stroke-width="1.5" stroke-linecap="round" stroke-linejoin="round" stroke-miterlimit="10" x1="677.159" y1="-255.212" x2="676.42" y2="-258.755"/>
				
					<line fill="none" stroke="#000000" stroke-width="1.5" stroke-linecap="round" stroke-linejoin="round" stroke-miterlimit="10" x1="678.264" y1="-255.442" x2="677.572" y2="-258.755"/>
				
					<line fill="none" stroke="#000000" stroke-width="1.5" stroke-linecap="round" stroke-linejoin="round" stroke-miterlimit="10" x1="679.368" y1="-255.673" x2="678.628" y2="-259.216"/>
				
					<line fill="none" stroke="#000000" stroke-width="1.5" stroke-linecap="round" stroke-linejoin="round" stroke-miterlimit="10" x1="680.472" y1="-255.904" x2="679.78" y2="-259.216"/>
				
					<line fill="none" stroke="#000000" stroke-width="1.5" stroke-linecap="round" stroke-linejoin="round" stroke-miterlimit="10" x1="681.576" y1="-256.134" x2="680.836" y2="-259.677"/>
				
					<line fill="none" stroke="#000000" stroke-width="1.5" stroke-linecap="round" stroke-linejoin="round" stroke-miterlimit="10" x1="682.681" y1="-256.365" x2="681.988" y2="-259.677"/>
				
					<line fill="none" stroke="#000000" stroke-width="1.5" stroke-linecap="round" stroke-linejoin="round" stroke-miterlimit="10" x1="683.784" y1="-256.596" x2="683.045" y2="-260.139"/>
				
					<line fill="none" stroke="#000000" stroke-width="1.5" stroke-linecap="round" stroke-linejoin="round" stroke-miterlimit="10" x1="684.89" y1="-256.826" x2="684.197" y2="-260.139"/>
				
					<line fill="none" stroke="#000000" stroke-width="1.5" stroke-linecap="round" stroke-linejoin="round" stroke-miterlimit="10" x1="685.993" y1="-257.057" x2="685.254" y2="-260.6"/>
				
					<line fill="none" stroke="#000000" stroke-width="1.5" stroke-linecap="round" stroke-linejoin="round" stroke-miterlimit="10" x1="687.099" y1="-257.287" x2="686.406" y2="-260.6"/>
			</g>
		</g>
	</g>
</g>
<g id="Layer_6" display="none">
	<g display="inline">
		<g>
			
				<circle fill="none" stroke="#000000" stroke-width="1.5" stroke-linecap="round" stroke-miterlimit="10" cx="595.327" cy="-215.417" r="3.664"/>
			
				<line fill="none" stroke="#000000" stroke-width="1.5" stroke-linecap="round" stroke-miterlimit="10" x1="595.327" y1="-215.417" x2="591.522" y2="-220.084"/>
			<path fill="none" stroke="#000000" stroke-width="1.5" stroke-linecap="round" stroke-miterlimit="10" d="M591.491-220.14
				c-0.041,0.323-0.334,0.553-0.656,0.514l-15.24-1.913c-0.322-0.039-0.552-0.333-0.511-0.655l-6.173-12.698
				c0.041-0.322,0.336-0.551,0.656-0.509l27.812,3.485c0.322,0.041,0.551,0.333,0.51,0.655L591.491-220.14z"/>
			<path fill="none" stroke="#000000" stroke-width="1.5" stroke-linecap="round" stroke-miterlimit="10" d="M581.235-220.83
				c0,0-2.421,17.866-3.4,0.186"/>
			
				<polyline fill="none" stroke="#000000" stroke-width="1.5" stroke-linecap="round" stroke-linejoin="round" stroke-miterlimit="10" points="
				575.595,-221.539 570.06,-222.355 561.737,-232.415 555.368,-233.233 			"/>
			
				<polyline fill="none" stroke="#000000" stroke-width="1.5" stroke-linecap="round" stroke-linejoin="round" stroke-miterlimit="10" points="
				588.87,-230.237 593.425,-229.544 591.034,-225.849 			"/>
		</g>
		<g>
			
				<path fill="none" stroke="#000000" stroke-width="1.5" stroke-linecap="round" stroke-linejoin="round" stroke-miterlimit="10" d="
				M596.688-238.596c0,0.436-0.354,0.788-0.789,0.788c0,0-2.902-0.377-3.889-0.377c-0.984,0-3.889,0.377-3.889,0.377
				c-0.436,0-0.789-0.353-0.789-0.788l-1.574-11.914c0-0.435,0.352-0.788,0.787-0.788h10.93c0.436,0,0.787,0.353,0.787,0.788
				L596.688-238.596z"/>
			
				<line fill="none" stroke="#000000" stroke-width="1.5" stroke-linecap="round" stroke-linejoin="round" stroke-miterlimit="10" x1="595.017" y1="-248.546" x2="594.101" y2="-240.654"/>
			
				<path fill="none" stroke="#000000" stroke-width="1.5" stroke-linecap="round" stroke-linejoin="round" stroke-miterlimit="10" d="
				M592.011-258.897c-3.021,0-5.646,3.399-5.646,7.599h11.293C597.657-255.498,595.032-258.897,592.011-258.897z"/>
		</g>
		<g>
			
				<path fill="none" stroke="#000000" stroke-width="1.5" stroke-linecap="round" stroke-linejoin="round" stroke-miterlimit="10" d="
				M575.096-250.432c0.396,0.305,1.658,6.744,1.658,6.744s-6.548,0.431-6.944,0.125l-4.959-3.816
				c-0.396-0.305-0.398-0.967-0.004-1.478l2.646-1.957l1.213-3.061c0.395-0.511,1.033-0.679,1.43-0.374L575.096-250.432z"/>
			
				<line fill="none" stroke="#000000" stroke-width="1.5" stroke-linecap="round" stroke-linejoin="round" stroke-miterlimit="10" x1="569.018" y1="-249.639" x2="574.006" y2="-245.802"/>
			
				<path fill="none" stroke="#000000" stroke-width="1.5" stroke-linecap="round" stroke-linejoin="round" stroke-miterlimit="10" d="
				M567.558-252.379l-4.747-3.654l-1.323-1.74l-0.924,0.011c-0.396-0.304-0.963-0.23-1.268,0.166L558.835-257
				c-0.305,0.397-0.23,0.964,0.166,1.269l0.225,0.895l2.021,0.834l4.747,3.654"/>
			
				<line fill="none" stroke="#000000" stroke-width="1.5" stroke-linecap="round" stroke-linejoin="round" stroke-miterlimit="10" x1="563.757" y1="-252.072" x2="565.319" y2="-254.102"/>
		</g>
	</g>
</g>
<g id="Layer_5" display="none">
	<g display="inline">
		<g>
			
				<path fill="none" stroke="#000000" stroke-width="1.5" stroke-linecap="round" stroke-linejoin="round" stroke-miterlimit="10" d="
				M474.659-247.333c0,0.397-0.322,0.719-0.721,0.719h-1.262c-0.397,0-0.721-0.322-0.721-0.719v-2.944
				c0-0.398,0.323-0.722,0.721-0.722h1.262c0.398,0,0.721,0.323,0.721,0.722V-247.333z"/>
			
				<path fill="none" stroke="#000000" stroke-width="1.5" stroke-linecap="round" stroke-linejoin="round" stroke-miterlimit="10" d="
				M493.028-247.333c0,0.397-0.322,0.719-0.721,0.719h-1.262c-0.398,0-0.721-0.322-0.721-0.719v-2.944
				c0-0.398,0.322-0.722,0.721-0.722h1.262c0.398,0,0.721,0.323,0.721,0.722V-247.333z"/>
			
				<path fill="none" stroke="#000000" stroke-width="1.5" stroke-linecap="round" stroke-linejoin="round" stroke-miterlimit="10" d="
				M497.362-253.106h-3.447v-1.724h3.629c0.398,0,0.723-0.322,0.723-0.719l-9.643-4.701c-0.398,0-0.719,0.323-0.719,0.721h-10.633
				c0-0.398-0.322-0.721-0.721-0.721l-9.642,4.701c0,0.397,0.323,0.719,0.721,0.719h3.438v1.724h-3.255
				c-0.394,0-0.711,0.319-0.711,0.71v2.192c0,0.394,0.317,0.713,0.711,0.713h0.061v7.651c0,0.374,0.304,0.676,0.678,0.676h28.074
				c0.371,0,0.674-0.302,0.674-0.676v-7.651h0.062c0.396,0,0.713-0.319,0.713-0.713v-2.192
				C498.075-252.787,497.759-253.106,497.362-253.106z M474.659-254.83h1.893c0.398,0,0.721-0.322,0.721-0.719v-0.301h10.633v0.301
				c0,0.397,0.32,0.719,0.719,0.719h1.701v1.724h-15.666V-254.83z"/>
			
				<line fill="none" stroke="#000000" stroke-width="1.5" stroke-linecap="round" stroke-linejoin="round" stroke-miterlimit="10" x1="476.87" y1="-248.807" x2="488.114" y2="-248.807"/>
			
				<line fill="none" stroke="#000000" stroke-width="1.5" stroke-linecap="round" stroke-linejoin="round" stroke-miterlimit="10" x1="478.323" y1="-259.529" x2="480.801" y2="-255.895"/>
			
				<line fill="none" stroke="#000000" stroke-width="1.5" stroke-linecap="round" stroke-linejoin="round" stroke-miterlimit="10" x1="481.499" y1="-259.529" x2="483.978" y2="-255.895"/>
			
				<line fill="none" stroke="#000000" stroke-width="1.5" stroke-linecap="round" stroke-linejoin="round" stroke-miterlimit="10" x1="484.675" y1="-259.529" x2="487.155" y2="-255.895"/>
		</g>
		<g>
			
				<path fill="none" stroke="#000000" stroke-width="1.5" stroke-linecap="round" stroke-linejoin="round" stroke-miterlimit="10" d="
				M513.922-237.432c-0.352,1.809-1.498,3.253-3.007,4.059c-1.148,0.614,0.646,8.069-5.127,6.944
				c-5.772-1.123-1.328-7.355-2.165-8.364c-1.086-1.311-1.597-3.086-1.246-4.888c0.621-3.188,3.709-5.27,6.897-4.648
				C512.462-243.708,514.543-240.62,513.922-237.432z"/>
			
				<line fill="none" stroke="#000000" stroke-width="1.5" stroke-linecap="round" stroke-linejoin="round" stroke-miterlimit="10" x1="503.383" y1="-232.804" x2="510.611" y2="-232.88"/>
			
				<line fill="none" stroke="#000000" stroke-width="1.5" stroke-linecap="round" stroke-linejoin="round" stroke-miterlimit="10" x1="502.942" y1="-230.544" x2="510.171" y2="-230.618"/>
			
				<line fill="none" stroke="#000000" stroke-width="1.5" stroke-linecap="round" stroke-linejoin="round" stroke-miterlimit="10" x1="503.088" y1="-228.169" x2="509.73" y2="-228.358"/>
			
				<path fill="none" stroke="#000000" stroke-width="1.5" stroke-linecap="round" stroke-linejoin="round" stroke-miterlimit="10" d="
				M510.828-238.499c0,0-0.777-1.414-2.354-1.722c-1.894-0.368-2.829,0.712-2.829,0.712l1.352,6.667L510.828-238.499z"/>
			
				<line fill="none" stroke="#000000" stroke-width="1.5" stroke-linecap="round" stroke-linejoin="round" stroke-miterlimit="10" x1="504.775" y1="-225.961" x2="506.475" y2="-225.63"/>
		</g>
		<g>
			<g>
				
					<circle fill="none" stroke="#000000" stroke-width="1.5" stroke-linecap="round" stroke-linejoin="round" stroke-miterlimit="10" cx="494.672" cy="-215.066" r="2.782"/>
				
					<circle fill="none" stroke="#000000" stroke-width="1.5" stroke-linecap="round" stroke-linejoin="round" stroke-miterlimit="10" cx="476.708" cy="-215.066" r="2.783"/>
				
					<path fill="none" stroke="#000000" stroke-width="1.5" stroke-linecap="round" stroke-linejoin="round" stroke-miterlimit="10" d="
					M500.956-216.814c0,0,0.299-3.181-2.385-3.181s-28.107,0-28.107,0v-13.415c0,0,0.361-2.492-2.492-2.492"/>
				
					<path fill="none" stroke="#000000" stroke-width="1.5" stroke-linecap="round" stroke-linejoin="round" stroke-miterlimit="10" d="
					M473.926-219.995c-2.558,0.804-3.25,3.427-3.25,4.555"/>
			</g>
			
				<path fill="none" stroke="#000000" stroke-width="1.5" stroke-linecap="round" stroke-linejoin="round" stroke-miterlimit="10" d="
				M480.248-223.5c0,0.491-0.397,0.89-0.89,0.89h-5.299c-0.492,0-0.891-0.398-0.891-0.89v-5.716c0-0.49,0.398-0.89,0.891-0.89h5.299
				c0.492,0,0.89,0.399,0.89,0.89V-223.5z"/>
			
				<path fill="none" stroke="#000000" stroke-width="1.5" stroke-linecap="round" stroke-linejoin="round" stroke-miterlimit="10" d="
				M490.649-223.5c0,0.491-0.398,0.89-0.891,0.89h-5.299c-0.492,0-0.89-0.398-0.89-0.89v-5.716c0-0.49,0.397-0.89,0.89-0.89h5.299
				c0.492,0,0.891,0.399,0.891,0.89V-223.5z"/>
			
				<path fill="none" stroke="#000000" stroke-width="1.5" stroke-linecap="round" stroke-linejoin="round" stroke-miterlimit="10" d="
				M497.287-223.041c0,0.238-0.192,0.431-0.43,0.431h-2.562c-0.237,0-0.431-0.192-0.431-0.431v-2.764c0-0.236,0.193-0.43,0.431-0.43
				h2.562c0.237,0,0.43,0.193,0.43,0.43V-223.041z"/>
		</g>
	</g>
</g>
<g id="Layer_4" display="none">
	<g display="inline">
		<path fill="none" stroke="#000000" stroke-width="1.5" stroke-linecap="round" stroke-miterlimit="10" d="M334.522-253.055
			c4.472,4.471,7.237,10.649,7.237,17.472c0,13.647-11.062,24.708-24.708,24.708c-13.646,0-24.709-11.062-24.709-24.708
			c0-13.646,11.062-24.708,24.709-24.708"/>
		<path fill="none" stroke="#000000" stroke-width="1.5" stroke-linecap="round" stroke-miterlimit="10" d="M305.104-243.656
			c0,5.56,1.282,20.75,6.842,20.75c4.408,0,3.425-13.875,6.017-13.875c2.033,0,1.267,13.875,5.233,13.875
			c5.526,0,7.625-15.223,7.625-20.75"/>
		<path fill="none" stroke="#000000" stroke-width="1.5" stroke-linecap="round" stroke-miterlimit="10" d="M303.479-245.11
			c0,0,0.444,0.628,1.576,0.845c1.068,0.205,1.424-0.414,1.424-0.414"/>
		<path fill="none" stroke="#000000" stroke-width="1.5" stroke-linecap="round" stroke-miterlimit="10" d="M329.321-244.667
			c0,0,0.445,0.628,1.576,0.845c1.068,0.205,1.424-0.414,1.424-0.414"/>
	</g>
</g>
<g id="Layer_3" display="none">
	<g display="inline">
		<path fill="none" stroke="#000000" stroke-width="1.5" stroke-linecap="round" stroke-miterlimit="10" d="M247.813-253.055
			c4.472,4.471,7.237,10.649,7.237,17.472c0,13.647-11.062,24.708-24.708,24.708c-13.646,0-24.709-11.062-24.709-24.708
			c0-13.646,11.062-24.708,24.709-24.708"/>
		<g>
			<g>
				<path fill="none" stroke="#000000" stroke-width="1.5" stroke-linecap="round" stroke-miterlimit="10" d="M224.782-247.019
					c1.331,1.236,1.907,7.523,1.965,9.339c0.13,4.073-0.834,10.04-0.834,14.116"/>
				<path fill="none" stroke="#000000" stroke-width="1.5" stroke-linecap="round" stroke-miterlimit="10" d="M221.908-247.232
					c7.679,0,18.167,1,18.167,12.91c0,11.258-11.95,9.996-17.167,11.434"/>
			</g>
			<path fill="none" stroke="#000000" stroke-width="1.5" stroke-linecap="round" stroke-miterlimit="10" d="M222.014-224.617
				c0.268,0.875,0.281,2.391,0,3.166"/>
			<path fill="none" stroke="#000000" stroke-width="1.5" stroke-linecap="round" stroke-miterlimit="10" d="M221.465-248.603
				c0.268,0.875,0.281,2.392,0,3.167"/>
		</g>
	</g>
</g>
<g id="Layer_2" display="none">
	
		<path display="inline" fill="none" stroke="#000000" stroke-width="1.5" stroke-linecap="round" stroke-linejoin="round" stroke-miterlimit="10" d="
		M130.456-228.694c0,0-5.087-5.087-7.049-7.049c-0.842-0.842-0.76-1.88-0.641-2.563c0.146-0.847,0.764-1.262,1.189-1.466
		c10.445-5.014,30.008-15.475,39.1-19.964c0.471-0.232,0.869-0.368,1.242,0.004c0.519,0.521,0.208,0.719-0.137,1.896
		c-2.685,9.162-11.893,34.382-14.505,43.378c-0.229,0.785-0.558,1.8-1.529,2.054c-0.796,0.206-1.472-0.089-1.894-0.511
		c-1.28-1.281-3.773-3.772-5.196-5.196c-1.14-1.14-1.732-2.146-2.898-2.147c-1.021-0.002-1.623,0.714-1.994,1.1
		c-1.191,1.241-4.865,4.867-4.865,4.867l16.982-29.637L130.456-228.694z"/>
</g>
<g id="GUIDES" display="none">
</g>
<g id="Layer_38" display="none">
	<g display="inline">
		
			<path fill="none" stroke="#000000" stroke-width="1.5" stroke-linecap="round" stroke-linejoin="round" stroke-miterlimit="10" d="
			M-198.747,5.415l-2.656,0.2V3.352c0-0.331,0.269-0.6,0.6-0.6h1.456c0.332,0,0.6,0.269,0.6,0.6V5.415z"/>
		
			<path fill="none" stroke="#000000" stroke-width="1.5" stroke-linecap="round" stroke-linejoin="round" stroke-miterlimit="10" d="
			M-198.747,28.254c0,0.332-0.268,0.6-0.6,0.6h-1.456c-0.332,0-0.6-0.268-0.6-0.6v-12.25l2.656-0.2V28.254z"/>
		
			<path fill="none" stroke="#000000" stroke-width="1.5" stroke-linecap="round" stroke-linejoin="round" stroke-miterlimit="10" d="
			M-186.973,9.495c0.029,0.331-4.332,3.34-4.662,3.369c-4.508,0.395-18.03,1.578-18.03,1.578c-0.331,0.028-0.622-0.215-0.65-0.545
			l-0.41-4.682c-0.028-0.331,0.216-0.622,0.546-0.65c0,0,13.523-1.183,18.031-1.578C-191.818,6.958-187.002,9.165-186.973,9.495
			L-186.973,9.495z"/>
		
			<path fill="none" stroke="#000000" stroke-width="1.5" stroke-linecap="round" stroke-linejoin="round" stroke-miterlimit="10" d="
			M-206.743,11.555c0.021,0.239-0.156,0.449-0.396,0.47l-0.902,0.079c-0.239,0.021-0.45-0.155-0.471-0.395l-0.079-0.903
			c-0.021-0.239,0.156-0.45,0.395-0.471l0.903-0.079c0.239-0.021,0.45,0.156,0.471,0.396L-206.743,11.555z"/>
		
			<line fill="none" stroke="#000000" stroke-width="1.5" stroke-linecap="round" stroke-linejoin="round" stroke-miterlimit="10" x1="-204.454" y1="10.899" x2="-192.002" y2="9.81"/>
		
			<path fill="none" stroke="#000000" stroke-width="1.5" stroke-linecap="round" stroke-linejoin="round" stroke-miterlimit="10" d="
			M-203.916,26.892l1.05-1.3c0,0,1.188,2.223,1.576,3.011"/>
		
			<path fill="none" stroke="#000000" stroke-width="1.5" stroke-linecap="round" stroke-linejoin="round" stroke-miterlimit="10" d="
			M-196.615,27.525l-0.738-1.283c0,0-0.861,1.85-1.762,2.565"/>
	</g>
</g>
<g id="Layer_39">
	<g>
		
			<polygon fill="none" stroke="#000000" stroke-width="1.5" stroke-linecap="round" stroke-linejoin="round" stroke-miterlimit="10" points="
			-155.383,11.378 -156.434,6.457 -151.511,7.506 		"/>
		
			<path fill="none" stroke="#000000" stroke-width="1.5" stroke-linecap="round" stroke-linejoin="round" stroke-miterlimit="10" d="
			M-139.726,11.136c3.946,3.946,3.946,10.345-0.001,14.292c0,0-1.852-3.378-1.852-7.208
			C-141.576,13.443-139.726,11.136-139.726,11.136z"/>
		
			<path fill="none" stroke="#000000" stroke-width="1.5" stroke-linecap="round" stroke-linejoin="round" stroke-miterlimit="10" d="
			M-156.171,13.052c-2.104,4.665-1.26,10.335,2.573,14.168c4.951,4.951,12.979,4.951,17.929,0c4.952-4.951,4.952-12.979,0.001-17.93
			c-3.833-3.833-9.502-4.677-14.167-2.573"/>
		
			<circle fill="none" stroke="#000000" stroke-width="1.5" stroke-linecap="round" stroke-linejoin="round" stroke-miterlimit="10" cx="-160.872" cy="0.164" r="3.604"/>
		
			<circle fill="none" stroke="#000000" stroke-width="1.5" stroke-linecap="round" stroke-linejoin="round" stroke-miterlimit="10" cx="-165.854" cy="11.958" r="3.603"/>
		
			<circle fill="none" stroke="#000000" stroke-width="1.5" stroke-linecap="round" stroke-linejoin="round" stroke-miterlimit="10" cx="-149.038" cy="-3.759" r="3.604"/>
	</g>
</g>
<g id="Layer_40">
	<g>
		
			<path fill="none" stroke="#000000" stroke-width="1.5" stroke-linecap="round" stroke-linejoin="round" stroke-miterlimit="10" d="
			M-98.854,6.743c0,0.214-0.174,0.388-0.388,0.388h-2.814c-0.215,0-0.389-0.174-0.389-0.388V3.929c0-0.215,0.174-0.389,0.389-0.389
			h2.814c0.214,0,0.388,0.174,0.388,0.389V6.743z"/>
		
			<path fill="none" stroke="#000000" stroke-width="1.5" stroke-linecap="round" stroke-linejoin="round" stroke-miterlimit="10" d="
			M-91.756,6.743c0,0.214-0.174,0.388-0.389,0.388h-2.814c-0.214,0-0.388-0.174-0.388-0.388V3.929c0-0.215,0.174-0.389,0.388-0.389
			h2.814c0.215,0,0.389,0.174,0.389,0.389V6.743z"/>
		
			<path fill="none" stroke="#000000" stroke-width="1.5" stroke-linecap="round" stroke-linejoin="round" stroke-miterlimit="10" d="
			M-84.659,6.743c0,0.214-0.174,0.388-0.389,0.388h-2.814c-0.213,0-0.388-0.174-0.388-0.388V3.929c0-0.215,0.175-0.389,0.388-0.389
			h2.814c0.215,0,0.389,0.174,0.389,0.389V6.743z"/>
		
			<path fill="none" stroke="#000000" stroke-width="1.5" stroke-linecap="round" stroke-linejoin="round" stroke-miterlimit="10" d="
			M-98.854,13.429c0,0.214-0.174,0.388-0.388,0.388h-2.814c-0.215,0-0.389-0.174-0.389-0.388v-2.814
			c0-0.215,0.174-0.389,0.389-0.389h2.814c0.214,0,0.388,0.174,0.388,0.389V13.429z"/>
		
			<path fill="none" stroke="#000000" stroke-width="1.5" stroke-linecap="round" stroke-linejoin="round" stroke-miterlimit="10" d="
			M-91.756,13.429c0,0.214-0.174,0.388-0.389,0.388h-2.814c-0.214,0-0.388-0.174-0.388-0.388v-2.814
			c0-0.215,0.174-0.389,0.388-0.389h2.814c0.215,0,0.389,0.174,0.389,0.389V13.429z"/>
		
			<path fill="none" stroke="#000000" stroke-width="1.5" stroke-linecap="round" stroke-linejoin="round" stroke-miterlimit="10" d="
			M-84.659,13.429c0,0.214-0.174,0.388-0.389,0.388h-2.814c-0.213,0-0.388-0.174-0.388-0.388v-2.814
			c0-0.215,0.175-0.389,0.388-0.389h2.814c0.215,0,0.389,0.174,0.389,0.389V13.429z"/>
		
			<path fill="none" stroke="#000000" stroke-width="1.5" stroke-linecap="round" stroke-linejoin="round" stroke-miterlimit="10" d="
			M-98.854,20.114c0,0.214-0.174,0.388-0.388,0.388h-2.814c-0.215,0-0.389-0.174-0.389-0.388V17.3c0-0.214,0.174-0.388,0.389-0.388
			h2.814c0.214,0,0.388,0.174,0.388,0.388V20.114z"/>
		
			<path fill="none" stroke="#000000" stroke-width="1.5" stroke-linecap="round" stroke-linejoin="round" stroke-miterlimit="10" d="
			M-91.756,20.114c0,0.214-0.174,0.388-0.389,0.388h-2.814c-0.214,0-0.388-0.174-0.388-0.388V17.3c0-0.214,0.174-0.388,0.388-0.388
			h2.814c0.215,0,0.389,0.174,0.389,0.388V20.114z"/>
		
			<path fill="none" stroke="#000000" stroke-width="1.5" stroke-linecap="round" stroke-linejoin="round" stroke-miterlimit="10" d="
			M-84.659,20.114c0,0.214-0.174,0.388-0.389,0.388h-2.814c-0.213,0-0.388-0.174-0.388-0.388V17.3c0-0.214,0.175-0.388,0.388-0.388
			h2.814c0.215,0,0.389,0.174,0.389,0.388V20.114z"/>
	</g>
</g>
<g id="Layer_41">
	<path fill="none" stroke="#000000" stroke-width="1.5" stroke-linecap="round" stroke-linejoin="round" stroke-miterlimit="10" d="
		M-67.836,6.743c0,0.214-0.174,0.388-0.388,0.388h-2.814c-0.215,0-0.389-0.174-0.389-0.388V3.929c0-0.215,0.174-0.389,0.389-0.389
		h2.814c0.214,0,0.388,0.174,0.388,0.389V6.743z"/>
	<path fill="none" stroke="#000000" stroke-width="1.5" stroke-linecap="round" stroke-linejoin="round" stroke-miterlimit="10" d="
		M-53.641,6.743c0,0.214-0.174,0.388-0.389,0.388h-9.912c-0.214,0-0.388-0.174-0.388-0.388V3.929c0-0.215,0.174-0.389,0.388-0.389
		h9.912c0.215,0,0.389,0.174,0.389,0.389V6.743z"/>
	<path fill="none" stroke="#000000" stroke-width="1.5" stroke-linecap="round" stroke-linejoin="round" stroke-miterlimit="10" d="
		M-67.836,13.429c0,0.214-0.174,0.388-0.388,0.388h-2.814c-0.215,0-0.389-0.174-0.389-0.388v-2.814c0-0.215,0.174-0.389,0.389-0.389
		h2.814c0.214,0,0.388,0.174,0.388,0.389V13.429z"/>
	<path fill="none" stroke="#000000" stroke-width="1.5" stroke-linecap="round" stroke-linejoin="round" stroke-miterlimit="10" d="
		M-53.641,13.429c0,0.214-0.174,0.388-0.389,0.388h-9.912c-0.214,0-0.388-0.174-0.388-0.388v-2.814c0-0.215,0.174-0.389,0.388-0.389
		h9.912c0.215,0,0.389,0.174,0.389,0.389V13.429z"/>
	<path fill="none" stroke="#000000" stroke-width="1.5" stroke-linecap="round" stroke-linejoin="round" stroke-miterlimit="10" d="
		M-67.836,20.114c0,0.214-0.174,0.388-0.388,0.388h-2.814c-0.215,0-0.389-0.174-0.389-0.388V17.3c0-0.214,0.174-0.388,0.389-0.388
		h2.814c0.214,0,0.388,0.174,0.388,0.388V20.114z"/>
	<path fill="none" stroke="#000000" stroke-width="1.5" stroke-linecap="round" stroke-linejoin="round" stroke-miterlimit="10" d="
		M-53.641,20.114c0,0.214-0.174,0.388-0.389,0.388h-9.912c-0.214,0-0.388-0.174-0.388-0.388V17.3c0-0.214,0.174-0.388,0.388-0.388
		h9.912c0.215,0,0.389,0.174,0.389,0.388V20.114z"/>
</g>
<g id="Layer_42">
	<path fill="none" stroke="#000000" stroke-width="1.5" stroke-linecap="round" stroke-linejoin="round" stroke-miterlimit="10" d="
		M-26.617,13.8c-0.332,0-0.6-0.269-0.6-0.6v-2.4c0-0.331,0.269-0.6,0.6-0.6h10.4c0.331,0,0.6,0.269,0.6,0.6v2.4
		c0,0.331-0.269,0.6-0.6,0.6H-26.617z"/>
</g>
<g id="Layer_43">
	<path fill="none" stroke="#000000" stroke-width="1.5" stroke-linecap="round" stroke-linejoin="round" stroke-miterlimit="10" d="
		M14.284,10.2h-3.4V6.8c0-0.332-0.269-0.6-0.6-0.6h-2.4c-0.331,0-0.6,0.269-0.6,0.6v3.4h-3.4c-0.332,0-0.6,0.269-0.6,0.6v2.4
		c0,0.331,0.269,0.6,0.6,0.6h3.4v3.4c0,0.332,0.269,0.6,0.6,0.6h2.4c0.331,0,0.6-0.268,0.6-0.6v-3.4h3.4c0.331,0,0.6-0.269,0.6-0.6
		v-2.4C14.883,10.469,14.615,10.2,14.284,10.2z"/>
</g>
</svg>
