<?xml version="1.0" encoding="iso-8859-1"?>
<!-- Generator: Adobe Illustrator 21.0.0, SVG Export Plug-In . SVG Version: 6.00 Build 0)  -->
<svg version="1.1" xmlns="http://www.w3.org/2000/svg" xmlns:xlink="http://www.w3.org/1999/xlink" x="0px" y="0px"
	 viewBox="0 0 22.241 30.399" style="enable-background:new 0 0 22.241 30.399;" xml:space="preserve">
<g id="Sort_x5F_default">
	<path style="fill:none;stroke:#CF4428;stroke-width:1.5;stroke-linecap:round;stroke-miterlimit:10;" d="M21.026,7.98
		c0.604,0.426,0.634,1.203,0,1.56c-1.037,0.583-5.564-1.572-9.851-1.559c-4.497,0.015-8.764,2.17-9.851,1.559
		c-0.633-0.356-0.605-1.133,0-1.56c0,0,6.568-5.371,8.757-6.912c0.604-0.426,1.584-0.422,2.188,0.004
		C14.458,2.614,21.026,7.98,21.026,7.98z"/>
	<path style="fill:none;stroke:#CF4428;stroke-width:1.5;stroke-linecap:round;stroke-miterlimit:10;" d="M1.32,22.419
		c-0.605-0.427-0.634-1.203,0-1.559c1.037-0.583,5.562,1.572,9.851,1.559c4.497-0.015,8.764-2.17,9.852-1.559
		c0.633,0.357,0.604,1.134,0,1.559c0,0-6.569,5.37-8.757,6.912c-0.605,0.427-1.584,0.422-2.189-0.004
		C7.889,27.784,1.32,22.419,1.32,22.419z"/>
	<path style="fill:none;stroke:#CF4428;stroke-width:1.5;stroke-linecap:round;stroke-miterlimit:10;" d="M5.082,16.135
		c0,0.553-0.447,1-1,1H1.75c-0.553,0-1-0.447-1-1v-2.332c0-0.553,0.447-1,1-1h2.332c0.553,0,1,0.447,1,1V16.135z"/>
	<path style="fill:none;stroke:#CF4428;stroke-width:1.5;stroke-linecap:round;stroke-miterlimit:10;" d="M13.082,16.135
		c0,0.553-0.447,1-1,1H9.75c-0.553,0-1-0.447-1-1v-2.332c0-0.553,0.447-1,1-1h2.332c0.553,0,1,0.447,1,1V16.135z"/>
	<path style="fill:none;stroke:#CF4428;stroke-width:1.5;stroke-linecap:round;stroke-miterlimit:10;" d="M21.082,16.135
		c0,0.553-0.447,1-1,1H17.75c-0.553,0-1-0.447-1-1v-2.332c0-0.553,0.447-1,1-1h2.332c0.553,0,1,0.447,1,1V16.135z"/>
</g>
<g id="Warstwa_1">
</g>
</svg>
